<svg width="350" height="350" viewBox="0 0 350 350" fill="none" xmlns="http://www.w3.org/2000/svg">
<path fill-rule="evenodd" clip-rule="evenodd" d="M58.0546 290.073C59.0458 291.261 58.8806 293.024 57.6841 294.01C56.4887 294.995 54.7146 294.831 53.7234 293.642C52.7312 292.454 52.8964 290.69 54.0929 289.704C55.2883 288.719 57.0625 288.884 58.0546 290.073Z" fill="#1EC996"/>
<path fill-rule="evenodd" clip-rule="evenodd" d="M292.051 290.073C291.06 291.261 291.225 293.024 292.421 294.01C293.617 294.995 295.391 294.831 296.382 293.642C297.374 292.454 297.208 290.69 296.012 289.704C294.817 288.719 293.043 288.884 292.051 290.073Z" fill="#1EC996"/>
<path d="M37.5137 250.275C37.6955 250.56 37.7561 250.832 37.6906 251.091C37.6261 251.351 37.4511 251.572 37.1657 251.754L24.3441 259.871L28.5512 266.434L32.0232 264.236C33.4669 263.322 34.7895 262.6 35.9869 262.072C37.1863 261.541 38.2918 261.182 39.3035 260.991C40.3161 260.798 41.2535 260.764 42.1157 260.887C42.9778 261.01 43.8038 261.262 44.5907 261.641C44.8937 261.769 45.0911 261.953 45.1859 262.194C45.2798 262.435 45.2583 262.698 45.1195 262.985C44.9826 263.271 44.792 263.446 44.5516 263.509C44.3091 263.573 44.0462 263.535 43.7559 263.399C43.1479 263.105 42.494 262.915 41.7941 262.827C41.0952 262.741 40.3142 262.786 39.453 262.962C38.5899 263.138 37.5997 263.481 36.4795 263.99C35.3584 264.5 34.07 265.218 32.6126 266.14L29.0311 268.407C28.7183 268.606 28.4261 268.675 28.1563 268.616C27.8865 268.556 27.6529 268.37 27.4525 268.058L22.3031 260.025C22.1116 259.727 22.0422 259.44 22.0969 259.167C22.1526 258.892 22.3374 258.654 22.6521 258.455L36.0318 249.984C36.3173 249.804 36.5929 249.74 36.8578 249.791C37.1217 249.843 37.3407 250.005 37.5137 250.274V250.275ZM29.2032 233.289C29.2902 233.545 29.2999 233.769 29.2305 233.961C29.1631 234.153 29.0302 234.295 28.8386 234.386C28.645 234.477 28.4016 234.51 28.1074 234.484L10.7914 232.962C10.4209 232.926 10.1345 232.832 9.93119 232.679C9.7269 232.524 9.58418 232.328 9.50208 232.088C9.42095 231.847 9.4141 231.607 9.4835 231.361C9.55291 231.115 9.72396 230.875 10.0035 230.64L22.8369 218.972C23.0499 218.758 23.264 218.628 23.481 218.583C23.699 218.537 23.8876 218.565 24.0489 218.672C24.2092 218.778 24.3324 218.959 24.4194 219.215C24.5171 219.502 24.5201 219.758 24.4282 219.985C24.3344 220.212 24.1633 220.431 23.9121 220.638L20.3951 223.792L20.575 222.665L24.0734 232.958L23.2347 232.147L27.9461 232.511C28.301 232.552 28.5776 232.628 28.776 232.738C28.9744 232.85 29.1162 233.033 29.2022 233.288L29.2032 233.289ZM11.9907 231.279L22.4283 232.068L22.1673 232.797L19.1566 223.94L19.794 224.314L11.9751 231.232L11.9907 231.28V231.279ZM19.9621 200.956C20.0022 201.29 19.9386 201.558 19.7676 201.756C19.5946 201.956 19.3414 202.075 19.0042 202.115L3.03214 204.059C2.67927 204.102 2.39776 204.047 2.19151 203.894C1.98526 203.74 1.86014 203.495 1.82007 203.162C1.77803 202.828 1.83962 202.562 2.00285 202.364C2.16609 202.167 2.42513 202.044 2.77897 202.001L9.74351 201.155L8.4376 190.548L1.47306 191.396C1.12019 191.438 0.838677 191.383 0.633406 191.23C0.427158 191.076 0.30204 190.832 0.261964 190.499C0.219932 190.164 0.281513 189.898 0.444752 189.7C0.607014 189.501 0.867023 189.38 1.21989 189.337L17.1939 187.394C17.5301 187.355 17.8048 187.41 18.0218 187.562C18.2368 187.714 18.3629 187.956 18.405 188.293C18.445 188.627 18.3815 188.893 18.2104 189.092C18.0374 189.292 17.7843 189.412 17.447 189.452L10.2303 190.33L11.5362 200.938L18.7539 200.06C19.0902 200.02 19.3648 200.071 19.5799 200.213C19.793 200.358 19.922 200.606 19.965 200.956H19.9621ZM21.6883 170.196C21.6649 170.499 21.5632 170.724 21.3814 170.871C21.2015 171.016 20.9493 171.079 20.6277 171.054L16.7491 170.76C16.0571 170.708 15.7364 170.337 15.7892 169.65L15.9143 168.011L16.1753 169.273C15.1675 168.217 13.715 167.38 11.8158 166.764C9.91751 166.148 7.48847 165.728 4.53159 165.506L1.05861 165.242C0.687167 165.215 0.411518 165.097 0.231662 164.889C0.0518057 164.681 -0.0224827 164.393 0.00586416 164.023L0.733109 154.5C0.760478 154.147 0.878753 153.878 1.08793 153.689C1.29809 153.502 1.58938 153.424 1.95985 153.451L17.7794 154.646L16.8781 155.413L17.0541 153.122C17.0795 152.787 17.188 152.531 17.3796 152.361C17.5712 152.189 17.8361 152.117 18.1733 152.143L22.0519 152.435C22.7108 152.486 23.0177 152.821 22.9698 153.443C22.9454 153.761 22.8417 153.995 22.6599 154.141C22.4801 154.289 22.2279 154.35 21.9073 154.326L18.7373 154.087L17.6015 168.95L20.7695 169.189C21.4283 169.238 21.7352 169.573 21.6873 170.195L21.6883 170.196ZM16.0082 166.779L16.7804 156.676L2.40753 155.59L1.81322 163.349L4.82973 163.576C7.55103 163.782 9.80901 164.142 11.6066 164.659C13.4022 165.173 14.8694 165.881 16.0072 166.778L16.0082 166.779ZM22.2797 134.74C22.1614 135.09 21.9786 135.326 21.7303 135.449C21.484 135.572 21.1839 135.573 20.8311 135.455L5.78961 130.447C5.45238 130.335 5.22169 130.166 5.10244 129.939C4.98319 129.713 4.97537 129.439 5.08387 129.119C5.19237 128.8 5.36245 128.586 5.59607 128.477C5.82773 128.368 6.11511 128.369 6.45234 128.483L20.8682 133.283L23.4282 125.687L9.01431 120.889C8.67513 120.776 8.4464 120.606 8.32715 120.38C8.20594 120.153 8.20007 119.879 8.30857 119.561C8.40926 119.257 8.57738 119.051 8.81198 118.942C9.04559 118.833 9.33102 118.836 9.66825 118.948L24.0841 123.747L26.6441 116.153L12.2302 111.353C11.893 111.241 11.6633 111.067 11.547 110.833C11.4287 110.598 11.4218 110.329 11.5235 110.027C11.63 109.708 11.8021 109.493 12.0357 109.384C12.2674 109.274 12.5547 109.278 12.892 109.39L27.9334 114.398C28.2883 114.516 28.5258 114.697 28.648 114.943C28.7702 115.188 28.7741 115.486 28.6548 115.837L22.2826 134.74H22.2797ZM36.8871 98.6733C36.7405 98.8996 36.5685 99.0463 36.3759 99.1133C36.1814 99.1794 35.9879 99.1639 35.7963 99.0716C35.6047 98.9773 35.4278 98.8093 35.2645 98.5645L25.697 84.141C25.4936 83.8301 25.39 83.5494 25.3842 83.2939C25.3783 83.0394 25.4448 82.8053 25.5826 82.5935C25.7214 82.3817 25.9071 82.2263 26.1437 82.1262C26.3802 82.0272 26.6764 82.0116 27.0361 82.0835L44.2104 84.8161C44.5105 84.8491 44.7471 84.9336 44.9181 85.0735C45.0892 85.2153 45.185 85.3805 45.2006 85.5709C45.2162 85.7632 45.1517 85.9721 45.0041 86.1984C44.8389 86.4529 44.6386 86.6151 44.402 86.6841C44.1655 86.7511 43.8859 86.7531 43.5663 86.689L38.8929 85.9138L39.8929 85.3523L33.9576 94.4748L34.0759 93.3179L36.719 97.2123C36.9047 97.5134 37.0171 97.7757 37.0533 97.9982C37.0895 98.2226 37.0328 98.447 36.8862 98.6723L36.8871 98.6733ZM27.7682 84.0273L33.637 92.6428L32.899 92.8924L38.0073 85.0415L38.11 85.769L27.7956 83.9855L27.7682 84.0273ZM62.0719 66.2796C61.8373 66.5234 61.588 66.6458 61.3241 66.6536C61.0602 66.6575 60.8061 66.5448 60.5617 66.3126L59.3496 65.1596L60.1766 65.1401L59.7367 65.5967C58.5764 66.8012 57.3526 67.6201 56.0682 68.0514C54.7828 68.4828 53.5014 68.541 52.2228 68.2234C50.9462 67.9057 49.7381 67.2034 48.5993 66.1213C47.7303 65.2936 47.0754 64.4261 46.6365 63.5188C46.1986 62.6106 45.9836 61.6819 45.9924 60.7357C46.0012 59.7876 46.227 58.8366 46.6688 57.8798C47.1096 56.9229 47.7743 55.9836 48.6667 55.0598L49.1066 54.6032L49.1242 55.425L48.004 54.3594C47.7479 54.1146 47.6179 53.864 47.6189 53.6075C47.6208 53.3511 47.7372 53.1024 47.9718 52.8586C48.2054 52.6167 48.4507 52.4904 48.7 52.4865C48.9522 52.4797 49.2073 52.6011 49.4634 52.8459L50.5836 53.9116L49.7733 53.9096L50.2131 53.454C51.3978 52.2252 52.6275 51.3898 53.9002 50.9449C55.1728 50.5009 56.4397 50.4465 57.6996 50.7846C58.9596 51.1197 60.1658 51.8357 61.3153 52.9304C62.1716 53.7455 62.8167 54.611 63.2507 55.5241C63.6828 56.4382 63.8978 57.3737 63.8939 58.3257C63.891 59.2786 63.674 60.2364 63.238 61.1991C62.804 62.1598 62.153 63.0914 61.2841 63.9919L60.8442 64.4495L60.81 63.6461L62.022 64.7992C62.2654 65.0323 62.3984 65.2732 62.416 65.5238C62.4336 65.7735 62.3192 66.0261 62.0729 66.2815L62.0719 66.2796ZM58.8892 64.6855L49.6178 55.8593L50.2825 55.7922L49.6687 56.4295C49.0822 57.0376 48.6423 57.6826 48.351 58.3616C48.0597 59.0416 47.9287 59.7303 47.9561 60.4327C47.9835 61.136 48.1721 61.8344 48.524 62.5309C48.873 63.2255 49.3979 63.9055 50.0948 64.5689C50.9883 65.4199 51.9237 65.9843 52.9012 66.2602C53.8767 66.538 54.8307 66.5341 55.7603 66.2534C56.6889 65.9717 57.5335 65.4345 58.2959 64.6437L58.9117 64.0045L58.8902 64.6845L58.8892 64.6855ZM60.332 63.1895L59.6311 63.2566L60.2469 62.6174C60.8217 62.0219 61.2518 61.3817 61.5372 60.6969C61.8207 60.0111 61.9478 59.3146 61.9145 58.6074C61.8803 57.8982 61.6907 57.194 61.3466 56.4936C61.0025 55.7903 60.4933 55.12 59.8208 54.4798C58.8912 53.5949 57.946 53.0101 56.9861 52.7284C56.0272 52.4428 55.0927 52.4467 54.1807 52.7323C53.2697 53.0208 52.4164 53.5774 51.6178 54.405L51.0019 55.0442L51.0596 54.3642L60.331 63.1905L60.332 63.1895ZM86.2235 45.1766C85.9615 45.3612 85.6986 45.4282 85.4337 45.3787C85.1688 45.3272 84.9381 45.165 84.7416 44.8901L75.9394 32.5716L71.2749 35.8617C71.0276 36.0376 70.7832 36.1056 70.5476 36.0648C70.313 36.0249 70.1156 35.8957 69.9582 35.6772C69.7911 35.4421 69.7334 35.2158 69.7823 34.9943C69.8331 34.7738 69.9826 34.5766 70.2309 34.4017L81.2794 26.6042C81.5286 26.4293 81.7652 26.3536 81.9929 26.3798C82.2178 26.407 82.4152 26.5372 82.5824 26.7713C82.7495 27.0044 82.8101 27.2356 82.7651 27.4619C82.7192 27.6912 82.5736 27.8932 82.3243 28.0681L77.6607 31.3602L86.461 43.6797C86.6575 43.9536 86.7396 44.2217 86.7073 44.4821C86.676 44.7424 86.5128 44.9746 86.2235 45.1795V45.1766ZM107.727 32.9611C107.418 33.099 107.142 33.1185 106.901 33.0136C106.658 32.9096 106.467 32.7047 106.327 32.3977L99.6961 17.8265C99.5494 17.504 99.5172 17.2223 99.6042 16.9794C99.6892 16.7385 99.8867 16.5471 100.195 16.4082C100.503 16.2703 100.777 16.2489 101.016 16.3441C101.254 16.4403 101.449 16.6511 101.595 16.9726L104.487 23.3266L114.285 18.9223L111.394 12.5702C111.247 12.2467 111.217 11.964 111.3 11.7221C111.387 11.4812 111.584 11.2908 111.892 11.1519C112.202 11.013 112.476 10.9916 112.714 11.0878C112.954 11.184 113.146 11.3928 113.294 11.7153L119.925 26.2865C120.065 26.5935 120.093 26.8713 120.012 27.1219C119.93 27.3716 119.735 27.5649 119.426 27.7038C119.118 27.8427 118.842 27.8612 118.599 27.7582C118.356 27.6543 118.165 27.4493 118.027 27.1423L115.03 20.5581L105.232 24.9615L108.227 31.5458C108.366 31.8527 108.4 32.1286 108.326 32.3753C108.251 32.6221 108.053 32.8164 107.728 32.963L107.727 32.9611ZM137.605 22.1959C137.338 22.2445 137.115 22.2221 136.933 22.1269C136.751 22.0327 136.63 21.8821 136.566 21.6801C136.503 21.4771 136.505 21.2332 136.572 20.9486L140.572 4.13735C140.662 3.77599 140.797 3.50885 140.979 3.32914C141.162 3.1504 141.378 3.03868 141.628 2.99303C141.879 2.94737 142.12 2.97554 142.354 3.07851C142.589 3.18148 142.804 3.38548 142.998 3.69342L152.776 17.9897C152.958 18.2306 153.058 18.4599 153.071 18.6784C153.086 18.8989 153.029 19.0806 152.901 19.2244C152.773 19.3681 152.574 19.4633 152.307 19.5129C152.007 19.5673 151.752 19.5342 151.539 19.4099C151.327 19.2856 151.133 19.0845 150.962 18.8086L148.326 14.8977L149.422 15.2357L138.67 17.199L139.598 16.4918L138.559 21.0739C138.467 21.4149 138.351 21.6772 138.213 21.8559C138.073 22.0366 137.87 22.1483 137.603 22.1969L137.605 22.1959ZM142.078 5.55658L139.793 15.7108L139.104 15.3484L148.357 13.6582L147.895 14.2313L142.126 5.54881L142.078 5.55756V5.55658ZM181.663 18.1655C181.323 18.1558 181.068 18.0528 180.895 17.8537C180.724 17.6526 180.643 17.3864 180.653 17.0503L180.853 10.434L177.855 10.3437C177.314 10.3282 176.842 10.3641 176.441 10.4515C176.039 10.5419 175.677 10.7119 175.357 10.9644C175.034 11.2151 174.739 11.5813 174.47 12.0631L171.465 17.2048C171.322 17.4525 171.139 17.6244 170.915 17.7177C170.691 17.8139 170.478 17.8391 170.277 17.8003C170.076 17.7604 169.9 17.6672 169.752 17.5195C169.603 17.3719 169.515 17.1873 169.488 16.9668C169.461 16.7492 169.527 16.4966 169.688 16.2149L172.21 11.8921C172.622 11.1801 173.082 10.6594 173.593 10.3291C174.103 9.99788 174.689 9.84343 175.349 9.86189L176.01 9.88229L175.849 10.2077C173.968 10.1523 172.516 9.6608 171.493 8.73699C170.469 7.81415 169.981 6.56005 170.031 4.97859C170.064 3.8673 170.322 2.93863 170.802 2.1955C171.282 1.45237 171.977 0.890889 172.887 0.513981C173.798 0.137073 174.887 -0.0319526 176.157 0.00496105L182.104 0.183701C182.476 0.193415 182.757 0.298328 182.948 0.497467C183.137 0.697578 183.227 0.983174 183.215 1.35231L182.737 17.1106C182.727 17.4467 182.63 17.709 182.446 17.8984C182.263 18.0878 182.002 18.1752 181.662 18.1645L181.663 18.1655ZM176.202 8.65053L180.904 8.79042L181.115 1.87104L176.414 1.73116C175.026 1.68939 173.966 1.94876 173.237 2.50926C172.508 3.06783 172.125 3.91198 172.091 5.04076C172.057 6.20063 172.385 7.08462 173.08 7.68495C173.773 8.2882 174.815 8.61071 176.203 8.6515L176.202 8.65053ZM221.002 24.911C220.711 24.8158 220.514 24.6604 220.408 24.4399C220.303 24.2194 220.299 23.9571 220.399 23.653L225.448 8.3086C225.554 7.98803 225.713 7.77432 225.926 7.66552C226.141 7.55769 226.391 7.55089 226.682 7.64512C226.938 7.72963 227.128 7.84718 227.247 8.00163C227.366 8.15511 227.451 8.37465 227.5 8.65636L230.043 23.1984L229.318 22.9633L239.992 12.7149C240.199 12.5177 240.392 12.3885 240.572 12.3322C240.751 12.2749 240.979 12.2904 241.251 12.3798C241.524 12.4682 241.716 12.6207 241.824 12.8325C241.933 13.0442 241.934 13.3114 241.828 13.6319L236.78 28.9764C236.68 29.2804 236.525 29.4922 236.317 29.6097C236.108 29.7282 235.852 29.737 235.546 29.6389C235.255 29.5437 235.057 29.3883 234.952 29.1658C234.845 28.9472 234.843 28.683 234.943 28.3799L239.384 14.8841L239.963 15.0725L230.217 24.3699C230.035 24.5419 229.871 24.6536 229.719 24.7022C229.57 24.7498 229.382 24.7381 229.156 24.6652C228.932 24.5924 228.77 24.4865 228.673 24.3486C228.576 24.2097 228.511 24.0309 228.478 23.8055L226.077 10.5322L226.658 10.7216L222.21 24.2417C222.11 24.5448 221.955 24.7575 221.746 24.8751C221.539 24.9936 221.29 25.0052 220.999 24.911H221.002ZM252.479 38.1426C252.251 37.9969 252.105 37.8259 252.038 37.6346C251.97 37.4413 251.986 37.2489 252.078 37.0585C252.173 36.8681 252.342 36.6923 252.589 36.5301L267.101 27.019C267.414 26.8169 267.696 26.7149 267.954 26.7081C268.21 26.7023 268.445 26.7684 268.658 26.9053C268.871 27.0423 269.027 27.2278 269.126 27.4619C269.227 27.697 269.244 27.9923 269.171 28.3488L266.425 45.4166C266.391 45.7158 266.306 45.9508 266.165 46.1199C266.022 46.2899 265.856 46.3851 265.664 46.4006C265.471 46.4181 265.261 46.352 265.033 46.2053C264.777 46.0402 264.613 45.843 264.544 45.607C264.477 45.3719 264.474 45.0941 264.54 44.7774L265.32 40.134L265.885 41.1278L256.704 35.2294L257.868 35.3469L253.95 37.9736C253.646 38.1601 253.382 38.2718 253.157 38.3078C252.932 38.3437 252.706 38.2874 252.479 38.1417V38.1426ZM267.215 29.0774L258.546 34.9117L258.295 34.1783L266.195 39.2549L265.463 39.3549L267.256 29.1046L267.214 29.0774H267.215ZM284.165 62.1647C282.894 60.9543 282.062 59.6497 281.671 58.2528C281.282 56.8549 281.32 55.4328 281.785 53.9883C282.252 52.5419 283.142 51.1382 284.454 49.7743C285.439 48.7543 286.459 47.9694 287.514 47.4225C288.569 46.8756 289.63 46.5677 290.694 46.4968C291.76 46.4268 292.823 46.5968 293.879 47.0097C294.937 47.4225 295.937 48.0773 296.88 48.9739C297.64 49.6976 298.258 50.4893 298.739 51.3548C299.219 52.2203 299.511 53.0995 299.614 53.9902C299.656 54.2632 299.632 54.5032 299.539 54.7081C299.447 54.9111 299.313 55.0637 299.135 55.1618C298.958 55.2609 298.771 55.3065 298.582 55.2997C298.39 55.291 298.22 55.2162 298.073 55.0773C297.926 54.9374 297.818 54.7208 297.753 54.4245C297.652 53.6512 297.422 52.9295 297.058 52.2592C296.696 51.587 296.21 50.9614 295.597 50.3785C294.631 49.4576 293.613 48.8816 292.547 48.6484C291.481 48.4153 290.402 48.5241 289.309 48.9748C288.217 49.4285 287.136 50.2066 286.069 51.314C285.002 52.4214 284.262 53.5317 283.849 54.6411C283.434 55.7514 283.368 56.8316 283.649 57.8798C283.928 58.9279 284.552 59.912 285.52 60.8329C286.119 61.4031 286.774 61.8567 287.483 62.1919C288.19 62.5299 288.941 62.7359 289.734 62.8155C290.035 62.868 290.256 62.9671 290.396 63.1138C290.537 63.2595 290.616 63.4217 290.633 63.6004C290.648 63.7782 290.612 63.956 290.526 64.1308C290.441 64.3037 290.307 64.4446 290.122 64.5505C289.939 64.6544 289.723 64.6923 289.469 64.6602C288.533 64.6097 287.61 64.3679 286.703 63.9336C285.793 63.5014 284.947 62.9107 284.163 62.1647H284.165ZM302.702 83.5309C302.514 83.2715 302.446 83.0112 302.495 82.748C302.546 82.4828 302.707 82.2535 302.982 82.0573L315.336 73.2524L312.004 68.6333C311.827 68.3866 311.755 68.1457 311.796 67.9096C311.835 67.6765 311.964 67.4803 312.184 67.3229C312.419 67.1568 312.647 67.0975 312.871 67.1451C313.094 67.1937 313.293 67.3423 313.47 67.5881L321.367 78.533C321.544 78.7797 321.622 79.0138 321.596 79.2392C321.569 79.4646 321.44 79.6608 321.207 79.8279C320.972 79.995 320.739 80.0552 320.512 80.0125C320.281 79.9678 320.078 79.825 319.899 79.5782L316.566 74.9572L304.212 83.7621C303.936 83.9583 303.668 84.0399 303.405 84.0098C303.143 83.9787 302.909 83.8194 302.701 83.5309H302.702ZM315.72 104.618C315.567 104.281 315.54 103.985 315.636 103.728C315.733 103.471 315.952 103.268 316.292 103.115L330.538 96.712C330.876 96.5605 331.175 96.5313 331.434 96.6275C331.692 96.7246 331.896 96.9432 332.05 97.2793L335.949 105.843C336.067 106.104 336.09 106.335 336.013 106.535C335.937 106.737 335.774 106.89 335.528 107.002C335.266 107.12 335.033 107.142 334.832 107.066C334.628 106.991 334.469 106.822 334.351 106.56L330.82 98.8044L325.168 101.344L328.479 108.619C328.597 108.879 328.624 109.107 328.555 109.304C328.486 109.501 328.321 109.658 328.059 109.777C327.797 109.894 327.564 109.915 327.361 109.84C327.158 109.764 326.999 109.598 326.881 109.336L323.57 102.063L317.687 104.707L321.216 112.464C321.336 112.725 321.356 112.956 321.281 113.156C321.206 113.357 321.043 113.512 320.795 113.623C320.533 113.741 320.302 113.763 320.099 113.687C319.898 113.612 319.737 113.443 319.618 113.181L315.721 104.617L315.72 104.618ZM325.978 131.156C325.901 130.828 325.938 130.555 326.087 130.34C326.237 130.124 326.477 129.98 326.808 129.903L342.34 126.34C342.686 126.259 342.967 126.29 343.181 126.431C343.397 126.572 343.542 126.806 343.618 127.135L344.975 132.969C345.404 134.824 345.279 136.356 344.596 137.569C343.911 138.779 342.735 139.577 341.067 139.959C339.415 140.339 338.011 140.133 336.853 139.344C335.698 138.556 334.903 137.234 334.472 135.38L333.347 130.53L327.276 131.922C326.945 131.998 326.668 131.975 326.438 131.855C326.21 131.734 326.058 131.501 325.977 131.157L325.978 131.156ZM335.055 130.136L336.124 134.738C336.434 136.069 336.967 137.004 337.728 137.547C338.49 138.09 339.447 138.229 340.604 137.964C341.777 137.695 342.586 137.15 343.03 136.331C343.474 135.511 343.543 134.438 343.233 133.108L342.165 128.504L335.055 130.135V130.136ZM331.641 166.866C331.507 165.122 331.765 163.598 332.412 162.299C333.061 161 334.046 159.967 335.362 159.201C336.68 158.432 338.287 157.978 340.179 157.834C341.598 157.726 342.883 157.819 344.037 158.112C345.19 158.404 346.187 158.879 347.028 159.533C347.868 160.188 348.544 161.02 349.054 162.029C349.564 163.037 349.87 164.187 349.969 165.479C350.048 166.522 349.976 167.523 349.754 168.487C349.529 169.449 349.158 170.297 348.634 171.029C348.482 171.259 348.303 171.421 348.097 171.513C347.891 171.603 347.689 171.627 347.49 171.583C347.293 171.54 347.123 171.45 346.986 171.317C346.849 171.184 346.773 171.016 346.757 170.815C346.742 170.614 346.808 170.381 346.959 170.116C347.402 169.474 347.716 168.784 347.896 168.043C348.078 167.304 348.135 166.513 348.07 165.674C347.969 164.348 347.599 163.243 346.961 162.362C346.324 161.48 345.448 160.846 344.331 160.457C343.213 160.07 341.886 159.933 340.349 160.049C338.809 160.167 337.514 160.502 336.46 161.054C335.405 161.606 334.631 162.366 334.136 163.332C333.641 164.301 333.444 165.446 333.546 166.774C333.609 167.596 333.792 168.368 334.093 169.087C334.394 169.809 334.815 170.461 335.353 171.045C335.541 171.283 335.64 171.505 335.645 171.707C335.652 171.909 335.602 172.082 335.495 172.226C335.386 172.37 335.24 172.477 335.06 172.549C334.879 172.622 334.684 172.637 334.477 172.594C334.27 172.551 334.083 172.435 333.915 172.243C333.253 171.586 332.729 170.792 332.344 169.867C331.958 168.943 331.724 167.942 331.642 166.866H331.641ZM330.9 190.965C330.942 190.631 331.069 190.388 331.283 190.237C331.499 190.083 331.775 190.029 332.11 190.071L348.11 192.013C348.463 192.056 348.717 192.175 348.872 192.373C349.026 192.569 349.083 192.835 349.042 193.171C349.002 193.506 348.882 193.748 348.685 193.903C348.486 194.056 348.209 194.112 347.856 194.069L340.816 193.215L340.39 196.675L340.061 196.023L347.369 202.205C347.587 202.384 347.719 202.579 347.77 202.788C347.821 202.997 347.815 203.201 347.748 203.396C347.68 203.593 347.566 203.747 347.406 203.864C347.249 203.98 347.062 204.039 346.848 204.039C346.635 204.037 346.419 203.947 346.202 203.769L339.459 197.987L340.236 197.292C339.994 198.297 339.526 199.122 338.83 199.768C338.137 200.412 337.219 200.939 336.077 201.344L330.889 203.13C330.601 203.232 330.358 203.245 330.153 203.169C329.949 203.093 329.798 202.966 329.701 202.783C329.604 202.602 329.556 202.404 329.556 202.192C329.556 201.98 329.62 201.781 329.744 201.592C329.871 201.404 330.066 201.265 330.333 201.181L335.326 199.52C336.416 199.144 337.216 198.669 337.731 198.093C338.247 197.519 338.558 196.774 338.672 195.854L339.024 192.996L331.858 192.125C331.521 192.085 331.268 191.969 331.093 191.778C330.922 191.586 330.856 191.317 330.899 190.964L330.9 190.965ZM325.376 218.516C325.46 218.26 325.588 218.075 325.759 217.964C325.929 217.851 326.12 217.816 326.33 217.858C326.539 217.901 326.752 218.018 326.973 218.214L339.898 229.765C340.174 230.016 340.345 230.263 340.416 230.508C340.486 230.752 340.482 230.994 340.403 231.234C340.324 231.475 340.183 231.672 339.979 231.827C339.776 231.981 339.492 232.072 339.127 232.093L321.816 233.765C321.515 233.807 321.265 233.785 321.063 233.692C320.863 233.599 320.729 233.463 320.664 233.282C320.6 233.1 320.609 232.883 320.694 232.626C320.791 232.339 320.942 232.132 321.154 232.005C321.366 231.88 321.636 231.808 321.961 231.791L326.679 231.367L325.854 232.162L329.277 221.844L329.457 222.992L325.908 219.889C325.652 219.644 325.476 219.418 325.383 219.212C325.291 219.004 325.29 218.772 325.375 218.517L325.376 218.516ZM337.923 230.395L330.054 223.534L330.704 223.107L327.758 231.986L327.475 231.308L337.907 230.443L337.922 230.395H337.923ZM307.06 258.538C307.229 258.247 307.442 258.072 307.7 258.015C307.958 257.961 308.233 258.017 308.527 258.184L314.293 261.494L315.793 258.913C316.066 258.445 316.256 258.016 316.369 257.624C316.479 257.228 316.5 256.832 316.428 256.432C316.358 256.03 316.173 255.599 315.874 255.137L312.741 250.071C312.589 249.827 312.524 249.587 312.546 249.346C312.568 249.105 312.646 248.906 312.775 248.749C312.906 248.591 313.072 248.481 313.272 248.422C313.475 248.362 313.679 248.372 313.886 248.454C314.093 248.533 314.285 248.711 314.458 248.986L317.094 253.242C317.529 253.939 317.773 254.588 317.824 255.192C317.875 255.795 317.736 256.381 317.405 256.949L317.074 257.518L316.864 257.221C317.805 255.603 318.926 254.566 320.229 254.107C321.533 253.649 322.875 253.817 324.254 254.607C325.223 255.163 325.923 255.827 326.356 256.6C326.787 257.373 326.954 258.247 326.857 259.223C326.76 260.198 326.393 261.232 325.758 262.326L322.783 267.447C322.598 267.766 322.372 267.962 322.105 268.033C321.838 268.103 321.543 268.048 321.221 267.863L307.483 259.978C307.19 259.81 307.003 259.601 306.924 259.35C306.843 259.1 306.889 258.831 307.06 258.538ZM318.077 258.269L315.726 262.316L321.758 265.779L324.11 261.731C324.805 260.535 325.077 259.485 324.926 258.58C324.776 257.678 324.209 256.945 323.225 256.38C322.213 255.798 321.275 255.668 320.413 255.993C319.551 256.313 318.772 257.073 318.077 258.269Z" fill="white"/>
<path d="M69.1885 316.923C68.6577 316.585 68.2931 316.177 68.0917 315.703C67.8914 315.226 67.8874 314.746 68.082 314.257C68.2765 313.768 68.6685 313.327 69.2589 312.937L84.4714 303.319C85.2064 302.851 85.9014 302.609 86.5524 302.591C87.2034 302.574 87.8202 302.751 88.4028 303.121C88.9854 303.49 89.3959 303.968 89.6354 304.552C89.8749 305.136 89.9443 305.863 89.8416 306.734L87.4243 324.491C87.3481 325.21 87.1272 325.767 86.7655 326.16C86.4038 326.554 85.9689 326.759 85.4655 326.773C84.9611 326.788 84.4508 326.633 83.9367 326.306C83.2524 325.871 82.8243 325.383 82.6542 324.84C82.4832 324.299 82.4714 323.596 82.6181 322.73L83.3189 318.605L84.2808 321.051L73.6947 314.316L76.3573 314.176L72.8804 316.537C72.1336 317.021 71.4992 317.313 70.9763 317.412C70.4533 317.512 69.858 317.351 69.1895 316.925L69.1885 316.923ZM85.0451 308.218L77.5088 313.397L77.5792 311.713L85.0569 316.47L83.5476 317.237L85.0979 308.251L85.0451 308.218ZM108.859 338.706C108.009 338.423 107.434 337.967 107.131 337.345C106.827 336.719 106.822 335.977 107.116 335.114L112.234 320.032C112.534 319.151 112.999 318.556 113.629 318.245C114.261 317.934 115.028 317.93 115.935 318.233L129.203 322.68C130.109 322.983 130.719 323.449 131.032 324.078C131.344 324.705 131.35 325.459 131.051 326.339L125.932 341.422C125.64 342.284 125.188 342.873 124.576 343.19C123.963 343.508 123.225 343.522 122.357 343.23C121.509 342.947 120.932 342.493 120.631 341.868C120.327 341.244 120.322 340.501 120.614 339.64L125.197 326.135L117.015 323.394L112.433 336.897C112.141 337.759 111.694 338.349 111.091 338.67C110.489 338.99 109.743 339.004 108.858 338.705L108.859 338.706ZM151.448 349.731C150.556 349.664 149.884 349.364 149.438 348.832C148.988 348.303 148.797 347.594 148.866 346.707L150.088 330.745C150.157 329.838 150.459 329.16 150.992 328.715C151.526 328.27 152.239 328.079 153.132 328.147L160.616 328.713C163.05 328.897 164.882 329.66 166.117 330.998C167.35 332.339 167.883 334.098 167.715 336.274C167.549 338.451 166.755 340.108 165.331 341.249C163.907 342.386 161.981 342.864 159.546 342.68L154.829 342.323L154.462 347.13C154.394 348.017 154.107 348.69 153.605 349.148C153.1 349.608 152.381 349.801 151.448 349.731ZM155.157 338.061L158.899 338.344C159.953 338.425 160.781 338.258 161.383 337.849C161.985 337.438 162.323 336.779 162.392 335.872C162.462 334.945 162.231 334.238 161.697 333.75C161.163 333.265 160.37 332.983 159.314 332.902L155.572 332.621L155.156 338.061H155.157ZM192.372 349.966C191.422 350.078 190.672 349.915 190.118 349.48C189.566 349.046 189.237 348.367 189.127 347.443L187.301 331.936C187.193 331.012 187.357 330.277 187.793 329.727C188.231 329.177 188.923 328.848 189.874 328.736L200.144 327.543C200.873 327.458 201.439 327.575 201.845 327.895C202.25 328.214 202.494 328.715 202.574 329.397C202.656 330.101 202.538 330.657 202.219 331.071C201.899 331.485 201.375 331.735 200.648 331.819L192.802 332.732L193.276 336.768L200.457 335.932C201.165 335.85 201.726 335.968 202.142 336.286C202.559 336.603 202.808 337.113 202.892 337.817C202.974 338.518 202.849 339.073 202.519 339.478C202.187 339.882 201.668 340.126 200.962 340.208L193.781 341.044L194.294 345.409L202.141 344.497C202.87 344.413 203.435 344.536 203.843 344.863C204.251 345.193 204.495 345.699 204.574 346.382C204.657 347.083 204.538 347.636 204.217 348.04C203.897 348.444 203.372 348.688 202.644 348.773L192.373 349.966H192.372ZM243.362 337.532C242.53 337.861 241.795 337.886 241.156 337.605C240.519 337.324 240.029 336.763 239.69 335.918L234.376 322.682L229.163 324.749L230.463 327.989C231.043 329.432 231.465 330.812 231.729 332.121C231.991 333.432 232.109 334.679 232.083 335.865C232.054 337.051 231.883 338.175 231.563 339.237C231.247 340.3 230.798 341.282 230.218 342.188C229.818 342.824 229.296 343.212 228.649 343.348C228.002 343.484 227.34 343.36 226.661 342.977C225.993 342.567 225.608 342.046 225.507 341.411C225.406 340.777 225.547 340.122 225.932 339.447C226.32 338.771 226.584 338.052 226.725 337.288C226.866 336.524 226.905 335.692 226.84 334.793C226.776 333.894 226.6 332.925 226.314 331.885C226.027 330.846 225.645 329.725 225.161 328.523L223.782 325.087C223.435 324.224 223.4 323.472 223.678 322.827C223.957 322.184 224.529 321.689 225.397 321.344L235.174 317.468C236.043 317.123 236.806 317.088 237.463 317.361C238.121 317.633 238.622 318.2 238.969 319.064L244.905 333.848C245.244 334.694 245.279 335.434 245.011 336.075C244.741 336.715 244.193 337.201 243.362 337.53V337.532ZM269.77 323.681C268.962 324.191 268.213 324.366 267.526 324.214C266.84 324.06 266.244 323.589 265.744 322.804L257.178 309.355C256.677 308.57 256.503 307.843 256.655 307.173C256.805 306.504 257.259 305.932 258.016 305.456C258.788 304.97 259.508 304.804 260.173 304.961C260.838 305.115 261.421 305.586 261.92 306.371L265.005 311.214L269.284 308.522C270.608 307.688 271.882 307.185 273.108 307.012C274.333 306.84 275.465 307.001 276.504 307.496C277.542 307.991 278.436 308.828 279.186 310.007C280.317 311.783 280.614 313.509 280.083 315.185C279.55 316.859 278.294 318.318 276.316 319.562L269.77 323.68V323.681ZM269.77 318.695L273.405 316.408C274.281 315.856 274.818 315.292 275.015 314.714C275.213 314.134 275.099 313.512 274.674 312.847C274.251 312.181 273.738 311.816 273.133 311.755C272.526 311.692 271.787 311.936 270.909 312.488L267.274 314.776L269.772 318.696L269.77 318.695Z" fill="white"/>
<path fill-rule="evenodd" clip-rule="evenodd" d="M86.8968 175.091L170.133 161.323C169.696 159.593 169.195 157.889 168.632 156.206C167.756 153.594 166.724 151.026 165.543 148.497L165.54 148.488C165.437 148.249 165.327 148.008 165.178 147.808C165.075 147.668 164.951 147.545 164.792 147.452C164.512 147.714 164.202 147.952 163.867 148.165C161.396 149.746 157.631 149.977 153.955 149.273C150.291 148.574 146.695 146.947 144.548 144.81C144.11 144.374 143.73 143.917 143.423 143.442L143.338 143.312C143.301 143.285 143.242 143.248 143.21 143.216C142.824 142.833 142.642 142.563 142.661 142.277C142.681 141.979 142.908 141.764 143.342 141.497C144.19 140.97 145.073 140.507 145.988 140.099C146.899 139.692 147.839 139.341 148.802 139.034L148.805 139.032C150.42 138.533 152.89 138.177 155.207 138.28C157.032 138.36 158.77 138.727 159.945 139.533L159.96 139.539L160.154 139.554C160.301 139.569 160.448 139.583 160.572 139.547L160.461 139.352C159.601 137.977 158.668 136.666 157.69 135.386C156.706 134.103 155.669 132.838 154.603 131.567C154.563 131.52 154.531 131.457 154.509 131.399C154.491 131.351 154.48 131.297 154.478 131.249C154.466 131.182 154.454 131.103 154.453 131.025C154.45 130.91 154.471 130.795 154.53 130.705L154.544 130.678C154.647 130.528 154.795 130.446 154.952 130.422C155.097 130.401 155.249 130.429 155.372 130.497L155.442 130.54C155.789 130.821 157.84 133.136 159.366 134.857C159.8 135.346 160.175 135.78 160.453 136.101C159.832 131.467 159.7 128.62 160.611 126.085C161.576 123.396 163.7 121.106 167.645 117.455L167.658 117.443C168.092 117.089 168.411 116.926 168.727 116.994C169.039 117.064 169.268 117.348 169.515 117.882C170.211 119.361 170.77 120.871 171.155 122.421C171.538 123.976 171.747 125.57 171.745 127.212C171.755 128.796 171.525 130.309 171.019 131.724C170.533 133.075 169.797 134.335 168.777 135.48C168.024 136.352 167.183 137.112 166.259 137.756C165.363 138.382 164.386 138.902 163.335 139.316C163.335 139.696 163.578 139.998 163.821 140.297L163.959 140.47C164.676 141.434 165.347 142.424 165.987 143.43C166.621 144.427 167.226 145.45 167.815 146.482C169.031 148.647 170.119 150.866 171.034 153.156C171.951 155.449 172.696 157.812 173.222 160.257L173.261 160.435L173.34 160.79L173.628 160.744L173.731 159.926C174.678 153.424 175.72 146.61 176.747 139.896C177.392 135.673 178.034 131.486 178.622 127.564C178.449 124.297 177.34 119.839 175.84 115.381C174.121 110.271 171.888 105.166 169.956 101.848C169.516 101.148 167.931 101.678 165.873 102.363C163.693 103.09 161.013 103.983 158.428 103.778C156.05 103.588 153.977 102.959 152.068 101.999C150.169 101.046 148.435 99.7633 146.719 98.2585C146.25 97.8729 146.011 97.5892 145.998 97.2842C145.984 96.9578 146.213 96.7043 146.677 96.3905L146.68 96.3876C147.98 95.5493 149.318 94.8178 150.708 94.2214C152.103 93.6239 153.554 93.1606 155.076 92.8594C160.3 91.8734 163.346 93.52 164.186 93.9736L164.533 94.1602L164.494 94.1155C164.398 93.9921 164.314 93.8852 164.273 93.8279C164.118 93.6288 163.972 93.418 163.826 93.2072C163.681 92.9993 163.536 92.7905 163.381 92.5933L163.378 92.5884C163.314 92.5058 163.293 92.3864 163.305 92.2834C163.318 92.1775 163.372 92.0658 163.455 91.9997C163.521 91.9492 163.605 91.9007 163.686 91.8667C163.777 91.8288 163.874 91.8093 163.962 91.821L164.011 91.8307C164.435 91.9628 164.712 92.2523 164.995 92.5486L165.162 92.7186C165.532 93.0965 165.88 93.4724 166.225 93.8474C166.575 94.2272 166.927 94.607 167.28 94.9674L167.332 95.0247C167.447 95.1491 167.565 95.2783 167.705 95.3093C167.758 95.1529 167.739 94.9791 167.723 94.8071C167.711 94.6973 167.699 94.5847 167.701 94.4632C167.697 93.6851 167.725 92.909 167.82 92.1416C167.918 91.3664 168.09 90.597 168.376 89.8432C169.422 87.1359 170.994 85.2562 172.959 83.8515C174.913 82.4566 177.244 81.5337 179.824 80.7362L179.834 80.7352C180.156 80.6478 180.405 80.6449 180.614 80.7547C180.826 80.8664 180.962 81.0723 181.052 81.3997C181.543 83.0355 181.869 84.685 181.961 86.3481C182.054 88.014 181.914 89.6936 181.469 91.3868C181.192 92.4155 180.77 93.3422 180.201 94.1747C179.633 95.0072 178.922 95.7416 178.065 96.3837L178.062 96.3857C177.122 97.0734 176.137 97.6019 175.098 97.9739C174.071 98.3421 172.992 98.5568 171.853 98.6219C170.709 98.9939 170.715 99.0046 171.462 100.143C171.571 100.307 171.677 100.478 171.78 100.647C171.874 100.799 171.966 100.95 172.071 101.109C173.889 103.672 175.471 106.34 176.776 109.134C178.083 111.932 179.112 114.86 179.827 117.94C179.839 118.006 179.845 118.091 179.853 118.16C181.627 111.54 182.923 101.221 184.048 92.2805C184.491 88.7455 184.91 85.4242 185.32 82.612L185.34 82.4605C185.47 81.4453 185.522 81.0354 185.464 80.7789C185.43 80.6255 185.337 80.4885 185.185 80.2602C185.03 80.03 184.819 79.7143 184.545 79.2043L184.536 79.1858C183.553 76.9856 183.056 74.7931 183.075 72.6074C183.094 70.4188 183.631 68.2409 184.714 66.0718C186.079 63.3732 187.622 61.8791 189.599 59.9703L189.745 59.8265C189.813 59.7605 189.885 59.7051 189.96 59.6604C190.131 59.5604 190.314 59.5206 190.492 59.5429C190.669 59.5643 190.837 59.6478 190.978 59.7877C191.038 59.8489 191.096 59.9227 191.145 60.0053C192.121 61.5372 192.947 63.1235 193.542 64.7808C194.14 66.4467 194.508 68.1885 194.563 70.0274C194.616 71.5612 194.381 73.0096 193.87 74.356C193.354 75.7111 192.557 76.9642 191.492 78.0988C190.237 79.4141 189.335 79.8911 188.674 80.2398C187.803 80.6983 187.404 80.9101 187.137 83.0025C186.876 85.2154 186.612 87.437 186.356 89.6635C186.095 91.9133 185.842 94.1504 185.6 96.3555V96.3594C185.591 96.4265 185.573 96.5071 185.552 96.6042C185.501 96.8451 185.419 97.224 185.415 97.426C185.548 97.2667 185.778 96.9015 186.232 96.4294C188.032 94.5516 191.418 91.0235 192.539 90.3765C192.71 90.2677 193.234 89.9413 193.756 89.6751C194.373 89.3594 195.011 89.1448 195.275 89.4129L195.279 89.4167C195.424 89.5731 195.425 89.7247 195.333 89.8665C195.853 89.7713 196.378 89.6489 196.588 89.5683L196.591 89.5654C198.389 88.9097 200.191 88.5697 201.999 88.524C203.804 88.4793 205.614 88.728 207.425 89.2419C209.014 89.6101 210.393 90.1502 211.608 90.769C212.825 91.3907 213.874 92.0891 214.81 92.7739C215.33 93.1237 215.709 93.4345 215.788 93.8425C215.869 94.2651 215.621 94.709 214.868 95.2685C213.171 96.5673 211.144 97.7116 209.009 98.5111C207.045 99.2484 204.982 99.6972 202.993 99.7147C198.583 99.739 195.484 97.3027 193.417 95.6756C192.209 94.7275 191.391 94.0844 191.033 94.4283C190.969 94.4924 190.913 94.5613 190.859 94.6274C190.798 94.7022 190.737 94.776 190.664 94.8528C189.552 96.137 188.525 97.4639 187.591 98.8501C186.657 100.238 185.817 101.688 185.078 103.218L185.066 103.239C184.985 103.375 184.893 103.512 184.801 103.648C184.729 103.756 184.657 103.863 184.591 103.971L183.005 118.351C182.92 119.101 182.696 120.435 182.425 122.062C181.618 126.895 180.371 134.359 181.015 136.669L181.276 136.205C181.428 135.939 181.575 135.683 181.705 135.411L181.707 135.404C182.683 133.533 183.77 131.746 184.973 130.047C186.176 128.347 187.5 126.733 188.943 125.205C190.159 123.903 191.42 122.665 192.687 121.42C193.237 120.882 193.787 120.342 194.336 119.796L193.823 119.219C193.296 118.627 192.763 118.029 192.284 117.416C191.603 116.544 191.057 115.607 190.646 114.614C190.236 113.619 189.962 112.57 189.83 111.479C189.137 105.944 191.753 102.217 193.098 100.299L193.21 100.137C193.477 99.7623 193.7 99.5544 193.964 99.501C194.247 99.4417 194.506 99.5593 194.833 99.8303L194.836 99.8342C195.067 100.031 195.295 100.23 195.496 100.411C195.714 100.607 195.928 100.811 196.131 101.024C197.076 102.001 197.975 103.025 198.738 104.139C199.507 105.261 200.144 106.478 200.554 107.831C201.208 110.044 200.646 112.365 200.258 113.97C200.096 114.642 199.969 115.172 199.957 115.441L200.252 115.238C201.853 114.128 203.472 113.008 205.203 112.062C205.376 111.959 205.564 111.882 205.738 111.81L205.99 111.702L206.066 111.712C206.096 111.715 206.137 111.72 206.188 111.736H206.192C206.256 111.755 206.322 111.787 206.377 111.844C206.482 111.937 206.545 112.053 206.562 112.178C206.577 112.31 206.54 112.441 206.44 112.559L206.427 112.573C206.235 112.77 206.031 112.944 205.832 113.111C205.106 113.737 204.359 114.339 203.618 114.949C202.368 115.976 201.109 117.009 199.9 118.035C199.848 118.082 199.794 118.124 199.737 118.164C199.684 118.203 199.627 118.245 199.601 118.291L199.71 118.281C199.863 118.263 200.021 118.234 200.177 118.201C200.346 118.164 200.497 118.125 200.627 118.088L200.638 118.085C204.636 117.111 208.22 117.385 211.298 118.416C214.997 119.657 217.968 121.994 220.058 124.58C220.364 124.858 220.487 125.132 220.44 125.404C220.394 125.673 220.184 125.899 219.819 126.087C218.063 126.987 216.261 127.741 214.394 128.254C212.525 128.767 210.591 129.036 208.576 128.968C205.976 128.889 203.693 128.24 201.749 127.044C199.798 125.843 198.189 124.092 196.941 121.809L196.923 121.767C196.904 121.713 196.877 121.664 196.839 121.614C196.809 121.577 196.774 121.538 196.73 121.502C196.354 121.499 196.087 121.739 195.783 122.011L195.55 122.216C194.636 123.203 193.741 124.206 192.873 125.226C191.999 126.253 191.158 127.296 190.358 128.357C188.308 131.062 185.959 134.559 183.934 138.127C182.255 141.088 180.796 144.103 179.912 146.763C179.148 150.992 178.646 155.517 178.184 159.994L235.005 150.594L233.339 183L255.674 139.494C256.307 138.258 257.565 137.547 258.871 137.544L282.032 137.542C284.014 137.542 285.622 139.139 285.622 141.109C285.622 143.079 284.013 144.677 282.032 144.677H261.064L233.353 198.637L232.328 230.848C232.338 231.594 232.113 232.35 231.636 232.997C230.467 234.582 228.226 234.926 226.632 233.764L193.159 209.232L129.521 227.068C129.672 228.102 129.75 229.162 129.75 230.24C129.75 236.294 127.271 241.793 123.264 245.78L123.251 245.795C119.239 249.777 113.705 252.24 107.614 252.24C101.503 252.24 95.9688 249.777 91.9612 245.795C87.9554 241.814 85.4756 236.311 85.4756 230.24C85.4756 224.176 87.9594 218.681 91.9612 214.699L91.9758 214.686C95.9825 210.707 101.513 208.241 107.614 208.241C113.723 208.241 119.259 210.706 123.265 214.686C124.467 215.881 125.532 217.212 126.434 218.656L141.173 210.422L86.8929 175.096L86.8968 175.091ZM107.618 222.784C110.088 222.784 112.274 223.97 113.642 225.797L120.173 222.15C119.599 221.271 118.937 220.459 118.196 219.723C115.49 217.034 111.749 215.37 107.618 215.37C103.482 215.37 99.737 217.033 97.0333 219.716C94.3335 222.405 92.6601 226.126 92.6601 230.236C92.6601 234.341 94.3345 238.06 97.0401 240.747C99.7439 243.436 103.488 245.1 107.618 245.1C111.759 245.1 115.501 243.44 118.196 240.762L118.208 240.747C120.905 238.07 122.576 234.351 122.576 230.236C122.576 229.828 122.558 229.424 122.527 229.025L115.064 231.118C114.624 234.816 111.459 237.688 107.618 237.688C103.478 237.688 100.119 234.351 100.119 230.236C100.119 226.121 103.477 222.785 107.618 222.785V222.784ZM226.159 199.979L201.889 206.783L225.394 224.008L226.159 199.979Z" fill="#1EC996"/>
</svg>
