<svg width="49" height="49" viewBox="0 0 49 49" fill="none" xmlns="http://www.w3.org/2000/svg">
<path d="M35.7851 24.2855C35.7979 23.8898 35.7979 23.4942 35.7086 23.0985C35.5937 22.5625 35.849 22.154 36.334 22.0392C36.7934 21.9371 37.2146 22.2179 37.3167 22.7667C37.3933 23.2006 37.5975 23.3538 38.0059 23.4559C38.9249 23.6601 39.8311 23.6856 40.7373 23.5069C40.7628 23.5069 40.8011 23.5197 40.8266 23.5069C43.341 22.856 44.9364 21.2861 45.4725 18.7462C45.9957 16.2702 45.1151 14.2408 43.1878 12.6709C42.4859 12.0966 41.669 11.7009 40.7373 11.5861C39.4099 11.3053 38.1208 11.4457 36.8955 12.02C36.5637 12.1732 36.2574 12.1732 35.9511 11.9562C35.683 11.752 35.6192 11.4712 35.6703 11.1521C35.7213 10.833 35.9383 10.6671 36.2063 10.5267C36.87 10.2076 37.572 10.0289 38.2867 9.86301C38.4144 9.86301 38.542 9.86301 38.6696 9.86301C40.0225 9.82472 40.0736 9.7609 39.8183 8.42076C39.4865 6.68496 37.8017 5.10231 36.168 5.00021C34.1387 4.60455 32.288 5.80429 31.5222 7.23378C31.2287 7.7826 30.7437 7.93576 30.2969 7.66773C29.8757 7.42523 29.7992 6.94022 30.0927 6.41693C30.2969 6.05956 30.5011 5.70219 30.8075 5.40863C31.0883 5.12784 31.1138 4.88534 30.833 4.60455C29.8247 3.1623 28.408 2.34545 26.7232 1.93702C24.1323 1.31162 21.7073 1.65623 19.4865 3.17506C18.8738 3.59625 18.376 4.11954 17.9676 4.73218C17.8272 4.93639 17.8145 5.08955 17.9931 5.281C18.3122 5.62561 18.593 6.02127 18.8228 6.44246C19.0908 6.94022 19.0014 7.41246 18.6058 7.65497C18.1718 7.91023 17.6868 7.76984 17.3933 7.27207C16.7296 6.11061 15.7596 5.34481 14.445 5.02573C11.6498 4.36204 8.91847 6.54456 8.96953 9.40353C8.96953 9.68432 9.00781 9.79919 9.36519 9.79919C10.4756 9.78643 11.5477 9.99064 12.556 10.4756C13.1048 10.7437 13.309 11.1521 13.1176 11.6116C12.9134 12.0711 12.4667 12.2115 11.9178 11.9817C9.8119 11.1138 7.7953 11.267 5.88081 12.5305C5.40857 12.8496 4.88528 12.7603 4.61725 12.3518C4.34922 11.9562 4.47686 11.5222 4.97462 11.1776C5.5745 10.7564 6.22542 10.3991 6.9274 10.2076C7.28477 10.1055 7.38688 9.95235 7.37412 9.58222C7.3103 6.68496 9.05887 4.2727 11.7774 3.49414C13.2835 3.06019 14.7385 3.21335 16.1425 3.8898C16.3467 3.99191 16.4743 4.0302 16.6402 3.7877C18.1335 1.63071 20.2905 0.520301 22.8177 0.137403C25.5873 -0.283785 28.1655 0.252272 30.4629 1.89873C31.1521 2.3965 31.7519 2.98361 32.2242 3.69835C32.3901 3.95362 32.505 4.01744 32.8113 3.87704C36.5892 2.14124 40.7245 4.31099 41.4903 8.39524C41.5669 8.7909 41.5797 9.18656 41.5541 9.58222C41.5286 9.91406 41.618 10.08 41.9626 10.1949C45.2172 11.2925 47.3104 14.2536 47.2721 17.6741C47.2338 21.5924 44.094 24.9364 40.1885 25.2427C39.3716 25.3066 38.5675 25.2427 37.7762 25.0641C37.572 25.013 37.4061 24.9492 37.3167 25.2683C36.4488 28.7016 32.556 30.297 29.5439 28.5357C29.5056 28.5101 29.4546 28.5101 29.4163 28.4846C29.2886 28.5867 29.3397 28.7271 29.3397 28.842C29.3397 31.2159 29.3269 33.5899 29.3397 35.9511C29.3525 37.0743 29.5056 38.1719 30.0034 39.193C31.0372 41.3117 32.8496 42.2306 35.1087 42.3838C35.4278 42.4093 35.7468 42.3838 36.0659 42.3838C36.0915 42.3838 36.117 42.3583 36.1425 42.3328C36.1553 42.1668 36.0021 42.0902 35.9255 41.9881C35.2618 41.0947 34.9683 40.0864 35.0449 38.9888C35.1725 37.2657 37.0232 36.2064 38.6569 36.9211C38.976 37.0615 39.2185 37.0743 39.5375 36.9339C41.3372 36.1426 43.1878 37.3806 43.1751 39.3461C43.1623 40.38 43.0602 40.6863 42.0391 42.3838C42.9453 42.3838 43.8132 42.3966 44.6684 42.3838C45.3831 42.371 46.0596 42.4987 46.6977 42.8305C47.8081 43.4304 48.5101 44.3493 48.8037 45.5874C48.8292 45.6767 48.7909 45.7788 48.9058 45.8426C48.9058 46.1617 48.9058 46.4808 48.9058 46.7999C48.6505 47.9358 47.9485 48.6378 46.7998 48.9058C31.8413 48.9058 16.87 48.9058 1.91144 48.9058C1.60512 48.7399 1.27328 48.625 1.00525 48.4208C-0.0030486 47.655 -0.156207 46.6212 0.124585 45.4725C0.545772 43.7239 2.12842 42.4476 3.92804 42.4093C4.88528 42.3838 5.82976 42.4093 6.78701 42.4093C6.86359 42.2306 6.72319 42.1541 6.64661 42.0647C6.03397 41.2734 5.71489 40.38 5.71489 39.3717C5.70213 37.4061 7.54004 36.1553 9.33966 36.9467C9.65874 37.087 9.90124 37.087 10.2203 36.9467C11.1776 36.5127 12.0965 36.6276 12.9006 37.2913C13.7685 37.9932 13.9727 38.9505 13.8068 40.0098C13.6664 40.8905 13.2963 41.6691 12.6836 42.3455C15.3256 42.6901 18.6824 41.4649 19.3843 37.6869C19.512 36.9849 19.563 36.2702 19.563 35.5555C19.563 33.2198 19.563 30.8841 19.563 28.4591C18.9376 28.7526 18.3633 29.0462 17.7124 29.1611C14.9938 29.6716 12.4156 28.1272 11.637 25.4597C11.5222 25.0641 11.3818 25.0002 10.9861 25.0896C6.60832 26.0724 2.26881 23.0092 1.70723 18.542C1.66894 18.2612 1.63065 17.9677 1.63065 17.6869C1.61789 17.087 1.94973 16.7169 2.4475 16.7296C2.94527 16.7296 3.22606 17.0615 3.25158 17.6486C3.37922 20.6352 5.37029 22.9964 8.29307 23.5325C9.23755 23.7112 10.1948 23.6346 11.1265 23.3665C11.3563 23.3027 11.4839 23.1879 11.4966 22.9454C11.4966 22.8688 11.5349 22.7922 11.5477 22.7156C11.6881 22.2051 12.0838 21.9243 12.5177 22.0136C13.0027 22.1157 13.2707 22.5369 13.1559 23.0602C13.0282 23.6601 13.0155 24.26 13.1686 24.8598C13.526 26.2255 14.4067 27.1189 15.7468 27.4763C17.0997 27.8337 18.2867 27.4763 19.295 26.5063C19.6268 26.2 19.4865 25.8426 19.5503 25.4852C19.6268 25.0641 19.4099 24.8854 19.078 24.6812C17.7379 23.8771 16.7296 22.805 16.3595 21.2223C16.2956 20.9415 16.2829 20.648 16.2956 20.3672C16.3084 19.9077 16.5892 19.6014 17.0104 19.5631C17.4316 19.5248 17.8655 19.7673 17.891 20.1885C18.0442 22.32 19.5375 23.2644 21.2733 23.8771C23.8515 24.796 26.4041 24.6429 28.8292 23.3155C29.7864 22.7922 30.565 22.0775 30.8585 20.9671C30.9096 20.7756 30.9096 20.5586 30.9351 20.3544C30.9989 19.8439 31.3563 19.5248 31.8285 19.5503C32.288 19.5759 32.5816 19.9077 32.5688 20.431C32.556 22.0647 31.6881 23.2389 30.4884 24.2217C30.3352 24.3366 30.1948 24.4897 30.0161 24.5408C29.1738 24.7833 29.3142 25.4597 29.3269 26.0724C29.3269 26.251 29.4546 26.3531 29.5694 26.468C30.3608 27.2721 31.318 27.655 32.4539 27.5657C34.1004 27.6295 35.7596 26.0085 35.7851 24.2855ZM10.1948 42.1541C10.3735 42.0647 10.5649 41.9754 10.7436 41.8733C11.5349 41.3755 12.0199 40.6608 12.1859 39.7418C12.2752 39.2313 12.0455 38.6442 11.6881 38.44C11.2669 38.1975 10.8457 38.3634 10.5522 38.6442C10.0799 39.0909 9.62045 39.1036 9.08439 38.7973C8.8036 38.4144 8.39518 38.2613 7.94846 38.3889C7.48899 38.5165 7.36135 38.9377 7.32306 39.3717C7.29754 39.6269 7.33583 39.8694 7.39964 40.1247C7.6932 41.133 8.40794 41.7456 9.31413 42.2051C9.62045 42.3455 9.90124 42.371 10.1948 42.1541ZM45.4086 47.2849C45.715 47.2977 46.0085 47.3104 46.3148 47.3104C46.9275 47.2977 47.2848 46.902 47.2465 46.3021C47.1572 44.962 45.9958 43.9792 44.6556 44.0686C44.3876 44.0686 44.1195 44.0558 43.8388 44.0558C30.884 44.0558 17.9421 44.0558 4.98739 44.0558C4.61725 44.0558 4.25988 44.043 3.88975 44.0558C2.69 44.1068 1.65618 45.1279 1.59236 46.3277C1.56683 46.9148 1.91144 47.2977 2.49855 47.3104C3.03461 47.3104 3.58343 47.2977 4.11949 47.2977C17.6613 47.2977 31.2031 47.2977 44.7322 47.2977C44.9619 47.2977 45.1917 47.2849 45.4086 47.2849ZM18.4143 42.3838C22.4348 42.3838 26.3659 42.3838 30.3863 42.3838C28.3186 40.6225 27.6677 38.3634 27.6677 35.849C27.6549 32.6327 27.6677 29.4163 27.6677 26.2128C27.6677 25.8426 27.6422 25.6767 27.1699 25.7916C25.3193 26.2383 23.4558 26.2383 21.6052 25.766C21.2095 25.6639 21.1329 25.7405 21.1457 26.1362C21.1584 29.5057 21.1584 32.8879 21.1457 36.2574C21.1457 36.9211 21.0436 37.5848 20.9032 38.2357C20.5458 39.8694 19.78 41.2734 18.4143 42.3838ZM41.5031 39.5376C41.5031 38.7335 41.0819 38.223 40.4948 38.3634C40.265 38.4144 40.0481 38.5293 39.8439 38.6569C39.0525 39.1547 39.0398 39.1547 38.2612 38.6059C37.6741 38.1847 37.0232 38.2868 36.7679 38.8611C36.6403 39.1675 36.5765 39.4865 36.653 39.8312C36.8955 41.0054 37.6613 41.7329 38.7079 42.2179C38.8483 42.2817 38.9887 42.371 39.1674 42.32C40.2778 41.9243 41.4393 40.9798 41.5031 39.5376Z" fill="#1EC996"/>
<path d="M46.7615 48.9314C47.8974 48.6761 48.5994 47.9741 48.8674 46.8254C48.8674 47.4508 48.8546 48.0635 48.8674 48.6889C48.8674 48.8931 48.8291 48.9441 48.6249 48.9314C47.9995 48.9186 47.3869 48.9314 46.7615 48.9314Z" fill="white"/>
<path d="M30.1311 12.7985C30.0545 14.5599 29.1356 16.1042 27.5785 17.304C26.7489 17.9421 25.8171 18.3761 24.8216 18.6951C24.6174 18.759 24.4132 18.81 24.209 18.7462C21.8222 18.0059 19.8822 16.7424 18.976 14.2791C18.6952 13.5133 18.5804 12.7092 18.7335 11.8923C19.1675 9.58218 21.4521 8.35691 23.5963 9.33968C24.1707 9.60771 24.5791 9.63323 25.179 9.3652C27.655 8.2548 30.1566 9.91403 30.1311 12.7985ZM20.2906 12.5688C20.38 12.9772 20.3927 13.4239 20.5587 13.8451C21.1841 15.4278 22.4476 16.2957 23.9409 16.9338C24.2728 17.0742 24.5663 17.0615 24.8854 16.9211C26.6978 16.1297 28.1656 15.0449 28.4464 12.9006C28.5612 12.0583 28.2422 11.2797 27.604 10.884C26.8254 10.399 25.8937 10.6671 25.2556 11.1776C24.4898 11.7902 24.3494 11.7775 23.5453 11.1648C22.9071 10.6798 22.1668 10.4246 21.3628 10.8075C20.648 11.1521 20.38 11.7902 20.2906 12.5688Z" fill="#1EC996"/>
<path d="M4.84699 16.7552C4.83422 14.5472 6.76147 13.2964 8.62491 14.177C8.84189 14.2791 8.99505 14.2919 9.23755 14.177C10.182 13.7048 11.1137 13.7303 11.9816 14.3812C12.8368 15.0322 13.1176 15.9384 13.0155 16.9977C12.824 18.976 11.2286 20.5842 9.14821 21.1841C9.03334 21.2223 8.88018 21.2351 8.77807 21.1968C7.11885 20.6608 5.7787 19.7418 5.12778 18.0443C4.92357 17.5848 4.85975 17.0998 4.84699 16.7552ZM11.3307 16.7041C11.3307 16.5893 11.3435 16.4744 11.3307 16.3723C11.2414 15.6576 10.7181 15.3512 10.0672 15.6193C9.914 15.6831 9.77361 15.798 9.63321 15.9001C9.09715 16.2957 8.73978 16.2957 8.22925 15.8745C7.87188 15.581 7.47622 15.364 7.01674 15.6065C6.63384 15.798 6.41687 16.4106 6.50621 16.8956C6.74871 18.1974 7.60385 18.9632 8.76531 19.4482C8.84189 19.4865 8.95676 19.5121 9.0461 19.4738C10.0927 19.1036 11.3307 18.1464 11.3307 16.7041Z" fill="#1EC996"/>
<path d="M43.9025 17.4189C43.4686 19.2568 42.2433 20.3545 40.5585 21.0437C40.1246 21.2224 39.7289 21.2351 39.2822 21.0564C37.6485 20.4055 36.4105 19.3717 35.9382 17.6104C35.4532 15.8235 36.2701 14.3047 37.891 13.9218C38.5164 13.7814 39.0908 13.9218 39.6396 14.2026C39.831 14.3047 39.9714 14.2919 40.1629 14.2026C41.2222 13.6793 42.2178 13.7686 43.124 14.5472C43.2516 14.7003 43.3792 14.8663 43.5069 15.0194C44.0301 15.7597 44.0301 16.5765 43.9025 17.4189ZM37.4826 16.6531C37.4826 18.0954 38.644 19.0909 39.7927 19.4866C39.8693 19.5121 39.9842 19.4866 40.0735 19.4483C41.235 18.9633 42.1029 18.1975 42.3199 16.8829C42.3964 16.4106 42.2943 15.9511 41.8732 15.6448C41.4903 15.3513 41.0946 15.53 40.7628 15.7469C39.8821 16.3085 39.8948 16.3213 39.0269 15.7342C38.4526 15.3385 37.9293 15.4278 37.6358 15.9511C37.5081 16.1936 37.4698 16.4361 37.4826 16.6531Z" fill="#1EC996"/>
<path d="M43.9027 17.4189C44.0303 16.5765 44.0303 15.7596 43.507 15.0194C43.3921 14.8535 43.2517 14.7003 43.1241 14.5471C43.3156 14.3812 43.1241 14.2663 43.0475 14.1387C42.5115 13.207 41.8223 12.4284 40.9416 11.8286C40.8522 11.7647 40.7501 11.7265 40.7246 11.5861C41.6563 11.7009 42.4732 12.0966 43.1752 12.6709C45.1024 14.2408 45.9831 16.2702 45.4598 18.7463C44.9237 21.2861 43.3283 22.856 40.814 23.5069C40.7884 23.5197 40.7501 23.5069 40.7246 23.5069C41.1969 23.0602 41.6819 22.639 42.1286 22.1796C43.2007 21.0692 43.775 19.729 43.8899 18.1974C43.9154 17.9422 44.1324 17.6869 43.9027 17.4189Z" fill="#D3F7EC"/>
<path d="M36.1426 5.01294C37.7763 5.11505 39.461 6.69769 39.7929 8.43349C40.0481 9.76087 39.9971 9.82469 38.6442 9.87574C38.5165 9.87574 38.3889 9.87574 38.2613 9.87574C38.3251 8.54836 38.006 7.33585 37.2275 6.25098C36.9977 5.94466 36.7042 5.70216 36.4489 5.42136C36.334 5.29373 36.1681 5.20439 36.1426 5.01294Z" fill="#D3F7EC"/>
<path d="M35.7852 24.2855C35.7597 25.9957 34.1132 27.6294 32.4285 27.6039C32.9262 27.0806 33.4495 26.5829 33.7431 25.8936C33.9728 25.3704 34.177 24.8471 34.1643 24.2599C34.1515 23.9409 34.2409 23.877 34.5599 23.9919C34.9428 24.1451 35.3385 24.3238 35.7852 24.2855Z" fill="#D3F7EC"/>
<path d="M26.6848 1.96252C28.3696 2.35819 29.7863 3.1878 30.7946 4.63005C30.4372 4.6811 30.1819 4.93637 29.8884 5.10229C29.7352 5.19163 29.6587 5.19163 29.5565 5.01295C28.9311 3.78767 28.0122 2.83043 26.8252 2.12845C26.7742 2.10292 26.7359 2.01358 26.6848 1.96252Z" fill="#D3F7EC"/>
<path d="M3.18777 13.5899C3.64724 13.5899 3.99185 13.9473 3.97909 14.4068C3.97909 14.8663 3.60895 15.2109 3.16224 15.2109C2.71553 15.1981 2.35815 14.828 2.35815 14.3813C2.35815 13.9218 2.71553 13.5772 3.18777 13.5899Z" fill="#1EC996"/>
<path d="M45.4086 47.2849C45.1916 47.2849 44.9619 47.2977 44.7449 47.2977C31.2031 47.2977 17.6613 47.2977 4.13221 47.2977C3.59615 47.2977 3.04733 47.3105 2.51128 47.3105C1.92417 47.3105 1.57956 46.9276 1.60509 46.3277C1.6689 45.128 2.68996 44.1069 3.90247 44.0558C4.27261 44.0431 4.62998 44.0558 5.00011 44.0558C17.9548 44.0558 30.8968 44.0558 43.8515 44.0558C44.1195 44.0558 44.3875 44.0686 44.6683 44.0686C44.6811 44.209 44.796 44.2856 44.8598 44.3877C45.4597 45.2684 45.8808 46.1873 45.4086 47.2849Z" fill="white"/>
<path d="M18.4143 42.3839C19.78 41.2734 20.5585 39.8695 20.9159 38.223C21.0563 37.5721 21.1584 36.9084 21.1584 36.2447C21.1584 32.8752 21.1712 29.493 21.1584 26.1235C21.1584 25.7406 21.2222 25.6512 21.6179 25.7533C23.4686 26.2256 25.332 26.2256 27.1827 25.7788C27.6549 25.664 27.6804 25.8299 27.6804 26.2C27.6677 29.4164 27.6677 32.6327 27.6804 35.8363C27.6804 38.3507 28.3314 40.6098 30.399 42.3711C26.3531 42.3839 22.422 42.3839 18.4143 42.3839ZM25.2554 32.2243C25.2554 31.5989 25.2682 30.9863 25.2554 30.3609C25.2427 29.7482 24.9108 29.3526 24.4003 29.3653C23.9153 29.3781 23.5834 29.761 23.5834 30.3481C23.5707 31.5861 23.5707 32.8242 23.5834 34.075C23.5834 34.6876 23.928 35.0833 24.4386 35.0705C24.9236 35.0577 25.2427 34.6876 25.2554 34.0877C25.2554 33.4623 25.2554 32.8497 25.2554 32.2243ZM25.2554 38.3634C25.2299 38.0316 25.2937 37.6997 25.2044 37.3679C25.1023 36.9595 24.8342 36.7297 24.4258 36.717C24.0174 36.7042 23.7111 36.9212 23.6345 37.3424C23.5196 38.0061 23.5196 38.6697 23.6345 39.3334C23.7111 39.7291 23.9791 39.9588 24.413 39.9588C24.847 39.9588 25.0767 39.7036 25.1916 39.3207C25.2937 38.9888 25.2299 38.6697 25.2554 38.3634Z" fill="#D3F7EC"/>
<path d="M41.5032 39.5375C41.4521 40.9926 40.2779 41.9243 39.1803 42.3072C39.0143 42.371 38.8612 42.2689 38.7208 42.2051C37.6742 41.7201 36.9084 40.9926 36.6659 39.8183C36.6021 39.4737 36.6531 39.1419 36.7808 38.8483C37.0233 38.274 37.687 38.1719 38.2741 38.5931C39.0526 39.1546 39.0526 39.1419 39.8567 38.6441C40.0609 38.5165 40.2779 38.4016 40.5076 38.3506C41.082 38.2229 41.5032 38.7335 41.5032 39.5375Z" fill="#D3F7EC"/>
<path d="M9.07154 38.7846C9.59483 39.0909 10.0543 39.0781 10.5393 38.6314C10.8329 38.3506 11.2541 38.1847 11.6752 38.4272C12.0454 38.6314 12.2624 39.2185 12.173 39.729C12.0071 40.648 11.5221 41.3627 10.7308 41.8605C10.5648 41.9754 10.3734 42.052 10.1819 42.1413C10.0798 42.0264 9.97773 41.9116 9.87562 41.7839C9.16088 40.916 8.7014 39.9588 9.07154 38.7846Z" fill="#D3F7EC"/>
<path d="M9.07168 38.7846C8.70155 39.9588 9.16103 40.916 9.87577 41.7967C9.97787 41.9243 10.08 42.0392 10.1821 42.1541C9.9013 42.3838 9.6205 42.3455 9.30142 42.1924C8.39523 41.7457 7.69325 41.1203 7.38693 40.112C7.31035 39.8567 7.28483 39.6142 7.31035 39.3589C7.34864 38.925 7.47628 38.5038 7.93575 38.3762C8.38247 38.2485 8.79089 38.4017 9.07168 38.7846Z" fill="white"/>
<path d="M45.4085 47.2849C45.8808 46.1873 45.4596 45.2683 44.847 44.3877C44.7704 44.2856 44.6683 44.209 44.6555 44.0686C45.9957 43.9665 47.1571 44.962 47.2465 46.3022C47.2847 46.902 46.9274 47.2977 46.3147 47.3105C46.0084 47.3105 45.7149 47.2977 45.4085 47.2849Z" fill="#D3F7EC"/>
<path d="M20.2905 12.5688C20.3799 11.7902 20.6351 11.1521 21.3626 10.8075C22.1667 10.4246 22.8942 10.6671 23.5452 11.1648C24.3492 11.7775 24.4896 11.7902 25.2554 11.1776C25.8936 10.6671 26.8253 10.4118 27.6039 10.8841C28.242 11.2797 28.5611 12.0583 28.4463 12.9007C28.1655 15.0449 26.6977 16.1298 24.8853 16.9211C24.5662 17.0615 24.2727 17.0742 23.9408 16.9338C22.4475 16.2957 21.184 15.4278 20.5586 13.8451C20.4054 13.4239 20.3799 12.9772 20.2905 12.5688Z" fill="#D3F7EC"/>
<path d="M11.3307 16.7042C11.3307 18.1464 10.0926 19.1037 9.03328 19.4866C8.9567 19.5121 8.84183 19.4866 8.75249 19.461C7.59103 18.976 6.73589 18.2102 6.49339 16.9084C6.40405 16.4106 6.62102 15.8108 7.00392 15.6193C7.47616 15.3768 7.85906 15.5938 8.21643 15.8873C8.72696 16.2958 9.08433 16.3085 9.62039 15.9129C9.76079 15.8108 9.90118 15.6959 10.0543 15.6321C10.7053 15.364 11.2286 15.6831 11.3179 16.3851C11.3434 16.4872 11.3307 16.5893 11.3307 16.7042Z" fill="#D3F7EC"/>
<path d="M37.4825 16.6531C37.4698 16.4361 37.5081 16.1936 37.6357 15.9639C37.9293 15.4406 38.4398 15.364 39.0269 15.7469C39.8948 16.334 39.882 16.3213 40.7627 15.7597C41.0946 15.5427 41.4902 15.364 41.8731 15.6576C42.2815 15.9639 42.3964 16.4234 42.3198 16.8956C42.1028 18.1975 41.2349 18.9633 40.0735 19.461C39.9969 19.4993 39.882 19.5248 39.7927 19.4993C38.6568 19.0909 37.4953 18.0954 37.4825 16.6531Z" fill="#D3F7EC"/>
<path d="M25.2555 32.2243C25.2555 32.8497 25.2683 33.4623 25.2555 34.0877C25.2428 34.6748 24.9109 35.0577 24.4387 35.0705C23.9409 35.0832 23.5963 34.6876 23.5835 34.0749C23.5708 32.8369 23.5708 31.5989 23.5835 30.3481C23.5835 29.761 23.9154 29.3781 24.4004 29.3653C24.8982 29.3525 25.2428 29.7482 25.2555 30.3608C25.2555 30.9862 25.2555 31.5989 25.2555 32.2243Z" fill="#1EC996"/>
<path d="M25.2553 38.3633C25.2298 38.6824 25.2936 39.0015 25.2043 39.3078C25.0894 39.6907 24.8597 39.946 24.4257 39.946C23.9918 39.946 23.7237 39.7162 23.6472 39.3206C23.5195 38.6569 23.5323 37.9932 23.6472 37.3295C23.7237 36.9211 24.03 36.7041 24.4385 36.7041C24.8469 36.7169 25.1149 36.9466 25.217 37.355C25.2936 37.6869 25.2298 38.0315 25.2553 38.3633Z" fill="#1EC996"/>
</svg>
