<svg width="49" height="49" viewBox="0 0 49 49" fill="none" xmlns="http://www.w3.org/2000/svg">
<path d="M12.7061 48.9615C12.2596 48.9615 11.8131 48.9615 11.3666 48.9615C11.3155 48.9233 11.2773 48.8722 11.2262 48.8595C9.46576 48.3747 8.49622 47.2011 8.07524 45.4533C6.45509 38.6921 4.80942 31.9308 3.16376 25.1696C2.66623 23.1157 2.16871 21.049 1.67118 18.9951C1.54361 18.4466 1.76048 18.0128 2.23249 17.898C2.7045 17.7832 3.08722 18.0639 3.2403 18.6124C3.26582 18.7017 3.29133 18.791 3.31684 18.8931C4.35017 23.1539 5.37074 27.402 6.40406 31.6629C7.51393 36.2427 8.6238 40.8225 9.73366 45.4023C10.0398 46.678 11.0349 47.4052 12.3233 47.3414C12.3999 47.3286 12.4764 47.3286 12.553 47.3031C17.9747 45.9891 23.3965 44.6879 28.8055 43.3739C29.9281 43.106 31.0508 42.8254 32.2372 42.532C31.9948 42.4171 31.8289 42.4554 31.6503 42.4554C28.0528 42.4554 24.4426 42.3916 20.8451 42.4809C18.4595 42.532 16.1888 40.8991 16.2653 37.8884C16.3674 33.7806 16.2908 29.6601 16.2908 25.5523C16.2908 25.3482 16.278 25.144 16.2908 24.9272C16.3036 24.672 16.2143 24.5827 15.9464 24.6593C15.3468 24.8124 14.7344 24.9527 14.1349 25.0803C13.6118 25.1951 13.1908 24.9654 13.076 24.5317C12.9485 24.0342 13.1908 23.6515 13.7521 23.5111C14.4793 23.3198 15.1937 23.1284 15.9336 22.9626C16.2015 22.8988 16.3036 22.784 16.3036 22.5161C16.2908 21.9548 16.2908 21.4062 16.3036 20.8449C16.3163 20.5005 16.227 20.3984 15.8698 20.4877C15.0534 20.7046 14.2242 20.8832 13.4077 21.0745C13.3312 21.0873 13.2546 21.1256 13.1781 21.1383C12.6423 21.2276 12.2213 21.0107 12.132 20.5642C12.0172 20.0667 12.2723 19.684 12.8209 19.5437C13.7649 19.3013 14.6962 19.0334 15.653 18.8548C16.2015 18.7527 16.3674 18.5104 16.3163 17.9873C16.2781 17.6046 16.3036 17.2219 16.3036 16.8392C16.3036 16.1886 16.3036 16.2013 15.6912 16.3417C14.5303 16.6223 13.3694 16.903 12.2085 17.1581C11.5452 17.3112 11.0349 16.8264 11.1752 16.1886C11.2518 15.8186 11.5197 15.6528 11.8769 15.5635C13.1908 15.2445 14.5048 14.9129 15.8188 14.6067C16.176 14.5301 16.3291 14.3771 16.3036 13.9943C16.2781 13.4713 16.2781 12.9483 16.3036 12.4125C16.3163 12.0935 16.227 11.9787 15.8953 12.068C15.3213 12.2211 14.7472 12.3359 14.1731 12.4763C13.2419 12.6931 12.3106 12.9227 11.3921 13.1524C11.0221 13.2417 10.6649 13.2672 10.3715 12.9355C9.93778 12.438 10.2184 11.7491 10.9328 11.5705C12.553 11.175 14.1731 10.7668 15.806 10.3841C16.1505 10.3075 16.3163 10.1545 16.3036 9.77175C16.2781 8.70015 16.2781 7.64131 16.3036 6.56972C16.3036 6.19976 16.227 6.09771 15.8443 6.19976C13.6628 6.73556 11.4814 7.24585 9.29992 7.78164C7.69253 8.17711 6.08513 8.57258 4.47774 8.96805C4.12054 9.04459 3.76334 9.09562 3.40614 9.19768C2.4366 9.49109 1.84978 10.1417 1.64567 11.1368C1.58188 11.4302 1.59464 11.7363 1.65842 12.0298C1.76048 12.6038 1.54361 12.9993 1.0716 13.1013C0.586827 13.2034 0.267899 12.961 0.0892993 12.387C0.0765422 12.3359 0.0255142 12.2849 0 12.2339C0 11.7619 0 11.2771 0 10.8051C0.0892996 10.7668 0.102058 10.6903 0.114815 10.6137C0.599585 8.90427 1.74772 7.93473 3.46993 7.5265C7.60323 6.55696 11.7238 5.52364 15.8571 4.54134C16.2143 4.45204 16.3546 4.32447 16.3546 3.95452C16.4056 2.15577 17.541 0.701457 19.276 0.178416C19.4163 0.140145 19.5949 0.152901 19.7097 0.0125732C28.3207 0.0125732 36.9318 0.0125732 45.5301 0.0125732C45.6449 0.165658 45.849 0.127387 46.0021 0.178416C47.4054 0.612157 48.3239 1.53067 48.7831 2.92119C48.8469 3.1253 48.9107 3.34217 48.9745 3.54629C48.9745 15.4104 48.9745 27.2617 48.9745 39.1258C48.8341 39.1896 48.8469 39.3427 48.8086 39.4575C48.2218 41.3073 46.7675 42.4044 44.8284 42.4554C44.1906 42.4682 43.5527 42.4809 42.9149 42.4554C42.5449 42.4427 42.4173 42.5447 42.4301 42.9274C42.4556 44.2031 42.4046 45.4789 42.4556 46.7546C42.4939 47.7751 42.2005 48.5533 41.2309 48.987C40.9758 48.987 40.7206 48.987 40.4655 48.987C39.9552 48.7829 39.5597 48.4257 39.1898 48.0303C38.8581 47.6858 38.5137 47.3541 38.182 47.0225C37.5569 46.3974 37.5696 46.4101 36.919 47.0225C36.1791 47.7113 35.605 48.5916 34.6355 48.9998C34.3804 48.9998 34.1252 48.9998 33.8701 48.9998C32.9005 48.5661 32.5816 47.7751 32.6454 46.7546C32.6964 46.0912 32.6582 45.4151 32.6582 44.7517C32.6582 44.1521 32.6582 44.1521 32.0968 44.2924C26.8409 45.5681 21.585 46.8311 16.3291 48.1068C15.1044 48.3619 13.9052 48.6681 12.7061 48.9615ZM42.5449 40.797C43.221 40.797 43.8844 40.797 44.5605 40.797C44.9943 40.8353 45.428 40.7842 45.8235 40.6056C46.8696 40.1336 47.3288 39.2917 47.3288 38.169C47.3288 26.8662 47.3288 15.5635 47.3288 4.27344C47.3288 4.18414 47.3288 4.08209 47.3288 3.99279C47.2395 2.60226 46.1169 1.59445 44.7519 1.671C44.5988 1.65824 44.4329 1.64548 44.2799 1.64548C36.396 1.64548 28.4993 1.64548 20.6155 1.64548C18.9698 1.64548 17.9747 2.64053 17.962 4.29896C17.962 15.6017 17.962 26.8918 17.962 38.1945C17.962 38.4497 17.9747 38.7048 18.0258 38.9472C18.3064 40.1081 19.2632 40.8225 20.5772 40.8225C23.4475 40.8353 26.3179 40.8225 29.1882 40.8225C30.196 40.8225 31.1911 40.8098 32.1989 40.8225C32.4796 40.8225 32.6454 40.7715 32.6326 40.4398C32.6199 39.2917 32.6199 38.1435 32.6326 36.9954C32.6326 36.804 32.5816 36.6892 32.3775 36.5999C31.4207 36.2044 30.9487 35.4645 30.987 34.4312C30.9997 34.0995 30.8466 33.9082 30.5788 33.7423C29.3668 33.0152 29.0479 31.867 29.7368 30.6423C29.9154 30.3234 29.9026 30.0683 29.724 29.7494C29.0479 28.5629 29.3668 27.3893 30.5532 26.6749C30.8594 26.4963 30.9997 26.2667 30.9997 25.9095C31.0125 24.5572 31.9055 23.6642 33.245 23.6515C33.6022 23.6515 33.8318 23.5366 34.0232 23.2177C34.7376 22.0313 35.8985 21.7124 37.0976 22.3758C37.4038 22.5544 37.6589 22.5671 37.9906 22.3885C39.2153 21.7124 40.3762 22.0186 41.0906 23.2305C41.2564 23.4984 41.4478 23.6387 41.7795 23.6515C43.2465 23.6897 44.0502 24.4934 44.1013 25.986C44.114 26.2922 44.2033 26.5091 44.484 26.6494C45.0708 26.9428 45.4535 27.4148 45.6449 28.0399C45.7342 28.4226 45.7214 28.8181 45.6449 29.2008C45.1856 29.8642 45.1346 30.5275 45.6194 31.1909C45.6321 31.2164 45.6449 31.2547 45.6449 31.2802C45.7214 31.6374 45.7214 31.9946 45.6449 32.3646C45.4535 32.9897 45.0963 33.4617 44.5095 33.7678C44.2033 33.9209 44.0885 34.1633 44.0885 34.495C44.114 35.5156 43.642 36.23 42.7107 36.6127C42.5066 36.6892 42.4556 36.804 42.4556 36.9954C42.4684 38.2456 42.4684 39.5085 42.4811 40.7587C42.4939 40.7587 42.5194 40.7715 42.5449 40.797ZM40.7206 35.2604C41.0906 35.1839 41.4606 35.0818 41.8433 35.0946C42.226 35.1073 42.4556 34.8905 42.4428 34.5078C42.4046 33.4872 42.8511 32.7728 43.7313 32.288C44.063 32.1094 44.1523 31.816 43.9482 31.4716C43.4251 30.6168 43.4124 29.7621 43.9482 28.9074C44.1523 28.5757 44.0885 28.2823 43.7441 28.0909C42.8511 27.6189 42.4173 26.8918 42.4428 25.884C42.4556 25.4757 42.226 25.2589 41.8177 25.2589C41.4478 25.2589 41.0906 25.2078 40.7334 25.1185C40.4527 24.9017 40.1721 24.672 39.8787 24.4552C39.3556 23.4984 39.3429 23.4856 38.3861 23.9831C38.3351 24.0087 38.284 24.0469 38.2202 24.0852C37.5186 24.2638 36.868 24.1745 36.2557 23.779C35.9112 23.5622 35.605 23.6387 35.4137 23.9959C34.9417 24.8634 34.2273 25.2844 33.2322 25.2589C32.8368 25.2461 32.5816 25.4502 32.5944 25.8712C32.6199 26.879 32.1989 27.6062 31.3059 28.0909C30.9742 28.2695 30.8849 28.5629 31.089 28.8946C31.6248 29.7494 31.6248 30.5913 31.1018 31.4588C30.8849 31.816 30.987 32.1094 31.3442 32.3008C32.2117 32.7728 32.6326 33.4872 32.6071 34.4822C32.5944 34.8777 32.8112 35.1073 33.2322 35.0946C34.2145 35.0818 34.9417 35.49 35.4137 36.3575C35.605 36.7147 35.9112 36.8168 36.2557 36.5872C36.8042 36.2172 37.4038 36.1534 38.0417 36.23C38.3096 36.3575 38.5774 36.4851 38.8453 36.6127C39.1515 36.7658 39.3939 36.702 39.5853 36.4213C39.6873 36.2682 39.7639 36.0896 39.8532 35.9238C40.1211 35.6942 40.4017 35.4645 40.7206 35.2604ZM39.1898 38.3604C38.7688 38.3476 38.3606 38.2711 38.0034 38.0287C37.6717 37.7991 37.3783 37.8373 37.0338 38.0287C36.1919 38.5135 35.3627 38.4497 34.5717 37.8756C34.4952 37.8118 34.4314 37.6843 34.2911 37.748C34.2911 40.899 34.2911 44.0373 34.2911 47.1883C34.3549 47.1755 34.3931 47.1755 34.4186 47.15C35.0437 46.5377 35.6688 45.9126 36.2939 45.3002C37.0466 44.5603 38.0034 44.5603 38.756 45.2747C38.8709 45.3895 38.9857 45.4916 39.1132 45.5937C39.6618 46.1167 40.2104 46.627 40.7717 47.1628C40.7717 44.0118 40.7717 40.8608 40.7717 37.646C40.2614 38.0797 39.7639 38.3221 39.1898 38.3604Z" fill="#1EC996"/>
<path d="M48.9491 3.53371C48.8853 3.3296 48.8215 3.11273 48.7577 2.90862C48.2984 1.51809 47.3799 0.599582 45.9766 0.165841C45.8236 0.114812 45.6195 0.153085 45.5046 0C46.5762 0 47.6351 0.0127571 48.7067 0C48.9108 0 48.9491 0.0382705 48.9491 0.242384C48.9491 1.33949 48.9491 2.4366 48.9491 3.53371Z" fill="white"/>
<path d="M45.6194 28.0145C45.4153 27.3894 45.0453 26.9174 44.4585 26.624C44.1906 26.4837 44.0886 26.2668 44.0758 25.9607C44.0248 24.4808 43.2211 23.6644 41.754 23.6261C41.4223 23.6133 41.231 23.4858 41.0651 23.2051C40.338 21.9932 39.1898 21.687 37.9652 22.3631C37.6462 22.5417 37.3911 22.529 37.0722 22.3504C35.8858 21.687 34.7121 22.006 33.9977 23.1924C33.8063 23.4985 33.5767 23.6261 33.2195 23.6261C31.88 23.6389 30.987 24.5319 30.9743 25.8841C30.9743 26.2541 30.8339 26.4709 30.5278 26.6495C29.3414 27.3639 29.0224 28.5376 29.6986 29.724C29.8772 30.0429 29.8899 30.2981 29.7113 30.617C29.0352 31.8417 29.3541 32.9898 30.5533 33.717C30.8212 33.8828 30.9743 34.0742 30.9615 34.4058C30.9232 35.4392 31.3953 36.1791 32.352 36.5746C32.5562 36.6639 32.6072 36.7787 32.6072 36.97C32.6072 38.1182 32.5944 39.2663 32.6072 40.4144C32.6072 40.7589 32.4541 40.8099 32.1734 40.7971C31.1656 40.7844 30.1706 40.7971 29.1628 40.7971C26.2924 40.7971 23.4221 40.7971 20.5517 40.7971C19.2377 40.7971 18.281 40.0828 18.0003 38.9219C17.9365 38.6795 17.9365 38.4116 17.9365 38.1692C17.9365 26.8664 17.9365 15.5764 17.9365 4.27359C17.9365 2.61517 18.9316 1.62012 20.59 1.62012C28.4739 1.62012 36.3705 1.62012 44.2544 1.62012C44.4075 1.62012 44.5733 1.63287 44.7264 1.64563C44.8157 1.79872 44.8923 1.96456 44.9943 2.09213C45.4918 2.71723 45.6832 3.44438 45.6832 4.22256C45.6832 11.9661 45.6832 19.6969 45.6832 27.4405C45.696 27.6446 45.7342 27.8359 45.6194 28.0145ZM35.4648 9.78466C32.6837 9.78466 29.8899 9.78466 27.1089 9.78466C26.4838 9.78466 26.1011 10.1163 26.1011 10.6266C26.1138 11.1114 26.4838 11.4176 27.0961 11.4303C27.1599 11.4303 27.2237 11.4303 27.2875 11.4303C32.7475 11.4303 38.2075 11.4303 43.6803 11.4303C43.8717 11.4303 44.063 11.4303 44.2544 11.392C44.6371 11.3027 44.854 11.0476 44.8668 10.6394C44.8795 10.2439 44.6881 9.96326 44.3054 9.84844C44.1141 9.79741 43.8972 9.78466 43.6931 9.78466C40.9503 9.7719 38.2075 9.78466 35.4648 9.78466ZM35.5158 5.71514C32.773 5.71514 30.043 5.71514 27.3002 5.71514C27.1471 5.71514 26.9813 5.70239 26.8282 5.7279C26.4072 5.77893 26.1648 6.03407 26.1138 6.4423C26.0755 6.85053 26.2669 7.15669 26.6624 7.28427C26.8027 7.33529 26.9685 7.34805 27.1344 7.34805C32.6965 7.34805 38.2458 7.34805 43.8079 7.34805C44.012 7.34805 44.2289 7.34805 44.4075 7.24599C44.7392 7.06739 44.8923 6.78674 44.8412 6.41678C44.7902 6.04683 44.5733 5.80444 44.2034 5.74066C44.0375 5.70239 43.8589 5.71514 43.6803 5.71514C40.9631 5.71514 38.2458 5.71514 35.5158 5.71514ZM35.5286 13.8669C32.7858 13.8669 30.0558 13.8669 27.313 13.8669C27.1727 13.8669 27.0196 13.8542 26.8792 13.8797C26.42 13.9307 26.1011 14.2752 26.1011 14.6961C26.1011 15.1299 26.4327 15.4488 26.892 15.4871C27.0323 15.4998 27.1727 15.4871 27.3257 15.4871C32.773 15.4871 38.2203 15.4871 43.6676 15.4871C43.8207 15.4871 43.9865 15.4998 44.1396 15.4743C44.5606 15.4233 44.8412 15.1171 44.854 14.7089C44.8667 14.3007 44.6244 13.9562 44.2161 13.8797C44.0503 13.8414 43.8717 13.8542 43.6931 13.8542C40.9631 13.8669 38.2458 13.8669 35.5286 13.8669ZM29.0097 17.962C28.3208 17.962 27.6447 17.9492 26.9558 17.962C26.4455 17.9747 26.1138 18.2809 26.1011 18.7274C26.0883 19.1866 26.4327 19.5693 26.943 19.5693C28.2825 19.5821 29.6093 19.5821 30.9488 19.5693C31.459 19.5693 31.8162 19.1866 31.8162 18.7401C31.8035 18.2809 31.459 17.962 30.9232 17.9492C30.2854 17.9492 29.6475 17.962 29.0097 17.962ZM22.0316 9.78466C22.0316 9.79741 22.0316 9.79741 22.0316 9.78466C21.7254 9.78466 21.4192 9.75914 21.1258 9.79741C20.6793 9.84844 20.3859 10.1929 20.3859 10.6011C20.3859 11.0093 20.6793 11.3665 21.1258 11.4048C21.7126 11.4431 22.2995 11.4431 22.8863 11.4048C23.3455 11.3793 23.6262 11.0476 23.6389 10.6266C23.6517 10.1929 23.3583 9.84844 22.8863 9.79741C22.6056 9.75914 22.325 9.78466 22.0316 9.78466ZM22.0188 17.962C21.7381 17.962 21.4447 17.9492 21.1641 17.962C20.7303 17.9875 20.4114 18.3191 20.3859 18.7146C20.3604 19.0973 20.6283 19.4928 21.0365 19.5438C21.6871 19.6331 22.3377 19.6204 22.9883 19.5438C23.4221 19.4928 23.6772 19.1101 23.6389 18.6763C23.6007 18.2809 23.3073 17.9875 22.8863 17.9492C22.5929 17.9492 22.3122 17.962 22.0188 17.962ZM22.006 7.3353C22.006 7.34805 22.006 7.34805 22.006 7.3353C22.2739 7.3353 22.5418 7.3353 22.8225 7.3353C22.848 7.3353 22.8863 7.33529 22.9118 7.32254C23.371 7.24599 23.6645 6.90155 23.6389 6.45505C23.6134 6.03407 23.3073 5.7279 22.8608 5.70239C22.2994 5.67687 21.7509 5.68963 21.1896 5.70239C20.7303 5.71514 20.3986 6.05958 20.3859 6.48057C20.3731 6.90155 20.6921 7.27151 21.1513 7.30978C21.432 7.36081 21.7254 7.3353 22.006 7.3353ZM22.0188 13.8669C21.7381 13.8669 21.4447 13.8542 21.1641 13.8669C20.7048 13.9052 20.3859 14.2624 20.3859 14.6834C20.3859 15.1171 20.7176 15.4616 21.1768 15.4743C21.7381 15.4998 22.2867 15.4998 22.848 15.4743C23.32 15.4616 23.6262 15.1299 23.6389 14.6834C23.6517 14.2369 23.3455 13.9052 22.8735 13.8669C22.5929 13.8542 22.3122 13.8669 22.0188 13.8669Z" fill="white"/>
<path d="M12.3106 47.3161C12.2723 47.0737 12.0555 46.9589 11.9279 46.7803C11.6217 46.321 11.4304 45.8235 11.3028 45.2877C10.3843 41.4733 9.46578 37.6717 8.54727 33.8701C6.82507 26.7516 5.10286 19.6332 3.36789 12.5147C3.06172 11.2518 3.31687 10.1546 4.26089 9.23614C4.33743 9.1596 4.40122 9.05754 4.465 8.981C6.0724 8.58553 7.67979 8.1773 9.28718 7.79459C11.4686 7.27154 13.6629 6.76126 15.8316 6.21271C16.2143 6.12341 16.3036 6.21271 16.2908 6.58266C16.2781 7.65426 16.2653 8.7131 16.2908 9.78469C16.3036 10.1674 16.1377 10.3077 15.7933 10.397C14.1604 10.7797 12.5402 11.188 10.9201 11.5834C10.1929 11.762 9.91228 12.4509 10.3588 12.9485C10.6394 13.2674 11.0094 13.2546 11.3793 13.1653C12.3106 12.9485 13.2419 12.7188 14.1604 12.4892C14.7345 12.3489 15.3085 12.2341 15.8826 12.081C16.2143 11.9917 16.3036 12.0937 16.2908 12.4254C16.2781 12.9485 16.2653 13.4842 16.2908 14.0073C16.3163 14.39 16.1633 14.5431 15.8061 14.6196C14.4921 14.9258 13.1781 15.2575 11.8641 15.5764C11.5069 15.6657 11.239 15.8316 11.1625 16.2015C11.0221 16.8394 11.5324 17.3114 12.1958 17.1711C13.3567 16.9032 14.5176 16.6353 15.6785 16.3546C16.2908 16.2143 16.2908 16.2015 16.2908 16.8521C16.2908 17.2348 16.2653 17.6175 16.3036 18.0003C16.3546 18.5233 16.1888 18.7657 15.6402 18.8677C14.6834 19.0463 13.7522 19.3142 12.8081 19.5566C12.2596 19.697 12.0044 20.0797 12.1193 20.5772C12.2213 21.0237 12.6295 21.2406 13.1653 21.1513C13.2419 21.1385 13.3184 21.113 13.395 21.0875C14.2114 20.8961 15.0406 20.7175 15.8571 20.5007C16.2143 20.4114 16.3036 20.5134 16.2908 20.8579C16.2653 21.4192 16.2781 21.9677 16.2908 22.529C16.2908 22.7969 16.1888 22.9245 15.9209 22.9755C15.1937 23.1414 14.4666 23.3327 13.7394 23.5241C13.1909 23.6772 12.9485 24.0599 13.0633 24.5447C13.1653 24.9784 13.5991 25.208 14.1221 25.0932C14.7345 24.9656 15.334 24.8253 15.9336 24.6722C16.2015 24.5957 16.2781 24.685 16.2781 24.9401C16.2653 25.1442 16.2781 25.3483 16.2781 25.5652C16.2781 29.673 16.3546 33.7935 16.2526 37.9013C16.176 40.8992 18.4468 42.5449 20.8324 42.4939C24.4299 42.4173 28.0401 42.4684 31.6376 42.4684C31.8035 42.4684 31.982 42.4301 32.2244 42.5449C31.038 42.8383 29.9154 43.1062 28.7928 43.3869C23.371 44.7009 17.962 46.0021 12.5402 47.3161C12.4765 47.3033 12.3999 47.3161 12.3106 47.3161ZM10.7798 25.3228C10.7925 24.7743 10.3715 24.3916 9.82298 24.4809C9.2234 24.5829 8.63657 24.736 8.0625 24.9018C7.616 25.0294 7.43741 25.4632 7.55222 25.8969C7.66703 26.2796 8.0625 26.5348 8.49624 26.4455C9.05756 26.3306 9.60611 26.1776 10.1674 26.0372C10.5374 25.9352 10.7287 25.6673 10.7798 25.3228ZM7.55222 22.478C8.02423 22.3632 8.66209 22.2356 9.27443 22.0315C9.69541 21.8912 9.81023 21.5212 9.73368 21.1002C9.65714 20.7303 9.27443 20.4241 8.87896 20.5007C8.26662 20.6155 7.66703 20.7685 7.08021 20.9471C6.65922 21.0747 6.49338 21.4192 6.56992 21.8529C6.63371 22.2356 6.95264 22.478 7.55222 22.478ZM8.7769 17.4389C8.78966 16.8139 8.35592 16.4439 7.78185 16.546C7.23329 16.648 6.69749 16.7883 6.1617 16.9414C5.7152 17.069 5.49833 17.49 5.60039 17.911C5.7152 18.3319 6.09791 18.5998 6.54441 18.5105C7.09296 18.3957 7.62876 18.2682 8.16456 18.1151C8.54727 18.013 8.76414 17.7451 8.7769 17.4389ZM5.49833 14.5558C6.09791 14.4538 6.74852 14.3135 7.37362 14.0966C7.7946 13.9435 7.90942 13.5608 7.80736 13.1526C7.7053 12.7443 7.38638 12.5147 6.99091 12.5785C6.35305 12.6806 5.7152 12.8464 5.10286 13.0505C4.70739 13.1781 4.56706 13.5353 4.65636 13.9435C4.74566 14.3262 5.01356 14.5431 5.49833 14.5558Z" fill="#D3F7EC"/>
<path d="M45.6197 28.0145C45.7345 27.8487 45.6962 27.6446 45.6962 27.4532C45.6962 19.7097 45.6962 11.9789 45.6962 4.23531C45.6962 3.44437 45.5049 2.72998 45.0073 2.10488C44.9053 1.96455 44.8288 1.81147 44.7395 1.65838C46.1045 1.58184 47.2398 2.58965 47.3164 3.98017C47.3164 4.06947 47.3164 4.17153 47.3164 4.26083C47.3164 15.5636 47.3164 26.8664 47.3164 38.1564C47.3164 39.2791 46.8571 40.121 45.811 40.593C45.4156 40.7716 44.9818 40.8227 44.5481 40.7844C45.3901 40.0572 45.709 39.1132 45.6962 38.0289C45.6835 36.3194 45.6962 34.5972 45.6962 32.8877C45.6962 32.6964 45.7345 32.505 45.6197 32.3264C45.6962 31.9692 45.6962 31.612 45.6197 31.2421C45.7345 30.5532 45.7473 29.8516 45.6069 29.1627C45.6962 28.78 45.709 28.3973 45.6197 28.0145Z" fill="#D3F7EC"/>
<path d="M39.1003 45.6067C38.9854 45.5046 38.8579 45.3898 38.7431 45.2878C37.9904 44.5606 37.0336 44.5734 36.2809 45.3133C35.6558 45.9256 35.0307 46.5507 34.4056 47.163C34.3929 47.1758 34.3546 47.1758 34.2781 47.2013C34.2781 44.0503 34.2781 40.8993 34.2781 37.7611C34.4312 37.6973 34.4822 37.8376 34.5587 37.8886C35.3497 38.4627 36.1789 38.5265 37.0209 38.0417C37.3653 37.8376 37.6587 37.8121 37.9904 38.0417C38.3476 38.2841 38.7558 38.3606 39.1768 38.3734C39.1768 40.6187 39.1768 42.8639 39.1768 45.1219C39.1896 45.275 39.2151 45.4536 39.1003 45.6067Z" fill="white"/>
<path d="M45.6322 32.3391C45.7343 32.5177 45.7088 32.7091 45.7088 32.9004C45.7088 34.6099 45.696 36.3321 45.7088 38.0415C45.7215 39.1259 45.4026 40.0699 44.5606 40.7971C43.8845 40.7971 43.2211 40.7971 42.545 40.7971C42.5195 40.7715 42.4812 40.7588 42.4557 40.7333C42.4429 39.4831 42.4429 38.2201 42.4302 36.9699C42.4302 36.7658 42.494 36.6638 42.6853 36.5872C43.6166 36.1918 44.0886 35.4901 44.0631 34.4695C44.0503 34.1251 44.1779 33.8955 44.4841 33.7424C45.0709 33.4362 45.4409 32.9515 45.6322 32.3391Z" fill="white"/>
<path d="M39.1006 45.6067C39.2154 45.4536 39.1899 45.275 39.1899 45.0964C39.1899 42.8511 39.1899 40.6059 39.1899 38.3479C39.764 38.2969 40.2615 38.0672 40.759 37.6462C40.759 40.861 40.759 44.012 40.759 47.163C40.1977 46.6527 39.6491 46.1297 39.1006 45.6067Z" fill="#D3F7EC"/>
<path d="M40.7075 33.934C38.6409 35.5669 36.268 35.3118 34.6734 34.1637C32.4537 32.569 31.9689 29.4946 33.5891 27.2876C35.1709 25.1189 38.2582 24.6469 40.4396 26.2543C40.5672 26.3436 40.6948 26.4456 40.8223 26.5349C40.8478 26.0629 40.8351 25.5909 40.7458 25.1316C40.4651 24.9148 40.1845 24.6851 39.8911 24.4683C39.368 23.5115 39.3553 23.4987 38.3985 23.9963C38.3475 24.0218 38.2964 24.06 38.2326 24.0983C37.531 24.2769 36.8804 24.1876 36.268 23.7921C35.9236 23.5753 35.6174 23.6518 35.4261 24.009C34.9541 24.8765 34.2397 25.2975 33.2446 25.272C32.8491 25.2592 32.594 25.4633 32.6068 25.8843C32.6323 26.8921 32.2113 27.6193 31.3183 28.104C30.9866 28.2826 30.8973 28.576 31.1014 28.9077C31.6372 29.7625 31.6372 30.6044 31.1142 31.4719C30.8973 31.8291 30.9994 32.1225 31.3566 32.3139C32.224 32.7859 32.645 33.5003 32.6195 34.4953C32.6068 34.8908 32.8236 35.1204 33.2446 35.1077C34.2269 35.0949 34.9541 35.5032 35.4261 36.3706C35.6174 36.7278 35.9236 36.8299 36.268 36.6003C36.8166 36.2303 37.4162 36.1665 38.054 36.2431C38.3219 36.3706 38.5898 36.4982 38.8577 36.6258C39.1639 36.7789 39.4063 36.7151 39.5976 36.4344C39.6997 36.2813 39.7762 36.1027 39.8655 35.9369C40.1334 35.6817 40.4141 35.4394 40.733 35.248C40.7458 34.827 40.9754 34.3805 40.7075 33.934Z" fill="white"/>
<path d="M45.6195 29.1754C45.7598 29.8643 45.7471 30.5659 45.6322 31.2548C45.6195 31.2293 45.6195 31.191 45.6067 31.1655C45.1092 30.4894 45.1602 29.826 45.6195 29.1754Z" fill="white"/>
<path d="M42.4558 40.7334C42.4813 40.7589 42.5196 40.7717 42.5451 40.7972C42.5196 40.7717 42.4941 40.7589 42.4558 40.7334Z" fill="#D3F7EC"/>
<path d="M2.46213 15.5125C2.46213 15.959 2.06666 16.3417 1.63292 16.3162C1.21194 16.3034 0.854736 15.9335 0.854736 15.5125C0.854736 15.0532 1.22469 14.7088 1.68395 14.7215C2.11769 14.7215 2.46213 15.0787 2.46213 15.5125Z" fill="#1EC996"/>
<path d="M35.4647 9.78472C38.2074 9.78472 40.9375 9.78472 43.6802 9.78472C43.8843 9.78472 44.1012 9.78472 44.2926 9.84851C44.6753 9.96332 44.8666 10.244 44.8539 10.6394C44.8411 11.0349 44.6243 11.3028 44.2415 11.3921C44.0629 11.4304 43.8588 11.4304 43.6675 11.4304C38.2074 11.4304 32.7474 11.4304 27.2746 11.4304C27.2108 11.4304 27.147 11.4304 27.0833 11.4304C26.4709 11.4049 26.101 11.1115 26.0882 10.6267C26.0754 10.1292 26.4582 9.78472 27.096 9.78472C29.8898 9.77197 32.6836 9.78472 35.4647 9.78472Z" fill="#1EC996"/>
<path d="M35.5159 5.71518C38.2332 5.71518 40.9632 5.71518 43.6804 5.71518C43.859 5.71518 44.0376 5.70242 44.2035 5.74069C44.5734 5.81723 44.7903 6.04686 44.8413 6.41682C44.8924 6.78677 44.7393 7.06743 44.4076 7.24603C44.2162 7.34808 44.0121 7.34808 43.808 7.34808C38.2459 7.34808 32.6966 7.34808 27.1345 7.34808C26.9814 7.34808 26.8156 7.33533 26.6625 7.2843C26.267 7.14397 26.0629 6.85056 26.1139 6.44233C26.1522 6.0341 26.4073 5.77896 26.8283 5.72793C26.9814 5.71518 27.1472 5.71518 27.3003 5.71518C30.0431 5.71518 32.7859 5.71518 35.5159 5.71518Z" fill="#1EC996"/>
<path d="M35.5288 13.8669C38.2461 13.8669 40.9761 13.8669 43.6934 13.8669C43.872 13.8669 44.0506 13.8542 44.2164 13.8924C44.6246 13.969 44.867 14.3134 44.8542 14.7216C44.8415 15.1299 44.5608 15.436 44.1399 15.4871C43.9868 15.4998 43.8209 15.4998 43.6678 15.4998C38.2206 15.4998 32.7733 15.4998 27.326 15.4998C27.1857 15.4998 27.0326 15.4998 26.8923 15.4998C26.433 15.4615 26.1013 15.1299 26.1013 14.7089C26.1013 14.2879 26.4202 13.9307 26.8795 13.8924C27.0198 13.8797 27.1602 13.8797 27.3132 13.8797C30.0433 13.8669 32.786 13.8669 35.5288 13.8669Z" fill="#1EC996"/>
<path d="M29.0098 17.962C29.6476 17.962 30.2855 17.9492 30.9234 17.962C31.4592 17.9747 31.8036 18.2937 31.8164 18.7529C31.8291 19.1994 31.4719 19.5821 30.9489 19.5821C29.6094 19.5949 28.2826 19.5949 26.9431 19.5821C26.4329 19.5694 26.0884 19.1994 26.1012 18.7402C26.1139 18.2937 26.4456 17.9747 26.9559 17.9747C27.6448 17.9492 28.3337 17.962 29.0098 17.962Z" fill="#1EC996"/>
<path d="M22.0312 9.78478C22.3118 9.78478 22.6052 9.75926 22.8859 9.78478C23.3579 9.83581 23.6513 10.1802 23.6386 10.614C23.6258 11.035 23.3451 11.3667 22.8859 11.3922C22.2991 11.4304 21.7122 11.4304 21.1254 11.3922C20.6789 11.3667 20.3855 10.9967 20.3855 10.5885C20.3855 10.1802 20.6789 9.83581 21.1254 9.78478C21.4316 9.77202 21.725 9.79753 22.0312 9.78478C22.0312 9.79753 22.0312 9.79753 22.0312 9.78478Z" fill="#1EC996"/>
<path d="M22.0189 17.962C22.2996 17.962 22.593 17.9492 22.8737 17.962C23.3074 17.9875 23.588 18.2809 23.6263 18.6891C23.6646 19.1101 23.4094 19.5056 22.9757 19.5566C22.3251 19.6331 21.6745 19.6331 21.0239 19.5566C20.6156 19.5056 20.3605 19.1101 20.3733 18.7274C20.3988 18.3192 20.7177 18.0002 21.1514 17.9747C21.4576 17.9492 21.7383 17.962 22.0189 17.962Z" fill="#1EC996"/>
<path d="M22.0058 7.33522C21.7251 7.33522 21.4317 7.36074 21.151 7.33522C20.6918 7.29695 20.3729 6.927 20.3856 6.50601C20.3984 6.08503 20.7301 5.74059 21.1893 5.72783C21.7506 5.71507 22.2992 5.71507 22.8605 5.72783C23.307 5.74059 23.6132 6.05951 23.6387 6.4805C23.6642 6.927 23.3708 7.27144 22.9115 7.34798C22.886 7.34798 22.8477 7.36074 22.8222 7.36074C22.5543 7.34798 22.2737 7.34798 22.0058 7.33522C22.0058 7.34798 22.0058 7.34798 22.0058 7.33522Z" fill="#1EC996"/>
<path d="M22.0184 13.8669C22.2991 13.8669 22.5925 13.8541 22.8731 13.8669C23.3324 13.9051 23.6386 14.2496 23.6386 14.6833C23.6258 15.1298 23.3196 15.4615 22.8476 15.4743C22.2863 15.4998 21.7378 15.4998 21.1764 15.4743C20.7172 15.4615 20.3855 15.1043 20.3855 14.6833C20.3855 14.2623 20.7044 13.9051 21.1637 13.8669C21.4443 13.8541 21.7377 13.8669 22.0184 13.8669Z" fill="#1EC996"/>
<path d="M10.7795 25.3228C10.7413 25.6673 10.5499 25.9352 10.1672 26.0372C9.61863 26.1775 9.05732 26.3306 8.49601 26.4454C8.06227 26.5347 7.66679 26.2924 7.55198 25.8969C7.42441 25.4631 7.61577 25.0294 8.06226 24.9018C8.63633 24.7232 9.23592 24.5829 9.82274 24.4808C10.3713 24.3788 10.7795 24.7615 10.7795 25.3228Z" fill="#1EC996"/>
<path d="M7.55195 22.478C6.96512 22.478 6.63344 22.2356 6.56965 21.8401C6.50587 21.4064 6.67171 21.062 7.07993 20.9344C7.66676 20.7558 8.2791 20.6027 8.87869 20.4879C9.27416 20.4114 9.65687 20.7175 9.73341 21.0875C9.82271 21.5085 9.69514 21.8912 9.27415 22.0187C8.66181 22.2356 8.02396 22.3632 7.55195 22.478Z" fill="#1EC996"/>
<path d="M8.77658 17.4389C8.76382 17.7451 8.54695 18.013 8.177 18.115C7.6412 18.2681 7.1054 18.3957 6.55685 18.5105C6.11035 18.5998 5.71488 18.3319 5.61282 17.9109C5.49801 17.4899 5.72763 17.0689 6.17413 16.9414C6.70993 16.7883 7.24573 16.6479 7.79428 16.5459C8.36835 16.4438 8.78934 16.8138 8.77658 17.4389Z" fill="#1EC996"/>
<path d="M5.49807 14.5558C5.0133 14.5431 4.73265 14.3262 4.6561 13.9307C4.5668 13.5225 4.71989 13.1653 5.1026 13.0377C5.71494 12.8336 6.3528 12.6678 6.99065 12.5657C7.38612 12.5019 7.70505 12.7316 7.8071 13.1398C7.90916 13.5608 7.79435 13.9307 7.37336 14.0838C6.74827 14.3134 6.09766 14.4538 5.49807 14.5558Z" fill="#1EC996"/>
<path d="M40.8224 26.5347C41.0775 26.8409 41.3454 27.1343 41.6005 27.4404C41.6261 27.4404 41.6643 27.4532 41.6898 27.4532H41.6771C41.8429 27.9762 42.1619 28.4227 42.2767 28.9713C42.4808 29.7495 42.4298 30.5277 42.3532 31.3186C42.1108 31.8927 41.894 32.4922 41.5623 33.028C41.2816 33.3342 40.9882 33.6404 40.7076 33.9466C38.6409 35.5795 36.2681 35.3243 34.6734 34.1762C32.4537 32.5815 31.9689 29.5071 33.5891 27.3001C35.171 25.1314 38.2582 24.6594 40.4397 26.2668C40.5672 26.3433 40.6948 26.4454 40.8224 26.5347ZM37.531 26.9429C35.694 26.9429 34.2525 28.3972 34.2652 30.2215C34.278 32.0075 35.7578 33.4745 37.5438 33.4618C39.3298 33.449 40.7969 31.982 40.7969 30.196C40.7969 28.41 39.3298 26.9429 37.531 26.9429Z" fill="#1EC996"/>
<path d="M43.9354 28.9203C44.1395 28.5886 44.0758 28.2952 43.7313 28.1039C42.8383 27.6319 42.4046 26.9047 42.4301 25.8969C42.4428 25.4887 42.2132 25.2718 41.805 25.2718C41.435 25.2718 41.0778 25.2208 40.7206 25.1315C40.8099 25.6035 40.8227 26.0627 40.7972 26.5347C41.0523 26.8409 41.3202 27.1343 41.5754 27.4405C41.6009 27.4405 41.6392 27.4533 41.6647 27.4533H41.6519C41.8178 27.9763 42.1367 28.4228 42.2515 28.9714C42.4556 29.7495 42.4046 30.5277 42.328 31.3187C42.4046 31.5738 42.4173 31.8034 42.4046 32.0075C42.4301 31.8034 42.4046 31.5738 42.328 31.3187C42.0857 31.8927 41.8688 32.4923 41.5371 33.0281C41.2564 33.3343 40.963 33.6405 40.6824 33.9466C40.9503 34.3931 40.7206 34.8396 40.6951 35.2861C41.0651 35.2096 41.435 35.1075 41.8178 35.1203C42.2005 35.133 42.4301 34.9162 42.4173 34.5334C42.3791 33.5129 42.8256 32.7985 43.7058 32.3137C44.0375 32.1351 44.1268 31.8417 43.9227 31.4973C43.4124 30.617 43.4124 29.775 43.9354 28.9203Z" fill="#D3F7EC"/>
<path d="M41.6904 27.4533C41.6649 27.4533 41.6266 27.4406 41.6011 27.4406C41.6266 27.4406 41.6521 27.4533 41.6904 27.4533Z" fill="white"/>
<path d="M37.5315 26.943C39.3175 26.943 40.7973 28.4101 40.7846 30.1961C40.7846 31.982 39.3175 33.4491 37.5315 33.4619C35.7455 33.4746 34.2657 32.0076 34.2529 30.2216C34.2529 28.3973 35.7072 26.943 37.5315 26.943Z" fill="white"/>
</svg>
