<svg width="122" height="122" viewBox="0 0 122 122" fill="none" xmlns="http://www.w3.org/2000/svg">
<path fill-rule="evenodd" clip-rule="evenodd" d="M20.2362 101.111C20.5817 101.525 20.5241 102.14 20.107 102.483C19.6903 102.827 19.0719 102.769 18.7264 102.355C18.3806 101.941 18.4382 101.326 18.8552 100.983C19.2719 100.639 19.8903 100.696 20.2362 101.111Z" fill="#1EC996"/>
<path fill-rule="evenodd" clip-rule="evenodd" d="M101.8 101.111C101.455 101.525 101.512 102.14 101.93 102.483C102.346 102.827 102.965 102.769 103.31 102.355C103.656 101.941 103.598 101.326 103.181 100.983C102.765 100.639 102.146 100.696 101.8 101.111Z" fill="#1EC996"/>
<path d="M13.0762 87.2387C13.1396 87.3382 13.1607 87.433 13.1379 87.5231C13.1154 87.6138 13.0544 87.6907 12.9549 87.7544L8.48567 90.5838L9.95213 92.8714L11.1624 92.1051C11.6656 91.7865 12.1266 91.5349 12.544 91.3507C12.9621 91.1658 13.3474 91.0405 13.7001 90.9742C14.0531 90.9068 14.3798 90.8949 14.6803 90.9376C14.9808 90.9806 15.2687 91.0683 15.543 91.2007C15.6487 91.245 15.7175 91.3094 15.7505 91.3934C15.7832 91.4773 15.7757 91.5691 15.7274 91.669C15.6797 91.7689 15.6132 91.8298 15.5294 91.8518C15.4449 91.8738 15.3532 91.8606 15.2521 91.8132C15.0401 91.711 14.8122 91.6446 14.5682 91.6141C14.3246 91.584 14.0524 91.5996 13.7522 91.6612C13.4513 91.7225 13.1062 91.842 12.7157 92.0194C12.3249 92.1972 11.8758 92.4474 11.3678 92.7688L10.1194 93.5591C10.0104 93.6285 9.90852 93.6525 9.81448 93.6319C9.72044 93.6109 9.63901 93.5462 9.56916 93.4372L7.77424 90.6373C7.70746 90.5333 7.68327 90.4334 7.70235 90.3383C7.72177 90.2424 7.78617 90.1595 7.89588 90.0901L12.5597 87.1374C12.6592 87.0744 12.7552 87.0521 12.8476 87.07C12.9396 87.088 13.0159 87.1445 13.0762 87.2383V87.2387ZM10.1794 81.3178C10.2097 81.4072 10.2131 81.4851 10.1889 81.5521C10.1654 81.6191 10.1191 81.6686 10.0523 81.7004C9.98484 81.7319 9.9 81.7434 9.79744 81.7343L3.76156 81.204C3.63243 81.1915 3.5326 81.1586 3.46173 81.1051C3.39052 81.0513 3.34077 80.9829 3.31215 80.8993C3.28387 80.8153 3.28149 80.7317 3.30568 80.646C3.32987 80.56 3.3895 80.4763 3.48694 80.3944L7.96027 76.3274C8.03455 76.2529 8.10917 76.2075 8.18481 76.1916C8.26079 76.1757 8.32655 76.1855 8.38277 76.2228C8.43865 76.2597 8.48158 76.323 8.5119 76.412C8.54597 76.5123 8.547 76.6013 8.51497 76.6806C8.48226 76.7595 8.42263 76.836 8.33507 76.9081L7.10915 78.0076L7.17185 77.6148L8.39129 81.2027L8.09895 80.9199L9.74123 81.0466C9.86491 81.0611 9.96133 81.0875 10.0305 81.1258C10.0997 81.1647 10.1491 81.2287 10.1791 81.3174L10.1794 81.3178ZM4.17963 80.6172L7.81785 80.8922L7.72688 81.1464L6.67746 78.059L6.89961 78.1894L4.17418 80.601L4.17963 80.6175V80.6172ZM6.95821 70.0476C6.97218 70.1641 6.95004 70.2572 6.89041 70.3263C6.8301 70.396 6.74185 70.4377 6.62431 70.4516L1.05692 71.1291C0.933917 71.144 0.835789 71.125 0.763897 71.0715C0.692005 71.018 0.648393 70.9327 0.634423 70.8166C0.619772 70.7001 0.641237 70.6073 0.698138 70.5382C0.755038 70.4695 0.84533 70.4268 0.968671 70.4119L3.39631 70.117L2.94111 66.4194L0.513467 66.715C0.390466 66.7299 0.292339 66.7106 0.220787 66.6575C0.148895 66.6036 0.105283 66.5186 0.0913131 66.4025C0.0766621 66.2857 0.0981275 66.1929 0.155028 66.1242C0.211588 66.0547 0.30222 66.0124 0.42522 65.9975L5.99329 65.3203C6.1105 65.3064 6.20624 65.3257 6.28188 65.3789C6.35684 65.4317 6.40079 65.516 6.41544 65.6335C6.42941 65.75 6.40727 65.8428 6.34764 65.9122C6.28733 65.9816 6.19909 66.0236 6.08154 66.0375L3.56599 66.3436L4.02119 70.0412L6.53708 69.7351C6.65429 69.7212 6.75003 69.7391 6.82499 69.7886C6.89927 69.839 6.94424 69.9254 6.95924 70.0476H6.95821ZM7.55993 59.3256C7.55175 59.4309 7.51631 59.5095 7.45294 59.5606C7.39025 59.6114 7.30234 59.6331 7.19024 59.6246L5.83826 59.522C5.59703 59.5041 5.48527 59.3747 5.50367 59.135L5.54729 58.5638L5.63826 59.0036C5.28697 58.6355 4.78066 58.344 4.11864 58.1293C3.45696 57.9143 2.61027 57.768 1.57958 57.6905L0.369001 57.5987C0.239527 57.5892 0.143443 57.5479 0.0807507 57.4755C0.018058 57.403 -0.00783684 57.3028 0.00204408 57.1738L0.255541 53.8544C0.265081 53.7312 0.306308 53.6374 0.379223 53.5717C0.452478 53.5063 0.554013 53.4792 0.683146 53.4887L6.19738 53.9052L5.88324 54.1727L5.94457 53.3739C5.95343 53.2571 5.99125 53.1681 6.05803 53.1088C6.12481 53.0489 6.21714 53.0235 6.33469 53.0326L7.68668 53.1345C7.91632 53.1521 8.02331 53.269 8.00661 53.486C7.9981 53.5967 7.96198 53.6783 7.8986 53.7291C7.83591 53.7806 7.748 53.8019 7.63625 53.7935L6.53129 53.7102L6.13537 58.8912L7.23965 58.9745C7.4693 58.9914 7.57628 59.1082 7.55959 59.3249L7.55993 59.3256ZM5.57999 58.1344L5.84916 54.6129L0.839197 54.2343L0.632038 56.9388L1.6835 57.018C2.63207 57.0898 3.41914 57.2151 4.04573 57.3956C4.67163 57.5747 5.18305 57.8215 5.57965 58.1341L5.57999 58.1344ZM7.76606 46.9665C7.72484 47.0884 7.66112 47.1707 7.57458 47.2137C7.48872 47.2567 7.38411 47.257 7.26111 47.2157L2.01809 45.4702C1.90054 45.4309 1.82013 45.3723 1.77857 45.2931C1.737 45.2142 1.73427 45.1187 1.77209 45.0073C1.80991 44.8959 1.8692 44.8214 1.95063 44.7835C2.03138 44.7456 2.13155 44.7459 2.2491 44.7855L7.27406 46.4586L8.16641 43.811L3.14213 42.1383C3.0239 42.099 2.94417 42.0397 2.90261 41.9609C2.86036 41.882 2.85831 41.7865 2.89613 41.6754C2.93123 41.5694 2.98983 41.4976 3.0716 41.4597C3.15304 41.4218 3.25253 41.4228 3.37008 41.4617L8.39503 43.1348L9.28738 40.4876L4.26311 38.8145C4.14556 38.7756 4.06549 38.7146 4.02494 38.6334C3.98371 38.5514 3.98133 38.4576 4.01676 38.3523C4.0539 38.2409 4.11387 38.1661 4.1953 38.1282C4.27605 38.0899 4.37623 38.0913 4.49377 38.1302L9.7368 39.8757C9.86048 39.917 9.94327 39.98 9.98586 40.066C10.0285 40.1513 10.0298 40.2553 9.98825 40.3775L7.76709 46.9665H7.76606ZM12.8578 34.3947C12.8067 34.4736 12.7467 34.5247 12.6796 34.5481C12.6118 34.5711 12.5443 34.5657 12.4776 34.5335C12.4108 34.5007 12.3491 34.4421 12.2922 34.3568L8.95723 29.3291C8.88636 29.2208 8.85024 29.1229 8.8482 29.0339C8.84615 28.9452 8.86932 28.8635 8.91736 28.7897C8.96574 28.7159 9.03048 28.6617 9.11294 28.6269C9.19539 28.5923 9.29863 28.5869 9.42401 28.612L15.4105 29.5645C15.5151 29.576 15.5975 29.6054 15.6572 29.6542C15.7168 29.7036 15.7502 29.7612 15.7556 29.8276C15.7611 29.8946 15.7386 29.9674 15.6872 30.0463C15.6296 30.135 15.5597 30.1916 15.4773 30.2156C15.3948 30.239 15.2974 30.2396 15.186 30.2173L13.557 29.9471L13.9055 29.7514L11.8367 32.9312L11.8779 32.528L12.7992 33.8854C12.8639 33.9904 12.9031 34.0818 12.9157 34.1594C12.9283 34.2376 12.9086 34.3158 12.8575 34.3944L12.8578 34.3947ZM9.67921 29.2895L11.7249 32.2926L11.4677 32.3796L13.2483 29.643L13.284 29.8966L9.68875 29.275L9.67921 29.2895ZM21.6365 23.1032C21.5547 23.1882 21.4678 23.2308 21.3758 23.2335C21.2838 23.2349 21.1953 23.1956 21.1101 23.1147L20.6876 22.7128L20.9758 22.706L20.8225 22.8651C20.4181 23.285 19.9915 23.5704 19.5438 23.7208C19.0957 23.8711 18.649 23.8914 18.2034 23.7807C17.7584 23.67 17.3373 23.4252 16.9403 23.048C16.6374 22.7595 16.4091 22.4571 16.2562 22.1409C16.1035 21.8243 16.0286 21.5005 16.0316 21.1707C16.0347 20.8403 16.1134 20.5088 16.2674 20.1752C16.4211 19.8417 16.6528 19.5143 16.9638 19.1923L17.1172 19.0331L17.1233 19.3196L16.7328 18.9481C16.6436 18.8628 16.5982 18.7754 16.5986 18.686C16.5993 18.5967 16.6398 18.51 16.7216 18.425C16.803 18.3407 16.8885 18.2966 16.9754 18.2953C17.0633 18.2929 17.1523 18.3353 17.2415 18.4206L17.632 18.792L17.3495 18.7914L17.5029 18.6325C17.9158 18.2042 18.3444 17.913 18.7881 17.7579C19.2317 17.6032 19.6733 17.5842 20.1124 17.7021C20.5516 17.8189 20.9721 18.0684 21.3728 18.45C21.6712 18.7341 21.8961 19.0358 22.0474 19.3541C22.198 19.6727 22.273 19.9988 22.2716 20.3307C22.2706 20.6628 22.1949 20.9967 22.043 21.3323C21.8917 21.6671 21.6648 21.9919 21.3619 22.3058L21.2085 22.4652L21.1966 22.1852L21.6191 22.5871C21.704 22.6684 21.7503 22.7524 21.7564 22.8397C21.7626 22.9268 21.7227 23.0148 21.6368 23.1038L21.6365 23.1032ZM20.5271 22.5475L17.2954 19.4709L17.5271 19.4476L17.3131 19.6697C17.1086 19.8817 16.9553 20.1065 16.8538 20.3432C16.7523 20.5802 16.7066 20.8203 16.7161 21.0651C16.7257 21.3102 16.7914 21.5537 16.9141 21.7965C17.0357 22.0386 17.2187 22.2756 17.4616 22.5069C17.7731 22.8035 18.0991 23.0002 18.4398 23.0964C18.7799 23.1932 19.1124 23.1919 19.4365 23.094C19.7601 22.9958 20.0545 22.8086 20.3203 22.533L20.5349 22.3102L20.5274 22.5472L20.5271 22.5475ZM21.03 22.0261L20.7857 22.0494L21.0004 21.8266C21.2007 21.6191 21.3506 21.3959 21.4501 21.1572C21.5489 20.9181 21.5932 20.6754 21.5816 20.4289C21.5697 20.1817 21.5036 19.9362 21.3837 19.692C21.2637 19.4469 21.0862 19.2133 20.8518 18.9901C20.5278 18.6816 20.1983 18.4778 19.8637 18.3796C19.5295 18.2801 19.2037 18.2814 18.8858 18.381C18.5683 18.4815 18.2708 18.6756 17.9925 18.964L17.7778 19.1868L17.7979 18.9498L21.0297 22.0264L21.03 22.0261ZM30.055 15.7473C29.9637 15.8116 29.8721 15.835 29.7797 15.8177C29.6874 15.7998 29.607 15.7432 29.5385 15.6474L26.4703 11.3535L24.8444 12.5004C24.7582 12.5617 24.673 12.5854 24.5909 12.5711C24.5091 12.5573 24.4403 12.5122 24.3854 12.436C24.3272 12.3541 24.3071 12.2752 24.3241 12.198C24.3418 12.1211 24.3939 12.0524 24.4805 11.9915L28.3317 9.27346C28.4186 9.21251 28.501 9.1861 28.5804 9.19524C28.6588 9.20472 28.7276 9.25009 28.7858 9.3317C28.8441 9.41296 28.8652 9.49355 28.8496 9.57245C28.8335 9.65236 28.7828 9.72279 28.6959 9.78374L27.0703 10.9313L30.1378 15.2255C30.2063 15.321 30.2349 15.4144 30.2237 15.5052C30.2128 15.5959 30.1559 15.6768 30.055 15.7483V15.7473ZM37.5506 11.4893C37.4429 11.5374 37.3465 11.5442 37.2627 11.5076C37.1778 11.4714 37.1114 11.3999 37.0627 11.2929L34.7512 6.21381C34.7001 6.10139 34.6888 6.00319 34.7192 5.91854C34.7488 5.83457 34.8176 5.76786 34.925 5.71944C35.0326 5.67136 35.128 5.66391 35.2112 5.69709C35.2943 5.73062 35.3621 5.80409 35.4132 5.91617L36.4211 8.131L39.8365 6.59576L38.8286 4.38161C38.7775 4.26885 38.7669 4.17032 38.7959 4.086C38.8262 4.00203 38.8951 3.93566 39.0024 3.88724C39.1104 3.83882 39.2058 3.83137 39.2889 3.86489C39.3724 3.89841 39.4395 3.97122 39.491 4.08363L41.8024 9.16273C41.8512 9.26973 41.861 9.36657 41.8328 9.45394C41.8041 9.54096 41.7363 9.60834 41.6283 9.65676C41.521 9.70518 41.4249 9.71161 41.3401 9.67572C41.2556 9.63949 41.1888 9.56805 41.1407 9.46105L40.0961 7.16597L36.6807 8.70087L37.7247 10.9959C37.7734 11.1029 37.785 11.1991 37.7594 11.2851C37.7332 11.3711 37.664 11.4388 37.5509 11.49L37.5506 11.4893ZM47.9651 7.73686C47.872 7.75379 47.7944 7.746 47.731 7.71282C47.6676 7.67997 47.6254 7.62749 47.6029 7.55706C47.5811 7.48629 47.5817 7.4013 47.6053 7.30209L48.9995 1.44216C49.0308 1.3162 49.0779 1.22308 49.1412 1.16044C49.2049 1.09814 49.2802 1.0592 49.3675 1.04328C49.455 1.02737 49.5388 1.03719 49.6206 1.07308C49.7024 1.10897 49.7774 1.18008 49.8452 1.28742L53.2534 6.27069C53.3168 6.35467 53.3515 6.43458 53.3563 6.51077C53.3614 6.58763 53.3416 6.65095 53.297 6.70106C53.2524 6.75118 53.1829 6.78436 53.0899 6.80163C52.9852 6.82059 52.8963 6.80908 52.822 6.76574C52.7481 6.72239 52.6806 6.6523 52.621 6.55614L51.7021 5.19291L52.0844 5.31074L48.3364 5.99507L48.6598 5.74856L48.2976 7.34577C48.2656 7.46462 48.2254 7.55604 48.177 7.61835C48.1283 7.68133 48.0574 7.72027 47.9644 7.7372L47.9651 7.73686ZM49.5242 1.93687L48.7279 5.47632L48.4877 5.35002L51.713 4.76085L51.5518 4.96062L49.5412 1.93416L49.5242 1.93721V1.93687ZM63.3224 6.33198C63.2042 6.3286 63.1152 6.2927 63.0549 6.22329C62.9953 6.1532 62.967 6.06042 62.9704 5.94326L63.0403 3.63701L61.9953 3.60552C61.8065 3.6001 61.642 3.61263 61.5023 3.64311C61.3622 3.6746 61.2362 3.73385 61.1244 3.82189C61.012 3.90925 60.9091 4.03691 60.8154 4.20485L59.7677 5.9971C59.7179 6.08344 59.6542 6.14338 59.5762 6.17588C59.4981 6.20941 59.4239 6.21821 59.3537 6.20467C59.2835 6.19078 59.2222 6.15828 59.1707 6.10681C59.1189 6.05534 59.0883 5.991 59.0787 5.91414C59.0692 5.83829 59.0923 5.75025 59.1486 5.65206L60.0276 4.14526C60.1711 3.89706 60.3315 3.71557 60.5094 3.60044C60.6873 3.48498 60.8917 3.43114 61.1217 3.43757L61.352 3.44468L61.2958 3.55812C60.6402 3.53881 60.1343 3.36748 59.7775 3.04546C59.4208 2.72379 59.2504 2.28665 59.2678 1.7354C59.2794 1.34803 59.3693 1.02432 59.5366 0.765287C59.7039 0.506253 59.9462 0.310539 60.2634 0.179159C60.5809 0.0477798 60.9605 -0.0111378 61.4035 0.00172928L63.4764 0.0640329C63.6059 0.067419 63.704 0.103988 63.7704 0.173403C63.8362 0.243156 63.8675 0.342706 63.8635 0.471377L63.6968 5.96425C63.6934 6.08141 63.6597 6.17284 63.5953 6.23886C63.5316 6.30489 63.4406 6.33537 63.3221 6.33164L63.3224 6.33198ZM61.4191 3.01533L63.058 3.06409L63.1316 0.652193L61.4927 0.603433C61.0089 0.588873 60.6396 0.679281 60.3854 0.874657C60.1312 1.06936 59.998 1.36361 59.9861 1.75707C59.9741 2.16136 60.0886 2.46949 60.3309 2.67875C60.5724 2.88903 60.9356 3.00145 61.4195 3.01567L61.4191 3.01533ZM77.0351 8.68327C76.9335 8.65008 76.8647 8.59591 76.8279 8.51904C76.7915 8.44218 76.7901 8.35075 76.8248 8.24477L78.5847 2.89614C78.6218 2.7844 78.677 2.70991 78.7513 2.67198C78.8262 2.6344 78.9135 2.63203 79.015 2.66487C79.1043 2.69433 79.1704 2.7353 79.2119 2.78914C79.2532 2.84264 79.2828 2.91916 79.2998 3.01736L80.1864 8.0863L79.9336 8.00436L83.6543 4.43206C83.7265 4.36332 83.794 4.31829 83.8567 4.29865C83.919 4.27867 83.9984 4.28409 84.0931 4.31524C84.1885 4.34605 84.2553 4.39921 84.2931 4.47303C84.3309 4.54685 84.3313 4.63996 84.2945 4.7517L82.5347 10.1003C82.4999 10.2063 82.4457 10.2801 82.3735 10.3211C82.3006 10.3624 82.2113 10.3655 82.1047 10.3313C82.0031 10.2981 81.9343 10.2439 81.8975 10.1664C81.8604 10.0902 81.8597 9.99808 81.8944 9.89243L83.4423 5.18817L83.6444 5.25386L80.247 8.49466C80.1837 8.55459 80.1264 8.59354 80.0736 8.61047C80.0215 8.62706 79.9561 8.62299 79.8774 8.5976C79.799 8.5722 79.7428 8.53529 79.709 8.48721C79.675 8.43879 79.6525 8.37649 79.6409 8.29793L78.8041 3.67121L79.0065 3.73724L77.4562 8.44997C77.4211 8.55561 77.3673 8.62977 77.2944 8.67074C77.2221 8.71205 77.1352 8.71611 77.034 8.68327H77.0351ZM88.007 13.2954C87.9276 13.2446 87.8765 13.185 87.8533 13.1183C87.8295 13.051 87.8353 12.9839 87.8673 12.9175C87.9003 12.8512 87.9593 12.7899 88.0451 12.7333L93.1038 9.41804C93.2129 9.34761 93.3113 9.31206 93.4009 9.30969C93.4902 9.30766 93.5723 9.33068 93.6466 9.37843C93.7209 9.42617 93.7751 9.49084 93.8098 9.57245C93.8449 9.65439 93.8507 9.75733 93.8255 9.88159L92.868 15.8309C92.8565 15.9352 92.8268 16.0171 92.7774 16.0761C92.7277 16.1353 92.6698 16.1685 92.603 16.1739C92.5355 16.18 92.4622 16.157 92.3829 16.1059C92.2936 16.0483 92.2367 15.9796 92.2125 15.8973C92.189 15.8153 92.188 15.7185 92.2111 15.6081L92.483 13.9896L92.68 14.336L89.4796 12.2799L89.8854 12.3209L88.5198 13.2365C88.4138 13.3015 88.3218 13.3405 88.2434 13.353C88.1647 13.3655 88.086 13.3459 88.007 13.2951V13.2954ZM93.1434 10.1355L90.1218 12.1692L90.0343 11.9136L92.788 13.6831L92.5328 13.718L93.1577 10.145L93.143 10.1355H93.1434ZM99.0518 21.6688C98.6089 21.2469 98.3189 20.7922 98.1826 20.3053C98.047 19.818 98.06 19.3223 98.2222 18.8188C98.385 18.3146 98.6951 17.8253 99.1527 17.3499C99.4958 16.9944 99.8515 16.7208 100.219 16.5301C100.587 16.3395 100.957 16.2322 101.327 16.2074C101.699 16.1831 102.07 16.2423 102.438 16.3862C102.807 16.5301 103.155 16.7584 103.484 17.0709C103.749 17.3232 103.964 17.5991 104.132 17.9008C104.299 18.2025 104.401 18.509 104.437 18.8195C104.452 18.9146 104.443 18.9982 104.411 19.0697C104.379 19.1405 104.332 19.1936 104.27 19.2278C104.208 19.2624 104.143 19.2783 104.077 19.2759C104.01 19.2729 103.951 19.2468 103.9 19.1984C103.848 19.1496 103.811 19.0741 103.788 18.9708C103.753 18.7013 103.673 18.4497 103.546 18.2161C103.42 17.9817 103.25 17.7637 103.037 17.5605C102.7 17.2395 102.345 17.0387 101.973 16.9575C101.602 16.8762 101.226 16.9141 100.845 17.0712C100.464 17.2294 100.087 17.5006 99.7155 17.8866C99.3435 18.2726 99.0855 18.6596 98.9417 19.0463C98.7969 19.4334 98.7741 19.8099 98.8719 20.1752C98.9694 20.5406 99.1867 20.8836 99.524 21.2046C99.7329 21.4034 99.9612 21.5615 100.208 21.6783C100.455 21.7961 100.717 21.8679 100.993 21.8957C101.098 21.914 101.175 21.9485 101.224 21.9997C101.273 22.0504 101.301 22.107 101.306 22.1693C101.311 22.2313 101.299 22.2932 101.269 22.3542C101.24 22.4144 101.193 22.4635 101.128 22.5005C101.064 22.5367 100.989 22.5499 100.901 22.5387C100.574 22.5211 100.253 22.4368 99.9363 22.2854C99.6195 22.1348 99.3244 21.9289 99.0511 21.6688H99.0518ZM105.513 29.1165C105.448 29.0261 105.424 28.9353 105.441 28.8436C105.459 28.7511 105.515 28.6712 105.611 28.6028L109.917 25.5337L108.756 23.9236C108.694 23.8376 108.669 23.7536 108.683 23.6714C108.697 23.5901 108.742 23.5217 108.819 23.4668C108.9 23.4089 108.98 23.3883 109.058 23.4049C109.136 23.4218 109.205 23.4736 109.267 23.5593L112.019 27.3744C112.081 27.4604 112.108 27.542 112.099 27.6205C112.09 27.6991 112.045 27.7675 111.963 27.8257C111.882 27.884 111.801 27.905 111.721 27.8901C111.641 27.8745 111.57 27.8247 111.508 27.7387L110.346 26.1279L106.04 29.1971C105.944 29.2655 105.85 29.2939 105.758 29.2834C105.667 29.2726 105.585 29.2171 105.513 29.1165H105.513ZM110.051 36.467C109.997 36.3495 109.988 36.2462 110.022 36.1565C110.055 36.0671 110.132 35.9963 110.25 35.9428L115.216 33.711C115.334 33.6582 115.438 33.6481 115.528 33.6816C115.618 33.7154 115.69 33.7916 115.743 33.9088L117.102 36.8939C117.143 36.9847 117.151 37.0653 117.125 37.135C117.098 37.2055 117.041 37.259 116.955 37.2979C116.864 37.3389 116.783 37.3467 116.713 37.3203C116.642 37.2938 116.586 37.2353 116.545 37.1438L115.314 34.4404L113.344 35.3255L114.498 37.8613C114.54 37.9521 114.549 38.0317 114.525 38.1004C114.501 38.1688 114.443 38.2237 114.352 38.265C114.261 38.3059 114.179 38.3134 114.109 38.287C114.038 38.2606 113.983 38.2027 113.941 38.1112L112.787 35.5761L110.737 36.4978L111.967 39.2019C112.008 39.2926 112.016 39.3732 111.989 39.443C111.963 39.5131 111.907 39.5669 111.82 39.6058C111.729 39.6468 111.648 39.6546 111.577 39.6282C111.507 39.6018 111.451 39.5429 111.41 39.4518L110.051 36.4666L110.051 36.467ZM113.627 45.7174C113.6 45.6029 113.613 45.5078 113.665 45.4329C113.717 45.3574 113.801 45.3073 113.916 45.2806L119.33 44.0385C119.45 44.0104 119.549 44.0209 119.623 44.0704C119.698 44.1195 119.749 44.2011 119.776 44.3155L120.248 46.3492C120.398 46.9959 120.354 47.5299 120.116 47.9525C119.878 48.3744 119.467 48.6524 118.886 48.7858C118.31 48.9182 117.821 48.8464 117.417 48.5715C117.015 48.2965 116.738 47.8357 116.587 47.1896L116.195 45.499L114.079 45.9842C113.964 46.0106 113.867 46.0028 113.787 45.9608C113.708 45.9188 113.654 45.8376 113.626 45.7177L113.627 45.7174ZM116.79 45.3618L117.163 46.9658C117.271 47.4297 117.457 47.7558 117.722 47.945C117.988 48.1343 118.322 48.1828 118.725 48.0903C119.134 47.9965 119.416 47.8066 119.57 47.5211C119.725 47.2353 119.749 46.8612 119.641 46.3976L119.269 44.793L116.79 45.3615V45.3618ZM115.601 58.1649C115.554 57.5567 115.644 57.0255 115.869 56.5728C116.096 56.12 116.439 55.7598 116.898 55.4929C117.357 55.2248 117.917 55.0666 118.577 55.0165C119.071 54.9789 119.519 55.0111 119.921 55.1134C120.323 55.2153 120.671 55.3805 120.964 55.6087C121.257 55.837 121.492 56.1271 121.67 56.4786C121.848 56.8301 121.955 57.231 121.989 57.6813C122.017 58.0447 121.992 58.3938 121.914 58.7297C121.836 59.0652 121.706 59.3608 121.524 59.6158C121.471 59.6961 121.409 59.7526 121.337 59.7844C121.265 59.8159 121.195 59.8244 121.125 59.8088C121.056 59.7939 120.997 59.7624 120.949 59.7164C120.902 59.67 120.875 59.6114 120.87 59.5413C120.864 59.4712 120.887 59.39 120.94 59.2975C121.094 59.0737 121.204 58.8333 121.267 58.5749C121.33 58.3172 121.35 58.0416 121.327 57.7491C121.292 57.2869 121.163 56.9019 120.941 56.5948C120.719 56.2873 120.413 56.0662 120.024 55.9308C119.634 55.796 119.172 55.7482 118.636 55.7885C118.099 55.8295 117.648 55.9463 117.28 56.1387C116.913 56.3313 116.643 56.5961 116.47 56.933C116.298 57.2706 116.229 57.6698 116.265 58.1327C116.287 58.4192 116.35 58.6884 116.455 58.9389C116.56 59.1905 116.707 59.4177 116.894 59.6216C116.96 59.7045 116.995 59.7817 116.996 59.8522C116.999 59.9226 116.981 59.9829 116.944 60.033C116.906 60.0831 116.855 60.1207 116.792 60.1457C116.729 60.1711 116.661 60.1762 116.589 60.1613C116.517 60.1464 116.452 60.1058 116.393 60.0391C116.162 59.8098 115.98 59.5332 115.846 59.2108C115.711 58.8888 115.63 58.5397 115.601 58.1649H115.601ZM115.342 66.565C115.357 66.4485 115.401 66.3639 115.476 66.3111C115.551 66.2576 115.647 66.2386 115.764 66.2532L121.341 66.9304C121.464 66.9453 121.553 66.9866 121.607 67.0557C121.66 67.1241 121.68 67.2169 121.666 67.334C121.652 67.4505 121.61 67.5351 121.541 67.589C121.472 67.6425 121.376 67.6618 121.253 67.6469L118.799 67.3492L118.65 68.5554L118.536 68.3282L121.083 70.483C121.159 70.5453 121.205 70.6134 121.223 70.6862C121.241 70.759 121.238 70.8301 121.215 70.8982C121.191 70.9666 121.152 71.0204 121.096 71.061C121.041 71.1017 120.976 71.122 120.901 71.122C120.827 71.1213 120.752 71.0902 120.676 71.0282L118.326 69.0125L118.597 68.7704C118.512 69.1208 118.349 69.4083 118.106 69.6335C117.865 69.858 117.545 70.0415 117.147 70.1827L115.338 70.8054C115.238 70.841 115.153 70.8454 115.082 70.8189C115.011 70.7925 114.958 70.7482 114.924 70.6845C114.891 70.6212 114.874 70.5521 114.874 70.4783C114.874 70.4045 114.896 70.3351 114.939 70.269C114.984 70.2037 115.052 70.1553 115.145 70.1258L116.885 69.5471C117.265 69.4158 117.544 69.2502 117.723 69.0497C117.903 68.8496 118.012 68.5899 118.051 68.2692L118.174 67.2727L115.676 66.9693C115.559 66.9554 115.47 66.9148 115.41 66.8484C115.35 66.7814 115.327 66.6876 115.342 66.5647L115.342 66.565ZM113.417 76.1686C113.446 76.0792 113.491 76.0149 113.55 75.9759C113.609 75.9366 113.676 75.9245 113.749 75.939C113.822 75.9539 113.896 75.9949 113.973 76.0633L118.479 80.0897C118.575 80.177 118.634 80.263 118.659 80.3484C118.684 80.4337 118.682 80.518 118.655 80.6016C118.627 80.6856 118.578 80.7543 118.507 80.8082C118.436 80.862 118.337 80.8935 118.21 80.901L112.176 81.4837C112.071 81.4986 111.984 81.4908 111.913 81.4583C111.844 81.4258 111.797 81.3784 111.774 81.3154C111.752 81.2521 111.755 81.1762 111.785 81.0869C111.819 80.9866 111.871 80.9145 111.945 80.8701C112.019 80.8268 112.113 80.8018 112.226 80.7957L113.871 80.648L113.583 80.925L114.776 77.3283L114.839 77.7286L113.602 76.647C113.513 76.5617 113.452 76.4828 113.419 76.411C113.387 76.3386 113.387 76.2576 113.416 76.1689L113.417 76.1686ZM117.79 80.3091L115.047 77.9175L115.274 77.7688L114.247 80.8637L114.148 80.6274L117.785 80.326L117.79 80.3091H117.79ZM107.032 90.1188C107.091 90.0176 107.165 89.9567 107.255 89.9367C107.345 89.9177 107.441 89.9374 107.544 89.9956L109.554 91.1492L110.077 90.2495C110.172 90.0867 110.238 89.937 110.277 89.8002C110.316 89.6624 110.323 89.5243 110.298 89.3848C110.273 89.2449 110.209 89.0946 110.105 88.9334L109.012 87.1676C108.96 87.0826 108.937 86.9989 108.945 86.915C108.952 86.831 108.979 86.7616 109.024 86.7067C109.07 86.6519 109.128 86.6133 109.198 86.5929C109.268 86.5719 109.34 86.5753 109.412 86.6041C109.484 86.6315 109.551 86.6935 109.611 86.7893L110.53 88.2728C110.682 88.5159 110.766 88.7421 110.784 88.9527C110.802 89.163 110.754 89.3671 110.638 89.5652L110.523 89.7633L110.45 89.66C110.778 89.0959 111.169 88.7343 111.623 88.5745C112.077 88.4146 112.545 88.4732 113.026 88.7488C113.363 88.9425 113.607 89.1741 113.758 89.4433C113.909 89.7129 113.967 90.0176 113.933 90.3576C113.899 90.6975 113.771 91.0581 113.55 91.4394L112.513 93.2242C112.448 93.3356 112.37 93.404 112.277 93.4287C112.184 93.4531 112.081 93.4338 111.969 93.3695L107.18 90.621C107.078 90.5624 107.012 90.4896 106.985 90.4019C106.957 90.3149 106.973 90.2211 107.032 90.1188ZM110.872 90.0251L110.053 91.436L112.156 92.6428L112.975 91.2318C113.218 90.815 113.313 90.449 113.26 90.1337C113.208 89.8192 113.01 89.5635 112.667 89.3668C112.314 89.164 111.987 89.1186 111.687 89.2317C111.386 89.3434 111.115 89.6082 110.872 90.0251Z" fill="white"/>
<path d="M24.1173 110.47C23.9323 110.353 23.8052 110.21 23.735 110.045C23.6651 109.879 23.6638 109.711 23.7316 109.541C23.7994 109.371 23.936 109.217 24.1418 109.081L29.4444 105.728C29.7007 105.565 29.9429 105.481 30.1698 105.475C30.3968 105.468 30.6118 105.53 30.8148 105.659C31.0179 105.788 31.161 105.954 31.2445 106.158C31.328 106.362 31.3521 106.615 31.3164 106.919L30.4738 113.108C30.4472 113.359 30.3702 113.553 30.2441 113.69C30.1181 113.827 29.9664 113.899 29.791 113.903C29.6152 113.909 29.4373 113.855 29.2581 113.741C29.0196 113.589 28.8703 113.419 28.811 113.23C28.7514 113.041 28.7473 112.796 28.7984 112.494L29.0427 111.056L29.378 111.909L25.688 109.562L26.6161 109.513L25.4042 110.336C25.1439 110.504 24.9227 110.606 24.7404 110.641C24.5582 110.676 24.3507 110.619 24.1176 110.471L24.1173 110.47ZM29.6445 107.436L27.0175 109.241L27.042 108.654L29.6485 110.312L29.1225 110.58L29.6629 107.447L29.6445 107.436ZM37.9451 118.063C37.649 117.964 37.4487 117.806 37.3431 117.589C37.2371 117.37 37.2354 117.112 37.3376 116.811L39.1216 111.554C39.2262 111.247 39.3884 111.04 39.6078 110.931C39.8283 110.822 40.0957 110.821 40.4119 110.927L45.0365 112.477C45.3524 112.583 45.565 112.745 45.674 112.964C45.7831 113.183 45.7851 113.446 45.6808 113.752L43.8965 119.01C43.7946 119.31 43.6372 119.516 43.4239 119.626C43.2103 119.737 42.9527 119.742 42.6501 119.64C42.3547 119.541 42.1537 119.383 42.0488 119.165C41.9428 118.948 41.9411 118.689 42.0426 118.389L43.6403 113.681L40.7881 112.726L39.1911 117.432C39.0892 117.733 38.9335 117.939 38.7233 118.05C38.5134 118.162 38.2535 118.167 37.9448 118.063L37.9451 118.063ZM52.7907 121.906C52.4796 121.883 52.2455 121.778 52.0898 121.593C51.9331 121.408 51.8666 121.161 51.8905 120.852L52.3164 115.288C52.3406 114.972 52.4459 114.736 52.6316 114.581C52.8179 114.425 53.0663 114.359 53.3777 114.383L55.9863 114.58C56.8347 114.644 57.4732 114.91 57.9039 115.376C58.3335 115.844 58.5192 116.457 58.461 117.215C58.403 117.974 58.126 118.552 57.6299 118.949C57.1335 119.346 56.462 119.512 55.6132 119.448L53.9692 119.324L53.8411 120.999C53.8176 121.309 53.7174 121.543 53.5423 121.703C53.3665 121.863 53.1157 121.93 52.7907 121.906ZM54.0834 117.838L55.3877 117.937C55.7553 117.965 56.0439 117.907 56.2538 117.764C56.4637 117.621 56.5812 117.391 56.6054 117.075C56.6299 116.752 56.5492 116.506 56.3631 116.336C56.1771 116.166 55.9004 116.068 55.5325 116.04L54.2282 115.942L54.083 117.838H54.0834ZM67.0557 121.988C66.7245 122.027 66.4628 121.97 66.27 121.819C66.0774 121.667 65.9626 121.431 65.9245 121.109L65.288 115.703C65.2502 115.381 65.3074 115.125 65.4594 114.933C65.612 114.742 65.8533 114.627 66.1848 114.588L69.7647 114.172C70.0186 114.143 70.2159 114.183 70.3576 114.295C70.4987 114.406 70.5838 114.581 70.6118 114.818C70.6404 115.064 70.5992 115.258 70.4878 115.402C70.3763 115.546 70.1937 115.633 69.9402 115.663L67.2052 115.981L67.3705 117.387L69.8738 117.096C70.1205 117.068 70.316 117.109 70.4612 117.219C70.6063 117.33 70.6932 117.508 70.7225 117.753C70.7511 117.998 70.7075 118.191 70.5924 118.332C70.4768 118.473 70.2959 118.558 70.0499 118.587L67.5466 118.878L67.7255 120.4L70.4608 120.082C70.7147 120.052 70.9119 120.095 71.054 120.209C71.1961 120.324 71.2813 120.501 71.3089 120.739C71.3379 120.983 71.2963 121.176 71.1842 121.317C71.0728 121.457 70.8898 121.542 70.636 121.572L67.056 121.988H67.0557ZM84.8291 117.654C84.5391 117.769 84.2829 117.777 84.0604 117.679C83.8382 117.581 83.6675 117.386 83.5493 117.091L81.6968 112.478L79.8797 113.198L80.3329 114.327C80.5353 114.831 80.6821 115.311 80.7741 115.768C80.8654 116.225 80.9067 116.659 80.8978 117.073C80.8876 117.486 80.828 117.878 80.7165 118.248C80.6062 118.619 80.4498 118.961 80.2477 119.277C80.108 119.499 79.9261 119.634 79.7005 119.681C79.475 119.729 79.2443 119.686 79.0078 119.552C78.7748 119.409 78.6405 119.227 78.6054 119.006C78.5703 118.785 78.6194 118.557 78.7537 118.321C78.8889 118.086 78.9809 117.835 79.03 117.569C79.079 117.302 79.0927 117.013 79.0702 116.699C79.0477 116.386 78.9864 116.048 78.8869 115.686C78.7867 115.323 78.6535 114.932 78.4848 114.514L78.0041 113.316C77.8831 113.015 77.8708 112.753 77.9679 112.528C78.0651 112.304 78.2644 112.132 78.5673 112.011L81.9752 110.66C82.2781 110.54 82.5438 110.528 82.7728 110.623C83.0024 110.718 83.1769 110.915 83.2979 111.216L85.3671 116.37C85.4853 116.664 85.4976 116.922 85.4039 117.146C85.3098 117.369 85.119 117.538 84.8291 117.653V117.654ZM94.0343 112.826C93.7526 113.003 93.4916 113.065 93.252 113.012C93.0128 112.958 92.8053 112.794 92.6309 112.52L89.6452 107.832C89.4704 107.559 89.4097 107.305 89.4629 107.072C89.515 106.838 89.6734 106.639 89.9372 106.473C90.2063 106.304 90.4571 106.246 90.6891 106.3C90.9208 106.354 91.1239 106.518 91.298 106.792L92.3733 108.48L93.865 107.542C94.3263 107.251 94.7703 107.076 95.1979 107.016C95.6248 106.956 96.0194 107.011 96.3816 107.184C96.7434 107.357 97.0548 107.648 97.3165 108.059C97.7107 108.678 97.8143 109.28 97.6289 109.864C97.4433 110.448 97.0054 110.957 96.3161 111.39L94.0343 112.825V112.826ZM94.0343 111.088L95.3015 110.291C95.6068 110.098 95.7938 109.901 95.8626 109.7C95.9315 109.498 95.8919 109.281 95.7437 109.05C95.5962 108.817 95.4173 108.69 95.2064 108.669C94.9948 108.647 94.7372 108.732 94.4313 108.924L93.1641 109.722L94.035 111.088L94.0343 111.088Z" fill="white"/>
<path fill-rule="evenodd" clip-rule="evenodd" d="M30.2898 61.032L59.3036 56.2325C59.1513 55.6295 58.9765 55.0356 58.7803 54.4491C58.475 53.5386 58.1152 52.6433 57.7036 51.7619L57.7026 51.7589C57.6668 51.6756 57.6283 51.5916 57.5765 51.5219C57.5404 51.4731 57.4971 51.4301 57.4419 51.3976C57.3441 51.489 57.2361 51.572 57.1193 51.6461C56.2583 52.1974 54.9458 52.2776 53.6643 52.0325C52.3873 51.7887 51.1338 51.2215 50.3852 50.4766C50.2326 50.3249 50.1004 50.1654 49.9934 49.9998L49.9638 49.9544C49.9508 49.945 49.93 49.9321 49.9191 49.9209C49.7846 49.7875 49.7208 49.6934 49.7277 49.5938C49.7345 49.4899 49.8139 49.415 49.9651 49.3219C50.2605 49.1381 50.5686 48.9769 50.8875 48.8347C51.205 48.6928 51.5325 48.5702 51.8681 48.4632L51.8691 48.4625C52.4323 48.2888 53.2933 48.1646 54.1008 48.2005C54.7369 48.2286 55.3427 48.3562 55.7523 48.6373L55.7574 48.6393L55.8252 48.6447C55.8763 48.6498 55.9278 48.6549 55.971 48.6423L55.9322 48.5743C55.6324 48.0948 55.3073 47.638 54.9662 47.1917C54.6235 46.7444 54.262 46.3036 53.8902 45.8607C53.8763 45.8441 53.865 45.8221 53.8575 45.8021C53.8514 45.7852 53.8473 45.7666 53.8466 45.7496C53.8425 45.7263 53.8385 45.6988 53.8381 45.6717C53.8371 45.6315 53.8442 45.5915 53.8647 45.56L53.8698 45.5509C53.9056 45.4984 53.9574 45.4699 54.0119 45.4615C54.0623 45.454 54.1155 45.4638 54.1584 45.4875L54.1826 45.5024C54.3035 45.6006 55.0187 46.4075 55.5506 47.0075C55.7019 47.1779 55.8324 47.3292 55.9295 47.441C55.7131 45.8258 55.6668 44.8334 55.9843 43.9496C56.321 43.0123 57.0613 42.2142 58.4365 40.9414L58.4409 40.9373C58.5922 40.8141 58.7033 40.7572 58.8133 40.7809C58.9224 40.8053 59.0021 40.9042 59.0883 41.0904C59.3309 41.6058 59.5258 42.1323 59.6597 42.6727C59.7932 43.2145 59.8662 43.7701 59.8655 44.3424C59.8689 44.8946 59.7888 45.4222 59.6123 45.9152C59.443 46.3862 59.1864 46.8254 58.831 47.2246C58.5684 47.5287 58.2753 47.7935 57.9534 48.018C57.6409 48.236 57.3002 48.4175 56.9339 48.5618C56.9339 48.6941 57.0187 48.7995 57.1032 48.9037L57.1516 48.964C57.4014 49.2999 57.6355 49.645 57.8583 49.9958C58.0794 50.3432 58.2903 50.6997 58.4954 51.0597C58.9196 51.8141 59.2989 52.5878 59.6178 53.3859C59.9374 54.185 60.197 55.0088 60.3803 55.8611L60.3939 55.9231L60.4215 56.047L60.5217 56.0307L60.5578 55.7456C60.888 53.4793 61.2512 51.104 61.6089 48.7639C61.8338 47.2916 62.0577 45.8322 62.2625 44.4653C62.2021 43.3266 61.8158 41.7727 61.2928 40.2185C60.6938 38.4374 59.9152 36.658 59.242 35.5014C59.0886 35.2572 58.536 35.4421 57.8188 35.6808C57.0586 35.9344 56.1247 36.2456 55.2235 36.1742C54.3945 36.1078 53.6722 35.8887 53.0068 35.5542C52.3447 35.2217 51.7403 34.7747 51.142 34.2502C50.9788 34.1158 50.8953 34.0169 50.8909 33.9106C50.8858 33.7968 50.9658 33.7084 51.1273 33.5991L51.1287 33.598C51.5819 33.3058 52.048 33.0509 52.5325 32.843C53.0187 32.6347 53.5247 32.4732 54.0552 32.3682C55.876 32.0245 56.938 32.5985 57.2307 32.7566L57.3516 32.8216L57.338 32.806C57.3046 32.763 57.2753 32.7258 57.261 32.7058C57.2068 32.6364 57.1561 32.5629 57.1053 32.4894C57.0545 32.417 57.0041 32.3442 56.9499 32.2754L56.9489 32.2738C56.9268 32.245 56.9193 32.2033 56.9237 32.1674C56.9281 32.1305 56.9469 32.0916 56.9758 32.0686C56.999 32.051 57.0279 32.034 57.0562 32.0222C57.0879 32.009 57.122 32.0022 57.1527 32.0063L57.1697 32.0096C57.3176 32.0557 57.414 32.1566 57.5128 32.2599L57.5707 32.3191C57.6999 32.4508 57.8211 32.5819 57.9414 32.7126C58.0634 32.845 58.1861 32.9774 58.3091 33.103L58.3271 33.123C58.3673 33.1663 58.4086 33.2114 58.4573 33.2222C58.4757 33.1677 58.4692 33.1071 58.4634 33.0471C58.4593 33.0089 58.4552 32.9696 58.4559 32.9273C58.4546 32.656 58.4641 32.3855 58.4975 32.118C58.5316 31.8478 58.5915 31.5796 58.691 31.3169C59.0559 30.3732 59.6038 29.718 60.2887 29.2283C60.9698 28.7421 61.7824 28.4204 62.6815 28.1424L62.6849 28.1421C62.7974 28.1116 62.8843 28.1106 62.9568 28.1488C63.0308 28.1878 63.0781 28.2596 63.1095 28.3737C63.2809 28.9439 63.3943 29.5189 63.4264 30.0985C63.4591 30.6793 63.41 31.2647 63.255 31.8549C63.1586 32.2135 63.0114 32.5365 62.8131 32.8267C62.6151 33.1169 62.3671 33.3729 62.0686 33.5967L62.0676 33.5974C61.7398 33.8371 61.3963 34.0213 61.0341 34.151C60.6764 34.2793 60.3002 34.3542 59.9033 34.3768C59.5043 34.5065 59.5064 34.5103 59.7667 34.9071C59.8048 34.9643 59.8416 35.0239 59.8777 35.0828C59.9105 35.1357 59.9425 35.1885 59.9793 35.2437C60.6127 36.1373 61.1643 37.0671 61.6192 38.0412C62.0747 39.0164 62.4335 40.037 62.6826 41.1107C62.687 41.1337 62.689 41.1632 62.6918 41.1872C63.3102 38.8796 63.762 35.283 64.1538 32.1664C64.3085 30.9342 64.4543 29.7765 64.5974 28.7963L64.6042 28.7434C64.6495 28.3896 64.6676 28.2467 64.6475 28.1573C64.6356 28.1038 64.6032 28.0561 64.5504 27.9765C64.4962 27.8962 64.4226 27.7862 64.3272 27.6084L64.3242 27.602C63.9814 26.8351 63.8083 26.0708 63.8148 25.309C63.8213 24.5461 64.0086 23.7869 64.3862 23.0308C64.8618 22.0902 65.3998 21.5694 66.0888 20.904L66.1399 20.8539C66.1634 20.8309 66.1886 20.8116 66.2148 20.796C66.2744 20.7611 66.3382 20.7472 66.4002 20.755C66.4618 20.7625 66.5205 20.7916 66.5695 20.8404C66.5906 20.8617 66.6107 20.8874 66.6278 20.9162C66.9678 21.4502 67.2557 22.0031 67.4632 22.5808C67.6717 23.1615 67.7999 23.7686 67.8193 24.4096C67.8377 24.9443 67.7559 25.4491 67.5777 25.9184C67.3978 26.3908 67.1201 26.8276 66.7487 27.2231C66.3112 27.6816 65.9968 27.8478 65.7664 27.9694C65.4628 28.1292 65.3238 28.203 65.2308 28.9324C65.1398 29.7037 65.0479 30.4781 64.9586 31.2542C64.8676 32.0384 64.7794 32.8182 64.6949 33.5869V33.5882C64.6918 33.6116 64.6857 33.6397 64.6782 33.6736C64.6604 33.7575 64.6318 33.8896 64.6305 33.96C64.6768 33.9045 64.7569 33.7772 64.9153 33.6126C65.5426 32.9581 66.7228 31.7283 67.1136 31.5027C67.1733 31.4648 67.3559 31.3511 67.5378 31.2583C67.7528 31.1482 67.9753 31.0734 68.0673 31.1668L68.0687 31.1682C68.1195 31.2227 68.1198 31.2755 68.0874 31.325C68.2687 31.2918 68.452 31.2491 68.5249 31.221L68.5259 31.22C69.1529 30.9915 69.7808 30.8729 70.4111 30.857C71.0405 30.8414 71.6711 30.9281 72.3025 31.1073C72.8565 31.2356 73.3369 31.4239 73.7604 31.6395C74.1846 31.8563 74.5506 32.0997 74.8766 32.3384C75.0579 32.4603 75.1901 32.5687 75.2177 32.7109C75.246 32.8582 75.1594 33.0129 74.8971 33.208C74.3052 33.6607 73.5989 34.0596 72.8548 34.3382C72.1699 34.5952 71.451 34.7517 70.7577 34.7578C69.2203 34.7662 68.1402 33.917 67.4196 33.3498C66.9985 33.0194 66.7136 32.7952 66.5886 32.9151C66.5664 32.9374 66.547 32.9615 66.5279 32.9845C66.5068 33.0106 66.4857 33.0363 66.4601 33.063C66.0724 33.5107 65.7146 33.9732 65.3889 34.4564C65.0635 34.9403 64.7705 35.4455 64.5129 35.9788L64.5088 35.9862C64.4805 36.0336 64.4485 36.0814 64.4165 36.1288C64.3913 36.1664 64.3661 36.2036 64.3432 36.2415L63.7902 41.2539C63.7606 41.5153 63.6826 41.9803 63.5882 42.5474C63.3068 44.232 62.8723 46.8338 63.0969 47.6391L63.1879 47.4772C63.2407 47.3844 63.2918 47.2954 63.3371 47.2006L63.3381 47.1982C63.6781 46.546 64.057 45.923 64.4765 45.3308C64.8959 44.7382 65.3572 44.1754 65.8601 43.6428C66.284 43.1891 66.7235 42.7577 67.1654 42.3236C67.3569 42.136 67.5487 41.9477 67.7399 41.7575L67.5613 41.5563C67.3777 41.3501 67.1917 41.1415 67.0247 40.9279C66.7876 40.6241 66.5971 40.2974 66.454 39.9513C66.3109 39.6043 66.2155 39.2389 66.1695 38.8583C65.9279 36.9293 66.8397 35.63 67.3085 34.9613L67.3477 34.9051C67.4407 34.7744 67.5184 34.7019 67.6104 34.6833C67.7089 34.6626 67.7992 34.7036 67.9133 34.7981L67.9143 34.7994C67.9948 34.8682 68.0745 34.9372 68.1443 35.0006C68.2203 35.069 68.2949 35.1401 68.3658 35.2142C68.6953 35.5549 69.0084 35.9117 69.2745 36.2998C69.5426 36.6912 69.7645 37.1152 69.9076 37.5868C70.1355 38.3582 69.9396 39.1674 69.8043 39.7268C69.7478 39.9611 69.7035 40.1457 69.6994 40.2395L69.8023 40.1687C70.3604 39.7817 70.9246 39.3913 71.528 39.0618C71.5883 39.0259 71.6538 38.9988 71.7144 38.9738L71.8023 38.9362L71.8289 38.9396C71.8391 38.9406 71.8534 38.9426 71.8715 38.948H71.8728C71.895 38.9548 71.9182 38.966 71.9372 38.9856C71.9737 39.0181 71.9958 39.0584 72.0016 39.1021C72.0071 39.1481 71.9941 39.1939 71.959 39.2348L71.9546 39.2399C71.8878 39.3083 71.8166 39.3693 71.7471 39.4275C71.4943 39.6456 71.2337 39.8555 70.9754 40.0681C70.5399 40.426 70.1011 40.786 69.6796 41.1436C69.6616 41.1601 69.6425 41.1747 69.6227 41.1886C69.6043 41.2021 69.5842 41.217 69.5754 41.2329L69.6132 41.2296C69.6667 41.2231 69.7219 41.213 69.776 41.2015C69.835 41.1886 69.8875 41.175 69.9328 41.1622L69.9369 41.1612C71.3304 40.8215 72.5795 40.917 73.6524 41.2766C74.9421 41.709 75.9775 42.5237 76.706 43.4251C76.8126 43.5219 76.8555 43.6174 76.8392 43.7122C76.8232 43.806 76.7499 43.8849 76.6228 43.9503C76.0106 44.2642 75.3826 44.5269 74.7318 44.7057C74.0804 44.8845 73.4061 44.9783 72.7039 44.9546C71.7975 44.9271 71.0016 44.701 70.3239 44.2841C69.6438 43.8653 69.083 43.2551 68.6483 42.4594L68.6418 42.4445C68.6353 42.4259 68.6258 42.4086 68.6125 42.3913C68.6019 42.3785 68.59 42.3649 68.5747 42.352C68.4435 42.351 68.3505 42.4347 68.2445 42.5295L68.1631 42.6009C67.8445 42.9453 67.5327 43.2947 67.2302 43.6503C66.9256 44.0082 66.6322 44.3718 66.3535 44.7416C65.639 45.6846 64.8202 46.9036 64.1143 48.1473C63.5289 49.1794 63.0206 50.2304 62.7122 51.1575C62.4461 52.6315 62.271 54.2087 62.1098 55.7693L81.9163 52.493L81.3354 63.7886L89.1208 48.6237C89.3413 48.193 89.7798 47.9452 90.235 47.9441L98.3084 47.9431C98.9994 47.9431 99.5599 48.4998 99.5599 49.1868C99.5599 49.8732 98.999 50.4305 98.3084 50.4305H90.9996L81.3401 69.2391L80.9831 80.467C80.9865 80.727 80.9081 80.9908 80.7418 81.2163C80.3343 81.7686 79.553 81.8884 78.9977 81.4835L67.3297 72.9323L45.1473 79.1494C45.2002 79.5101 45.2271 79.8795 45.2271 80.255C45.2271 82.3655 44.363 84.282 42.9664 85.672L42.962 85.6771C41.5633 87.0651 39.6345 87.9238 37.5111 87.9238C35.3812 87.9238 33.4521 87.0651 32.0551 85.6771C30.6588 84.2895 29.7944 82.3713 29.7944 80.255C29.7944 78.1414 30.6602 76.2259 32.0551 74.838L32.0602 74.8336C33.4568 73.4466 35.3846 72.5869 37.5111 72.5869C39.6406 72.5869 41.5704 73.4463 42.9667 74.8336C43.3858 75.2501 43.7569 75.7139 44.0713 76.2174L49.2091 73.3471L30.2885 61.0336L30.2898 61.032ZM37.5128 77.6562C38.3735 77.6562 39.1356 78.0696 39.6123 78.7065L41.889 77.4351C41.689 77.129 41.458 76.8459 41.1997 76.5892C40.2566 75.652 38.9527 75.0719 37.5128 75.0719C36.0709 75.0719 34.7656 75.6516 33.8231 76.5869C32.8821 77.5241 32.2987 78.821 32.2987 80.2536C32.2987 81.6846 32.8824 82.9811 33.8255 83.9177C34.7679 84.855 36.0729 85.435 37.5128 85.435C38.9561 85.435 40.2604 84.8563 41.1997 83.9228L41.2042 83.9177C42.1442 82.9845 42.7265 81.688 42.7265 80.2536C42.7265 80.1114 42.7204 79.9709 42.7095 79.8317L40.1081 80.5611C39.9547 81.8502 38.8515 82.8514 37.5128 82.8514C36.0695 82.8514 34.8988 81.688 34.8988 80.2536C34.8988 78.8193 36.0692 77.6565 37.5128 77.6565V77.6562ZM78.8328 69.7071L70.373 72.0787L78.566 78.0828L78.8328 69.7071Z" fill="#1EC996"/>
</svg>
