<svg width="140" height="138" viewBox="0 0 140 138" fill="none" xmlns="http://www.w3.org/2000/svg">
<path fill-rule="evenodd" clip-rule="evenodd" d="M23.2217 113.586C23.6182 114.051 23.5521 114.742 23.0736 115.128C22.5954 115.514 21.8857 115.449 21.4893 114.984C21.0924 114.519 21.1585 113.828 21.6371 113.442C22.1152 113.056 22.8249 113.121 23.2217 113.586Z" fill="#1EC996"/>
<path fill-rule="evenodd" clip-rule="evenodd" d="M116.82 113.586C116.424 114.051 116.49 114.742 116.969 115.128C117.447 115.514 118.156 115.449 118.553 114.984C118.95 114.519 118.883 113.828 118.405 113.442C117.927 113.056 117.217 113.121 116.82 113.586Z" fill="#1EC996"/>
<path d="M15.0055 98.0024C15.0782 98.1142 15.1024 98.2207 15.0763 98.3219C15.0504 98.4238 14.9805 98.5102 14.8663 98.5817L9.73765 101.76L11.4205 104.33L12.8093 103.469C13.3868 103.111 13.9158 102.829 14.3948 102.622C14.8745 102.414 15.3167 102.273 15.7214 102.199C16.1265 102.123 16.5014 102.11 16.8463 102.158C17.1911 102.206 17.5215 102.305 17.8363 102.453C17.9575 102.503 18.0365 102.575 18.0744 102.67C18.1119 102.764 18.1033 102.867 18.0478 102.979C17.9931 103.092 17.9168 103.16 17.8206 103.185C17.7237 103.209 17.6185 103.195 17.5024 103.141C17.2592 103.026 16.9976 102.952 16.7176 102.918C16.4381 102.884 16.1257 102.901 15.7812 102.971C15.436 103.039 15.0399 103.174 14.5918 103.373C14.1433 103.573 13.628 103.854 13.0451 104.215L11.6125 105.103C11.4873 105.181 11.3704 105.208 11.2625 105.184C11.1546 105.161 11.0612 105.088 10.981 104.966L8.92126 101.82C8.84463 101.704 8.81686 101.591 8.83876 101.484C8.86105 101.377 8.93495 101.284 9.06084 101.206L14.4127 97.8886C14.5269 97.8179 14.6372 97.7928 14.7431 97.8129C14.8487 97.8331 14.9363 97.8966 15.0055 98.002V98.0024ZM11.6813 91.351C11.7161 91.4514 11.72 91.5389 11.6922 91.6142C11.6652 91.6895 11.6121 91.745 11.5354 91.7808C11.458 91.8162 11.3607 91.8291 11.243 91.8188L4.31655 91.2231C4.16836 91.2091 4.0538 91.1722 3.97248 91.1121C3.89076 91.0516 3.83367 90.9747 3.80083 90.8808C3.76838 90.7865 3.76564 90.6925 3.7934 90.5963C3.82116 90.4996 3.88959 90.4057 4.00141 90.3136L9.13474 85.7448C9.21998 85.6612 9.3056 85.6102 9.3924 85.5923C9.4796 85.5744 9.55506 85.5855 9.61957 85.6273C9.68369 85.6688 9.73296 85.7399 9.76776 85.8399C9.80686 85.9525 9.80803 86.0526 9.77128 86.1416C9.73374 86.2302 9.66532 86.3162 9.56483 86.3972L8.15804 87.6323L8.22999 87.1911L9.62935 91.2216L9.29387 90.904L11.1785 91.0463C11.3204 91.0626 11.431 91.0923 11.5104 91.1353C11.5898 91.179 11.6465 91.2509 11.6809 91.3506L11.6813 91.351ZM4.7963 90.5639L8.97131 90.8728L8.86691 91.1585L7.66266 87.6901L7.91758 87.8366L4.79004 90.5457L4.7963 90.5643V90.5639ZM7.98483 78.6902C8.00086 78.8211 7.97545 78.9257 7.90703 79.0033C7.83782 79.0816 7.73655 79.1284 7.60166 79.144L1.21286 79.9052C1.07171 79.9219 0.959103 79.9006 0.876603 79.8405C0.794104 79.7804 0.744057 79.6845 0.728026 79.5541C0.711214 79.4232 0.735846 79.319 0.801142 79.2414C0.866437 79.1642 0.97005 79.1163 1.11159 79.0995L3.89741 78.7682L3.37504 74.6144L0.589224 74.9465C0.448076 74.9632 0.335471 74.9415 0.253362 74.8818C0.170863 74.8213 0.120816 74.7259 0.104786 74.5954C0.0879729 74.4642 0.112605 74.3599 0.177901 74.2827C0.242806 74.2047 0.346809 74.1572 0.487957 74.1404L6.87755 73.3797C7.01205 73.3641 7.12192 73.3858 7.20872 73.4455C7.29473 73.5048 7.34517 73.5995 7.36198 73.7315C7.37802 73.8624 7.3526 73.9666 7.28418 74.0446C7.21497 74.1226 7.1137 74.1697 6.97881 74.1853L4.09212 74.5292L4.61448 78.683L7.50157 78.3391C7.63607 78.3235 7.74594 78.3437 7.83196 78.3992C7.91719 78.4559 7.9688 78.5529 7.98601 78.6902H7.98483ZM8.67533 66.6453C8.66594 66.7636 8.62528 66.8519 8.55256 66.9093C8.48061 66.9664 8.37974 66.9907 8.2511 66.9812L6.69964 66.866C6.42282 66.8458 6.29458 66.7005 6.31569 66.4312L6.36574 65.7895L6.47013 66.2836C6.06702 65.8701 5.48601 65.5426 4.72631 65.3015C3.967 65.0599 2.99539 64.8956 1.81264 64.8085L0.423444 64.7054C0.274867 64.6947 0.164607 64.6483 0.0926648 64.5669C0.0207223 64.4855 -0.0089931 64.3729 0.00234566 64.228L0.293244 60.4991C0.304191 60.3606 0.351501 60.2553 0.435174 60.1815C0.519237 60.1081 0.635752 60.0776 0.783938 60.0883L7.11175 60.5561L6.75126 60.8567L6.82163 59.9593C6.8318 59.8281 6.8752 59.7281 6.95183 59.6615C7.02847 59.5942 7.13443 59.5656 7.26932 59.5759L8.82078 59.6904C9.0843 59.7102 9.20708 59.8414 9.18792 60.0852C9.17814 60.2096 9.1367 60.3013 9.06397 60.3584C8.99203 60.4162 8.89115 60.4401 8.76291 60.4306L7.49492 60.337L7.04059 66.1573L8.30779 66.2509C8.57132 66.2699 8.69409 66.4011 8.67493 66.6446L8.67533 66.6453ZM6.40327 65.3072L6.71216 61.3512L0.963012 60.9259L0.725289 63.964L1.93189 64.053C3.02041 64.1337 3.9236 64.2744 4.64264 64.4772C5.36089 64.6784 5.94777 64.9557 6.40288 65.3068L6.40327 65.3072ZM8.91188 52.7613C8.86457 52.8982 8.79145 52.9907 8.69214 53.039C8.59361 53.0873 8.47357 53.0877 8.33243 53.0413L2.31584 51.0804C2.18095 51.0363 2.08868 50.9705 2.04098 50.8814C1.99328 50.7928 1.99015 50.6855 2.03355 50.5604C2.07695 50.4353 2.14498 50.3516 2.23843 50.309C2.33109 50.2664 2.44604 50.2667 2.58094 50.3112L8.34728 52.1907L9.37129 49.2165L3.60573 47.3374C3.47005 47.2933 3.37856 47.2267 3.33086 47.1381C3.28238 47.0494 3.28003 46.9422 3.32343 46.8174C3.3637 46.6984 3.43095 46.6177 3.52479 46.5751C3.61824 46.5325 3.73241 46.5336 3.8673 46.5774L9.63365 48.4569L10.6577 45.483L4.89209 43.6035C4.7572 43.5598 4.66531 43.4913 4.61879 43.4C4.57148 43.308 4.56874 43.2026 4.6094 43.0843C4.65202 42.9592 4.72083 42.8751 4.81428 42.8325C4.90695 42.7895 5.0219 42.791 5.15679 42.8348L11.1734 44.7957C11.3153 44.8421 11.4103 44.9128 11.4592 45.0094C11.5081 45.1053 11.5096 45.2221 11.4619 45.3594L8.91305 52.7613H8.91188ZM14.7549 38.6384C14.6962 38.727 14.6274 38.7845 14.5504 38.8107C14.4726 38.8366 14.3951 38.8305 14.3185 38.7943C14.2419 38.7574 14.1711 38.6916 14.1058 38.5958L10.2788 32.9478C10.1975 32.8261 10.156 32.7162 10.1537 32.6161C10.1513 32.5165 10.1779 32.4248 10.233 32.3419C10.2886 32.2589 10.3628 32.1981 10.4575 32.1589C10.5521 32.1201 10.6706 32.114 10.8144 32.1422L17.6842 33.2122C17.8042 33.2251 17.8988 33.2582 17.9672 33.313C18.0357 33.3685 18.074 33.4332 18.0802 33.5078C18.0865 33.5831 18.0607 33.6649 18.0017 33.7535C17.9356 33.8531 17.8554 33.9167 17.7608 33.9437C17.6662 33.9699 17.5544 33.9707 17.4265 33.9456L15.5572 33.642L15.9572 33.4222L13.5831 36.9944L13.6304 36.5413L14.6876 38.0663C14.7619 38.1842 14.8069 38.2869 14.8213 38.374C14.8358 38.4619 14.8131 38.5498 14.7545 38.638L14.7549 38.6384ZM11.1073 32.9033L13.4548 36.277L13.1596 36.3747L15.2029 33.3004L15.244 33.5854L11.1182 32.887L11.1073 32.9033ZM24.8288 25.9537C24.7349 26.0492 24.6352 26.0971 24.5297 26.1001C24.4241 26.1017 24.3224 26.0575 24.2247 25.9666L23.7398 25.5151L24.0706 25.5075L23.8947 25.6863C23.4306 26.158 22.9411 26.4786 22.4273 26.6475C21.9131 26.8164 21.4005 26.8392 20.8891 26.7148C20.3785 26.5905 19.8952 26.3154 19.4397 25.8917C19.0921 25.5676 18.8302 25.2279 18.6546 24.8726C18.4794 24.517 18.3934 24.1533 18.3969 23.7828C18.4005 23.4116 18.4908 23.0392 18.6675 22.6645C18.8438 22.2898 19.1097 21.922 19.4667 21.5602L19.6426 21.3815L19.6497 21.7033L19.2016 21.286C19.0992 21.1901 19.0472 21.092 19.0476 20.9916C19.0483 20.8912 19.0949 20.7938 19.1887 20.6983C19.2822 20.6036 19.3803 20.5541 19.48 20.5526C19.5809 20.5499 19.6829 20.5975 19.7854 20.6934L20.2334 21.1106L19.9093 21.1099L20.0852 20.9315C20.5591 20.4503 21.051 20.1232 21.5601 19.9489C22.0691 19.7751 22.5759 19.7538 23.0799 19.8862C23.5838 20.0174 24.0663 20.2978 24.5261 20.7264C24.8686 21.0456 25.1267 21.3845 25.3003 21.7421C25.4731 22.1 25.5591 22.4663 25.5576 22.8391C25.5564 23.2123 25.4696 23.5873 25.2952 23.9643C25.1216 24.3405 24.8612 24.7053 24.5136 25.0579L24.3377 25.237L24.324 24.9225L24.8088 25.374C24.9062 25.4653 24.9594 25.5596 24.9664 25.6578C24.9734 25.7555 24.9277 25.8544 24.8292 25.9545L24.8288 25.9537ZM23.5557 25.3295L19.8471 21.8733L20.113 21.8471L19.8675 22.0966C19.6329 22.3347 19.4569 22.5873 19.3404 22.8532C19.2239 23.1194 19.1715 23.3891 19.1824 23.6642C19.1934 23.9396 19.2689 24.2131 19.4096 24.4858C19.5492 24.7578 19.7592 25.024 20.0379 25.2838C20.3953 25.6171 20.7695 25.8381 21.1605 25.9461C21.5507 26.0549 21.9323 26.0534 22.3041 25.9434C22.6756 25.8331 23.0134 25.6228 23.3184 25.3131L23.5647 25.0628L23.5561 25.3291L23.5557 25.3295ZM24.1328 24.7437L23.8525 24.7699L24.0988 24.5196C24.3287 24.2865 24.5007 24.0358 24.6149 23.7676C24.7283 23.4991 24.7791 23.2263 24.7658 22.9494C24.7521 22.6717 24.6763 22.396 24.5386 22.1217C24.401 21.8463 24.1973 21.5838 23.9283 21.3332C23.5565 20.9866 23.1784 20.7576 22.7944 20.6473C22.4109 20.5355 22.0371 20.537 21.6723 20.6488C21.3079 20.7618 20.9665 20.9798 20.6471 21.3039L20.4008 21.5542L20.4238 21.2879L24.1324 24.7441L24.1328 24.7437ZM34.4894 17.6902C34.3846 17.7625 34.2794 17.7887 34.1735 17.7693C34.0675 17.7492 33.9752 17.6856 33.8966 17.578L30.3758 12.7543L28.5099 14.0427C28.411 14.1116 28.3133 14.1382 28.219 14.1222C28.1252 14.1066 28.0462 14.056 27.9833 13.9704C27.9164 13.8784 27.8934 13.7897 27.9129 13.703C27.9332 13.6167 27.9931 13.5395 28.0924 13.471L32.5117 10.4176C32.6115 10.3492 32.7061 10.3195 32.7972 10.3298C32.8871 10.3404 32.9661 10.3914 33.0329 10.4831C33.0998 10.5744 33.124 10.6649 33.1061 10.7535C33.0877 10.8433 33.0294 10.9224 32.9297 10.9909L31.0643 12.28L34.5844 17.104C34.663 17.2113 34.6958 17.3163 34.6829 17.4182C34.6704 17.5202 34.6051 17.6111 34.4894 17.6914V17.6902ZM43.0908 12.9069C42.9673 12.9609 42.8566 12.9685 42.7604 12.9274C42.6631 12.8867 42.5868 12.8065 42.5309 12.6863L39.8784 6.98048C39.8198 6.85419 39.8069 6.74388 39.8417 6.64879C39.8757 6.55445 39.9547 6.47951 40.0778 6.42512C40.2014 6.3711 40.3109 6.36274 40.4063 6.40001C40.5017 6.43767 40.5795 6.52022 40.6381 6.64612L41.7947 9.13422L45.714 7.40955L44.5574 4.92222C44.4988 4.79555 44.4867 4.68486 44.5199 4.59014C44.5547 4.49581 44.6337 4.42125 44.7568 4.36686C44.8808 4.31246 44.9903 4.30409 45.0857 4.34175C45.1814 4.37941 45.2585 4.46119 45.3175 4.58748L47.97 10.2933C48.0259 10.4135 48.0373 10.5222 48.0048 10.6204C47.972 10.7181 47.8941 10.7938 47.7702 10.8482C47.647 10.9026 47.5368 10.9099 47.4394 10.8695C47.3425 10.8288 47.2658 10.7486 47.2107 10.6284L46.0119 8.05012L42.0926 9.77441L43.2906 12.3527C43.3465 12.4729 43.3598 12.5809 43.3305 12.6775C43.3004 12.7741 43.221 12.8502 43.0912 12.9076L43.0908 12.9069ZM55.0419 8.69145C54.9351 8.71047 54.846 8.70172 54.7733 8.66444C54.7005 8.62755 54.6521 8.56859 54.6262 8.48947C54.6012 8.40997 54.602 8.31449 54.629 8.20304L56.2289 1.6201C56.2649 1.4786 56.3188 1.37399 56.3916 1.30362C56.4647 1.23363 56.5511 1.18988 56.6512 1.17201C56.7517 1.15413 56.8479 1.16516 56.9417 1.20548C57.0355 1.2458 57.1216 1.32568 57.1994 1.44626L61.1105 7.04439C61.1832 7.13872 61.2231 7.22849 61.2285 7.31408C61.2344 7.40043 61.2117 7.47156 61.1605 7.52785C61.1093 7.58415 61.0295 7.62143 60.9228 7.64083C60.8027 7.66213 60.7007 7.6492 60.6155 7.60051C60.5306 7.55182 60.4532 7.47308 60.3848 7.36505L59.3303 5.83362L59.769 5.96599L55.4681 6.73475L55.8391 6.45783L55.4235 8.25211C55.3867 8.38562 55.3406 8.48833 55.2851 8.55832C55.2292 8.62907 55.1478 8.67281 55.0411 8.69183L55.0419 8.69145ZM56.831 2.17584L55.9173 6.152L55.6417 6.01012L59.3428 5.34825L59.1578 5.57268L56.8506 2.1728L56.831 2.17622V2.17584ZM72.665 7.11323C72.5294 7.10943 72.4273 7.06911 72.3581 6.99113C72.2897 6.91239 72.2572 6.80817 72.2611 6.67655L72.3413 4.08575L71.1421 4.05038C70.9255 4.04429 70.7367 4.05837 70.5764 4.0926C70.4157 4.12798 70.271 4.19454 70.1428 4.29344C70.0137 4.39158 69.8956 4.53499 69.7881 4.72366L68.5858 6.73703C68.5287 6.83403 68.4556 6.90136 68.3661 6.93788C68.2766 6.97554 68.1913 6.98543 68.1108 6.97021C68.0302 6.95462 67.9598 6.9181 67.9008 6.86028C67.8414 6.80246 67.8062 6.73019 67.7952 6.64384C67.7843 6.55863 67.8109 6.45973 67.8754 6.34942L68.8842 4.65671C69.0488 4.37789 69.2329 4.174 69.437 4.04467C69.6411 3.91496 69.8757 3.85448 70.1396 3.86171L70.4039 3.86969L70.3394 3.99712C69.5872 3.97544 69.0065 3.78297 68.5972 3.42122C68.1878 3.05986 67.9923 2.56878 68.0122 1.94951C68.0255 1.51435 68.1288 1.1507 68.3207 0.85971C68.5127 0.568716 68.7907 0.348854 69.1547 0.201264C69.5191 0.053675 69.9547 -0.012512 70.463 0.00194264L72.8418 0.0719334C72.9903 0.0757373 73.103 0.116819 73.1792 0.194798C73.2547 0.273157 73.2906 0.38499 73.2859 0.529536L73.0947 6.70014C73.0908 6.83175 73.0521 6.93445 72.9782 7.00863C72.9051 7.0828 72.8007 7.11704 72.6646 7.11285L72.665 7.11323ZM70.481 3.38737L72.3616 3.44214L72.4461 0.732662L70.5654 0.677886C70.0102 0.66153 69.5864 0.763092 69.2947 0.982574C69.003 1.2013 68.8501 1.53185 68.8365 1.97386C68.8228 2.42804 68.9541 2.77419 69.2321 3.00926C69.5094 3.24548 69.9261 3.37177 70.4814 3.38775L70.481 3.38737ZM88.4009 9.75463C88.2844 9.71735 88.2054 9.65649 88.1632 9.57014C88.1213 9.48379 88.1198 9.38109 88.1597 9.26203L90.1791 3.25347C90.2217 3.12794 90.2851 3.04426 90.3703 3.00166C90.4563 2.95943 90.5564 2.95677 90.673 2.99367C90.7754 3.02676 90.8512 3.07279 90.8989 3.13327C90.9463 3.19337 90.9803 3.27934 90.9998 3.38965L92.0172 9.08401L91.7271 8.99196L95.9967 4.9789C96.0796 4.90168 96.157 4.85109 96.2289 4.82902C96.3005 4.80658 96.3916 4.81267 96.5003 4.84766C96.6098 4.88228 96.6864 4.942 96.7298 5.02492C96.7732 5.10785 96.7736 5.21245 96.7314 5.33798L94.7119 11.3465C94.672 11.4656 94.6099 11.5485 94.527 11.5945C94.4433 11.641 94.3408 11.6444 94.2185 11.606C94.102 11.5687 94.023 11.5078 93.9807 11.4207C93.9381 11.3351 93.9373 11.2317 93.9772 11.113L95.7535 5.8283L95.9854 5.90209L92.0868 9.54275C92.0141 9.61008 91.9484 9.65382 91.8878 9.67284C91.8279 9.69148 91.7529 9.68692 91.6626 9.65839C91.5726 9.62986 91.5081 9.5884 91.4694 9.53438C91.4303 9.47999 91.4045 9.41 91.3912 9.32175L90.4309 4.12417L90.6632 4.19835L88.8842 9.49254C88.8439 9.61122 88.7821 9.69453 88.6984 9.74055C88.6156 9.78696 88.5158 9.79152 88.3997 9.75463H88.4009ZM100.992 14.9358C100.901 14.8788 100.842 14.8118 100.815 14.7369C100.788 14.6612 100.795 14.5859 100.831 14.5113C100.869 14.4368 100.937 14.3679 101.035 14.3044L106.84 10.5801C106.966 10.5009 107.079 10.461 107.181 10.4583C107.284 10.4561 107.378 10.4819 107.463 10.5356C107.549 10.5892 107.611 10.6618 107.651 10.7535C107.691 10.8456 107.698 10.9612 107.669 11.1008L106.57 17.7842C106.557 17.9013 106.523 17.9934 106.466 18.0596C106.409 18.1261 106.342 18.1634 106.266 18.1695C106.188 18.1763 106.104 18.1505 106.013 18.093C105.911 18.0284 105.845 17.9512 105.818 17.8587C105.791 17.7667 105.789 17.6579 105.816 17.5339L106.128 15.7156L106.354 16.1048L102.681 13.7951L103.147 13.8411L101.58 14.8697C101.458 14.9427 101.353 14.9864 101.263 15.0005C101.173 15.0146 101.082 14.9925 100.992 14.9355V14.9358ZM106.886 11.3861L103.419 13.6707L103.318 13.3835L106.478 15.3714L106.185 15.4106L106.902 11.3967L106.885 11.3861H106.886ZM113.666 24.3424C113.158 23.8684 112.825 23.3576 112.669 22.8106C112.513 22.2632 112.528 21.7063 112.714 21.1407C112.901 20.5743 113.257 20.0246 113.782 19.4906C114.175 19.0912 114.584 18.7838 115.006 18.5697C115.427 18.3555 115.852 18.2349 116.277 18.2072C116.704 18.1798 117.129 18.2463 117.552 18.408C117.975 18.5697 118.375 18.826 118.752 19.1771C119.056 19.4605 119.303 19.7705 119.496 20.1095C119.688 20.4484 119.805 20.7926 119.846 21.1414C119.862 21.2483 119.853 21.3423 119.816 21.4225C119.779 21.5021 119.725 21.5618 119.654 21.6002C119.583 21.639 119.509 21.6569 119.433 21.6542C119.356 21.6508 119.288 21.6215 119.229 21.5671C119.17 21.5123 119.127 21.4275 119.101 21.3115C119.061 21.0087 118.969 20.7261 118.823 20.4636C118.679 20.2004 118.484 19.9554 118.239 19.7272C117.852 19.3666 117.445 19.141 117.019 19.0497C116.593 18.9584 116.161 19.001 115.724 19.1775C115.287 19.3552 114.854 19.6598 114.428 20.0935C114.001 20.5271 113.705 20.9619 113.54 21.3963C113.374 21.8311 113.347 22.2541 113.46 22.6645C113.571 23.0749 113.821 23.4603 114.208 23.8209C114.448 24.0442 114.71 24.2218 114.993 24.353C115.276 24.4854 115.576 24.566 115.893 24.5972C116.014 24.6178 116.102 24.6566 116.159 24.714C116.215 24.7711 116.247 24.8346 116.253 24.9046C116.259 24.9742 116.245 25.0438 116.211 25.1123C116.177 25.18 116.123 25.2351 116.049 25.2766C115.976 25.3173 115.889 25.3321 115.788 25.3196C115.413 25.2998 115.044 25.2051 114.681 25.0351C114.317 24.8658 113.979 24.6345 113.665 24.3424H113.666ZM121.081 32.7089C121.006 32.6074 120.978 32.5054 120.998 32.4024C121.018 32.2985 121.083 32.2087 121.193 32.1319L126.134 28.6841L124.801 26.8754C124.731 26.7787 124.702 26.6844 124.719 26.592C124.734 26.5007 124.785 26.4238 124.874 26.3622C124.968 26.2972 125.059 26.274 125.148 26.2926C125.238 26.3116 125.317 26.3698 125.388 26.4661L128.547 30.7519C128.618 30.8485 128.649 30.9402 128.638 31.0284C128.628 31.1167 128.576 31.1935 128.483 31.2589C128.389 31.3243 128.296 31.3479 128.205 31.3312C128.112 31.3137 128.031 31.2578 127.959 31.1612L126.627 29.3517L121.685 32.7995C121.575 32.8763 121.467 32.9083 121.362 32.8965C121.257 32.8843 121.164 32.8219 121.08 32.7089H121.081ZM126.288 40.9663C126.227 40.8343 126.216 40.7183 126.254 40.6175C126.293 40.5171 126.381 40.4376 126.517 40.3775L132.215 37.8704C132.35 37.811 132.47 37.7996 132.574 37.8373C132.677 37.8753 132.759 37.9609 132.82 38.0925L134.38 41.446C134.427 41.5479 134.436 41.6385 134.405 41.7168C134.375 41.796 134.31 41.8561 134.211 41.8998C134.106 41.9458 134.013 41.9546 133.933 41.9249C133.851 41.8952 133.788 41.8294 133.74 41.7267L132.328 38.6897L130.067 39.6841L131.392 42.5328C131.439 42.6347 131.449 42.7241 131.422 42.8013C131.394 42.8781 131.328 42.9398 131.223 42.9862C131.119 43.0322 131.026 43.0406 130.944 43.0109C130.863 42.9812 130.8 42.9162 130.752 42.8135L129.428 39.9655L127.075 41.001L128.487 44.0387C128.534 44.1406 128.542 44.2312 128.512 44.3095C128.482 44.3883 128.417 44.4488 128.318 44.4925C128.213 44.5385 128.121 44.5473 128.04 44.5176C127.959 44.4879 127.895 44.4218 127.847 44.3194L126.288 40.966L126.288 40.9663ZM130.391 51.3581C130.361 51.2295 130.375 51.1226 130.435 51.0385C130.495 50.9537 130.591 50.8974 130.723 50.8674L136.936 49.4721C137.074 49.4405 137.187 49.4523 137.273 49.5079C137.359 49.563 137.417 49.6547 137.447 49.7833L137.99 52.0679C138.162 52.7944 138.112 53.3943 137.838 53.869C137.565 54.3429 137.094 54.6552 136.427 54.8051C135.766 54.9538 135.205 54.8732 134.741 54.5643C134.279 54.2555 133.961 53.7378 133.789 53.012L133.339 51.1127L130.91 51.6578C130.778 51.6875 130.667 51.6787 130.575 51.6316C130.484 51.5844 130.423 51.4931 130.391 51.3584L130.391 51.3581ZM134.022 50.9587L134.45 52.7605C134.574 53.2817 134.787 53.648 135.091 53.8606C135.396 54.0732 135.779 54.1276 136.241 54.0238C136.711 53.9184 137.034 53.705 137.212 53.3844C137.389 53.0633 137.417 52.643 137.293 52.1223L136.866 50.3196L134.022 50.9583V50.9587ZM132.656 65.3414C132.603 64.6582 132.706 64.0614 132.965 63.5528C133.225 63.0442 133.618 62.6395 134.145 62.3398C134.672 62.0385 135.315 61.8609 136.072 61.8046C136.639 61.7624 137.153 61.7985 137.615 61.9134C138.076 62.0279 138.475 62.2135 138.811 62.4699C139.147 62.7262 139.418 63.0522 139.622 63.4471C139.826 63.8419 139.948 64.2923 139.988 64.7982C140.019 65.2064 139.99 65.5985 139.902 65.9759C139.812 66.3528 139.663 66.6849 139.453 66.9713C139.393 67.0615 139.321 67.125 139.239 67.1608C139.156 67.1961 139.076 67.2057 138.996 67.1882C138.917 67.1714 138.849 67.136 138.794 67.0843C138.74 67.0322 138.709 66.9664 138.703 66.8877C138.697 66.8089 138.723 66.7176 138.784 66.6138C138.961 66.3623 139.086 66.0923 139.158 65.802C139.231 65.5126 139.254 65.2029 139.228 64.8743C139.188 64.355 139.039 63.9226 138.785 63.5775C138.53 63.2322 138.179 62.9838 137.732 62.8316C137.285 62.6802 136.754 62.6266 136.139 62.6718C135.524 62.7179 135.006 62.8491 134.584 63.0652C134.162 63.2816 133.853 63.5791 133.654 63.9576C133.456 64.3368 133.377 64.7853 133.419 65.3053C133.444 65.6271 133.517 65.9295 133.637 66.211C133.758 66.4936 133.926 66.7488 134.141 66.9778C134.217 67.071 134.256 67.1577 134.258 67.2368C134.261 67.316 134.241 67.3837 134.198 67.44C134.154 67.4963 134.096 67.5385 134.024 67.5666C133.951 67.5952 133.874 67.6009 133.791 67.5841C133.708 67.5674 133.633 67.5218 133.566 67.4468C133.301 67.1893 133.092 66.8785 132.938 66.5164C132.783 66.1547 132.69 65.7625 132.657 65.3414H132.656ZM132.36 74.778C132.377 74.6471 132.428 74.552 132.513 74.4927C132.6 74.4326 132.71 74.4113 132.844 74.4276L139.244 75.1884C139.385 75.2051 139.487 75.2516 139.549 75.3292C139.61 75.406 139.633 75.5102 139.617 75.6418C139.601 75.7727 139.553 75.8678 139.474 75.9283C139.394 75.9884 139.284 76.01 139.142 75.9933L136.326 75.6589L136.156 77.0139L136.024 76.7586L138.948 79.1794C139.035 79.2494 139.088 79.3259 139.108 79.4076C139.129 79.4894 139.126 79.5693 139.099 79.6458C139.072 79.7226 139.027 79.7831 138.962 79.8287C138.899 79.8744 138.825 79.8972 138.739 79.8972C138.654 79.8964 138.567 79.8614 138.481 79.7918L135.784 77.5274L136.094 77.2554C135.997 77.6491 135.81 77.9721 135.532 78.225C135.255 78.4772 134.887 78.6834 134.431 78.842L132.355 79.5415C132.24 79.5815 132.143 79.5864 132.061 79.5567C131.98 79.5271 131.919 79.4772 131.88 79.4057C131.842 79.3346 131.822 79.257 131.822 79.1741C131.822 79.0911 131.848 79.0132 131.898 78.939C131.948 78.8656 132.027 78.8112 132.133 78.7781L134.131 78.128C134.566 77.9804 134.886 77.7944 135.092 77.5692C135.299 77.3444 135.423 77.0527 135.469 76.6925L135.61 75.573L132.743 75.2322C132.608 75.2166 132.507 75.1709 132.437 75.0964C132.369 75.021 132.343 74.9157 132.36 74.7776L132.36 74.778ZM130.15 85.5664C130.184 85.466 130.235 85.3937 130.303 85.35C130.372 85.3059 130.448 85.2922 130.532 85.3085C130.615 85.3253 130.701 85.3713 130.789 85.4481L135.959 89.9713C136.069 90.0694 136.138 90.1661 136.166 90.2619C136.195 90.3578 136.193 90.4525 136.161 90.5464C136.13 90.6408 136.073 90.718 135.992 90.7785C135.91 90.839 135.797 90.8743 135.651 90.8827L128.726 91.5373C128.606 91.5541 128.506 91.5453 128.425 91.5088C128.345 91.4723 128.291 91.419 128.266 91.3483C128.24 91.2772 128.244 91.1919 128.278 91.0915C128.316 90.9789 128.377 90.8979 128.462 90.8481C128.546 90.7994 128.654 90.7712 128.784 90.7644L130.671 90.5985L130.341 90.9097L131.711 86.8693L131.783 87.3189L130.363 86.1039C130.261 86.0081 130.19 85.9194 130.153 85.8388C130.117 85.7574 130.116 85.6665 130.15 85.5668L130.15 85.5664ZM135.169 90.2178L132.022 87.5311L132.282 87.3641L131.103 90.8409L130.99 90.5753L135.163 90.2368L135.169 90.2178H135.169ZM122.824 101.238C122.891 101.124 122.977 101.056 123.08 101.033C123.183 101.012 123.293 101.034 123.411 101.099L125.717 102.395L126.317 101.385C126.426 101.202 126.502 101.034 126.548 100.88C126.592 100.725 126.6 100.57 126.571 100.413C126.543 100.256 126.469 100.087 126.35 99.9062L125.096 97.9225C125.036 97.827 125.009 97.7331 125.018 97.6387C125.027 97.5444 125.058 97.4664 125.11 97.4048C125.162 97.3432 125.229 97.2998 125.309 97.277C125.39 97.2534 125.472 97.2572 125.554 97.2895C125.637 97.3203 125.714 97.3899 125.783 97.4976L126.838 99.1641C127.012 99.4372 127.109 99.6913 127.129 99.9279C127.15 100.164 127.094 100.393 126.962 100.616L126.83 100.839L126.745 100.722C127.122 100.089 127.57 99.6825 128.092 99.503C128.613 99.3234 129.15 99.3892 129.702 99.6989C130.089 99.9165 130.369 100.177 130.542 100.479C130.715 100.782 130.782 101.124 130.743 101.506C130.704 101.888 130.557 102.293 130.303 102.721L129.113 104.726C129.039 104.852 128.949 104.928 128.842 104.956C128.735 104.984 128.617 104.962 128.489 104.89L122.993 101.802C122.876 101.736 122.801 101.654 122.769 101.556C122.737 101.458 122.756 101.353 122.824 101.238ZM127.231 101.133L126.29 102.718L128.703 104.073L129.644 102.488C129.922 102.02 130.031 101.609 129.97 101.255C129.911 100.901 129.684 100.614 129.29 100.393C128.885 100.165 128.51 100.114 128.165 100.241C127.82 100.367 127.509 100.664 127.231 101.133Z" fill="#2D4A45"/>
<path d="M27.6752 124.1C27.4629 123.968 27.317 123.808 27.2365 123.623C27.1563 123.436 27.1548 123.248 27.2326 123.056C27.3104 122.865 27.4672 122.692 27.7033 122.539L33.7884 118.773C34.0824 118.59 34.3604 118.495 34.6208 118.488C34.8812 118.481 35.1279 118.551 35.3609 118.696C35.594 118.84 35.7582 119.027 35.854 119.256C35.9498 119.485 35.9775 119.769 35.9365 120.111L34.9695 127.064C34.939 127.345 34.8507 127.563 34.706 127.717C34.5613 127.872 34.3874 127.952 34.186 127.957C33.9842 127.963 33.7801 127.902 33.5745 127.775C33.3008 127.604 33.1295 127.413 33.0615 127.2C32.9931 126.989 32.9884 126.713 33.047 126.374L33.3274 124.759L33.7121 125.717L29.4777 123.079L30.5427 123.025L29.152 123.949C28.8533 124.138 28.5995 124.253 28.3903 124.292C28.1811 124.331 27.943 124.268 27.6756 124.101L27.6752 124.1ZM34.0179 120.691L31.0033 122.72L31.0315 122.06L34.0226 123.923L33.4189 124.223L34.039 120.704L34.0179 120.691ZM43.5432 132.63C43.2034 132.519 42.9735 132.341 42.8523 132.097C42.7307 131.852 42.7288 131.561 42.8461 131.224L44.8933 125.318C45.0133 124.973 45.1994 124.74 45.4512 124.618C45.7042 124.496 46.0111 124.495 46.374 124.613L51.6809 126.355C52.0434 126.473 52.2873 126.656 52.4125 126.902C52.5376 127.148 52.5399 127.443 52.4203 127.788L50.3727 133.693C50.2558 134.031 50.0751 134.262 49.8304 134.386C49.5852 134.51 49.2896 134.516 48.9424 134.402C48.6034 134.291 48.3727 134.113 48.2523 133.868C48.1307 133.624 48.1288 133.333 48.2453 132.996L50.0786 127.708L46.8056 126.634L44.9731 131.922C44.8562 132.259 44.6775 132.49 44.4362 132.616C44.1954 132.741 43.8971 132.747 43.5428 132.63L43.5432 132.63ZM60.5791 136.947C60.2221 136.921 59.9535 136.803 59.7748 136.595C59.595 136.388 59.5187 136.11 59.5461 135.763L60.0348 129.513C60.0626 129.158 60.1834 128.892 60.3965 128.718C60.6104 128.543 60.8954 128.469 61.2528 128.495L64.2462 128.717C65.2198 128.789 65.9525 129.088 66.4467 129.612C66.9398 130.137 67.1529 130.826 67.086 131.678C67.0195 132.53 66.7016 133.179 66.1324 133.626C65.5627 134.071 64.792 134.258 63.8181 134.186L61.9315 134.046L61.7845 135.929C61.7576 136.276 61.6426 136.539 61.4416 136.719C61.2399 136.899 60.9521 136.975 60.5791 136.947ZM62.0625 132.378L63.5592 132.488C63.9811 132.52 64.3123 132.454 64.5532 132.294C64.794 132.133 64.9289 131.876 64.9566 131.52C64.9848 131.157 64.8921 130.88 64.6787 130.689C64.4652 130.499 64.1477 130.389 63.7254 130.357L62.2287 130.247L62.0621 132.378H62.0625ZM76.9488 137.039C76.5687 137.083 76.2684 137.019 76.0471 136.849C75.8262 136.679 75.6945 136.413 75.6507 136.051L74.9203 129.979C74.8769 129.617 74.9426 129.329 75.117 129.114C75.2921 128.899 75.569 128.77 75.9494 128.726L80.0575 128.259C80.3488 128.226 80.5752 128.271 80.7379 128.397C80.8997 128.522 80.9975 128.718 81.0295 128.985C81.0624 129.26 81.0151 129.478 80.8872 129.64C80.7594 129.802 80.5498 129.9 80.2589 129.933L77.1204 130.291L77.31 131.871L80.1827 131.544C80.4657 131.512 80.6902 131.558 80.8567 131.682C81.0233 131.807 81.123 132.006 81.1566 132.282C81.1895 132.556 81.1394 132.774 81.0073 132.932C80.8747 133.09 80.6671 133.186 80.3848 133.218L77.5122 133.545L77.7174 135.255L80.8563 134.898C81.1476 134.865 81.374 134.913 81.537 135.041C81.7001 135.17 81.7978 135.368 81.8295 135.636C81.8628 135.91 81.815 136.127 81.6864 136.285C81.5586 136.443 81.3486 136.539 81.0573 136.572L76.9492 137.039H76.9488ZM97.3445 132.17C97.0117 132.299 96.7177 132.309 96.4624 132.199C96.2075 132.089 96.0116 131.869 95.8759 131.538L93.7501 126.355L91.6649 127.165L92.1849 128.433C92.4172 128.999 92.5857 129.539 92.6913 130.052C92.796 130.565 92.8434 131.053 92.8332 131.518C92.8215 131.982 92.753 132.422 92.6252 132.838C92.4985 133.254 92.319 133.639 92.0872 133.994C91.9269 134.243 91.7181 134.394 91.4592 134.448C91.2004 134.501 90.9357 134.453 90.6644 134.302C90.3969 134.142 90.2429 133.938 90.2026 133.689C90.1623 133.441 90.2186 133.184 90.3727 132.92C90.5279 132.655 90.6335 132.374 90.6898 132.075C90.7461 131.775 90.7617 131.45 90.7359 131.098C90.7101 130.746 90.6397 130.366 90.5256 129.959C90.4106 129.552 90.2577 129.113 90.0642 128.643L89.5125 127.297C89.3737 126.959 89.3596 126.665 89.4711 126.412C89.5825 126.16 89.8112 125.967 90.1588 125.832L94.0695 124.314C94.4171 124.178 94.7221 124.165 94.9848 124.272C95.2484 124.378 95.4485 124.6 95.5873 124.938L97.9618 130.728C98.0975 131.059 98.1116 131.349 98.0041 131.6C97.8961 131.85 97.6772 132.041 97.3445 132.17V132.17ZM107.908 126.746C107.585 126.946 107.285 127.015 107.01 126.955C106.736 126.895 106.498 126.711 106.297 126.403L102.871 121.137C102.671 120.83 102.601 120.545 102.662 120.283C102.722 120.02 102.904 119.796 103.206 119.61C103.515 119.42 103.803 119.355 104.069 119.416C104.335 119.476 104.568 119.661 104.768 119.968L106.002 121.865L107.714 120.811C108.243 120.484 108.752 120.287 109.243 120.219C109.733 120.152 110.186 120.215 110.601 120.409C111.017 120.603 111.374 120.93 111.674 121.392C112.127 122.087 112.246 122.763 112.033 123.42C111.82 124.075 111.317 124.647 110.526 125.134L107.908 126.746V126.746ZM107.908 124.794L109.362 123.898C109.712 123.682 109.927 123.461 110.006 123.235C110.085 123.008 110.04 122.765 109.869 122.504C109.7 122.243 109.495 122.1 109.253 122.076C109.01 122.052 108.715 122.148 108.363 122.364L106.909 123.259L107.909 124.795L107.908 124.794Z" fill="#2D4A45"/>
<path fill-rule="evenodd" clip-rule="evenodd" d="M34.7589 68.5622L68.0534 63.1706C67.8787 62.4932 67.6781 61.826 67.4529 61.1672C67.1026 60.1443 66.6897 59.1386 66.2173 58.1484L66.2162 58.145C66.1751 58.0514 66.1309 57.9571 66.0715 57.8787C66.0301 57.824 65.9804 57.7757 65.9171 57.7391C65.8048 57.8418 65.6809 57.935 65.5468 58.0183C64.5588 58.6376 63.0527 58.7278 61.5821 58.4524C60.1167 58.1785 58.6782 57.5413 57.8192 56.7045C57.6441 56.5341 57.4924 56.3549 57.3696 56.1689L57.3356 56.1179C57.3207 56.1073 57.2969 56.0928 57.2844 56.0803C57.1299 55.9304 57.0568 55.8247 57.0646 55.7128C57.0724 55.596 57.1635 55.512 57.3371 55.4074C57.6761 55.2008 58.0296 55.0198 58.3956 54.86C58.76 54.7006 59.1357 54.5629 59.5208 54.4427L59.522 54.442C60.1683 54.2468 61.1563 54.1072 62.083 54.1475C62.813 54.1791 63.5082 54.3225 63.9781 54.6382L63.984 54.6405L64.0618 54.6466C64.1205 54.6523 64.1795 54.658 64.2292 54.6439L64.1846 54.5675C63.8405 54.0289 63.4675 53.5157 63.0761 53.0144C62.6828 52.5119 62.2679 52.0166 61.8414 51.5191C61.8253 51.5004 61.8124 51.4757 61.8038 51.4533C61.7968 51.4343 61.7921 51.4133 61.7913 51.3943C61.7866 51.3681 61.7819 51.3373 61.7815 51.3068C61.7804 51.2616 61.7886 51.2167 61.812 51.1813L61.8179 51.171C61.859 51.1121 61.9184 51.0801 61.9809 51.0706C62.0388 51.0622 62.0998 51.0733 62.1491 51.0999L62.1768 51.1166C62.3156 51.2269 63.1363 52.1334 63.7467 52.8074C63.9203 52.9988 64.07 53.1688 64.1815 53.2943C63.9332 51.4799 63.88 50.365 64.2444 49.3722C64.6307 48.3193 65.4803 47.4227 67.0584 45.9929L67.0634 45.9883C67.237 45.8498 67.3645 45.7859 67.4908 45.8126C67.6159 45.8399 67.7074 45.951 67.8063 46.1602C68.0847 46.7392 68.3084 47.3307 68.462 47.9378C68.6153 48.5464 68.699 49.1706 68.6982 49.8134C68.7021 50.4338 68.6102 51.0265 68.4077 51.5803C68.2134 52.1094 67.9189 52.6028 67.5111 53.0513C67.2097 53.3929 66.8734 53.6903 66.5039 53.9425C66.1454 54.1875 65.7544 54.3914 65.3341 54.5534C65.3341 54.7021 65.4314 54.8204 65.5284 54.9376L65.5839 55.0053C65.8705 55.3827 66.1391 55.7703 66.3949 56.1643C66.6486 56.5546 66.8906 56.9552 67.126 57.3595C67.6128 58.207 68.048 59.0762 68.4139 59.9728C68.7807 60.8705 69.0786 61.7959 69.289 62.7534L69.3046 62.823L69.3363 62.9622L69.4512 62.9439L69.4927 62.6236C69.8716 60.0777 70.2883 57.4093 70.6989 54.7805C70.9569 53.1266 71.2138 51.4871 71.4488 49.9515C71.3796 48.6723 70.9362 46.9267 70.3361 45.1807C69.6487 43.1799 68.7553 41.181 67.9827 39.8816C67.8067 39.6073 67.1725 39.815 66.3495 40.0832C65.4772 40.3681 64.4055 40.7177 63.3713 40.6374C62.42 40.5629 61.5911 40.3168 60.8275 39.9409C60.0678 39.5674 59.3742 39.0653 58.6876 38.4761C58.5003 38.3251 58.4045 38.214 58.3995 38.0945C58.3936 37.9667 58.4855 37.8675 58.6708 37.7446L58.6724 37.7434C59.1924 37.4152 59.7273 37.1287 60.2833 36.8952C60.8412 36.6613 61.4218 36.4798 62.0306 36.3619C64.1201 35.9758 65.3388 36.6206 65.6746 36.7982L65.8135 36.8712L65.7978 36.8537C65.7595 36.8054 65.7259 36.7636 65.7094 36.7411C65.6473 36.6632 65.589 36.5806 65.5308 36.4981C65.4725 36.4167 65.4146 36.3349 65.3525 36.2577L65.3513 36.2558C65.3259 36.2234 65.3173 36.1766 65.3224 36.1363C65.3274 36.0949 65.349 36.0511 65.3822 36.0253C65.4088 36.0055 65.442 35.9865 65.4745 35.9731C65.5108 35.9583 65.5499 35.9507 65.5851 35.9553L65.6047 35.9591C65.7744 36.0108 65.885 36.1242 65.9984 36.2402L66.0649 36.3067C66.213 36.4547 66.3522 36.6019 66.4903 36.7487C66.6302 36.8975 66.771 37.0462 66.9121 37.1873L66.9329 37.2098C66.979 37.2585 67.0263 37.3091 67.0822 37.3212C67.1033 37.26 67.0959 37.1919 67.0893 37.1246C67.0846 37.0816 67.0799 37.0375 67.0807 36.9899C67.0791 36.6852 67.09 36.3813 67.1284 36.0808C67.1675 35.7772 67.2363 35.476 67.3504 35.1808C67.7692 34.1207 68.3979 33.3846 69.1838 32.8346C69.9654 32.2884 70.8979 31.927 71.9297 31.6147L71.9336 31.6143C72.0627 31.5801 72.1624 31.5789 72.2457 31.6219C72.3305 31.6657 72.3848 31.7463 72.4208 31.8745C72.6175 32.5151 72.7477 33.161 72.7844 33.8122C72.822 34.4645 72.7657 35.1222 72.5878 35.7852C72.4771 36.1881 72.3082 36.5509 72.0807 36.8769C71.8535 37.2029 71.5688 37.4905 71.2263 37.7419L71.2252 37.7427C70.849 38.012 70.4549 38.2189 70.0393 38.3646C69.6287 38.5088 69.1971 38.5928 68.7416 38.6183C68.2837 38.764 68.2861 38.7682 68.5848 39.214C68.6286 39.2783 68.6708 39.3452 68.7123 39.4114C68.7498 39.4708 68.7866 39.5301 68.8288 39.5921C69.5556 40.596 70.1886 41.6405 70.7106 42.7349C71.2334 43.8304 71.6451 44.9768 71.9309 46.183C71.936 46.2089 71.9383 46.242 71.9415 46.269C72.6511 43.6767 73.1696 39.6362 73.6192 36.1352C73.7967 34.751 73.9641 33.4504 74.1283 32.3492L74.1361 32.2899C74.1881 31.8924 74.2088 31.7319 74.1858 31.6314C74.1721 31.5713 74.1349 31.5177 74.0743 31.4283C74.0122 31.3382 73.9277 31.2145 73.8182 31.0148L73.8147 31.0076C73.4214 30.146 73.2227 29.2875 73.2302 28.4316C73.2376 27.5746 73.4526 26.7218 73.8859 25.8724C74.4317 24.8157 75.0491 24.2307 75.8397 23.4832L75.8983 23.4269C75.9253 23.401 75.9542 23.3794 75.9843 23.3619C76.0527 23.3227 76.1259 23.3071 76.197 23.3158C76.2678 23.3242 76.335 23.3569 76.3913 23.4117C76.4156 23.4357 76.4387 23.4646 76.4582 23.4969C76.8484 24.0968 77.1788 24.7179 77.4169 25.3669C77.6562 26.0192 77.8032 26.7013 77.8255 27.4213C77.8466 28.022 77.7528 28.5891 77.5483 29.1163C77.3418 29.647 77.0232 30.1377 76.597 30.5819C76.095 31.097 75.7341 31.2838 75.4698 31.4203C75.1214 31.5999 74.9619 31.6828 74.8551 32.5021C74.7507 33.3686 74.6452 34.2386 74.5427 35.1104C74.4383 35.9914 74.3371 36.8674 74.2401 37.7309V37.7324C74.2366 37.7587 74.2295 37.7902 74.2209 37.8283C74.2006 37.9226 74.1678 38.071 74.1662 38.1501C74.2194 38.0877 74.3113 37.9447 74.4931 37.7598C75.2129 37.0245 76.5673 35.643 77.0158 35.3896C77.0842 35.347 77.2938 35.2192 77.5025 35.115C77.7493 34.9914 78.0046 34.9073 78.1101 35.0123L78.1117 35.0138C78.17 35.0751 78.1703 35.1344 78.1332 35.1899C78.3412 35.1526 78.5516 35.1047 78.6352 35.0731L78.6364 35.072C79.3558 34.8152 80.0764 34.6821 80.7998 34.6642C81.5219 34.6467 82.2457 34.7441 82.9702 34.9453C83.6059 35.0895 84.1572 35.301 84.6432 35.5433C85.13 35.7868 85.5499 36.0602 85.9241 36.3284C86.1321 36.4654 86.2838 36.5871 86.3155 36.7468C86.348 36.9123 86.2486 37.0861 85.9476 37.3052C85.2684 37.8138 84.4579 38.2619 83.604 38.575C82.8181 38.8637 81.9931 39.0394 81.1974 39.0463C79.4333 39.0558 78.1938 38.1018 77.3669 37.4646C76.8836 37.0934 76.5567 36.8416 76.4132 36.9762C76.3878 37.0013 76.3655 37.0283 76.3436 37.0542C76.3194 37.0835 76.2952 37.1124 76.2658 37.1424C75.8209 37.6453 75.4103 38.1649 75.0366 38.7077C74.6632 39.2513 74.3269 39.8188 74.0313 40.4179L74.0266 40.4263C73.9942 40.4796 73.9574 40.5332 73.9207 40.5864C73.8917 40.6287 73.8628 40.6705 73.8366 40.7131L73.202 46.3439C73.168 46.6376 73.0785 47.1599 72.9702 47.797C72.6472 49.6894 72.1487 52.6123 72.4064 53.5169L72.5107 53.335C72.5714 53.2308 72.63 53.1308 72.682 53.0243L72.6832 53.0216C73.0734 52.289 73.5082 51.5891 73.9895 50.9238C74.4708 50.2581 75.0002 49.6259 75.5773 49.0276C76.0637 48.5178 76.5681 48.0332 77.0752 47.5456C77.2949 47.3349 77.515 47.1234 77.7344 46.9096L77.5295 46.6836C77.3188 46.452 77.1053 46.2177 76.9137 45.9776C76.6416 45.6364 76.423 45.2694 76.2588 44.8806C76.0946 44.4907 75.9851 44.0803 75.9323 43.6527C75.6551 41.4857 76.7014 40.0261 77.2394 39.2749L77.2844 39.2117C77.3911 39.0649 77.4803 38.9835 77.5858 38.9626C77.6988 38.9394 77.8024 38.9854 77.9334 39.0915L77.9346 39.0931C78.0269 39.1703 78.1184 39.2479 78.1985 39.319C78.2857 39.3958 78.3713 39.4757 78.4527 39.559C78.8307 39.9417 79.1901 40.3426 79.4954 40.7785C79.8031 41.2183 80.0577 41.6945 80.2219 42.2244C80.4835 43.0909 80.2586 44 80.1034 44.6284C80.0385 44.8916 79.9877 45.0989 79.983 45.2043L80.1011 45.1248C80.7415 44.69 81.389 44.2515 82.0815 43.8813C82.1507 43.841 82.2257 43.8106 82.2953 43.7824L82.3962 43.7402L82.4267 43.744C82.4384 43.7452 82.4548 43.7474 82.4756 43.7535H82.4771C82.5025 43.7611 82.5291 43.7737 82.551 43.7958C82.5929 43.8323 82.6183 43.8775 82.6249 43.9266C82.6312 43.9783 82.6163 44.0297 82.576 44.0757L82.571 44.0814C82.4943 44.1583 82.4126 44.2267 82.3329 44.2922C82.0427 44.5371 81.7436 44.773 81.4473 45.0118C80.9476 45.4139 80.444 45.8183 79.9603 46.2199C79.9396 46.2386 79.9177 46.2549 79.895 46.2705C79.8739 46.2858 79.8508 46.3025 79.8407 46.3204L79.8841 46.3166C79.9455 46.3093 80.0088 46.2979 80.071 46.285C80.1386 46.2705 80.1988 46.2553 80.2508 46.2409L80.2555 46.2397C81.8547 45.8582 83.288 45.9655 84.5193 46.3694C85.9992 46.8552 87.1874 47.7704 88.0233 48.783C88.1457 48.8918 88.195 48.999 88.1762 49.1055C88.1578 49.2109 88.0738 49.2995 87.928 49.373C87.2253 49.7256 86.5047 50.0207 85.7579 50.2216C85.0104 50.4224 84.2366 50.5278 83.4308 50.5012C82.3907 50.4704 81.4774 50.2163 80.6997 49.748C79.9193 49.2775 79.2757 48.592 78.7768 47.6981L78.7694 47.6814C78.7619 47.6605 78.751 47.6411 78.7357 47.6217C78.7236 47.6072 78.7099 47.592 78.6923 47.5775C78.5418 47.5764 78.4351 47.6704 78.3135 47.7769L78.22 47.8571C77.8544 48.244 77.4967 48.6365 77.1495 49.0359C76.7999 49.438 76.4633 49.8465 76.1435 50.2619C75.3235 51.3213 74.384 52.6907 73.5739 54.0878C72.9021 55.2472 72.3188 56.4279 71.9649 57.4694C71.6596 59.1253 71.4586 60.8971 71.2737 62.6503L94.0024 58.9697L93.3358 71.6589L102.27 54.623C102.523 54.1392 103.026 53.8607 103.548 53.8596L112.813 53.8584C113.606 53.8584 114.249 54.4838 114.249 55.2556C114.249 56.0266 113.606 56.6528 112.813 56.6528H104.426L93.3412 77.782L92.9315 90.3952C92.9354 90.6873 92.8455 90.9836 92.6546 91.237C92.187 91.8574 91.2905 91.992 90.6532 91.5371L77.2636 81.9308L51.8085 88.9151C51.8691 89.3202 51.9 89.7352 51.9 90.157C51.9 92.528 50.9085 94.6809 49.3058 96.2424L49.3007 96.2481C47.6957 97.8073 45.4823 98.772 43.0456 98.772C40.6015 98.772 38.3877 97.8073 36.7847 96.2481C35.1824 94.6893 34.1904 92.5344 34.1904 90.157C34.1904 87.7827 35.1839 85.6308 36.7847 84.0716L36.7905 84.0667C38.3932 82.5086 40.6054 81.5428 43.0456 81.5428C45.4893 81.5428 47.7039 82.5083 49.3062 84.0667C49.7871 84.5346 50.2129 85.0557 50.5738 85.6213L56.4695 82.3968L34.7574 68.5641L34.7589 68.5622ZM43.0476 87.2376C44.0352 87.2376 44.9099 87.702 45.4569 88.4175L48.0695 86.9892C47.84 86.6453 47.5749 86.3273 47.2785 86.039C46.1962 84.9861 44.6999 84.3345 43.0476 84.3345C41.3929 84.3345 39.895 84.9857 38.8135 86.0363C37.7336 87.0892 37.0642 88.5461 37.0642 90.1555C37.0642 91.763 37.734 93.2195 38.8163 94.2717C39.8977 95.3246 41.3952 95.9762 43.0476 95.9762C44.7038 95.9762 46.2005 95.3261 47.2785 94.2774L47.2836 94.2717C48.3623 93.2233 49.0305 91.7668 49.0305 90.1555C49.0305 89.9958 49.0235 89.8379 49.011 89.6815L46.0258 90.5009C45.8498 91.949 44.5838 93.0738 43.0476 93.0738C41.3913 93.0738 40.0479 91.7668 40.0479 90.1555C40.0479 88.5442 41.3909 87.238 43.0476 87.238V87.2376ZM90.4639 78.3077L80.756 80.9719L90.1578 87.7169L90.4639 78.3077Z" fill="#1EC996"/>
</svg>
