<svg width="53" height="52" viewBox="0 0 53 52" fill="none" xmlns="http://www.w3.org/2000/svg">
<path d="M26.0597 51.9875C19.6245 51.9875 13.1893 51.9875 6.75412 51.9875C6.62794 51.9875 6.51578 51.9875 6.3896 51.9875C5.70262 51.9735 5.31006 51.665 5.31006 51.1183C5.31006 50.5575 5.6886 50.235 6.37558 50.235C7.35698 50.235 8.33838 50.221 9.30576 50.235C9.64224 50.235 9.76843 50.1789 9.67029 49.8004C9.58617 49.4919 9.62823 49.1414 9.62823 48.805C9.62823 47.0244 9.62823 45.2439 9.62823 43.4493C9.62823 41.823 10.7218 40.7014 12.3481 40.7014C13.2875 40.7014 14.2408 40.5612 15.1381 40.9818C15.4325 41.122 15.4325 40.8135 15.5026 40.6593C16.3859 38.7246 17.1149 36.7337 17.4935 34.6167C17.8299 32.6539 18.2926 30.7191 18.6992 28.7703C18.7272 28.6161 18.7973 28.4619 18.6992 28.3217C18.0543 27.3683 17.8299 26.2327 17.3953 25.1952C17.185 24.6765 17.0028 24.1437 16.8065 23.625C16.5121 22.8399 16.5121 22.0548 16.7784 21.2696C17.3533 19.6013 17.9 17.9329 18.4889 16.2645C19.0076 14.7643 20.2834 13.853 21.8817 13.853C24.6997 13.839 27.5178 13.839 30.3218 13.853C31.878 13.853 33.1258 14.7083 33.6585 16.1804C34.2894 17.9609 34.8783 19.7415 35.4671 21.536C35.6774 22.1809 35.6914 22.8539 35.4391 23.4848C34.8082 25.0971 34.3315 26.7515 33.4903 28.2796C33.3641 28.504 33.4482 28.7143 33.4903 28.9386C34.0651 31.6304 34.6119 34.3363 35.2428 37.0141C35.5653 38.36 36.2663 39.5658 36.771 40.8556C36.8551 41.0799 36.9953 40.9958 37.1495 40.9397C38.2851 40.5331 39.4628 40.6032 40.6125 40.7995C41.692 40.9818 42.5332 42.0613 42.5472 43.1829C42.5753 45.2859 42.5613 47.3749 42.5472 49.4779C42.5472 50.221 42.5192 50.221 43.2903 50.221C44.0614 50.221 44.8325 50.221 45.6036 50.221C46.4728 50.221 46.8794 50.5014 46.8654 51.1183C46.8514 51.7071 46.4588 51.9875 45.6176 51.9875C39.0983 51.9875 32.579 51.9875 26.0597 51.9875ZM13.2875 42.4679C12.9229 42.4539 12.5584 42.4258 12.1939 42.4539C11.7032 42.4819 11.3947 42.7623 11.3947 43.253C11.3807 45.314 11.3807 47.3609 11.3947 49.4218C11.3947 49.9125 11.7032 50.1929 12.1939 50.221C12.5584 50.249 12.9229 50.207 13.2875 50.207C13.4557 50.207 13.638 50.221 13.8062 50.221C14.4511 50.221 14.8156 49.9266 14.8297 49.2957C14.8577 47.3329 14.8577 45.37 14.8297 43.3932C14.8297 42.7623 14.4511 42.4679 13.8202 42.4679C13.638 42.4539 13.4557 42.4679 13.2875 42.4679ZM23.0734 28.6161C22.3864 29.219 21.6013 29.5414 20.676 29.4293C20.3676 29.3872 20.3395 29.5695 20.2975 29.7938C20.0731 30.8453 19.8348 31.8968 19.6105 32.9623C19.5544 33.2287 19.4002 33.5792 19.5123 33.7615C19.6525 33.9858 20.0171 33.7755 20.2834 33.7755C21.349 33.7895 22.4145 33.7615 23.466 33.7475C23.9146 33.7475 24.3773 33.7334 24.8259 33.7475C25.1203 33.7615 25.2325 33.6633 25.2185 33.3689C25.2045 32.9343 25.2045 32.4997 25.2185 32.0651C25.2325 31.5603 25.6531 31.1397 26.1158 31.1678C26.5504 31.1818 26.957 31.5884 26.971 32.0651C26.985 32.4997 26.985 32.9343 26.971 33.3689C26.957 33.6633 27.0551 33.7755 27.3636 33.7615C27.9384 33.7474 28.5132 33.7334 29.088 33.7615C29.4525 33.7755 29.5647 33.6633 29.5647 33.2988C29.5367 32.1632 29.5507 31.0276 29.5647 29.8919C29.5647 29.3732 29.6068 28.8825 29.06 28.5741C28.9058 28.4899 28.7936 28.2937 28.7235 28.1254C28.6113 27.845 28.4151 27.803 28.1487 27.803C26.8869 27.817 25.6391 27.845 24.3773 27.7889C23.7604 27.7609 23.4379 27.9852 23.2977 28.546C23.2557 28.56 23.2136 28.56 23.1716 28.5741C23.1155 28.5741 23.1015 28.5881 23.0734 28.6161ZM22.2042 15.6055C20.8723 15.5495 20.3956 15.8719 19.961 17.1477C19.4422 18.6759 18.9235 20.2181 18.4048 21.7463C18.2505 22.209 18.2365 22.6576 18.4188 23.1203C18.9095 24.3821 19.3862 25.6579 19.8909 26.9197C20.1993 27.7048 20.9564 27.9011 21.6854 27.4104C22.078 27.102 22.1761 26.7094 22.0219 26.2467C21.6714 25.2373 21.3349 24.2279 20.9844 23.2324C20.8442 22.8399 20.7882 22.4473 20.8863 22.0548C21.1527 20.9892 21.4471 19.9237 21.7415 18.8722C21.9098 18.2834 22.3444 18.031 22.8351 18.1852C23.3398 18.3395 23.5501 18.7741 23.4099 19.3489C23.1856 20.2602 22.9472 21.1715 22.7089 22.0828C22.6528 22.2791 22.6248 22.4473 22.6949 22.6436C23.0314 23.639 23.3538 24.6344 23.6763 25.6299C23.7464 25.8402 23.8305 25.9804 24.1109 25.9663C25.4148 25.9523 26.7326 25.9523 28.0365 25.9663C28.2188 25.9663 28.3309 25.9383 28.4151 25.728C29.6208 22.7277 29.6208 22.7277 28.8777 19.8116C28.8497 19.6994 28.8076 19.5732 28.7796 19.4611C28.6254 18.8582 28.8357 18.3955 29.3544 18.2553C29.8451 18.1151 30.2937 18.4236 30.462 19.0264C30.7143 19.9518 30.9527 20.8771 31.2191 21.8024C31.3733 22.3352 31.3312 22.8259 31.149 23.3446C30.7985 24.2839 30.49 25.2233 30.1676 26.1626C30.0834 26.415 30.0133 26.6533 30.1115 26.9337C30.2797 27.3683 30.5601 27.6207 31.0368 27.6628C31.5415 27.7048 31.9621 27.5646 32.1584 27.0879C32.7192 25.7 33.252 24.298 33.7847 22.896C33.9109 22.5735 33.8688 22.209 33.7567 21.8585C33.1819 20.1621 32.6211 18.4516 32.0182 16.7552C31.7658 16.0261 31.191 15.6196 30.4199 15.6196C27.7 15.5915 24.9521 15.6055 22.2042 15.6055ZM17.0588 41.4865C16.7083 42.1174 16.5261 42.8044 16.5541 43.5334C16.5822 44.1223 16.5962 44.7251 16.5541 45.314C16.5121 45.8047 16.6943 45.9168 17.157 45.9168C22.8491 45.9028 28.5553 45.9028 34.2474 45.8888C34.682 45.8888 35.2568 46.029 35.5092 45.8047C35.8176 45.5523 35.6213 44.9494 35.6213 44.5148C35.6213 43.7017 35.7335 42.8745 35.397 42.0894C35.0185 41.1921 34.6259 40.2948 34.2754 39.3835C34.1492 39.0751 33.967 38.9769 33.6445 38.9769C31.878 38.9909 30.1115 38.9769 28.345 38.9769C27.0551 38.9769 25.7653 38.9769 24.4614 38.9769C23.8866 38.9769 23.48 38.5844 23.48 38.0937C23.48 37.631 23.8726 37.2665 24.4193 37.2244C24.5595 37.2104 24.6997 37.2244 24.8399 37.2244C26.957 37.2244 29.074 37.2244 31.177 37.2244C31.864 37.2244 32.565 37.2244 33.3221 37.2244C33.1398 36.7758 32.9856 36.3972 32.8314 36.0327C32.6912 35.6822 32.4108 35.528 32.0462 35.528C28.4151 35.528 24.7839 35.528 21.1387 35.528C20.7741 35.528 20.4096 35.514 20.0451 35.514C19.7647 35.514 19.5123 35.6261 19.3862 35.8785C19.1759 36.2991 18.9796 36.7197 18.8534 37.1964C19.4282 37.1964 19.975 37.1964 20.5078 37.1964C20.5779 37.1964 20.648 37.2104 20.7181 37.2104C21.363 37.2665 21.7555 37.603 21.7555 38.0937C21.7555 38.6124 21.3209 38.9629 20.662 38.9629C20.3255 38.9629 20.003 38.9769 19.6666 38.9769C19.2319 38.9769 18.7973 38.9769 18.3627 38.9489C18.1384 38.9349 18.0262 39.033 17.9421 39.2433C17.6757 40.0144 17.3673 40.7434 17.0588 41.4865ZM26.0597 50.221C27.6299 50.221 29.2002 50.221 30.7844 50.221C32.2986 50.221 33.8268 50.221 35.3409 50.221C35.4671 50.221 35.7615 50.3472 35.7055 50.0247C35.5653 49.3658 35.6354 48.7068 35.6354 48.0339C35.6354 47.7114 35.5372 47.6133 35.2148 47.6133C29.1301 47.6273 23.0454 47.6273 16.9607 47.6133C16.6382 47.6133 16.5261 47.7114 16.5401 48.0339C16.5541 48.6087 16.6102 49.1975 16.498 49.7583C16.4139 50.221 16.5681 50.235 16.9327 50.221C19.975 50.221 23.0173 50.221 26.0597 50.221ZM40.7807 46.3374C40.7807 45.342 40.7947 44.3466 40.7807 43.3512C40.7807 42.7904 40.4723 42.4819 39.8974 42.4679C39.3787 42.4539 38.8459 42.4539 38.3272 42.4679C37.7243 42.4819 37.3598 42.7904 37.3458 43.3932C37.3318 45.37 37.3318 47.3329 37.3458 49.3097C37.3598 49.9125 37.7243 50.207 38.3272 50.221C38.8179 50.221 39.3086 50.221 39.7993 50.221C40.4863 50.207 40.7667 49.9266 40.7667 49.2256C40.7807 48.2442 40.7807 47.2908 40.7807 46.3374ZM31.2892 31.5744C31.2892 31.9249 31.2751 32.2754 31.2892 32.6259C31.3032 32.9904 31.1349 33.425 31.3733 33.6914C31.5836 33.9157 32.0182 33.7054 32.3266 33.7895C32.7332 33.9017 32.7192 33.7054 32.6491 33.425C32.3827 32.2052 32.1163 30.9715 31.85 29.7517C31.8219 29.5975 31.85 29.3732 31.5696 29.4012C31.3312 29.4293 31.2611 29.5695 31.2751 29.7938C31.3032 30.3826 31.2892 30.9855 31.2892 31.5744Z" fill="#1EC996"/>
<path d="M42.3511 15.5914C40.5145 15.5914 38.6778 15.6055 36.8552 15.5914C34.9205 15.5774 33.2381 14.1053 33.0278 12.2967C32.7754 10.1797 33.9391 8.3571 35.972 7.9365C36.6449 7.7963 36.8693 7.48786 37.1497 6.92706C38.1591 4.88014 39.8415 3.68844 42.1408 3.53422C44.6083 3.36598 46.515 4.38944 47.8189 6.47842C48.0012 6.77284 48.1974 6.91304 48.5339 6.96912C50.8753 7.34766 52.4034 9.28242 52.2352 11.6518C52.081 13.8249 50.1602 15.5634 47.875 15.5774C46.0243 15.6055 44.1877 15.5914 42.3511 15.5914ZM42.3511 13.8249V13.8109C44.2017 13.8109 46.0524 13.8249 47.903 13.8109C49.0246 13.7969 49.9499 12.9977 50.2444 11.8341C50.5107 10.8106 50.02 9.6189 49.1087 9.07212C47.903 8.34308 46.5992 8.58142 45.6458 9.70302C45.2252 10.1937 44.7345 10.2919 44.3279 9.96941C43.9213 9.64695 43.8933 9.1282 44.2859 8.62348C44.7065 8.0767 45.1972 7.60002 45.8421 7.33364C46.1926 7.19344 46.1505 7.05324 45.9542 6.8149C44.8467 5.49702 43.4306 4.93622 41.7482 5.25868C39.9396 5.60918 38.79 6.7448 38.3414 8.53936C38.1311 9.36654 37.9628 9.50674 37.1216 9.50674C36.7711 9.50674 36.4206 9.54881 36.0982 9.68901C35.1308 10.0816 34.598 11.063 34.7943 12.1145C34.9766 13.0818 35.8178 13.8109 36.8412 13.8249C38.6778 13.8389 40.5145 13.8249 42.3511 13.8249Z" fill="#1EC996"/>
<path d="M10.9044 10.5023C10.8343 10.4602 10.7642 10.3621 10.6941 10.3761C9.8809 10.4041 9.06773 10.2499 8.25457 10.4602C8.03025 10.3901 7.79191 10.3761 7.55357 10.4322C6.62825 10.334 5.71695 10.2779 4.79163 10.4602C4.74957 10.4462 4.70751 10.4462 4.66545 10.4322C4.63741 10.4181 4.59535 10.3901 4.56731 10.3761V10.3901C4.59535 10.2078 4.45515 10.1097 4.35701 9.99754C3.41767 8.918 3.29149 7.17951 4.11867 5.91771C4.27289 5.69339 4.56731 5.55319 4.58133 5.24475C5.47861 5.25877 6.09549 5.76349 6.64227 6.42243C6.96473 6.81499 7.44141 6.87107 7.80593 6.59067C8.19849 6.31027 8.29663 5.81957 8.00221 5.38495C7.79191 5.09053 7.53955 4.82415 7.30121 4.54375C7.42739 3.94089 7.76387 3.43617 8.08633 2.93145C8.35271 2.49683 8.85743 2.30055 9.08176 1.83789C9.1799 1.82387 9.29206 1.79583 9.3902 1.79583C11.5072 1.72573 13.3018 3.07165 13.8205 5.14661C14.0168 5.94575 14.2271 6.09997 15.0543 6.11399C15.1384 6.11399 15.2225 6.11399 15.3207 6.11399C16.5264 6.17007 17.3956 7.09539 17.3816 8.31514C17.3676 9.49282 16.4843 10.3901 15.2786 10.4041C14.129 10.4181 12.9653 10.4181 11.8157 10.4181C11.5072 10.3621 11.1988 10.3901 10.9044 10.5023Z" fill="#21D7A0" fill-opacity="0.2"/>
<path d="M10.9042 10.5022C11.1986 10.3901 11.507 10.362 11.8295 10.362C12.9791 10.362 14.1428 10.362 15.2924 10.348C16.4982 10.334 17.3814 9.45071 17.3954 8.25901C17.4095 7.03927 16.5402 6.11395 15.3345 6.05787C15.2504 6.05787 15.1663 6.05787 15.0681 6.05787C14.2409 6.04385 14.0306 5.88963 13.8344 5.09048C13.3156 3.01552 11.5351 1.6696 9.40403 1.7397C9.30589 1.7397 9.19373 1.76774 9.09559 1.78176C7.90389 1.92196 6.96455 2.48276 6.22149 3.40808C6.06727 3.59034 5.96913 3.73054 6.29159 3.87074C6.65611 4.03898 6.97857 4.27732 7.32907 4.48762C7.56741 4.76802 7.81977 5.0344 8.03007 5.32882C8.32449 5.76345 8.22635 6.25415 7.83379 6.53455C7.46927 6.80093 6.99259 6.75887 6.67013 6.36631C6.12335 5.70736 5.52049 5.20264 4.60919 5.18862C4.34281 5.1746 4.09045 5.1746 3.83808 5.2447C2.5202 5.5952 1.72106 6.77289 1.8893 8.11881C2.05754 9.42267 3.2913 10.4742 4.60919 10.334V10.32C4.63723 10.334 4.67929 10.362 4.70733 10.376C4.74939 10.3901 4.79145 10.3901 4.83351 10.4041C5.19803 10.6705 5.45039 10.9789 5.28215 11.4696C5.09989 11.9883 4.69331 12.1005 4.18859 12.0865C2.0295 12.0304 0.15082 10.2358 0.01062 8.07675C-0.1436 5.86159 1.3986 3.8427 3.54367 3.50622C4.02035 3.43612 4.28673 3.23984 4.55311 2.83326C5.91305 0.744278 7.88987 -0.223103 10.3574 0.0432776C12.6847 0.295638 14.3251 1.58548 15.2504 3.71652C15.4186 4.10908 15.5869 4.29134 16.0495 4.34742C17.8301 4.57174 19.2461 6.24013 19.2881 8.06273C19.3302 9.92739 17.9983 11.6238 16.2178 11.9743C15.0821 12.1986 13.9185 12.0304 12.7688 12.0725C12.3903 12.0865 11.9977 12.0584 11.6192 12.0725C11.1565 12.0865 10.792 11.9603 10.5957 11.4976C10.3854 11.1191 10.5817 10.7826 10.9042 10.5022Z" fill="#1EC996"/>
<path d="M26.0037 12.1425C24.2092 12.0444 22.8212 11.1331 21.8538 9.56285C20.3817 7.1514 20.62 3.91278 22.4286 1.78173C24.2652 -0.377349 27.1253 -0.601669 29.2564 1.26299C32.2426 3.8567 31.8641 9.28245 28.5554 11.3995C27.8123 11.8761 26.9711 12.1005 26.0037 12.1425ZM26.0878 1.75369C25.2887 1.71163 24.6298 2.0341 24.0549 2.56686C22.1062 4.36142 22.1482 7.88044 24.1391 9.63295C24.7279 10.1517 25.4009 10.4461 26.2 10.362C26.9431 10.362 27.5599 10.0676 28.0787 9.57687C29.691 8.07672 30.0275 5.37086 28.8358 3.47816C28.2049 2.4547 27.3496 1.76771 26.0878 1.75369Z" fill="#1EC996"/>
<path d="M42.0989 32.051C41.44 32.051 40.767 32.065 40.1081 32.051C39.4632 32.037 39.0986 31.7145 39.0986 31.1677C39.0986 30.635 39.4772 30.2985 40.1221 30.2985C41.468 30.2845 42.8139 30.2845 44.1599 30.2985C44.7487 30.2985 45.1553 30.663 45.1693 31.1537C45.1833 31.6584 44.7627 32.037 44.1599 32.051C43.4589 32.065 42.7859 32.051 42.0989 32.051Z" fill="#1EC996"/>
<path d="M10.0912 30.2985C10.7502 30.2985 11.4231 30.2844 12.0821 30.2985C12.713 30.3125 13.0915 30.663 13.0775 31.1957C13.0635 31.7145 12.713 32.051 12.0961 32.051C10.7362 32.065 9.37622 32.065 8.00226 32.051C7.42744 32.051 7.02086 31.6724 7.00684 31.1817C7.00684 30.691 7.3994 30.3125 7.97422 30.2985C8.68924 30.2844 9.39024 30.2985 10.0912 30.2985Z" fill="#1EC996"/>
<path d="M14.8439 27.7188C14.8019 28.0693 14.6476 28.3357 14.3252 28.5039C14.0027 28.6582 13.6943 28.6301 13.4419 28.4058C12.5026 27.4945 11.5772 26.5692 10.68 25.6298C10.3715 25.3074 10.4416 24.8027 10.7641 24.5082C11.1006 24.1998 11.5212 24.1297 11.8576 24.4381C12.825 25.3494 13.7363 26.3028 14.6757 27.2421C14.8019 27.3543 14.8299 27.5366 14.8439 27.7188Z" fill="#1EC996"/>
<path d="M41.6921 25.1392C41.6641 25.4055 41.5519 25.6018 41.3697 25.7841C40.5425 26.6113 39.7293 27.4384 38.8881 28.2516C38.4535 28.6862 37.9768 28.6862 37.5983 28.3077C37.2197 27.9291 37.2478 27.4525 37.6684 27.0178C38.4815 26.1907 39.3227 25.3635 40.1359 24.5363C40.4443 24.2279 40.7948 24.1437 41.1874 24.326C41.5379 24.4942 41.6641 24.7887 41.6921 25.1392Z" fill="#1EC996"/>
<path d="M11.3666 38.1217C11.0301 38.0796 10.7497 37.9394 10.5955 37.645C10.4273 37.3225 10.4273 36.986 10.6936 36.7197C11.5909 35.7943 12.5022 34.883 13.4275 33.9858C13.764 33.6633 14.2267 33.7054 14.5632 34.0278C14.8996 34.3503 14.9697 34.855 14.6192 35.2055C13.736 36.1308 12.8247 37.0141 11.9274 37.9114C11.7732 38.0516 11.5769 38.1076 11.3666 38.1217Z" fill="#1EC996"/>
<path d="M41.706 37.2244C41.6779 37.5608 41.5517 37.8412 41.2433 37.9955C40.9208 38.1637 40.5844 38.1777 40.318 37.9254C39.3786 37.0141 38.4533 36.0887 37.542 35.1494C37.2336 34.8269 37.3037 34.3362 37.6121 34.0138C37.9346 33.6913 38.4113 33.6352 38.7477 33.9577C39.6731 34.855 40.5844 35.7663 41.4957 36.6916C41.6218 36.8458 41.6779 37.0281 41.706 37.2244Z" fill="#1EC996"/>
<path d="M50.3705 50.2349C50.6649 50.2349 50.9593 50.2069 51.2537 50.2349C51.7304 50.277 52.0809 50.6696 52.0809 51.1042C52.0809 51.5388 51.7304 51.9454 51.2537 51.9734C50.6509 52.0015 50.034 52.0155 49.4171 51.9734C48.8984 51.9454 48.5899 51.5528 48.618 51.0621C48.646 50.5995 48.9545 50.277 49.4732 50.2349C49.7816 50.2069 50.0761 50.2209 50.3705 50.2349Z" fill="#1EC996"/>
<path d="M1.87517 50.221C2.14155 50.221 2.39391 50.2069 2.66029 50.221C3.19305 50.249 3.52953 50.5715 3.54356 51.0622C3.55757 51.5809 3.23512 51.9454 2.67431 51.9594C2.09949 51.9875 1.52467 51.9875 0.949851 51.9594C0.445131 51.9314 0.0806092 51.5248 0.0946293 51.0762C0.108649 50.6416 0.45915 50.263 0.93583 50.221C1.24427 50.2069 1.56673 50.235 1.87517 50.221Z" fill="#1EC996"/>
<path d="M7.56757 10.418C7.80591 10.3479 8.03023 10.376 8.26857 10.4461C8.36671 10.5302 8.46485 10.5863 8.54897 10.6844C8.87143 11.0489 8.85741 11.5256 8.52093 11.8621C8.17043 12.2126 7.65169 12.2126 7.30119 11.8761C6.96471 11.5396 6.93667 11.077 7.24511 10.6984C7.32923 10.5863 7.45541 10.5162 7.56757 10.418Z" fill="#1EC996"/>
<path d="M21.1528 35.542C24.784 35.542 28.4151 35.542 32.0604 35.542C32.4249 35.542 32.7053 35.6962 32.8455 36.0467C32.9997 36.4112 33.1539 36.7898 33.3362 37.2384C32.5791 37.2384 31.8781 37.2384 31.1911 37.2384C29.0741 37.2384 26.9571 37.2384 24.8541 37.2384C24.7139 37.2384 24.5737 37.2244 24.4335 37.2384C23.8867 37.2805 23.4941 37.645 23.4941 38.1077C23.4941 38.5984 23.9007 38.9769 24.4755 38.9909C25.7654 39.0049 27.0552 38.9909 28.3591 38.9909C30.1256 38.9909 31.8921 39.0049 33.6586 38.9909C33.9811 38.9909 34.1634 39.075 34.2895 39.3975C34.6541 40.3088 35.0466 41.2061 35.4111 42.1034C35.7476 42.8885 35.6355 43.7157 35.6355 44.5288C35.6355 44.9775 35.8458 45.5663 35.5233 45.8187C35.2569 46.043 34.6961 45.8888 34.2615 45.9028C28.5694 45.9028 22.8632 45.9028 17.1711 45.9308C16.6944 45.9308 16.5262 45.8187 16.5682 45.328C16.6103 44.7391 16.5963 44.1363 16.5682 43.5474C16.5402 42.8044 16.7224 42.1314 17.0729 41.5005C17.5496 41.9351 18.1104 42.2856 18.3628 42.9025C18.2646 43.8979 18.503 44.1503 19.5124 44.1503C19.933 44.1503 20.3536 44.1503 20.7602 44.1503C21.3911 44.1363 21.7837 43.7998 21.7837 43.281C21.7697 42.8044 21.3491 42.4539 20.7742 42.4398C20.3396 42.4398 19.905 42.4679 19.4704 42.4258C19.0217 42.3978 18.6572 42.524 18.3628 42.8745C18.3067 42.5099 18.4469 42.1875 18.5731 41.879C18.9516 40.9117 19.3302 39.9583 19.7087 38.9909C20.0452 38.9909 20.3677 38.9769 20.7041 38.9769C21.3631 38.9629 21.7837 38.6264 21.7977 38.1077C21.7977 37.617 21.4051 37.2805 20.7602 37.2244C20.6901 37.2244 20.62 37.2104 20.5499 37.2104C20.7462 36.6496 20.9425 36.0888 21.1528 35.542ZM25.2326 42.4539C24.9382 42.4539 24.6438 42.4398 24.3493 42.4539C23.8586 42.4819 23.4801 42.8604 23.4941 43.3231C23.5081 43.7858 23.8446 44.1363 24.3353 44.1503C24.9242 44.1643 25.513 44.1643 26.1159 44.1503C26.6206 44.1363 26.943 43.8138 26.9571 43.3371C26.9711 42.8324 26.6486 42.4819 26.1299 42.4539C25.8214 42.4398 25.527 42.4539 25.2326 42.4539Z" fill="#21D7A0" fill-opacity="0.2"/>
<path d="M22.2045 15.6055C24.9524 15.6055 27.6863 15.5915 30.4342 15.6055C31.2053 15.6055 31.7802 16.0121 32.0325 16.7411C32.6354 18.4375 33.1822 20.148 33.771 21.8444C33.8832 22.1809 33.9252 22.5454 33.799 22.8819C33.2803 24.2839 32.7335 25.6859 32.1727 27.0739C31.9764 27.5646 31.5418 27.6907 31.0511 27.6487C30.5744 27.6066 30.294 27.3543 30.1258 26.9196C30.0277 26.6533 30.0978 26.4009 30.1819 26.1485C30.5043 25.2092 30.8128 24.2698 31.1633 23.3305C31.3455 22.8118 31.3876 22.3211 31.2334 21.7883C30.967 20.863 30.7287 19.9377 30.4763 19.0123C30.3081 18.4095 29.8594 18.087 29.3687 18.2412C28.85 18.3955 28.6397 18.8441 28.7939 19.447C28.8219 19.5591 28.864 19.6853 28.892 19.7975C29.6351 22.7136 29.6351 22.7136 28.4294 25.7139C28.3453 25.9382 28.2331 25.9523 28.0508 25.9523C26.747 25.9523 25.4291 25.9382 24.1252 25.9523C23.8448 25.9523 23.7607 25.8261 23.6906 25.6158C23.3682 24.6203 23.0457 23.6249 22.7092 22.6295C22.6391 22.4332 22.6672 22.265 22.7232 22.0687C22.9616 21.1574 23.1859 20.2461 23.4242 19.3348C23.5644 18.746 23.3541 18.3254 22.8494 18.1711C22.3447 18.0169 21.9241 18.2693 21.7559 18.8581C21.4474 19.9096 21.167 20.9751 20.9006 22.0407C20.8025 22.4332 20.8586 22.8398 20.9988 23.2183C21.3493 24.2278 21.6998 25.2232 22.0363 26.2327C22.1905 26.6953 22.0923 27.0879 21.6998 27.3963C21.4053 26.4149 20.9988 25.4756 20.6202 24.5222C20.2136 23.4707 19.751 22.4332 20.2277 21.2696C20.5782 20.4143 20.8445 19.5311 21.139 18.6618C21.4895 17.6664 21.854 16.643 22.2045 15.6055Z" fill="#21D7A0" fill-opacity="0.2"/>
<path d="M26.0596 50.221C23.0172 50.221 19.9749 50.221 16.9326 50.221C16.582 50.221 16.4138 50.221 16.4979 49.7583C16.5961 49.1975 16.554 48.6087 16.54 48.0339C16.526 47.7114 16.6381 47.6133 16.9606 47.6133C23.0453 47.6273 29.13 47.6273 35.2147 47.6133C35.5371 47.6133 35.6353 47.7114 35.6353 48.0339C35.6353 48.6928 35.5652 49.3518 35.7054 50.0247C35.7755 50.3472 35.481 50.221 35.3408 50.221C33.8267 50.235 32.2985 50.221 30.7843 50.221C29.2141 50.221 27.6438 50.221 26.0596 50.221Z" fill="white"/>
<path d="M23.27 28.5179C23.4242 27.9571 23.7327 27.7328 24.3496 27.7609C25.5973 27.8169 26.8591 27.7889 28.1209 27.7749C28.3873 27.7749 28.5836 27.8169 28.6958 28.0973C28.7659 28.2656 28.878 28.4619 29.0322 28.546C29.579 28.8544 29.537 29.3451 29.537 29.8639C29.523 30.9995 29.523 32.1351 29.537 33.2707C29.551 33.6493 29.4248 33.7614 29.0603 33.7334C28.4855 33.7054 27.9106 33.7054 27.3358 33.7334C27.0414 33.7474 26.9292 33.6353 26.9433 33.3408C26.9573 32.9062 26.9573 32.4716 26.9433 32.037C26.9292 31.5603 26.5367 31.1537 26.088 31.1397C25.6254 31.1257 25.2048 31.5463 25.1908 32.037C25.1767 32.4716 25.1767 32.9062 25.1908 33.3408C25.2048 33.6493 25.0926 33.7334 24.7982 33.7194C24.3496 33.7054 23.8869 33.7194 23.4383 33.7194C23.4383 32.1912 23.4383 30.649 23.4383 29.1208C23.4663 28.9105 23.5084 28.6722 23.27 28.5179Z" fill="#21D7A0" fill-opacity="0.2"/>
<path d="M40.7808 46.3374C40.7808 47.2908 40.7808 48.2582 40.7808 49.2115C40.7808 49.9125 40.5004 50.2069 39.8134 50.2069C39.3227 50.2069 38.832 50.2069 38.3413 50.2069C37.7384 50.2069 37.3599 49.8985 37.3599 49.2956C37.3319 47.3188 37.3319 45.356 37.3599 43.3792C37.3599 42.7763 37.7244 42.4679 38.3413 42.4539C38.86 42.4399 39.3928 42.4399 39.9115 42.4539C40.4723 42.4679 40.7808 42.7623 40.7948 43.3371C40.7948 44.3466 40.7808 45.342 40.7808 46.3374Z" fill="#21D7A0" fill-opacity="0.2"/>
<path d="M22.2042 15.6056C21.8397 16.629 21.4892 17.6665 21.1247 18.69C20.8163 19.5592 20.5499 20.4425 20.2134 21.2977C19.7367 22.4754 20.1994 23.4989 20.606 24.5504C20.9705 25.5037 21.3911 26.4431 21.6855 27.4245C20.9565 27.9152 20.2134 27.7189 19.8909 26.9338C19.3862 25.672 18.9095 24.3961 18.4188 23.1343C18.2366 22.6717 18.2506 22.223 18.4048 21.7604C18.9236 20.2322 19.4423 18.69 19.961 17.1618C20.3957 15.886 20.8723 15.5635 22.2042 15.6056Z" fill="white"/>
<path d="M23.2699 28.5179C23.5082 28.6581 23.4662 28.8965 23.4662 29.1208C23.4662 30.649 23.4662 32.1912 23.4662 33.7194C22.4007 33.7334 21.3351 33.7614 20.2836 33.7474C20.0173 33.7474 19.6527 33.9717 19.5125 33.7334C19.4004 33.5511 19.5546 33.2006 19.6107 32.9343C19.835 31.8827 20.0733 30.8312 20.2977 29.7657C20.3397 29.5414 20.3678 29.3732 20.6762 29.4012C21.6015 29.5134 22.3866 29.1909 23.0736 28.588C23.1017 28.574 23.1297 28.56 23.1577 28.532C23.1858 28.546 23.2278 28.532 23.2699 28.5179Z" fill="white"/>
<path d="M13.2878 42.4679C13.456 42.4679 13.6383 42.4539 13.8065 42.4539C14.4515 42.4679 14.816 42.7623 14.816 43.3792C14.83 45.342 14.844 47.3048 14.816 49.2816C14.802 49.9125 14.4374 50.1929 13.7925 50.2069C13.6243 50.2069 13.442 50.2069 13.2738 50.1929C13.1196 49.8704 13.0635 49.534 13.0635 49.1835C13.0775 47.4169 13.0775 45.6644 13.0635 43.8979C13.0775 43.4072 13.1055 42.9305 13.2878 42.4679Z" fill="#21D7A0" fill-opacity="0.2"/>
<path d="M13.2875 42.4679C13.1052 42.9305 13.0772 43.4072 13.0772 43.8979C13.0912 45.6644 13.0912 47.4169 13.0772 49.1834C13.0772 49.5339 13.1333 49.8704 13.2875 50.1929C12.923 50.2069 12.5585 50.2349 12.1939 50.2069C11.7032 50.1789 11.3948 49.8985 11.3948 49.4078C11.3808 47.3468 11.3808 45.2999 11.3948 43.239C11.3948 42.7483 11.7173 42.4679 12.1939 42.4398C12.5585 42.4398 12.923 42.4679 13.2875 42.4679Z" fill="white"/>
<path d="M19.6948 39.005C19.3163 39.9723 18.9378 40.9257 18.5592 41.8931C18.433 42.2155 18.3069 42.538 18.3489 42.8885C18.0966 42.2576 17.5217 41.9071 17.0591 41.4725C17.3675 40.7294 17.676 40.0004 17.9564 39.2573C18.0405 39.047 18.1526 38.9629 18.377 38.9629C18.8256 39.005 19.2602 38.9909 19.6948 39.005Z" fill="white"/>
<path d="M31.2894 31.5743C31.2894 30.9855 31.3034 30.3826 31.2894 29.7938C31.2894 29.5695 31.3455 29.4293 31.5838 29.4012C31.8642 29.3732 31.8222 29.5835 31.8642 29.7517C32.1306 30.9715 32.397 32.2052 32.6634 33.425C32.7335 33.7194 32.7475 33.9157 32.3409 33.7895C32.0325 33.7054 31.5979 33.9157 31.3876 33.6913C31.1492 33.425 31.3175 32.9903 31.3034 32.6258C31.2754 32.2753 31.2894 31.9248 31.2894 31.5743Z" fill="white"/>
<path d="M21.1529 35.542C20.9426 36.1028 20.7323 36.6496 20.522 37.2104C19.9893 37.2104 19.4425 37.2104 18.8677 37.2104C18.9798 36.7337 19.1901 36.3131 19.4004 35.8925C19.5266 35.6401 19.779 35.528 20.0594 35.528C20.4239 35.528 20.7884 35.528 21.1529 35.542Z" fill="white"/>
<path d="M23.1437 28.546C23.1297 28.5741 23.1016 28.5881 23.0596 28.6021C23.1016 28.5881 23.1157 28.5741 23.1437 28.546Z" fill="#21D7A0" fill-opacity="0.2"/>
<path d="M42.3513 13.825C40.5147 13.825 38.678 13.839 36.8414 13.825C35.818 13.811 34.9768 13.0819 34.7945 12.1145C34.5982 11.063 35.117 10.0816 36.0984 9.68908C36.4208 9.54888 36.7713 9.50682 37.1218 9.50682C37.963 9.50682 38.1313 9.36662 38.3416 8.53944C38.7902 6.73085 39.9398 5.59523 41.7484 5.25875C43.4168 4.93629 44.8469 5.49709 45.9544 6.81498C46.1507 7.0393 46.1928 7.1795 45.8423 7.33372C45.1974 7.6001 44.7067 8.07678 44.2861 8.62356C43.8935 9.12828 43.9215 9.64702 44.3281 9.96948C44.7487 10.2919 45.2394 10.1938 45.646 9.7031C46.5994 8.5815 47.8892 8.34316 49.1089 9.0722C50.0202 9.61898 50.5109 10.8107 50.2446 11.8341C49.9501 12.9838 49.0248 13.7969 47.9032 13.811C46.0526 13.825 44.2019 13.811 42.3513 13.811C42.3513 13.825 42.3513 13.825 42.3513 13.825Z" fill="#21D7A0" fill-opacity="0.2"/>
<path d="M4.581 10.362C3.27714 10.5022 2.02936 9.45072 1.86112 8.14686C1.69288 6.80094 2.49202 5.62326 3.8099 5.27276C4.06226 5.20266 4.32864 5.20266 4.581 5.21668C4.56698 5.53914 4.27256 5.66532 4.11834 5.88964C3.29116 7.15144 3.41734 8.88992 4.35668 9.96946C4.46884 10.0816 4.59502 10.1798 4.581 10.362Z" fill="white"/>
<path d="M7.30107 4.50164C6.96459 4.29134 6.62811 4.053 6.26359 3.88476C5.94113 3.73054 6.05329 3.60436 6.19349 3.4221C6.93655 2.49678 7.88991 1.93598 9.06759 1.79578C8.84327 2.25844 8.33855 2.45472 8.07217 2.88934C7.77775 3.40808 7.44127 3.89878 7.30107 4.50164Z" fill="white"/>
<path d="M4.67919 10.4181C4.65115 10.4041 4.60909 10.3761 4.58105 10.3621C4.60909 10.3761 4.63713 10.4041 4.67919 10.4181Z" fill="white"/>
<path d="M26.0879 1.75378C27.3497 1.7678 28.205 2.45478 28.8359 3.46423C30.0276 5.37095 29.6911 8.06279 28.0788 9.56293C27.546 10.0536 26.9291 10.3481 26.2001 10.3481C25.8917 9.96952 25.5692 9.61902 25.2748 9.22646C24.4756 8.13289 24.3635 6.87109 24.4055 5.55321C24.4336 4.48769 24.7841 3.56237 25.3869 2.69313C25.6113 2.38468 25.9898 2.16036 26.0879 1.75378Z" fill="#21D7A0" fill-opacity="0.2"/>
<path d="M26.0877 1.75379C25.9756 2.16037 25.611 2.38469 25.3867 2.70715C24.7839 3.5764 24.4334 4.4877 24.4053 5.56724C24.3633 6.88512 24.4754 8.14692 25.2746 9.24048C25.555 9.63304 25.8914 9.98354 26.1999 10.3621C25.4007 10.4462 24.7278 10.1518 24.1389 9.63304C22.1481 7.88054 22.106 4.36152 24.0548 2.56695C24.6296 2.03419 25.2886 1.71173 26.0877 1.75379Z" fill="white"/>
<path d="M25.2329 42.4539C25.5273 42.4539 25.8217 42.4398 26.1161 42.4539C26.6208 42.4819 26.9433 42.8464 26.9433 43.3371C26.9293 43.7998 26.6068 44.1363 26.1021 44.1503C25.5133 44.1643 24.9244 44.1643 24.3216 44.1503C23.8309 44.1363 23.4944 43.7858 23.4804 43.3231C23.4663 42.8604 23.8449 42.4819 24.3356 42.4539C24.644 42.4398 24.9384 42.4539 25.2329 42.4539Z" fill="#1EC996"/>
<path d="M18.3489 42.8885C18.6433 42.538 18.9938 42.3978 19.4565 42.4399C19.8911 42.4679 20.3257 42.4399 20.7603 42.4539C21.3352 42.4539 21.7558 42.8184 21.7698 43.2951C21.7838 43.8138 21.3912 44.1503 20.7463 44.1643C20.3257 44.1643 19.9051 44.1643 19.4985 44.1643C18.4891 44.1503 18.2508 43.8839 18.3489 42.8885Z" fill="#1EC996"/>
</svg>
