<svg width="53" height="52" viewBox="0 0 53 52" fill="none" xmlns="http://www.w3.org/2000/svg">
<path d="M31.7072 0C35.7353 0 39.7635 0 43.7781 0C44.5512 0.352634 45.0801 0.895147 45.0801 1.80386C45.0801 4.10954 45.1073 6.40167 45.0666 8.70735C45.0259 11.1487 43.4662 13.0746 41.1198 13.6849C40.7943 13.7663 40.7265 13.9019 40.7265 14.2003C40.74 18.1878 40.74 22.1753 40.7265 26.1763C40.7265 26.5968 40.8756 26.6781 41.2554 26.6781C41.9607 26.6646 42.6795 26.6103 43.3848 26.746C45.9753 27.2207 47.6706 29.3093 47.6706 32.0626C47.6842 36.6468 47.6842 41.2311 47.6571 45.8153C47.6571 46.4799 47.7927 46.941 48.3352 47.3615C49.2304 48.0532 49.7729 49.0569 50.4646 49.9384C50.5867 50.1012 50.6816 50.2911 50.9393 50.264C51.4411 50.1961 51.7666 50.4538 52.0107 50.8743C52.0107 51.037 52.0107 51.2134 52.0107 51.3761C51.7395 51.8644 51.3326 52 50.7901 52C39.9262 51.9864 29.0488 51.9864 18.185 51.9864C12.5021 51.9864 6.81931 51.9864 1.15004 51.9864C0.471892 51.9864 0.0650064 51.6474 0.0650064 51.1184C0.0650064 50.5895 0.471892 50.264 1.15004 50.264C2.2215 50.264 3.2794 50.2775 4.35087 50.2504C4.81201 50.2368 5.44946 50.481 5.68003 50.1419C5.88347 49.8571 5.50371 49.301 5.36808 48.867C4.89338 47.3344 4.40512 45.8018 3.93042 44.2692C3.72698 43.591 4.06605 43.0349 4.68994 43.0214C5.21889 43.0078 5.46302 43.3469 5.61221 43.808C6.1276 45.4491 6.62943 47.1038 7.15838 48.7449C7.32114 49.2332 7.30757 49.9113 7.7009 50.169C8.10778 50.4403 8.74524 50.2504 9.28775 50.2368C12.2309 50.2368 15.174 50.2368 18.1172 50.264C18.4562 50.264 18.5376 50.0741 18.619 49.8164C19.1751 48.0261 19.7311 46.2358 20.2872 44.4455C20.884 42.5196 21.4808 40.6072 22.0911 38.6948C22.2403 38.2473 22.1182 38.1116 21.6706 38.1388C21.3994 38.1659 21.1281 38.1388 20.8569 38.1388C17.5068 38.1388 14.1568 38.1388 10.8068 38.1388C9.96589 38.1388 9.73532 37.9624 9.55901 37.2572C9.7082 36.5655 9.96589 36.3756 10.7525 36.3756C14.9299 36.3756 19.1073 36.3756 23.2846 36.3756C24.0441 36.3756 24.2883 36.1315 24.2883 35.3855C24.2883 35.2363 24.2883 35.0871 24.2883 34.9244C24.2883 34.0428 24.0713 33.8258 23.1761 33.8258C16.5846 33.8258 9.97946 33.8258 3.38791 33.8122C1.81462 33.8122 1.73324 33.8936 1.77393 35.4804C1.78749 36.1315 2.05875 36.4027 2.70976 36.4027C3.65916 36.4027 4.60856 36.3892 5.5444 36.3892C6.30392 36.3892 6.4938 36.5383 6.73793 37.2707C6.62943 37.9082 6.18185 38.1252 5.61221 38.193C5.58509 38.1794 5.55796 38.1794 5.53084 38.1794C4.64925 38.0438 3.76767 38.0981 2.87252 38.1523C2.73689 38.1523 2.60126 38.1523 2.46563 38.1523C2.35713 38.1388 2.26219 38.1252 2.15369 38.1116C0.98728 37.8539 0.200634 37.0944 0.0514427 35.9958C-0.0028087 35.6025 0.0243174 35.1821 0.0243174 34.7752C0.0243174 33.1069 1.04153 32.0897 2.70976 32.0897C5.08326 32.0897 7.4432 32.0897 9.8167 32.0897C10.4542 32.0897 11.1052 32.0762 11.7426 32.0897C12.041 32.1033 12.1766 31.9948 12.1631 31.6828C12.1495 31.2081 12.1766 30.7334 12.1902 30.2587C12.1902 30.0553 12.136 29.9604 11.9325 30.0689C11.824 30.1231 11.7155 30.1774 11.607 30.2181C9.65394 31.0454 7.64664 31.5336 5.5444 30.9233C3.11665 30.218 1.48911 28.4956 0.22776 26.3933C-0.274065 25.566 0.0921321 24.5216 0.946592 24.0334C1.61117 23.6536 2.30288 23.3552 3.02171 23.0975C5.57153 22.2024 7.99928 22.3109 10.2778 23.8978C11.0102 24.4131 11.6477 25.0235 12.2716 25.7423C12.2987 25.6067 12.3123 25.5389 12.3123 25.4846C12.4343 23.0297 12.5293 20.5884 12.8141 18.1471C12.8683 17.686 12.7192 17.5775 12.2987 17.6995C12.1224 17.7538 11.9325 17.7673 11.7426 17.7673C10.1829 17.808 8.74524 16.8858 8.10778 15.4617C7.45676 14.0104 7.75515 12.3422 8.8673 11.1894C9.05718 10.9859 9.24706 10.8774 8.93511 10.5655C7.61952 9.26343 7.38895 7.40532 8.27054 5.85915C9.15212 4.32655 10.8882 3.60772 12.6785 4.06886C12.9633 4.13667 13.0582 4.13667 13.1532 3.81116C13.655 2.02087 15.1198 0.895149 16.8965 0.895149C18.6868 0.895149 20.138 1.99374 20.6534 3.7976C20.7348 4.06886 20.7891 4.1638 21.1146 4.08242C22.9049 3.60772 24.6409 4.31299 25.5225 5.84559C26.4176 7.39176 26.1735 9.26343 24.885 10.5519C24.6409 10.796 24.668 10.9045 24.8986 11.1351C26.1735 12.4236 26.4176 14.2681 25.5496 15.8007C24.6952 17.2926 22.9591 18.0793 21.2638 17.6453C20.7891 17.5232 20.7212 17.686 20.5992 18.0657C20.0567 19.9103 18.1985 21.0496 16.3133 20.7512C15.6216 20.6427 15.0113 20.3172 14.4281 19.9374C14.2924 20.507 14.0483 24.7387 14.1161 25.2947C14.2924 25.2405 14.3738 25.0777 14.4823 24.9692C15.9878 23.5044 17.7238 22.555 19.8939 22.555C21.7249 22.555 23.3796 23.1382 24.9664 23.9791C26.0379 24.5488 26.3091 25.6609 25.6446 26.6917C25.2377 27.3156 24.7901 27.9124 24.2883 28.4549C22.7828 30.0689 21.0196 31.181 18.7275 31.1946C17.1949 31.2081 15.7437 30.8555 14.3738 30.1909C14.0076 30.0146 13.8991 30.0824 13.9262 30.4757C13.9398 30.8148 13.9534 31.1539 13.9127 31.493C13.8584 31.9541 14.0076 32.1033 14.4959 32.0897C17.4933 32.0626 20.4771 32.0762 23.4745 32.0762C24.7765 32.0762 25.8073 32.9306 25.9972 34.192C26.0514 34.5853 26.0243 35.0057 26.0243 35.4126C26.0379 36.6468 25.4954 37.5149 24.3561 37.9896C24.1662 38.0709 24.0577 38.1659 23.9899 38.3693C22.7964 42.2076 21.6028 46.0459 20.3957 49.8842C20.3008 50.169 20.355 50.2775 20.667 50.2775C21.6706 50.264 22.6607 50.2775 23.6644 50.2775C23.8 50.2775 23.9356 50.264 24.0306 50.1555C25.0885 49.0433 26.2142 47.9854 26.7431 46.4664C26.8788 46.073 27.0822 45.7204 27.4077 45.4627C27.7061 45.2186 27.7739 44.9473 27.7739 44.5811C27.7604 40.3631 27.7604 36.1586 27.7739 31.9405C27.7875 29.3229 29.5642 27.2207 32.114 26.7595C32.8193 26.6375 33.5381 26.6917 34.2434 26.7053C34.5554 26.7053 34.7045 26.651 34.7045 26.2848C34.691 22.2431 34.691 18.2014 34.7045 14.1596C34.7045 13.9291 34.6367 13.807 34.3926 13.7256C31.7343 12.9254 30.3916 11.1215 30.3916 8.32759C30.3916 6.26604 30.4187 4.20448 30.378 2.14293C30.3373 1.07146 30.7306 0.366197 31.7072 0ZM16.9779 7.83933C15.3232 7.73083 13.9127 9.11424 13.9262 10.8503C13.9398 12.5592 15.3503 13.9155 16.9779 13.7934C17.5882 13.9019 18.1036 13.6578 18.5919 13.3459C19.7176 12.627 20.2194 11.1758 19.799 9.87376C19.4056 8.63954 18.185 7.75795 16.9779 7.83933ZM6.53449 29.35C6.54805 29.3636 6.56162 29.3772 6.57518 29.3772C8.40616 29.662 10.0337 29.0516 11.6206 28.2514C11.8647 28.1294 11.7291 27.9802 11.6341 27.8445C11.1594 27.1393 10.6305 26.4747 10.0066 25.9051C8.32479 24.3725 6.3853 23.8842 4.18811 24.5623C3.46928 24.7115 2.83183 25.037 2.16725 25.3354C1.86887 25.471 1.80105 25.6067 2.00449 25.8915C2.60126 26.8002 3.2794 27.6275 4.14743 28.2786C4.86626 28.8075 5.63934 29.228 6.53449 29.35ZM42.6659 28.4413C42.1777 28.4277 41.6894 28.4413 41.2012 28.4006C40.8214 28.3735 40.7536 28.5363 40.7536 28.8753C40.7671 30.313 40.7671 31.7506 40.7536 33.1883C40.7536 33.446 40.7536 33.7037 40.6993 33.9478C40.3738 35.5076 39.0311 36.4977 37.4307 36.362C35.9116 36.24 34.7181 34.9786 34.6774 33.3646C34.6503 32.1847 34.6774 31.0047 34.6639 29.8112C34.6639 29.3636 34.8673 28.7804 34.5689 28.4956C34.2705 28.2107 33.7009 28.4142 33.2533 28.4142C30.9341 28.4142 29.51 29.8247 29.51 32.1304C29.51 35.9823 29.51 39.8341 29.51 43.686C29.51 43.8487 29.4693 44.0115 29.5778 44.2014C29.9575 44.0793 30.2559 43.8487 30.4865 43.5232C31.0019 42.7908 31.5037 42.0449 32.0327 41.326C33.3754 39.5086 35.8574 39.2916 37.4307 40.9056C38.0953 41.5837 38.8277 41.9092 39.7364 42.0177C41.2554 42.1805 42.3811 42.9671 43.0593 44.3505C43.1542 44.5404 43.2763 44.7303 43.3712 44.9338C43.5611 45.2728 43.8188 45.5305 44.185 45.6526C44.5647 45.9103 45.0123 45.8967 45.4328 45.9917C45.8803 46.0866 45.9346 45.9103 45.9346 45.5305C45.921 43.3469 45.9346 41.1768 45.9346 38.9932C45.9346 36.5655 45.9482 34.1377 45.921 31.6964C45.8939 29.9197 44.3206 28.3599 42.6659 28.4413ZM48.4573 50.2097C47.6028 48.8941 46.6941 47.8633 45.1073 47.7141C43.5068 47.5649 42.2455 46.8461 41.5673 45.3135C41.1469 44.3505 40.4145 43.8623 39.3837 43.7538C38.1766 43.6182 37.1323 43.157 36.2643 42.2347C35.3963 41.3125 34.1349 41.4345 33.3754 42.4653C32.9685 43.0214 32.5887 43.6046 32.1954 44.1742C31.5851 45.0829 30.7849 45.7068 29.7541 46.0595C29.4693 46.1544 29.198 46.29 28.9268 46.4392C28.6284 46.5884 28.4249 46.8325 28.3164 47.1581C27.9502 48.2024 27.3399 49.084 26.6211 49.8978C26.5397 49.9927 26.3769 50.0469 26.4583 50.2233C33.7551 50.2097 41.052 50.2097 48.4573 50.2097ZM37.7426 1.73604C36.0337 1.73604 34.3248 1.74961 32.6159 1.72248C32.2225 1.72248 32.1005 1.81742 32.1005 2.22431C32.114 4.34011 32.1005 6.45592 32.114 8.55816C32.1276 10.6197 33.5653 12.0574 35.6268 12.0845C37.0102 12.0981 38.3936 12.0981 39.7906 12.0845C41.8793 12.0574 43.317 10.6333 43.3441 8.53104C43.3712 6.41523 43.3441 4.29942 43.3576 2.19718C43.3576 1.81742 43.2491 1.70892 42.8694 1.72248C41.1605 1.74961 39.4515 1.73604 37.7426 1.73604ZM18.2121 29.4314C19.3921 29.445 20.2058 29.2415 20.9654 28.8482C22.281 28.1701 23.2304 27.1122 24.0577 25.9186C24.2611 25.6202 24.1662 25.471 23.8814 25.3354C23.149 24.9963 22.3895 24.7251 21.6164 24.4945C19.9753 24.0198 18.4427 24.2097 17.0186 25.132C15.9471 25.8237 15.1333 26.7595 14.4281 27.8039C14.2653 28.0344 14.2653 28.1701 14.5366 28.3057C15.7979 28.9567 17.1 29.4043 18.2121 29.4314ZM36.4135 18.6218C36.4135 20.0459 36.427 21.4564 36.4135 22.8805C36.4135 23.2603 36.5355 23.3959 36.9153 23.3688C37.4714 23.3417 38.0274 23.3552 38.5835 23.3688C38.8955 23.3824 39.0447 23.301 39.0447 22.9484C39.0311 20.0595 39.0311 17.1706 39.0447 14.2817C39.0447 13.9833 38.9362 13.8612 38.6378 13.8612C38.0817 13.8748 37.5256 13.8884 36.9695 13.8612C36.5355 13.8341 36.427 14.0104 36.427 14.4173C36.4135 15.8279 36.3999 17.2248 36.4135 18.6218ZM39.0311 29.4585C39.0311 28.1565 39.0175 26.8545 39.0311 25.5524C39.0311 25.2134 38.9497 25.0642 38.5835 25.0777C38.0139 25.1048 37.4307 25.0913 36.861 25.0777C36.5084 25.0642 36.3863 25.1998 36.3863 25.5524C36.3999 28.1022 36.3863 30.6521 36.3999 33.2019C36.3999 34.097 36.9695 34.6531 37.7697 34.626C38.5293 34.5989 39.0175 34.0428 39.0311 33.1476C39.0311 31.927 39.0311 30.6927 39.0311 29.4585ZM11.6748 5.62859C10.6033 5.62859 9.72176 6.40167 9.54544 7.4867C9.38269 8.47678 10.0066 9.494 10.9831 9.83307C11.4036 9.98226 12.2851 9.72457 12.3801 9.39906C12.6513 8.5446 13.126 7.8122 13.8042 7.229C13.9127 7.13406 14.0347 7.05269 13.8856 6.90349C13.2888 6.25248 12.6513 5.65571 11.6748 5.62859ZM19.0937 16.7773C19.0801 16.6823 19.0801 16.506 19.0259 16.3568C18.8903 16.0042 18.5919 15.76 18.3342 15.5023C18.1579 15.3125 17.9137 15.5023 17.7103 15.5295C16.9508 15.638 16.1912 15.5973 15.4724 15.3532C15.2418 15.2718 15.1062 15.2853 15.0248 15.5566C14.9163 15.977 14.7943 16.3975 14.7807 16.8451C14.7536 18.025 15.7165 19.0151 16.8965 19.0423C18.1036 19.0694 19.1073 18.0522 19.0937 16.7773ZM11.6748 16.0313C12.6649 16.0313 13.3837 15.4345 13.6007 14.4444C13.6279 14.3088 13.6007 14.2274 13.5194 14.1325C12.8683 13.4544 12.4615 12.6541 12.2716 11.7454C12.2309 11.5284 12.1495 11.4742 11.9325 11.5284C11.4714 11.6505 11.0102 11.7726 10.6033 12.0167C9.74889 12.5185 9.35556 13.5086 9.61326 14.458C9.84383 15.3396 10.7254 16.0177 11.6748 16.0313ZM24.3425 13.8884C24.3561 12.9525 23.7864 12.1388 22.9184 11.8268C22.3488 11.6234 21.6028 11.9489 21.3858 12.505C21.1959 13.0203 20.8976 13.4544 20.5856 13.9019C20.3822 14.1867 19.8532 14.3088 20.0024 14.7157C20.1245 15.0548 20.5042 15.2853 20.8162 15.5159C20.9111 15.5837 21.0061 15.6515 21.1146 15.7194C22.5251 16.5602 24.3154 15.543 24.3425 13.8884ZM14.7807 4.77412C14.7807 4.82837 14.7807 4.86906 14.7807 4.92332C14.7536 5.47939 15.2012 5.75065 15.486 6.10329C15.703 6.37454 15.9878 6.13041 16.2455 6.10329C16.8016 6.0626 17.3576 6.03547 17.9137 6.15754C18.8903 6.37454 18.8903 6.36098 19.053 5.34377C19.0666 5.2217 19.0937 5.1132 19.1073 4.99113C19.2429 3.77047 18.3206 2.67188 17.1 2.60407C15.7979 2.54981 14.7671 3.52634 14.7807 4.77412ZM24.3154 7.56807C24.2883 6.91706 23.9085 6.23891 23.0947 5.85915C22.2674 5.47939 21.4808 5.60146 20.7755 6.1711C20.3144 6.55086 20.233 7.33751 20.6127 7.78508C21.0332 8.30047 21.3451 8.88367 21.5214 9.52112C21.7249 10.2128 21.7249 10.2128 22.4302 9.99582C23.6644 9.62963 24.3154 8.87011 24.3154 7.56807Z" fill="#1EC996"/>
<path d="M9.27395 50.2233C8.67718 48.2838 8.09398 46.3579 7.48365 44.4184C6.90045 42.5332 6.30368 40.6479 5.70691 38.7627C5.6391 38.5728 5.59841 38.3694 5.61197 38.1659C6.18161 38.0981 6.62919 37.8811 6.73769 37.2437C7.67353 37.2437 8.60937 37.2437 9.5452 37.2437C9.72152 37.9625 9.95209 38.1252 10.793 38.1252C14.143 38.1252 17.493 38.1252 20.8431 38.1252C21.1143 38.1252 21.3856 38.1388 21.6568 38.1252C22.1044 38.0845 22.2129 38.2337 22.0773 38.6813C21.4534 40.5937 20.8702 42.5196 20.2734 44.432C19.7173 46.2223 19.1613 48.0126 18.6052 49.8029C18.5238 50.0606 18.456 50.2504 18.1034 50.2504C15.1602 50.2233 12.2171 50.2233 9.27395 50.2233Z" fill="#21D7A0" fill-opacity="0.2"/>
<path d="M48.4571 50.2097C41.0517 50.2097 33.7549 50.2097 26.4581 50.2097C26.3903 50.0334 26.553 49.9792 26.6209 49.8842C27.3397 49.0569 27.95 48.1753 28.3162 47.1445C28.4247 46.819 28.6282 46.5749 28.9265 46.4257C29.1978 46.2901 29.4691 46.1409 29.7539 46.0459C30.7846 45.6933 31.5984 45.0694 32.1952 44.1607C32.5749 43.5911 32.9547 43.0079 33.3752 42.4518C34.1347 41.421 35.396 41.2989 36.264 42.2212C37.1185 43.1435 38.1628 43.6046 39.3835 43.7402C40.4143 43.8488 41.1467 44.3506 41.5671 45.3C42.2453 46.8326 43.5066 47.5514 45.107 47.7006C46.6939 47.8498 47.6026 48.8806 48.4571 50.2097Z" fill="#21D7A0" fill-opacity="0.2"/>
<path d="M18.2119 29.4313C17.0997 29.4042 15.7841 28.9431 14.5228 28.3056C14.2515 28.17 14.2515 28.0344 14.4143 27.8038C15.1331 26.773 15.9333 25.8236 17.0048 25.1319C18.4425 24.2096 19.9615 24.0198 21.6026 24.4945C22.3893 24.725 23.1352 24.9963 23.8676 25.3354C24.1524 25.471 24.2474 25.6202 24.0439 25.9186C23.2166 27.1121 22.2672 28.17 20.9516 28.8481C20.2056 29.2415 19.4054 29.4585 18.2119 29.4313Z" fill="#21D7A0" fill-opacity="0.2"/>
<path d="M44.1849 45.6526C44.1849 41.0683 44.1849 36.4841 44.1849 31.8998C44.1849 30.7063 43.8052 29.6891 42.9372 28.8482C42.8151 28.7261 42.6795 28.6176 42.6523 28.4413C44.307 28.3599 45.8939 29.9196 45.9074 31.7099C45.9346 34.1377 45.921 36.5654 45.921 39.0068C45.921 41.1904 45.921 43.3604 45.921 45.5441C45.921 45.9238 45.8667 46.1001 45.4192 46.0052C45.0123 45.8967 44.5647 45.8967 44.1849 45.6526Z" fill="#21D7A0" fill-opacity="0.2"/>
<path d="M4.20169 24.5488C6.39887 23.8706 8.3248 24.3589 10.0202 25.8915C10.644 26.4611 11.173 27.1257 11.6477 27.831C11.7426 27.9666 11.8783 28.1158 11.6341 28.2379C10.0473 29.0381 8.40617 29.6484 6.58875 29.3636C6.57519 29.3636 6.56163 29.35 6.54806 29.3365C6.643 29.0923 6.39887 29.0652 6.29037 28.9838C5.25959 28.2243 4.45938 27.2613 3.76768 26.1899C3.37435 25.5931 3.48286 25.1455 4.07962 24.7251C4.12031 24.6844 4.22882 24.6708 4.20169 24.5488Z" fill="#21D7A0" fill-opacity="0.2"/>
<path d="M36.3997 18.6217C36.3997 17.2247 36.4132 15.8142 36.3861 14.4172C36.3861 14.0103 36.4946 13.834 36.9286 13.8611C37.4847 13.8882 38.0408 13.8747 38.5969 13.8611C38.9088 13.8475 39.0038 13.9696 39.0038 14.2816C38.9902 17.1704 38.9902 20.0593 39.0038 22.9482C39.0038 23.3009 38.8546 23.3822 38.5426 23.3687C37.9865 23.3551 37.4305 23.3415 36.8744 23.3687C36.4946 23.3822 36.3726 23.2466 36.3726 22.8804C36.4132 21.4563 36.4132 20.0458 36.3997 18.6217Z" fill="#21D7A0" fill-opacity="0.2"/>
<path d="M39.031 29.4585C39.031 30.6927 39.031 31.9269 39.031 33.1611C39.031 34.0427 38.5427 34.6124 37.7696 34.6395C36.9694 34.6666 36.4134 34.1105 36.3998 33.2154C36.3862 30.6656 36.3998 28.1158 36.3862 25.566C36.3862 25.2133 36.5083 25.0777 36.8609 25.0913C37.4306 25.1048 38.0138 25.1184 38.5834 25.0913C38.9496 25.0777 39.0446 25.2269 39.031 25.566C39.0174 26.8544 39.031 28.1565 39.031 29.4585Z" fill="#21D7A0" fill-opacity="0.2"/>
<path d="M16.9916 13.7935C17.0323 13.6985 17.0594 13.59 17.1272 13.5358C18.5784 12.1252 18.592 9.67036 17.1272 8.11063C17.0594 8.04281 17.0323 7.93431 16.978 7.85293C18.1851 7.77156 19.3922 8.63958 19.7991 9.88736C20.2196 11.1758 19.7313 12.6406 18.592 13.3595C18.1173 13.6578 17.6019 13.902 16.9916 13.7935Z" fill="#21D7A0" fill-opacity="0.2"/>
<path d="M2.18066 38.0845C2.28917 38.098 2.38411 38.1116 2.49261 38.1252L2.18066 38.0845Z" fill="#21D7A0" fill-opacity="0.2"/>
<path d="M3.67271 39.6849C4.14741 39.6713 4.54073 40.0647 4.54073 40.5394C4.54073 41.0005 4.17454 41.3803 3.7134 41.3938C3.2387 41.4074 2.83181 41.0276 2.80469 40.5529C2.81825 40.1054 3.21157 39.6985 3.67271 39.6849Z" fill="#1EC996"/>
<path d="M37.7428 3.44507C38.6651 3.44507 39.6009 3.44507 40.5232 3.44507C41.2827 3.44507 41.6218 3.75701 41.6354 4.50297C41.6489 5.85926 41.6489 7.20198 41.6354 8.55827C41.6218 9.67042 40.9165 10.3757 39.8315 10.3893C38.4345 10.4028 37.024 10.4028 35.627 10.3893C34.5149 10.3757 33.8367 9.68398 33.8232 8.57183C33.8096 7.20198 33.8096 5.83213 33.8232 4.46228C33.8232 3.77058 34.1487 3.44507 34.8539 3.44507C35.8169 3.44507 36.7799 3.44507 37.7428 3.44507ZM37.7021 8.6532C38.2718 8.6532 38.855 8.63964 39.4246 8.6532C39.7637 8.66677 39.9129 8.57183 39.8993 8.20563C39.8722 7.33761 39.8858 6.48315 39.8993 5.61513C39.8993 5.30318 39.8179 5.16755 39.4653 5.16755C38.2989 5.19468 37.1325 5.18112 35.9661 5.16755C35.6677 5.16755 35.5456 5.24893 35.5592 5.56087C35.5728 6.45602 35.5728 7.35117 35.5592 8.24632C35.5456 8.57183 35.6948 8.63964 35.9797 8.63964C36.5493 8.63964 37.1189 8.6532 37.7021 8.6532Z" fill="#1EC996"/>
</svg>
