<svg width="62" height="52" viewBox="0 0 62 52" fill="none" xmlns="http://www.w3.org/2000/svg">
<path d="M61.2446 50.4653C60.701 51.6803 59.7258 52 58.4469 52C40.7979 51.968 23.1328 51.984 5.48379 51.984C3.18174 51.984 1.4552 51.0248 0.448054 48.9146C0.160298 48.2911 0.0164204 47.6357 0.0164204 46.9483C0.0164204 38.1397 0.0164204 29.3312 0.0164204 20.5227C0.0164204 19.7873 0.432067 19.3077 1.03955 19.3077C1.64704 19.3237 2.03071 19.7873 2.03071 20.5546C2.03071 27.6846 2.03071 34.8146 2.03071 41.9605C2.03071 42.1843 2.03071 42.4241 2.03071 42.7438C2.73412 42.3282 3.37358 42.0245 4.061 41.8486C5.51576 41.5449 6.84264 41.9445 8.15353 42.7119C8.15353 42.3921 8.15353 42.2003 8.15353 42.0085C8.15353 32.1448 8.15353 22.2812 8.13754 12.4175C8.13754 10.5311 7.16237 9.41207 5.24399 9.10833C5.16406 9.10833 5.08413 9.10833 5.0042 9.10833C4.86032 9.07636 4.71644 9.07636 4.60453 9.17227C3.14977 9.3801 2.14262 10.4992 2.01473 12.0818C1.98275 12.6254 1.75894 13.009 1.23139 13.1369C0.543972 13.2968 0.000432959 12.8172 0.000432959 12.0658C-0.03154 9.81173 1.71099 7.70152 4.01304 7.18995C7.13039 6.50254 10.0879 8.83656 10.1678 12.0498C10.1838 12.8492 10.1678 13.6485 10.1678 14.4478C10.1678 15.2311 10.1678 15.2311 10.9831 15.2311C12.7097 15.2311 14.4522 15.2152 16.1787 15.2471C16.6903 15.2631 17.074 15.1033 17.4576 14.7516C20.2713 12.2097 23.0849 9.69983 25.9145 7.17397C28.3124 5.03178 30.6944 2.8896 33.0924 0.747414C34.2115 -0.259733 35.1866 -0.243745 36.3217 0.763402C37.9683 2.23416 39.6149 3.72089 41.2615 5.19165C41.4213 5.33553 41.5972 5.46342 41.7411 5.57532C41.885 5.4794 41.853 5.3675 41.853 5.27158C41.9009 3.70491 42.6523 2.98552 44.187 2.98552C45.0023 2.98552 45.8176 2.98552 46.6329 2.98552C48.1836 2.98552 48.9829 3.78484 48.9829 5.35151C48.9829 7.42975 48.9989 9.492 48.967 11.5702C48.967 11.9699 49.0948 12.2417 49.3826 12.4975C50.2938 13.2808 51.1891 14.0641 52.0683 14.8794C52.3401 15.1352 52.6119 15.2311 52.9636 15.2311C54.802 15.2152 56.6405 15.2631 58.4629 15.2152C59.7258 15.1672 60.669 15.5509 61.2126 16.7499C61.2446 27.9724 61.2446 39.2268 61.2446 50.4653ZM44.8425 16.7339C41.5812 13.8084 38.32 10.8828 35.0587 7.94132C34.771 7.68554 34.5791 7.70152 34.3074 7.94132C30.5026 11.3784 26.6658 14.8155 22.8291 18.2366C22.5733 18.4604 22.4614 18.7002 22.4614 19.0519C22.4774 23.4802 22.4614 27.9084 22.4774 32.3207C22.4774 33.2319 22.8291 33.5836 23.7403 33.5836C25.4988 33.5836 27.2414 33.5676 28.9999 33.5996C29.4954 33.6156 29.5914 33.4237 29.5914 32.9761C29.5754 30.5622 29.5754 28.1482 29.5914 25.7342C29.5914 23.608 30.8703 22.3451 32.9645 22.3451C34.1155 22.3451 35.2825 22.3451 36.4336 22.3451C38.5598 22.3451 39.8227 23.608 39.8227 25.7183C39.8227 28.1642 39.8227 30.6261 39.8227 33.072C39.8227 33.3758 39.8227 33.5996 40.2543 33.5836C41.7411 33.5516 43.2438 33.5516 44.7305 33.5516C44.9863 33.5676 45.2421 33.5676 45.4979 33.5676C46.6169 33.5676 46.9687 33.2319 46.9846 32.1288C46.9846 28.4839 46.9846 24.839 46.9846 21.2101C46.9846 20.3628 47.1765 19.4196 46.8887 18.6682C46.585 17.8689 45.6418 17.4373 45.0023 16.7978C44.9544 16.7978 44.9064 16.7658 44.8425 16.7339ZM4.63651 49.8738C5.1161 50.0656 5.62767 49.9537 6.10726 49.9537C23.5645 49.9537 41.0217 49.9537 58.4789 49.9537C58.9105 49.9537 59.2143 49.9697 59.1983 49.3622C59.1823 38.8431 59.1823 28.3241 59.1983 17.789C59.1983 17.3414 59.0864 17.2135 58.6228 17.2135C56.9122 17.2295 55.2017 17.2135 53.4751 17.2135C53.2993 17.2135 53.1074 17.1495 52.9796 17.3254C52.484 18.2526 51.7486 18.972 51.0452 19.7393C50.6935 20.139 50.1979 20.3788 49.6544 20.2989C49.0629 20.2029 48.9829 20.4587 48.9829 20.9703C48.9989 24.7591 48.9989 28.5479 48.9829 32.3367C48.9829 34.351 47.688 35.6299 45.6897 35.6299C38.32 35.6299 30.9502 35.6299 23.5645 35.6299C21.6941 35.6299 20.4151 34.3509 20.3992 32.4805C20.3832 30.5941 20.3992 28.6917 20.3992 26.8053C20.3992 24.807 20.3992 22.8247 20.3992 20.8264C20.3992 20.4427 20.3992 20.2029 19.8716 20.2989C19.2961 20.4108 18.7366 20.2029 18.3369 19.8033C17.6974 19.1478 17.058 18.4764 16.5784 17.6931C16.3706 17.3573 16.1787 17.2774 15.827 17.2774C14.1804 17.2934 12.5178 17.3094 10.8712 17.2774C10.2957 17.2614 10.1358 17.4213 10.1358 17.9968C10.1518 23.7519 10.1518 29.523 10.1518 35.2782C10.1518 37.772 10.1518 40.2659 10.1518 42.7438C10.1518 43.8149 9.51238 44.5823 8.50523 44.7901C7.81781 44.934 7.27427 44.6302 6.73073 44.2785C5.64365 43.5751 4.25283 43.6391 3.24568 44.3745C2.2865 45.0938 1.8069 46.3568 2.07867 47.4918C2.41439 48.8187 3.3416 49.666 4.63651 49.8738ZM50.9653 16.7339C50.8534 16.606 50.7574 16.4781 50.6455 16.3822C49.6704 15.5029 48.6952 14.6077 47.72 13.7284C43.5635 9.98758 39.3751 6.26274 35.2346 2.50592C34.803 2.12225 34.5632 2.12225 34.1635 2.48994C31.3019 5.07974 28.4244 7.65356 25.5468 10.2434C23.5645 12.0179 21.5662 13.7924 19.5838 15.5828C18.0651 16.9577 18.193 16.3182 19.408 17.9169C19.6318 18.2046 19.8077 18.2206 20.0794 17.9648C22.7492 15.5509 25.4509 13.1529 28.1206 10.739C30.055 9.01241 31.9733 7.28588 33.9077 5.55934C34.4193 5.09573 34.8669 5.09573 35.3945 5.54335C35.7781 5.86308 36.1458 6.19879 36.5135 6.53451C40.606 10.1954 44.7146 13.8563 48.8071 17.5332C49.6384 18.2846 49.6224 18.3005 50.3738 17.4373C50.5816 17.2295 50.7734 16.9897 50.9653 16.7339ZM31.6696 29.2992C31.6696 30.5622 31.6856 31.8091 31.6536 33.072C31.6376 33.4877 31.7815 33.6156 32.1972 33.6156C33.8757 33.5996 35.5383 33.5996 37.2169 33.6156C37.6166 33.6156 37.7764 33.5356 37.7764 33.088C37.7604 30.6101 37.7764 28.1482 37.7604 25.6703C37.7604 24.807 37.3448 24.4074 36.4655 24.4074C35.2825 24.4074 34.1155 24.4074 32.9325 24.4074C32.0053 24.4074 31.6696 24.7431 31.6536 25.6543C31.6696 26.8693 31.6696 28.0843 31.6696 29.2992ZM46.8248 10.1634C46.9047 10.0835 46.9527 10.0675 46.9527 10.0355C46.9686 8.46887 46.9687 6.88622 46.9846 5.31954C46.9846 5.03179 46.7928 5.0158 46.585 5.0158C45.8336 5.0158 45.0663 5.03178 44.3149 5.0158C43.9952 5.0158 43.8992 5.1277 43.8992 5.43144C43.9152 6.02294 43.9152 6.63043 43.8992 7.22193C43.8992 7.44574 43.9792 7.58962 44.139 7.73349C45.0183 8.51683 45.8976 9.33214 46.8248 10.1634Z" fill="#1EC996"/>
<path d="M5.26015 9.1084C7.17852 9.41214 8.1537 10.5312 8.1537 12.4176C8.1537 22.2812 8.1537 32.1449 8.16968 42.0085C8.16968 42.2004 8.16968 42.4082 8.16968 42.7119C6.85879 41.9446 5.53192 41.5449 4.07715 41.8487C4.07715 32.1609 4.09313 22.4891 4.07715 12.8013C4.07715 11.5863 4.28497 10.4832 5.06831 9.50806C5.14824 9.39615 5.27613 9.28425 5.26015 9.1084Z" fill="#21D7A0" fill-opacity="0.2"/>
<path d="M1.03973 17.2613C0.496194 17.2773 0.0166016 16.7977 0.0166016 16.2542C0.0166016 15.7266 0.448236 15.263 0.975789 15.2311C1.51933 15.1991 2.01491 15.6627 2.03089 16.2062C2.03089 16.7657 1.59926 17.2453 1.03973 17.2613Z" fill="#1EC996"/>
<path d="M4.62061 9.17242C4.7485 9.0765 4.87639 9.07651 5.02027 9.10848C4.90836 9.22038 4.76448 9.18841 4.62061 9.17242Z" fill="#21D7A0" fill-opacity="0.2"/>
<path d="M4.63631 49.8737C3.32542 49.6659 2.41419 48.8026 2.09446 47.5077C1.82269 46.3727 2.30228 45.0938 3.26147 44.3903C4.26862 43.655 5.65944 43.591 6.74652 44.2944C7.29006 44.6461 7.84958 44.9499 8.52101 44.806C9.52816 44.5982 10.1676 43.8308 10.1676 42.7597C10.1836 40.2659 10.1676 37.772 10.1676 35.2941C10.1676 29.5389 10.1836 23.7678 10.1516 18.0127C10.1516 17.4372 10.3115 17.2773 10.887 17.2933C12.5336 17.3253 14.1962 17.3093 15.8428 17.2933C16.1945 17.2933 16.4023 17.3732 16.5942 17.709C17.0738 18.4923 17.7132 19.1637 18.3527 19.8192C18.7523 20.2348 19.3119 20.4426 19.8874 20.3147C20.4149 20.2028 20.4149 20.4426 20.4149 20.8423C20.399 22.8406 20.4149 24.8229 20.4149 26.8212C20.4149 28.7076 20.4149 30.61 20.4149 32.4964C20.4309 34.3668 21.7098 35.6458 23.5803 35.6458C30.95 35.6458 38.3198 35.6458 45.7055 35.6458C47.7198 35.6458 48.9987 34.3668 48.9987 32.3525C49.0147 28.5638 49.0147 24.775 48.9987 20.9862C48.9987 20.4746 49.0787 20.2188 49.6702 20.3147C50.2137 20.3947 50.7093 20.1549 51.061 19.7552C51.7484 18.9879 52.4998 18.2685 52.9953 17.3413C54.0984 17.3413 55.1855 17.3413 56.2885 17.3413C57.1678 17.3413 57.1678 17.3413 57.1678 18.1885C57.1678 28.4519 57.1678 38.7152 57.1678 48.9945C57.1678 49.8737 57.1678 49.8737 56.3045 49.8737C39.5827 49.8737 22.8609 49.8737 6.13903 49.8737C5.64345 49.8577 5.14787 49.8737 4.63631 49.8737ZM34.7388 37.676C28.3602 37.676 21.9816 37.676 15.603 37.676C14.0363 37.676 13.253 38.4594 13.253 40.042C13.253 41.6727 13.317 43.3193 13.237 44.9499C13.1251 47.2839 14.0523 47.9393 16.2585 47.9393C28.568 47.9234 40.8936 47.9234 53.2032 47.9234C53.5069 47.9234 53.7947 47.9074 54.0984 47.8754C55.4253 47.7635 56.0967 47.0121 56.1127 45.6853C56.1127 43.7989 56.1127 41.8965 56.1127 40.0101C56.1127 38.4434 55.3294 37.676 53.7467 37.676C47.4161 37.676 41.0854 37.676 34.7388 37.676Z" fill="#FEFEFE"/>
<path d="M44.7306 33.5677C43.2438 33.5677 41.7411 33.5676 40.2544 33.5996C39.8387 33.6156 39.8227 33.3918 39.8227 33.0881C39.8227 30.6421 39.8227 28.1802 39.8227 25.7343C39.8227 23.6241 38.5598 22.3611 36.4336 22.3611C35.2826 22.3611 34.1156 22.3611 32.9645 22.3611C30.8543 22.3611 29.5914 23.6401 29.5914 25.7503C29.5914 28.1642 29.5754 30.5782 29.5914 32.9921C29.5914 33.4398 29.4955 33.6156 28.9999 33.6156C27.2414 33.5836 25.4989 33.5996 23.7403 33.5996C22.8291 33.5996 22.4774 33.2479 22.4774 32.3367C22.4774 27.9084 22.4774 23.4802 22.4614 19.0679C22.4614 18.7162 22.5733 18.4764 22.8291 18.2526C26.6659 14.8315 30.4866 11.3944 34.3234 7.97333C34.5951 7.71755 34.787 7.71755 35.0747 7.97333C38.32 10.9148 41.5972 13.8404 44.8584 16.7659C44.8584 21.8815 44.8584 27.0132 44.8584 32.1289C44.8584 32.5925 44.8744 33.0881 44.7306 33.5677Z" fill="#FEFEFE"/>
<path d="M50.9655 16.734C50.7576 16.9898 50.5818 17.2296 50.39 17.4534C49.6546 18.3167 49.6706 18.3007 48.8233 17.5493C44.7308 13.8724 40.6382 10.2275 36.5297 6.55063C36.162 6.21491 35.7943 5.8792 35.4107 5.55947C34.8671 5.11185 34.4355 5.11184 33.9239 5.57545C31.9895 7.30199 30.0712 9.02853 28.1368 10.7551C25.4511 13.153 22.7654 15.567 20.0956 17.9809C19.8239 18.2367 19.632 18.2207 19.4242 17.933C18.2092 16.3343 18.0653 16.9738 19.6 15.599C21.5824 13.8085 23.5647 12.034 25.563 10.2595C28.4406 7.68567 31.3181 5.09586 34.1797 2.50605C34.5794 2.15435 34.8351 2.13837 35.2508 2.52204C39.3913 6.27886 43.5637 10.0037 47.7362 13.7445C48.7114 14.6238 49.6866 15.503 50.6617 16.3983C50.7576 16.4782 50.8536 16.6061 50.9655 16.734Z" fill="#21D7A0" fill-opacity="0.2"/>
<path d="M4.63672 49.8738C5.1323 49.8738 5.62788 49.8578 6.12346 49.8578C22.8453 49.8578 39.5671 49.8578 56.289 49.8578C57.1522 49.8578 57.1522 49.8578 57.1522 48.9786C57.1522 38.7153 57.1522 28.452 57.1522 18.1727C57.1522 17.3254 57.1522 17.3254 56.273 17.3254C55.1699 17.3254 54.0828 17.3254 52.9798 17.3254C53.1236 17.1495 53.3155 17.2135 53.4753 17.2135C55.1859 17.2135 56.8965 17.2295 58.623 17.2135C59.0706 17.2135 59.1985 17.3414 59.1985 17.789C59.1825 28.3081 59.1825 38.8272 59.1985 49.3623C59.1985 49.9857 58.8948 49.9538 58.4791 49.9538C41.0219 49.9538 23.5647 49.9538 6.10747 49.9538C5.62788 49.9697 5.1323 50.0816 4.63672 49.8738Z" fill="#21D7A0" fill-opacity="0.2"/>
<path d="M31.6696 29.2991C31.6696 28.0841 31.6696 26.8691 31.6696 25.6542C31.6696 24.7429 32.0213 24.4072 32.9486 24.4072C34.1316 24.4072 35.2986 24.4072 36.4816 24.4072C37.3768 24.4072 37.7765 24.8069 37.7765 25.6702C37.7925 28.1481 37.7765 30.61 37.7925 33.0879C37.7925 33.5355 37.6326 33.6154 37.2329 33.6154C35.5544 33.5994 33.8918 33.5994 32.2132 33.6154C31.7975 33.6154 31.6537 33.5035 31.6696 33.0719C31.6856 31.809 31.6696 30.562 31.6696 29.2991Z" fill="#21D7A0" fill-opacity="0.2"/>
<path d="M44.7305 33.5676C44.8743 33.088 44.8584 32.5925 44.8584 32.0969C44.8584 26.9812 44.8584 21.8496 44.8584 16.7339C44.9063 16.7659 44.9703 16.7978 45.0022 16.8298C45.6417 17.4533 46.5849 17.8849 46.8886 18.7002C47.1764 19.4516 46.9846 20.3788 46.9846 21.2421C46.9846 24.887 46.9846 28.5319 46.9846 32.1608C46.9846 33.2639 46.6329 33.5996 45.4978 33.5996C45.242 33.5996 44.9863 33.5836 44.7305 33.5676Z" fill="#21D7A0" fill-opacity="0.2"/>
<path d="M46.8248 10.1634C45.8976 9.33208 45.0183 8.53275 44.1231 7.73343C43.9632 7.58955 43.8833 7.44568 43.8833 7.22186C43.8993 6.63037 43.8993 6.02288 43.8833 5.43138C43.8833 5.12764 43.9792 4.99974 44.2989 5.01573C45.0503 5.03172 45.8177 5.01573 46.569 5.01573C46.7768 5.01573 46.9847 5.01573 46.9687 5.31948C46.9527 6.88615 46.9527 8.46881 46.9367 10.0355C46.9527 10.0515 46.9047 10.0834 46.8248 10.1634Z" fill="#21D7A0" fill-opacity="0.2"/>
<path d="M34.7392 37.676C41.0698 37.676 47.4164 37.676 53.7471 37.676C55.3297 37.676 56.1131 38.4434 56.1131 40.0101C56.1131 41.8965 56.1131 43.7988 56.1131 45.6852C56.1131 47.0121 55.4257 47.7475 54.0988 47.8754C53.795 47.9074 53.5073 47.9234 53.2035 47.9234C40.894 47.9234 28.5684 47.9074 16.2588 47.9393C14.0687 47.9393 13.1255 47.2839 13.2374 44.9499C13.3173 43.3192 13.2534 41.6886 13.2534 40.042C13.2534 38.4594 14.0367 37.676 15.6034 37.676C21.998 37.676 28.3606 37.676 34.7392 37.676ZM52.0365 45.8131C52.5481 45.8131 53.0756 45.7971 53.5872 45.8291C53.9869 45.8611 54.0988 45.6852 54.0828 45.3176C54.0668 43.8948 54.0828 42.456 54.0828 41.0332C54.0828 39.7223 54.0828 39.7543 52.7719 39.7063C52.1484 39.6743 52.0205 39.8822 52.0205 40.4737C52.0365 41.4169 52.1644 42.3761 51.9246 43.3193C51.6049 43.7669 51.1733 43.9267 50.6617 43.7349C50.1341 43.5431 49.9903 43.0954 49.9903 42.5839C49.9903 41.9124 49.9903 41.225 49.9903 40.5536C49.9743 39.6104 50.1022 39.7383 49.159 39.7383C48.7913 39.7383 48.3277 39.5784 48.0559 39.8182C47.7841 40.042 47.992 40.4897 47.944 40.8414C47.88 41.3849 47.4964 41.7526 46.9528 41.7686C46.3773 41.7846 45.9777 41.4169 45.9137 40.8414C45.8658 40.4897 46.0736 40.042 45.8018 39.8182C45.53 39.5944 45.0664 39.7703 44.6987 39.7383C44.5868 39.7383 44.4589 39.7543 44.347 39.7383C43.9794 39.6903 43.8674 39.8502 43.8674 40.2179C43.8834 41.0332 43.8834 41.8485 43.8674 42.6638C43.8515 43.3992 43.4838 43.7988 42.8603 43.8148C42.2208 43.8148 41.8372 43.4152 41.8372 42.6798C41.8212 41.9604 41.8372 41.241 41.8372 40.5216C41.8372 39.6264 41.9331 39.7383 41.0378 39.7383C40.6542 39.7383 40.2065 39.6424 39.9348 39.8182C39.631 39.9941 39.8548 40.4737 39.8069 40.8254C39.727 41.4009 39.3113 41.7846 38.7678 41.7686C38.2242 41.7686 37.8565 41.4009 37.7766 40.8414C37.7286 40.4737 37.9844 39.9941 37.6327 39.7862C37.345 39.6264 36.8974 39.7383 36.5137 39.7223C36.4337 39.7223 36.3538 39.7383 36.2739 39.7223C35.8582 39.6584 35.7144 39.8342 35.7303 40.2499C35.7623 41.0811 35.7623 41.9284 35.7303 42.7597C35.6984 43.4152 35.2507 43.8148 34.6433 43.7988C34.0677 43.7829 33.7001 43.3992 33.7001 42.7278C33.6841 42.0243 33.7001 41.3369 33.7001 40.6335C33.7001 39.6104 33.764 39.7383 32.8048 39.7223C31.7657 39.7223 31.7657 39.7223 31.6538 40.7135C31.5739 41.3529 31.2062 41.7366 30.6307 41.7526C30.0551 41.7526 29.6715 41.3849 29.5756 40.7454C29.5276 40.4257 29.7354 39.9621 29.4477 39.8022C29.1759 39.6424 28.7602 39.7383 28.3925 39.7223C28.2806 39.7223 28.1528 39.7383 28.0409 39.7223C27.6412 39.6743 27.5293 39.8662 27.5293 40.2339C27.5453 41.0492 27.5293 41.8645 27.5293 42.6798C27.5293 42.9356 27.4973 43.1914 27.3215 43.4152C27.0177 43.7829 26.6181 43.8788 26.1864 43.7349C25.7228 43.591 25.499 43.2073 25.483 42.7278C25.467 41.8645 25.467 41.0172 25.483 40.1539C25.483 39.8182 25.3711 39.6743 25.0354 39.7063C24.8595 39.7223 24.6837 39.7063 24.4919 39.7063C23.5007 39.7063 23.5007 39.7063 23.4367 40.7294C23.4048 41.3369 23.0371 41.7206 22.4776 41.7366C21.902 41.7686 21.4864 41.3689 21.4065 40.7614C21.3585 40.4097 21.5983 39.9461 21.2626 39.7543C20.9908 39.5944 20.5592 39.7063 20.2075 39.7063C20.1276 39.7063 20.0476 39.7223 19.9677 39.7063C19.5201 39.6424 19.3282 39.7862 19.3602 40.2818C19.4082 41.0971 19.3762 41.9124 19.3602 42.7278C19.3442 43.3672 18.9605 43.7669 18.369 43.7669C17.7456 43.7829 17.3459 43.3832 17.3299 42.7118C17.3139 42.2002 17.3299 41.6726 17.3299 41.1611C17.3299 39.6743 17.3299 39.6903 15.8272 39.6903C15.4115 39.6903 15.2837 39.8182 15.2837 40.2339C15.2996 41.8485 15.3156 43.4631 15.2837 45.0778C15.2677 45.6852 15.4275 45.8291 16.035 45.8291C27.833 45.8131 39.631 45.8131 51.429 45.8131C51.6369 45.8291 51.8287 45.8131 52.0365 45.8131Z" fill="#1EC996"/>
<path d="M52.0363 45.8133C51.8445 45.8133 51.6366 45.8293 51.4448 45.8293C39.6468 45.8293 27.8488 45.8293 16.0508 45.8453C15.4433 45.8453 15.2834 45.6854 15.2994 45.0939C15.3474 43.4793 15.3314 41.8647 15.2994 40.25C15.2994 39.8344 15.4113 39.7065 15.8429 39.7065C17.3457 39.7065 17.3457 39.6905 17.3457 41.1772C17.3457 41.6888 17.3297 42.2164 17.3457 42.7279C17.3617 43.3994 17.7613 43.799 18.3848 43.783C18.9763 43.7671 19.36 43.3834 19.376 42.7439C19.3919 41.9286 19.4079 41.1133 19.376 40.298C19.344 39.8024 19.5358 39.6585 19.9834 39.7225C20.0634 39.7385 20.1433 39.7225 20.2232 39.7225C20.5749 39.7225 21.0066 39.6266 21.2783 39.7704C21.6141 39.9623 21.3743 40.4259 21.4222 40.7776C21.5022 41.3851 21.9338 41.7687 22.4933 41.7528C23.0528 41.7368 23.4205 41.3531 23.4525 40.7456C23.5164 39.7225 23.5164 39.7225 24.5076 39.7225C24.6835 39.7225 24.8753 39.7385 25.0511 39.7225C25.3869 39.6905 25.4988 39.8344 25.4988 40.1701C25.4828 41.0334 25.4828 41.8806 25.4988 42.7439C25.5148 43.2235 25.7386 43.6072 26.2022 43.7511C26.6338 43.879 27.0335 43.799 27.3372 43.4313C27.5131 43.2075 27.545 42.9677 27.545 42.696C27.545 41.8807 27.561 41.0653 27.545 40.25C27.529 39.8664 27.6569 39.6745 28.0566 39.7385C28.1685 39.7545 28.2964 39.7385 28.4083 39.7385C28.76 39.7545 29.1916 39.6585 29.4634 39.8184C29.7512 39.9942 29.5433 40.4419 29.5913 40.7616C29.6872 41.4011 30.0709 41.7687 30.6464 41.7687C31.2059 41.7687 31.5896 41.3691 31.6695 40.7296C31.7814 39.7385 31.7814 39.7225 32.8206 39.7385C33.7798 39.7385 33.6998 39.6106 33.7158 40.6497C33.7158 41.3531 33.6998 42.0405 33.7158 42.7439C33.7318 43.4153 34.0835 43.799 34.659 43.815C35.2505 43.831 35.7141 43.4313 35.7461 42.7759C35.7781 41.9446 35.7781 41.0973 35.7461 40.266C35.7301 39.8504 35.874 39.6745 36.2896 39.7385C36.3696 39.7545 36.4495 39.7385 36.5294 39.7385C36.9131 39.7545 37.3607 39.6266 37.6485 39.8024C38.0002 39.9943 37.7444 40.4898 37.7924 40.8575C37.8723 41.417 38.24 41.7687 38.7835 41.7847C39.3271 41.7847 39.7427 41.417 39.8226 40.8415C39.8706 40.4898 39.6468 40.0102 39.9505 39.8344C40.2383 39.6585 40.6859 39.7544 41.0536 39.7544C41.9488 39.7544 41.8529 39.6585 41.8529 40.5378C41.8529 41.2572 41.8529 41.9766 41.8529 42.696C41.8689 43.4154 42.2366 43.831 42.876 43.831C43.4995 43.831 43.8832 43.4154 43.8832 42.68C43.8992 41.8647 43.8992 41.0494 43.8832 40.234C43.8672 39.8664 43.9791 39.7065 44.3628 39.7544C44.4747 39.7704 44.6026 39.7544 44.7145 39.7544C45.0822 39.7704 45.5458 39.6106 45.8176 39.8344C46.0893 40.0582 45.8815 40.5058 45.9295 40.8575C45.9934 41.433 46.4091 41.8007 46.9686 41.7847C47.5121 41.7687 47.8958 41.417 47.9597 40.8575C48.0077 40.5058 47.7999 40.0582 48.0716 39.8344C48.3434 39.6106 48.807 39.7544 49.1747 39.7544C50.1179 39.7544 49.99 39.6425 50.006 40.5698C50.006 41.2412 50.006 41.9286 50.006 42.6C50.006 43.1276 50.1499 43.5752 50.6774 43.7511C51.189 43.9269 51.6206 43.7671 51.9404 43.3354C52.1482 44.1347 51.9723 44.966 52.0363 45.8133Z" fill="#FEFEFE"/>
<path d="M52.0362 45.8134C51.9723 44.9821 52.1641 44.1348 51.9243 43.3035C52.1641 42.3603 52.0362 41.4012 52.0202 40.458C52.0202 39.8665 52.1481 39.6746 52.7716 39.6906C54.0825 39.7386 54.0825 39.7066 54.0825 41.0175C54.0825 42.4403 54.0665 43.8791 54.0825 45.3019C54.0825 45.6855 53.9866 45.8454 53.5869 45.8134C53.0594 45.7974 52.5478 45.8134 52.0362 45.8134Z" fill="#21D7A0" fill-opacity="0.2"/>
</svg>
