<svg width="40" height="52" viewBox="0 0 40 52" fill="none" xmlns="http://www.w3.org/2000/svg">
<path d="M20.1144 0C22.3394 0.73144 22.7131 2.27559 22.832 3.98229C23.2736 3.83329 23.5453 3.52175 23.902 3.31857C24.7512 2.84449 25.6344 2.46523 26.6875 2.43813C28.5388 2.3975 29.7957 3.58948 29.456 5.03881C29.2352 5.94634 28.6577 6.70487 27.9274 7.39568C27.8085 7.50404 27.6216 7.58531 27.5877 7.78849C28.4539 7.80203 29.3031 7.86976 30.1184 8.10002C31.613 8.53347 32.5472 9.40037 32.5642 10.3756C32.5811 11.378 31.647 12.2584 30.1014 12.6918C29.3031 12.9221 28.4709 13.0169 27.5197 13.0034C28.0463 13.5181 28.3859 13.9786 29.3711 14.0599C35.1798 14.5475 39.4599 18.137 39.9525 22.8101C40.1223 24.3813 39.8166 25.8984 39.358 27.4155C39.1032 28.2146 38.5767 28.7158 37.5576 28.8242C36.9292 28.8919 36.8103 29.1628 36.7594 29.6098C36.4197 32.3188 36.029 35.0143 35.6554 37.7234C35.3496 40.0261 35.0269 42.3287 34.7212 44.6314C34.6363 45.2139 34.5684 45.8098 34.4664 46.3923C34.3985 46.7445 34.5684 46.8528 34.976 46.8122C35.1798 46.7986 35.4006 46.8122 35.6044 46.8122C37.0651 46.8257 37.9313 47.503 37.9823 48.6543C37.9992 48.993 37.9653 49.3316 37.9823 49.6702C38.0842 50.7403 37.6426 51.553 36.3687 52C25.8552 52 15.3587 52 4.84526 52C3.57141 51.553 3.12981 50.7403 3.23172 49.6702C3.28267 49.2097 3.21473 48.7492 3.29965 48.3022C3.45252 47.3946 4.28476 46.8257 5.42273 46.8122C6.76452 46.7851 6.7815 46.7851 6.64563 45.6879C6.20402 42.3423 5.74544 38.9966 5.26987 35.6645C5.18495 35.0956 5.54163 34.6351 6.15307 34.5538C6.7815 34.4725 7.30803 34.7841 7.40993 35.38C7.6647 37.0867 7.90249 38.807 8.14027 40.5137C8.41203 42.4777 8.68378 44.4418 8.92157 46.4194C8.97252 46.8528 9.29523 46.8257 9.66889 46.8257C15.3418 46.8257 21.0146 46.8257 26.7045 46.8122C27.8424 46.8122 28.9974 46.7986 30.1354 46.7851C30.6789 46.7986 31.2394 46.7986 31.7829 46.8257C32.1735 46.8393 32.2924 46.7174 32.3264 46.4194C32.3603 45.8911 32.4453 45.3764 32.5132 44.8617C32.751 43.155 32.9888 41.4483 33.2266 39.7281C33.4644 38.0485 33.6682 36.3688 33.906 34.7028C34.1437 33.0503 34.3645 31.3842 34.6193 29.7317C34.6533 29.4473 34.5344 29.3389 34.1607 29.3524C33.5832 29.3795 33.0228 29.3795 32.4453 29.3931C30.1354 29.3118 27.9953 28.7971 26.0591 27.7676C25.7533 27.6051 25.6005 27.6187 25.3457 27.8489C23.936 29.1763 22.2545 30.2464 20.3013 31.032C19.7747 31.2352 19.3162 31.2352 18.8066 31.032C17.1082 30.3412 15.5965 29.4608 14.3057 28.3365C14.017 28.0792 13.8131 28.025 13.4055 28.2011C9.60095 29.8672 5.6775 29.7723 1.66913 28.7158C1.34642 28.6345 1.10864 28.4585 1.00673 28.2011C-0.504902 24.571 -0.521888 21.0357 2.39947 17.8119C4.33572 15.6718 6.98532 14.4121 10.2803 14.0193C10.9767 13.938 11.0616 13.3556 11.724 13.044C10.8238 12.9898 10.1105 12.9628 9.43111 12.8138C8.56489 12.6106 7.76661 12.3126 7.17215 11.7437C6.1191 10.7413 6.39086 9.38682 7.85153 8.57411C8.70077 8.10002 9.68587 7.8833 10.705 7.82912C10.9767 7.81558 11.2315 7.80203 11.5882 7.78849C11.2315 7.42277 10.8918 7.12477 10.603 6.79969C10.1445 6.28497 9.82175 5.72962 9.66889 5.09299C9.26126 3.42693 10.8918 2.14014 12.9809 2.49231C14.0679 2.68195 14.9681 3.12894 15.8003 3.69784C15.9362 3.79265 16.0381 3.94165 16.2759 3.98229C16.3778 2.30268 16.7515 0.744986 18.9934 0C19.3501 0 19.7238 0 20.1144 0ZM4.62446 26.7111C4.42064 26.9414 3.99602 27.1175 4.02999 27.4019C4.04698 27.5645 4.50556 27.5103 4.76033 27.5509C5.10003 27.6864 5.47369 27.6322 5.81338 27.6728C8.05535 27.8896 10.1784 27.5374 12.1826 26.7247C12.4714 26.6028 12.5393 26.4809 12.3694 26.2506C12.1656 25.9932 12.0128 25.7223 11.8599 25.4379C11.0446 23.9208 10.688 22.3496 10.9258 20.6022C9.73683 21.74 8.63283 22.7966 7.54581 23.8666C6.64563 24.7606 5.66052 25.5869 4.87922 26.5486C4.84526 26.5757 4.7943 26.5892 4.76033 26.6163C4.69239 26.6434 4.65842 26.684 4.62446 26.7111ZM27.8424 9.56291C26.5856 9.46809 25.3797 9.7119 24.1738 9.94217C23.885 9.99635 23.8171 10.1047 23.8511 10.335C23.885 10.5517 23.7831 10.7549 24.1738 10.8362C25.3797 11.0664 26.5856 11.3102 27.8424 11.229C28.5558 11.2831 29.2182 11.1477 29.8296 10.8768C30.543 10.5652 30.543 10.2131 29.8296 9.88799C29.2352 9.63063 28.5558 9.49518 27.8424 9.56291ZM22.4074 7.80203C22.6621 8.20839 22.9848 8.27611 23.4604 7.99166C23.953 7.70722 24.4965 7.47695 24.972 7.16541C25.9741 6.54233 26.9083 5.86507 27.2819 4.83563C27.4688 4.32092 27.1121 4.02292 26.4667 4.18546C25.9062 4.32092 25.3627 4.5241 24.9551 4.87627C23.8341 5.58062 23.0698 6.52878 22.3564 7.50404C22.2885 7.62594 22.2375 7.72076 22.4074 7.80203ZM22.4074 13.0034C22.3055 13.0576 22.2545 13.1253 22.3224 13.2201C23.0698 14.236 23.8341 15.2519 25.057 15.9562C25.4646 16.2949 25.9571 16.498 26.5176 16.6064C27.1121 16.7148 27.4348 16.4574 27.2989 15.9969C27.18 15.6176 26.9592 15.2654 26.6705 14.9539C25.8383 14.0328 24.6663 13.4233 23.4944 12.8138C23.0018 12.5564 22.6791 12.5835 22.4074 13.0034ZM4.3527 24.1782C5.32082 23.2436 6.28895 22.3225 7.25707 21.3879C8.31012 20.372 9.34618 19.3561 10.3653 18.3402C10.5011 18.2183 10.7899 18.0693 10.4502 17.8526C9.7708 17.4191 9.58397 16.796 9.51603 16.1459C9.49904 15.6447 9.1084 15.9969 8.97252 16.0375C4.62445 17.1618 1.58421 20.521 2.22962 24.9638C2.28058 25.2889 2.24661 25.6546 2.51836 25.9932C3.18076 25.3566 3.77522 24.7742 4.3527 24.1782ZM22.6791 18.0828C22.4074 19.0581 21.9488 19.9656 20.8108 20.521C20.573 20.6293 20.624 20.8054 20.624 20.968C20.624 23.1894 20.624 25.3972 20.624 27.6187C20.624 27.9979 20.624 28.3772 20.624 28.7835C20.7259 28.7564 20.7938 28.7429 20.8448 28.7158C24.2587 26.8195 26.3308 24.3678 25.9571 20.8867C25.7703 19.1123 24.972 17.6494 22.798 16.8773C22.764 17.2566 22.7301 17.6765 22.6791 18.0828ZM7.63073 50.2256C7.90249 50.2391 8.17424 50.2527 8.446 50.2527C16.3608 50.2527 24.2757 50.2527 32.1905 50.2527C33.5832 50.2527 33.5663 50.2527 33.6002 49.142C33.6172 48.6543 33.4304 48.5324 32.8189 48.5324C24.6323 48.546 16.4458 48.546 8.25916 48.546C8.05535 48.546 7.83455 48.5595 7.63073 48.5595C7.4439 48.546 7.25707 48.5324 7.07024 48.5324C5.30384 48.5189 5.30384 48.5189 5.43972 49.9547C5.4567 50.1985 5.5756 50.2798 5.86433 50.2662C6.4588 50.2391 7.05326 50.2391 7.63073 50.2256ZM37.4048 26.1558C37.5067 25.9255 37.5746 25.8442 37.5916 25.7494C38.0672 23.5145 37.8973 21.3337 36.3348 19.3696C34.8401 17.5004 32.751 16.2678 29.9315 15.9156C29.439 15.8479 29.5069 16.0104 29.5069 16.2407C29.4899 17.0263 29.1163 17.69 28.2331 18.0422C27.6047 18.2996 27.8424 18.4215 28.1651 18.6788C30.526 20.5481 32.8699 22.4173 35.2138 24.3001C35.9271 24.8825 36.6235 25.4921 37.4048 26.1558ZM18.4499 28.8513C18.4499 26.1287 18.4499 23.5145 18.4499 20.9138C18.4499 20.7106 18.365 20.5752 18.1442 20.4668C17.5328 20.1417 17.0912 19.6812 16.8024 19.1529C16.3948 18.4215 16.2589 17.6494 16.2589 16.8096C15.7664 17.1211 15.3587 17.4191 14.9002 17.6358C14.3397 17.8797 14.0339 18.2454 13.8131 18.7059C13.1847 19.9521 12.913 21.2253 13.1168 22.5798C13.5414 25.3431 15.5795 27.2529 18.4499 28.8513ZM28.2331 21.3608C28.2161 22.8778 27.8764 24.3949 26.9592 25.8036C26.8064 26.0339 26.9423 26.1287 27.1631 26.237C28.2331 26.7924 29.405 27.1852 30.6449 27.4155C32.3773 27.727 34.0928 27.7135 35.8082 27.3613C33.2605 25.3431 30.7468 23.3519 28.2331 21.3608ZM19.537 12.0823C20.7768 12.0823 21.6261 11.378 21.6261 10.3892C21.6261 9.41391 20.7259 8.66892 19.537 8.65538C18.382 8.64183 17.312 9.48164 17.329 10.3756C17.3629 11.3509 18.3141 12.0823 19.537 12.0823ZM12.3355 16.62C12.7091 16.5793 13.0828 16.471 13.4055 16.3084C14.9002 15.577 15.8343 14.4527 16.6835 13.2743C16.8874 12.9898 16.5477 12.9357 16.4288 12.7867C16.2759 12.6106 16.1061 12.5564 15.8343 12.6918C14.5605 13.3014 13.3376 13.9515 12.4204 14.9268C12.0977 15.2654 11.8429 15.6447 11.758 16.0646C11.6901 16.4032 11.8599 16.62 12.3355 16.62ZM12.4204 4.18546C11.9109 4.17192 11.707 4.33446 11.758 4.67309C11.792 4.93045 11.8939 5.17426 12.0637 5.39099C12.9639 6.66423 14.4246 7.43631 15.9702 8.14066C16.3608 8.31675 16.3948 7.95103 16.6156 7.86976C16.8194 7.77494 16.8024 7.65303 16.6835 7.49049C15.9192 6.44751 15.087 5.44517 13.8471 4.72727C13.4055 4.44282 12.913 4.23965 12.4204 4.18546ZM18.4669 16.7283C18.4669 16.9315 18.4499 17.1347 18.4669 17.3378C18.5349 17.839 18.6198 18.3537 19.0274 18.7736C19.3841 19.1529 19.6898 19.1394 20.0295 18.7736C20.2673 18.5163 20.4032 18.2047 20.4711 17.8932C20.7938 16.5929 20.4541 15.3467 20.0805 14.1005C19.9955 13.8161 19.7408 13.8703 19.486 13.8567C19.1803 13.8296 19.0274 13.8974 18.9595 14.1547C18.7047 14.9945 18.4669 15.8479 18.4669 16.7283ZM18.4669 3.87392C18.4669 4.90336 18.6877 5.77025 18.9765 6.63715C19.0614 6.88096 19.1633 6.94868 19.486 6.93514C19.7917 6.92159 20.0295 6.96223 20.1314 6.63715C20.3522 5.9328 20.539 5.22844 20.607 4.497C20.6749 3.73847 20.6579 2.97994 20.2333 2.27559C20.0975 2.04532 19.9276 1.78796 19.5879 1.77442C19.1973 1.76087 19.0274 2.04532 18.8746 2.28914C18.5179 2.8174 18.433 3.39984 18.4669 3.87392ZM11.5882 9.54936C11.0956 9.54936 10.62 9.53581 10.1445 9.64418C9.56698 9.77963 8.73473 9.8609 8.7687 10.4163C8.80267 10.9445 9.61794 11.0529 10.2124 11.1477C11.809 11.4186 13.3546 11.1341 14.9002 10.8362C15.2908 10.7549 15.1889 10.5517 15.2059 10.335C15.2229 10.1047 15.1889 9.99635 14.8832 9.94217C13.7962 9.73899 12.7091 9.52227 11.5882 9.54936Z" fill="#1EC996"/>
<path d="M17.21 45.0784C15.8342 45.0784 14.4585 45.0784 13.0827 45.0784C11.707 45.0784 10.8577 44.4282 10.7049 43.3175C10.2123 39.7416 9.71978 36.1656 9.22722 32.5897C9.19325 32.3865 9.17627 32.1833 9.17627 31.9802C9.17627 31.4519 9.56691 31.0862 10.1784 31.0591C10.7558 31.032 11.2654 31.3842 11.3333 31.8853C11.5032 33.0909 11.673 34.2964 11.8429 35.5019C12.1825 38.0078 12.5392 40.5001 12.8619 43.0059C12.9129 43.3852 13.2186 43.3175 13.4904 43.3175C16.0381 43.3175 18.5688 43.3175 21.1165 43.3175C21.2863 43.3175 21.4562 43.3175 21.626 43.3175C22.3563 43.3446 22.7979 43.6561 22.7979 44.1573C22.7979 44.672 22.3224 45.0513 21.609 45.0513C20.1314 45.0919 18.6707 45.0784 17.21 45.0784Z" fill="#1EC996"/>
<path d="M32.4283 29.3659C33.0058 29.3523 33.5663 29.3523 34.1438 29.3252C34.5174 29.3117 34.6363 29.4065 34.6023 29.7045C34.3646 31.357 34.1268 33.0231 33.889 34.6756C33.6512 36.3552 33.4304 38.0212 33.2096 39.7008C32.9718 41.4075 32.734 43.1142 32.4963 44.8345C32.4283 45.3492 32.3434 45.8774 32.3094 46.3922C32.2924 46.6902 32.1566 46.8256 31.7659 46.7985C31.2224 46.7714 30.6619 46.7714 30.1184 46.7579C30.2373 45.1325 30.5091 43.5206 30.7468 41.9087C30.9167 40.8251 31.0016 39.7415 31.1545 38.6579C31.3413 37.2492 31.5621 35.8269 31.7659 34.4182C31.9188 33.3752 32.0377 32.3187 32.1735 31.2622C32.2585 30.6391 32.3434 30.0025 32.4283 29.3659Z" fill="#21D7A0" fill-opacity="0.2"/>
<path d="M5.86416 32.8199C5.2697 32.8199 4.77714 32.4136 4.79413 31.953C4.81111 31.4925 5.33763 31.0861 5.91511 31.0997C6.49259 31.1132 7.00213 31.5196 6.98514 31.9937C6.96816 32.4542 6.47561 32.8199 5.86416 32.8199Z" fill="#1EC996"/>
<path d="M37.405 26.1559C36.6237 25.5057 35.9443 24.8826 35.2139 24.3002C32.8701 22.4174 30.5262 20.5481 28.1653 18.6789C27.8426 18.4215 27.6048 18.2996 28.2333 18.0423C29.0995 17.6901 29.4901 17.0264 29.5071 16.2408C29.5071 16.0105 29.4392 15.8615 29.9317 15.9157C32.7512 16.2814 34.8403 17.5005 36.3349 19.3697C37.9145 21.3338 38.0844 23.501 37.5918 25.7495C37.5748 25.8443 37.5069 25.9256 37.405 26.1559Z" fill="#21D7A0" fill-opacity="0.2"/>
<path d="M7.63062 48.573C7.83443 48.5594 8.05523 48.5594 8.25905 48.5594C16.4456 48.5594 24.6322 48.5594 32.8188 48.5459C33.4303 48.5459 33.6171 48.6678 33.6001 49.1554C33.5492 50.2661 33.5831 50.2661 32.1904 50.2661C24.2756 50.2661 16.3607 50.2661 8.44588 50.2661C8.17412 50.2661 7.90237 50.2526 7.63062 50.239C7.63062 49.6701 7.63062 49.1148 7.63062 48.573Z" fill="#21D7A0" fill-opacity="0.2"/>
<path d="M18.45 28.8512C15.5796 27.2394 13.5414 25.343 13.1168 22.5527C12.913 21.2118 13.1847 19.925 13.8131 18.6788C14.0339 18.2318 14.3397 17.8661 14.9002 17.6087C15.3757 17.392 15.7664 17.094 16.2589 16.7825C16.2589 17.6223 16.3948 18.3943 16.8024 19.1258C17.0912 19.6676 17.5328 20.1281 18.1442 20.4397C18.365 20.5616 18.45 20.6835 18.45 20.8867C18.433 23.528 18.45 26.1287 18.45 28.8512Z" fill="white"/>
<path d="M4.86206 26.5486C5.64335 25.5869 6.64544 24.7607 7.52864 23.8667C8.61566 22.7966 9.71966 21.7401 10.9086 20.6023C10.6708 22.3496 11.0275 23.9209 11.8427 25.4379C11.9956 25.7224 12.1485 25.9933 12.3523 26.2506C12.5391 26.4809 12.4542 26.6028 12.1654 26.7247C10.1613 27.5374 8.03818 27.8761 5.79621 27.6729C5.43953 27.6458 5.06587 27.6864 4.74316 27.551C4.94698 27.5103 5.1508 27.4833 5.01492 27.2394C4.89603 27.0227 4.8111 26.7924 4.86206 26.5486Z" fill="#21D7A0" fill-opacity="0.2"/>
<path d="M28.233 21.3608C30.7467 23.352 33.2605 25.3296 35.8082 27.3478C34.0927 27.7135 32.3603 27.7135 30.6448 27.402C29.405 27.1717 28.233 26.7925 27.163 26.2236C26.9422 26.1017 26.8063 26.0204 26.9592 25.7901C27.8763 24.395 28.216 22.8914 28.233 21.3608Z" fill="#21D7A0" fill-opacity="0.2"/>
<path d="M22.6793 18.083C22.7302 17.6631 22.7812 17.2567 22.8151 16.8774C24.9722 17.6495 25.7875 19.1124 25.9743 20.8868C26.3479 24.3679 24.2588 26.8196 20.8619 28.7159C20.811 28.743 20.76 28.743 20.6411 28.7837C20.6411 28.3773 20.6411 27.998 20.6411 27.6188C20.9129 27.6188 21.0318 27.4427 21.2016 27.3072C21.7281 26.8873 22.1188 26.3862 22.4755 25.8579C24.106 23.4604 24.2928 20.9816 23.0699 18.4487C22.985 18.2997 22.951 18.1101 22.6793 18.083Z" fill="#21D7A0" fill-opacity="0.2"/>
<path d="M22.6791 18.0828C22.9509 18.0963 22.9848 18.2995 23.0528 18.4485C24.2587 20.995 24.0718 23.4738 22.4583 25.8577C22.1016 26.3724 21.711 26.8736 21.1845 27.307C21.0316 27.4289 20.9127 27.6186 20.624 27.6186C20.624 25.3972 20.624 23.1893 20.624 20.9679C20.624 20.8053 20.573 20.6293 20.8108 20.5209C21.9488 19.9655 22.4074 19.0716 22.6791 18.0828Z" fill="white"/>
<path d="M9.53289 16.1323C9.60083 16.7825 9.78766 17.4056 10.467 17.839C10.8067 18.0557 10.518 18.2047 10.3821 18.3266C9.34606 19.3425 8.30999 20.3584 7.27393 21.3743C6.30581 22.3089 5.33769 23.23 4.36956 24.1646C4.30162 21.9703 4.94704 19.9385 6.6455 18.1641C7.44378 17.3514 8.32698 16.5929 9.53289 16.1323Z" fill="#21D7A0" fill-opacity="0.2"/>
<path d="M9.53293 16.1324C8.32702 16.593 7.42684 17.338 6.62856 18.1778C4.9301 19.9522 4.28468 21.984 4.35262 24.1783C3.75816 24.7743 3.1637 25.3567 2.55225 25.9933C2.2805 25.6547 2.29748 25.289 2.26351 24.9639C1.60111 20.5211 4.64136 17.1619 9.00641 16.0376C9.1253 15.997 9.51594 15.6313 9.53293 16.1324Z" fill="white"/>
<path d="M19.5368 12.0823C18.3139 12.0823 17.3628 11.3509 17.3288 10.3757C17.3118 9.48167 18.3819 8.62832 19.5368 8.65541C20.7257 8.66896 21.6259 9.42749 21.6259 10.3892C21.6429 11.3915 20.7767 12.0823 19.5368 12.0823Z" fill="#21D7A0" fill-opacity="0.2"/>
<path d="M12.3355 16.62C11.8599 16.62 11.6901 16.4033 11.758 16.0647C11.8429 15.6448 12.0977 15.2655 12.4204 14.9269C13.3376 13.9651 14.5605 13.3014 15.8343 12.6919C16.0891 12.57 16.2759 12.6106 16.4288 12.7867C16.5647 12.9357 16.8874 12.9899 16.6836 13.2743C15.8343 14.4528 14.8832 15.577 13.4055 16.3085C13.0828 16.471 12.7261 16.5794 12.3355 16.62Z" fill="white"/>
<path d="M12.4202 4.18535C12.9127 4.23953 13.3883 4.45626 13.8469 4.71361C15.0868 5.44505 15.919 6.4474 16.6833 7.47683C16.8022 7.63938 16.8192 7.77483 16.6154 7.8561C16.3946 7.95092 16.3606 8.30309 15.97 8.127C14.4244 7.42265 12.9637 6.65058 12.0635 5.37733C11.9106 5.16061 11.7917 4.91679 11.7578 4.65943C11.7238 4.33435 11.9106 4.17181 12.4202 4.18535Z" fill="white"/>
<path d="M18.4668 16.7283C18.4498 15.8479 18.6876 14.9945 18.9593 14.1412C19.0443 13.8838 19.1971 13.8161 19.4859 13.8432C19.7406 13.8567 19.9784 13.8026 20.0803 14.087C20.471 15.3332 20.8107 16.5793 20.471 17.8797C20.386 18.1912 20.2671 18.5028 20.0294 18.7601C19.6897 19.1394 19.384 19.1394 19.0273 18.7601C18.6366 18.3402 18.5517 17.839 18.4668 17.3243C18.4498 17.1347 18.4668 16.9315 18.4668 16.7283Z" fill="white"/>
<path d="M18.4669 3.87401C18.4499 3.39993 18.5348 2.81749 18.8575 2.27568C19.0104 2.03187 19.1802 1.74742 19.5709 1.76096C19.9106 1.77451 20.0804 2.03187 20.2163 2.26214C20.6409 2.96649 20.6579 3.72502 20.59 4.48355C20.522 5.20144 20.3352 5.91934 20.1144 6.62369C20.0125 6.94877 19.7747 6.90814 19.469 6.92168C19.1463 6.94877 19.0274 6.8675 18.9595 6.62369C18.6877 5.77034 18.4499 4.90345 18.4669 3.87401Z" fill="white"/>
<path d="M11.5881 9.54947C12.709 9.53592 13.7961 9.7391 14.8831 9.95583C15.1888 10.01 15.2228 10.1184 15.2058 10.3486C15.1888 10.5654 15.2907 10.7685 14.9001 10.8498C13.3545 11.1478 11.8089 11.4323 10.2123 11.1613C9.61784 11.0665 8.80258 10.9582 8.76861 10.4299C8.73464 9.87455 9.5499 9.79328 10.1444 9.65783C10.6029 9.53592 11.0955 9.54947 11.5881 9.54947Z" fill="white"/>
<path d="M22.4075 13.0033C22.6792 12.5834 23.0019 12.5563 23.5115 12.8137C24.6834 13.4232 25.8384 14.0327 26.6876 14.9538C26.9763 15.2653 27.1971 15.6175 27.316 15.9968C27.4519 16.4573 27.1292 16.7282 26.5347 16.6063C25.9742 16.498 25.4647 16.2948 25.0741 15.9561C24.8363 14.5881 23.6813 13.7618 22.4075 13.0033Z" fill="#21D7A0" fill-opacity="0.2"/>
<path d="M24.9552 4.88991C25.3628 4.53774 25.9063 4.33456 26.4668 4.19911C27.1122 4.05011 27.4689 4.3481 27.2821 4.84928C26.9254 5.87871 25.9742 6.55597 24.9722 7.17905C24.4966 7.47704 23.9531 7.70731 23.4605 8.00531C23.0019 8.27621 22.6622 8.20848 22.4075 7.81567C23.5454 7.19259 24.4456 6.40697 24.9552 5.36399C25.0231 5.20145 25.142 5.03891 24.9552 4.88991Z" fill="#21D7A0" fill-opacity="0.2"/>
<path d="M27.8424 11.2426C26.5856 11.3238 25.3796 11.08 24.1737 10.8498C23.7831 10.7685 23.885 10.5653 23.851 10.3486C23.8171 10.1183 23.885 10.01 24.1737 9.95578C25.3796 9.71197 26.5856 9.4817 27.8424 9.57651C28.335 10.1183 28.284 10.6872 27.8424 11.2426Z" fill="white"/>
<path d="M7.63079 48.573C7.63079 49.1284 7.63079 49.6837 7.63079 50.2391C7.03633 50.2526 6.45885 50.2526 5.86439 50.2797C5.57565 50.2933 5.47374 50.212 5.43977 49.9682C5.3039 48.5324 5.28691 48.5324 7.0703 48.5459C7.25713 48.5324 7.44396 48.5595 7.63079 48.573Z" fill="white"/>
<path d="M27.8425 11.2424C28.2841 10.687 28.3351 10.1317 27.8425 9.57634C28.5559 9.50861 29.2183 9.64407 29.8297 9.91497C30.5431 10.2265 30.5261 10.5922 29.8297 10.9038C29.2183 11.1611 28.5559 11.283 27.8425 11.2424Z" fill="#21D7A0" fill-opacity="0.2"/>
<path d="M24.9549 4.88989C25.1418 5.05243 25.0229 5.20143 24.9549 5.36397C24.4624 6.40695 23.5622 7.19257 22.4073 7.81565C22.2374 7.73438 22.2714 7.62602 22.3563 7.51766C23.0697 6.52886 23.834 5.59424 24.9549 4.88989Z" fill="white"/>
<path d="M22.4074 13.0034C23.6812 13.7619 24.8362 14.5882 25.057 15.9563C23.8341 15.2384 23.0698 14.236 22.3224 13.2201C22.2545 13.1253 22.3055 13.0576 22.4074 13.0034Z" fill="white"/>
<path d="M4.86214 26.5486C4.82817 26.7924 4.89611 27.0227 5.015 27.2258C5.15088 27.4832 4.94706 27.4967 4.74325 27.5374C4.48848 27.4967 4.02989 27.5374 4.01291 27.3884C3.97894 27.1039 4.40356 26.9279 4.60737 26.6976C4.64134 26.6705 4.69229 26.6299 4.72626 26.6028C4.77722 26.6028 4.81119 26.5757 4.86214 26.5486Z" fill="white"/>
<path d="M4.7434 26.6162C4.70943 26.6433 4.65848 26.6839 4.62451 26.711C4.65848 26.6839 4.69245 26.6433 4.7434 26.6162Z" fill="#21D7A0" fill-opacity="0.2"/>
</svg>
