<svg width="62" height="52" viewBox="0 0 62 52" fill="none" xmlns="http://www.w3.org/2000/svg">
<path d="M61.7646 28.2127C61.4552 29.0595 61.4552 29.9552 61.2923 30.8184C59.2566 41.3062 50.837 49.6607 40.3491 51.5824C35.9521 52.3967 31.669 51.9733 27.4022 50.7193C23.0539 49.4327 18.5754 49.2047 14.0643 49.4979C9.91152 49.7584 5.84014 50.4424 1.85019 51.5987C1.06849 51.8267 0.514779 51.6313 0.189068 51.0938C-0.152927 50.5076 -0.0389288 49.9701 0.596206 49.3676C4.7653 45.4265 7.46869 40.6711 8.70639 35.0852C8.77153 34.792 8.82039 34.4826 8.88553 34.1895C9.0321 33.5381 9.53695 33.1472 10.0907 33.2612C10.7258 33.3752 11.0678 33.9452 10.9212 34.6618C10.4652 36.844 9.79752 38.9774 8.93439 41.0457C7.76183 43.8468 6.16585 46.371 4.22788 48.6836C4.19531 48.7162 4.14645 48.765 4.14645 48.765C4.19531 48.8302 4.24416 48.8139 4.29302 48.765C5.00958 48.651 5.72614 48.537 6.39385 48.2927C6.49156 48.309 6.60556 48.3416 6.68699 48.309C9.08096 47.8042 11.5238 47.511 13.9666 47.397C18.7546 47.169 23.4936 47.397 28.135 48.765C30.2358 49.3839 32.3692 49.8399 34.5678 49.9213C37.6457 50.0353 40.6097 49.5793 43.5248 48.5533C47.6451 47.0876 51.1139 44.7099 53.915 41.404C56.1461 38.782 57.7421 35.8017 58.6866 32.4632C59.7126 28.8804 59.9406 25.2487 59.2078 21.6008C58.1655 16.3406 55.6901 11.862 51.6513 8.26294C48.7362 5.65726 45.4139 3.84957 41.6194 2.87244C38.7532 2.13959 35.8543 1.92788 32.9392 2.28616C31.1315 2.51415 29.2913 2.74215 27.6302 3.62157C27.2882 3.55643 26.995 3.73557 26.7019 3.86585C18.7871 7.30209 13.9015 13.1975 12.1263 21.6496C11.8658 22.871 11.7355 24.0925 11.7355 25.3302C11.7355 25.4442 11.7355 25.5744 11.7192 25.6884C11.6704 26.5841 11.2469 27.1053 10.5955 27.0564C9.94409 27.0238 9.58581 26.5027 9.6021 25.6396C9.84638 13.6046 18.0706 3.49128 29.4053 0.82046C39.144 -1.4758 47.6451 1.06475 54.6315 8.23037C58.5075 12.204 60.706 17.0408 61.4877 22.5291C61.5529 23.0013 61.4877 23.4899 61.7157 23.9459C61.7646 25.379 61.7646 26.7959 61.7646 28.2127Z" fill="#1EC996"/>
<path d="M27.6953 3.62159C29.3564 2.74217 31.1804 2.51417 33.0044 2.28618C35.9358 1.92789 38.8346 2.12332 41.6846 2.87246C45.4628 3.84959 48.8013 5.64099 51.7164 8.26296C55.7552 11.8621 58.2306 16.3406 59.2729 21.6008C59.9895 25.2487 59.7778 28.8804 58.7518 32.4632C57.8072 35.7855 56.2112 38.782 53.9801 41.404C51.1627 44.7099 47.6939 47.0876 43.59 48.5533C40.6748 49.5793 37.7109 50.0353 34.6329 49.9213C32.4344 49.8399 30.301 49.3839 28.2001 48.765C23.5751 47.397 18.8197 47.1691 14.0317 47.397C11.5889 47.511 9.14609 47.8042 6.75212 48.309C6.65441 48.3253 6.5567 48.2928 6.45898 48.2928C6.80098 47.5925 7.40354 47.0876 7.85954 46.4688C10.6932 42.6254 12.3869 38.3097 13.2338 33.6358C13.6735 31.2418 13.8363 28.8316 13.8689 26.3887C13.9015 21.0634 15.3346 16.1614 18.4125 11.7806C20.7414 8.45839 23.6891 5.86899 27.2719 3.97987C27.3859 3.86587 27.5976 3.8333 27.6953 3.62159ZM41.4891 8.24667C41.6031 8.26296 41.7334 8.27924 41.8474 8.3281C43.59 8.91438 45.2022 9.77751 46.7005 10.8198C47.2216 11.1781 47.8242 11.0804 48.1662 10.6406C48.5082 10.1847 48.3942 9.54951 47.873 9.15866C46.8959 8.39324 45.8211 7.7744 44.6974 7.23697C40.8703 5.46185 36.8803 4.79415 32.6787 5.42928C27.5487 6.21099 23.2656 8.57238 19.9108 12.4809C15.986 17.0408 14.3575 22.3825 14.9926 28.3756C15.3672 31.877 16.5886 35.0526 18.6243 37.9189C19.2105 38.7332 19.4223 38.7983 20.3505 38.4563C20.8065 39.0914 21.3928 39.6289 21.9139 40.1989C22.3048 40.6223 22.8585 40.8828 23.1679 41.404C22.9399 42.2997 23.0539 42.5928 23.8356 43.1302C24.5033 43.5862 25.1873 44.0259 25.9039 44.4005C29.5518 46.2896 33.4115 47.1365 37.5317 46.7619C40.2351 46.5176 42.792 45.7848 45.2022 44.5471C47.8079 43.2117 50.0553 41.404 51.8956 39.0914C55.625 34.4012 57.0744 29.0596 56.3252 23.1479C55.9018 19.842 54.6804 16.8129 52.7424 14.0769C52.2864 13.4255 51.7164 13.23 51.2116 13.572C50.6416 13.9466 50.5927 14.6143 51.0487 15.282C54.029 19.5814 55.055 24.3368 54.143 29.4504C53.2635 34.3035 50.7393 38.212 46.7656 41.1597C45.1696 42.3485 43.4108 43.2931 41.4566 43.8142C41.4891 43.684 41.5706 43.6188 41.6846 43.5537C43.8994 42.3974 45.8374 40.9154 47.4822 39.01C48.557 37.756 49.5016 36.4206 50.2344 34.9549C51.9444 31.5024 52.6447 27.8707 52.2376 24.0111C51.977 21.5357 51.3093 19.2068 50.1693 17.0246C48.4105 13.6535 45.9025 10.9501 42.5965 9.01209C42.2383 8.76781 41.7334 8.70267 41.4891 8.24667Z" fill="#21D7A0" fill-opacity="0.2"/>
<path d="M10.5469 31.2418C10.0095 31.2418 9.50461 30.7369 9.52089 30.1832C9.52089 29.6132 9.99317 29.1572 10.5632 29.1572C11.1332 29.1572 11.5892 29.6295 11.5892 30.1995C11.5892 30.7532 11.1006 31.2418 10.5469 31.2418Z" fill="#1EC996"/>
<path d="M4.30917 48.7488C4.26031 48.7976 4.21145 48.8139 4.1626 48.7488C4.1626 48.7488 4.21145 48.6999 4.24403 48.6674C4.26031 48.6999 4.29288 48.7162 4.30917 48.7488Z" fill="white"/>
<path d="M41.2287 8.14896C33.8351 6.14584 27.386 7.79068 22.0444 13.2626C19.0479 16.3243 17.4519 20.0862 17.0773 24.3693C16.6702 28.913 17.8264 33.0332 20.4158 36.7952C20.8881 37.4792 20.8718 37.7723 20.367 38.44C19.4224 38.782 19.2107 38.7169 18.6407 37.9026C16.605 35.0363 15.3836 31.8607 15.0091 28.3593C14.3739 22.3662 16.0025 17.0246 19.9273 12.4646C23.2821 8.5561 27.5652 6.19469 32.6951 5.41299C36.8968 4.77785 40.8867 5.44556 44.7138 7.22068C45.8375 7.74182 46.9124 8.37695 47.8895 9.14237C48.3944 9.53322 48.5246 10.1684 48.1826 10.6244C47.8406 11.0803 47.2381 11.1781 46.7169 10.8035C45.2024 9.76122 43.6064 8.89809 41.8639 8.31181C41.7499 8.27924 41.6359 8.26296 41.5056 8.23039C41.473 8.23039 41.4404 8.2141 41.4079 8.2141C41.3264 8.19781 41.2776 8.18153 41.2287 8.14896Z" fill="#1EC996"/>
<path d="M23.1842 41.3877C23.9333 40.8665 24.2428 40.8502 24.8942 41.29C29.9264 44.7262 35.3821 45.5568 41.2286 43.8956C41.2774 43.8631 41.3263 43.8468 41.3751 43.8142C41.4077 43.8142 41.4403 43.7979 41.4728 43.7979C43.4271 43.2768 45.1697 42.3322 46.7819 41.1434C50.7556 38.1957 53.2799 34.3035 54.1593 29.4341C55.0875 24.3204 54.0616 19.5651 51.065 15.2657C50.609 14.6143 50.6579 13.9466 51.2279 13.5557C51.7327 13.2137 52.3027 13.4091 52.7587 14.0606C54.6967 16.7965 55.9181 19.8256 56.3415 23.1316C57.0907 29.0432 55.6412 34.3849 51.9119 39.0751C50.0716 41.3877 47.8242 43.1954 45.2185 44.5308C42.8083 45.7522 40.2677 46.5013 37.548 46.7456C33.4278 47.1202 29.5681 46.2733 25.9202 44.3842C25.2036 44.0096 24.5196 43.5699 23.8519 43.1139C23.0702 42.5765 22.9562 42.2997 23.1842 41.3877Z" fill="#1EC996"/>
<path d="M47.1728 30.1833C44.8602 30.1833 42.9711 28.2779 42.9874 25.9979C43.0037 23.7016 44.9091 21.8614 47.2379 21.8777C49.5179 21.894 51.3907 23.7668 51.3907 26.0305C51.3744 28.3104 49.4853 30.1833 47.1728 30.1833ZM45.1534 25.9816C45.1534 27.203 46.0002 28.0825 47.1728 28.0825C48.3291 28.0825 49.2085 27.2193 49.2085 26.0468C49.2085 24.8253 48.3779 23.9459 47.1891 23.9459C46.0328 23.9459 45.1534 24.8254 45.1534 25.9816Z" fill="#1EC996"/>
<path d="M20.1061 25.9978C20.1061 23.6527 21.9463 21.845 24.2914 21.8613C26.604 21.8613 28.4443 23.7504 28.428 26.063C28.4117 28.3592 26.5388 30.1832 24.1937 30.1669C21.8975 30.1669 20.0898 28.3267 20.1061 25.9978ZM22.2069 26.0467C22.2069 27.2193 23.1189 28.0987 24.3077 28.0987C25.4151 28.0824 26.3597 27.1378 26.3597 26.0304C26.3597 24.9067 25.3989 23.9459 24.2589 23.9621C23.07 23.9621 22.1906 24.8579 22.2069 26.0467Z" fill="#1EC996"/>
<path d="M35.7241 30.1832C33.4115 30.1832 31.5224 28.3104 31.5387 26.0141C31.555 23.7016 33.4115 21.8613 35.7403 21.8613C38.0203 21.8613 39.8932 23.7342 39.9094 25.9978C39.9257 28.2941 38.0366 30.1832 35.7241 30.1832ZM35.7403 23.9459C34.5515 23.9459 33.6721 24.8253 33.6721 26.0141C33.6721 27.203 34.5515 28.0824 35.7403 28.0824C36.8478 28.0987 37.776 27.2193 37.8086 25.9816C37.8412 24.8904 36.8315 23.9459 35.7403 23.9459Z" fill="#1EC996"/>
<path d="M45.1535 25.9816C45.1535 24.8253 46.033 23.9459 47.1892 23.9459C48.3781 23.9459 49.2249 24.8253 49.2086 26.0468C49.2086 27.2193 48.3292 28.0824 47.1729 28.0824C46.0004 28.0987 45.1373 27.203 45.1535 25.9816Z" fill="#21D7A0" fill-opacity="0.2"/>
<path d="M22.207 26.0467C22.207 24.8579 23.0702 23.9622 24.259 23.9459C25.399 23.9296 26.3598 24.8904 26.3598 26.0141C26.3598 27.1216 25.4153 28.0661 24.3079 28.0824C23.119 28.115 22.207 27.2193 22.207 26.0467Z" fill="#21D7A0" fill-opacity="0.2"/>
<path d="M35.7401 23.9459C36.8313 23.9459 37.841 24.8742 37.8084 25.9816C37.7758 27.2193 36.8476 28.0987 35.7401 28.0824C34.5513 28.0662 33.6719 27.203 33.6719 26.0142C33.6719 24.8253 34.5513 23.9622 35.7401 23.9459Z" fill="#21D7A0" fill-opacity="0.2"/>
</svg>
