<svg width="47" height="52" viewBox="0 0 47 52" fill="none" xmlns="http://www.w3.org/2000/svg">
<path d="M29.7977 52C29.0243 51.7286 28.2916 51.403 27.8167 50.6703C27.2197 49.7612 27.1247 48.7979 27.5047 47.7667C28.1288 46.1249 28.6308 44.4425 29.0514 42.7329C29.16 42.3123 29.1057 42.0952 28.6851 41.8781C26.2157 40.6027 23.9091 39.0694 21.7789 37.2649C21.1954 36.7764 20.6527 36.2337 20.1914 35.6367C20.0014 35.3924 19.8522 35.3653 19.6351 35.5824C19.4315 35.7859 19.2009 35.9623 18.9838 36.1523C18.631 36.4508 18.2918 36.7086 18.2647 37.2784C18.2375 37.7805 17.8441 38.1332 17.3963 38.391C16.5822 38.8524 15.7952 39.3272 14.9812 39.7886C14.7912 39.8971 14.6827 40.0328 14.6148 40.2363C14.4113 40.9012 13.9907 41.3896 13.3937 41.7288C10.6664 43.3027 7.95279 44.8767 5.22557 46.437C3.96372 47.1561 2.48478 46.7898 1.72496 45.5686C1.2365 44.7817 0.761615 43.9812 0.32743 43.1535C-0.323846 41.9188 0.0560645 40.4398 1.25007 39.7343C4.03157 38.0925 6.82663 36.4915 9.63526 34.8769C10.178 34.5648 10.775 34.5376 11.3584 34.6462C11.5891 34.6869 11.7655 34.6733 11.969 34.5512C12.9052 34.0085 13.855 33.4929 14.7912 32.9637C14.8183 32.9502 14.859 32.9366 14.8726 32.9095C15.5917 32.014 16.1616 31.0099 16.6772 29.9787C16.745 29.843 16.6365 29.7209 16.5686 29.5988C16.1209 28.7304 15.5917 27.9028 15.0219 27.1022C14.9404 26.9937 14.8455 26.8987 14.7234 26.8309C13.7871 26.3153 12.8645 25.7997 11.9419 25.2705C11.7248 25.1484 11.5484 25.0941 11.277 25.1484C10.7343 25.257 10.1916 25.2162 9.7031 24.9449C8.90257 24.5107 8.10204 24.0765 7.31508 23.6152C6.8402 23.3303 6.70451 22.8282 6.96231 22.3941C7.22011 21.9734 7.70856 21.8513 8.19702 22.1227C8.87543 22.5026 9.54028 22.8961 10.2187 23.276C10.8564 23.6423 11.277 23.5338 11.6569 22.8961C11.8605 22.5433 12.0368 22.177 12.2268 21.8242C12.5117 21.6071 12.5931 21.2679 12.7695 20.983C13.1901 20.3181 13.0952 19.9246 12.4168 19.5176C11.5348 18.9884 10.6393 18.4864 9.7438 17.9708C8.07491 17.0075 6.40601 16.0577 4.73712 15.0943C3.82804 14.4973 3.47527 14.5787 2.9461 15.5014C2.6069 16.0848 2.26769 16.6682 1.92848 17.2517C1.60285 17.808 1.68426 18.1879 2.17271 18.5814C2.63403 18.9613 2.72901 19.4633 2.41694 19.8704C2.11844 20.2638 1.61642 20.3045 1.15509 19.9925C0.0967697 19.2869 -0.323846 17.8623 0.273157 16.7225C0.734478 15.8406 1.22294 14.9722 1.76567 14.131C2.51192 12.9777 3.96372 12.652 5.212 13.3576C7.53218 14.6601 9.82521 15.9898 12.1318 17.306C12.566 17.5638 13.0138 17.808 13.4479 18.0658C14.0314 18.405 14.4384 18.8799 14.6419 19.5176C14.7098 19.7482 14.8319 19.8975 15.0354 20.006C15.7952 20.4402 16.5415 20.9015 17.3149 21.3357C17.9119 21.6749 18.3054 22.1498 18.3189 22.8689C18.3189 23.0182 18.3868 23.1132 18.4953 23.2081C18.9024 23.5474 19.2959 23.8866 19.6893 24.2258C19.8657 24.375 19.9743 24.3886 20.1371 24.1986C22.1316 21.8785 24.6553 20.2503 27.2333 18.6899C27.4775 18.5407 27.7353 18.405 27.9795 18.2693C28.8751 17.7673 28.7801 17.9844 28.5223 17.0075C28.2916 16.1391 28.0067 15.2979 27.7489 14.4431C27.681 14.1988 27.5589 14.0903 27.2876 14.1038C26.4463 14.131 25.6051 14.036 24.7774 13.846C24.6418 13.8189 24.5196 13.7918 24.384 13.8732C22.498 14.9858 20.4899 14.9044 18.4818 14.4023C15.2118 13.5883 12.4575 11.9329 10.5172 9.09716C9.94733 8.25592 9.62169 7.31971 9.51314 6.31566C9.45887 5.80007 9.60812 5.40659 10.0559 5.09452C11.4127 4.15831 12.9459 3.94122 14.5198 4.10404C18.0204 4.48395 20.9783 5.97646 23.3663 8.568C24.2211 9.50421 24.8588 10.5625 25.1302 11.8379C25.1709 12.055 25.2523 12.1907 25.5101 12.2179C25.9986 12.2721 26.6227 12.5164 26.9212 12.245C27.1654 12.0143 26.7177 11.4445 26.5413 11.0374C25.6322 8.77152 24.5196 6.61416 23.3392 4.48395C22.3487 2.67937 23.2985 0.589858 25.2795 0.0878319C26.582 -0.237806 27.966 0.359198 28.6308 1.59391C29.4585 3.14069 30.259 4.71461 31.0324 6.28853C31.2224 6.682 31.3309 6.65487 31.6158 6.3835C33.339 4.66034 35.32 3.28994 37.518 2.21805C39.1598 1.41752 40.9237 1.94668 41.6971 3.46633C42.4976 5.01311 41.9006 6.74985 40.2724 7.63179C38.4 8.63584 36.6361 9.80271 35.3064 11.4987C34.6551 12.3264 34.2074 13.249 34.2209 14.3345C34.2209 14.4023 34.2209 14.4702 34.2209 14.538C34.2888 15.5014 34.4109 15.5828 35.3064 15.325C38.5492 14.4023 41.8463 14.1174 45.1977 14.5245C45.6454 14.5787 45.9982 14.7144 46.1067 15.1757C46.2289 15.6913 45.9304 15.9898 45.5233 16.2341C42.484 17.9708 39.4583 19.7347 36.419 21.4714C36.0255 21.7021 35.8491 21.8785 35.9441 22.3941C36.5547 26.1118 36.7039 29.8566 36.5547 33.615C36.5004 35.0125 36.4054 36.4236 36.1883 37.8076C36.1341 38.1875 36.2833 38.3503 36.5818 38.5131C39.5533 40.2227 42.5247 41.9459 45.4962 43.6691C45.9032 43.8997 46.1882 44.1982 46.0932 44.6731C45.9846 45.1887 45.5776 45.338 45.1163 45.3923C41.8463 45.7857 38.6442 45.4601 35.4828 44.6053C35.035 44.4832 34.9129 44.5917 34.8044 45.0123C34.4652 46.4777 33.9496 47.8888 33.4611 49.3135C33.0134 50.6296 32.2943 51.6065 30.9103 52C30.5439 52 30.164 52 29.7977 52ZM17.1928 25.6504C17.03 25.9082 16.5958 26.1118 16.7722 26.4645C17.03 26.9937 17.3963 27.4822 17.7491 28.0249C17.9933 27.55 18.2104 27.1294 18.4275 26.7223C19.0109 25.9082 19.0109 25.9082 18.2647 25.2705C17.5727 24.6735 17.5456 24.6735 17.1928 25.5419C17.1928 25.5826 17.1928 25.6233 17.1928 25.6504ZM13.8686 35.5553C13.665 35.5553 13.5293 35.6909 13.3665 35.7588C13.1901 35.8402 13.1494 35.9352 13.2716 36.1116C13.6243 36.695 13.95 37.2784 14.2756 37.8619C14.357 38.0111 14.4384 38.1061 14.6284 37.9976C15.2254 37.6448 15.8224 37.3056 16.4194 36.9528C16.5958 36.8578 16.5958 36.7357 16.5008 36.5729C16.1752 36.0709 15.9581 35.4874 15.551 35.0261C15.4696 34.8769 15.4832 34.5241 15.2118 34.6733C14.7369 34.9447 14.2078 35.1211 13.8686 35.5553ZM13.8821 24.28C14.2485 24.6735 14.7776 24.8363 15.2118 25.1348C15.3611 25.2298 15.4153 25.1077 15.4696 24.9992C15.7952 24.4293 16.1209 23.8594 16.4601 23.3031C16.5958 23.0725 16.5958 22.9232 16.3244 22.7875C15.7817 22.5026 15.2661 22.2041 14.7369 21.892C14.4656 21.7292 14.3299 21.797 14.1942 22.0684C13.9228 22.5704 13.6515 23.0725 13.3258 23.5474C13.1087 23.8594 13.2037 24.0222 13.5022 24.1579C13.6379 24.1986 13.76 24.2393 13.8821 24.28ZM35.2928 18.6899C35.3471 18.9749 35.415 19.2462 35.4421 19.5312C35.4828 19.9111 35.6185 19.9111 35.917 19.7347C37.6402 18.7442 39.3769 17.7808 41.1001 16.7904C41.48 16.5733 41.9006 16.424 42.2534 16.0441C41.2222 16.0577 40.2724 16.0441 39.3226 16.2612C38.3321 16.329 37.3688 16.5597 36.3919 16.7904C34.8315 17.1567 34.8315 17.1567 35.2928 18.6899ZM17.2335 34.3206C17.6541 35.1075 17.6405 35.1075 18.2918 34.5241C20.707 32.4074 22.7286 29.9516 24.3975 27.1972C24.9131 26.3424 25.5915 25.664 26.4735 25.1755C27.4368 24.6464 28.3459 24.0358 29.3228 23.5474C29.8113 23.3031 29.8655 22.9775 29.7841 22.5297C29.757 22.3941 29.7163 22.2719 29.6756 22.1363C29.6756 22.0684 29.6756 22.0141 29.662 21.9463C29.6891 21.8649 29.6756 21.7835 29.6077 21.7292C29.5399 21.0237 29.3771 20.3452 29.1871 19.6397C27.9795 20.2638 26.8805 20.983 25.7679 21.6885C22.9864 23.4795 20.7477 25.7726 19.2959 28.7711C18.6581 30.0737 18.0747 31.4169 17.2063 32.5838C16.7043 33.2487 16.6772 33.7507 17.2335 34.3206ZM4.72355 44.7138C7.23368 43.2756 9.7438 41.8374 12.2539 40.3856C13.1766 39.8564 13.2444 39.4901 12.6203 38.6081C12.2946 38.0383 11.9826 37.4548 11.6434 36.885C11.2499 36.2337 10.8835 36.1251 10.2187 36.505C7.57288 38.0383 4.94064 39.585 2.29483 41.1318C1.68426 41.4846 1.57571 41.9188 1.91492 42.5294C2.25412 43.1128 2.59333 43.6962 2.93254 44.2797C3.48883 45.2159 3.82804 45.2973 4.72355 44.7138ZM22.7829 32.4074C22.3351 32.8959 21.9145 33.3979 21.4532 33.8728C21.2497 34.0763 21.2768 34.212 21.4396 34.4155C21.8467 34.8904 22.2537 35.3653 22.7286 35.7859C25.2795 37.984 28.1017 39.7614 31.141 41.2132C33.8003 42.4751 36.5954 43.2892 39.5261 43.5877C40.3674 43.7505 41.2222 43.8048 42.1855 43.7776C41.9956 43.6419 41.9006 43.5741 41.8056 43.5063C37.0296 40.7383 32.2535 37.9704 27.464 35.2161C26.2021 34.4969 25.0081 33.7507 24.2618 32.421C24.0719 32.0818 23.8955 31.4848 23.5699 31.5119C23.2578 31.5255 23.0407 32.0682 22.7829 32.4074ZM16.6908 6.42421C16.6772 6.36993 16.65 6.3428 16.5958 6.36994C16.4872 6.32923 16.3787 6.28853 16.2566 6.26139C14.7369 5.85434 13.2173 5.69152 11.6841 6.22068C11.3584 6.32923 11.2634 6.50562 11.372 6.83126C11.5077 7.21117 11.6434 7.59108 11.8469 7.94385C12.7831 9.51777 14.1399 10.6304 15.7138 11.4987C17.4913 12.4757 19.3773 13.1269 21.4532 13.0048C21.9552 13.0319 22.4166 12.8963 22.8779 12.747C23.4613 12.5571 23.4885 12.4892 23.2985 11.9058C22.9457 10.7796 22.213 9.89768 21.3582 9.11073C20.0285 7.87601 18.5225 6.96694 16.7722 6.46491C16.7586 6.43778 16.7179 6.42421 16.6908 6.42421ZM24.7232 3.08642C24.6825 3.42562 24.8996 3.71056 25.0488 4.00906C25.4016 4.6739 25.7815 5.33875 26.1343 6.01716C27.1112 7.88958 27.9795 9.81627 28.7258 11.7972C28.8208 12.0279 28.8751 12.2721 29.255 12.1772C29.7706 12.055 30.1776 12.3128 30.3269 12.7606C30.4897 13.2355 30.3269 13.5883 29.7841 13.846C29.5535 13.9546 29.5128 14.0496 29.5806 14.2938C30.2997 16.5733 30.8289 18.907 31.2766 21.2679C31.7515 23.8052 32.0093 26.3696 32.1043 28.9475C32.1857 31.0235 32.1721 33.0994 31.9279 35.1754C31.8736 35.6367 31.9958 35.9216 32.4435 36.1387C32.9862 36.3965 33.5154 36.7086 34.031 37.0342C34.3702 37.2513 34.5059 37.1563 34.533 36.7764C34.6009 35.9216 34.7094 35.0668 34.723 34.212C34.7637 31.1727 34.8179 28.1334 34.4516 25.1077C34.1395 22.5162 33.7054 19.9382 33.0676 17.4009C32.837 16.4919 32.4706 15.5964 32.4028 14.6601C32.2671 12.6249 33.1898 11.0103 34.5194 9.57205C35.9441 8.02526 37.6673 6.87196 39.5397 5.93575C40.1774 5.61012 40.4081 4.87743 40.0824 4.25329C39.7568 3.61558 39.0648 3.35778 38.4135 3.66985C36.6904 4.48395 35.13 5.5287 33.7189 6.83126C33.0269 7.4554 32.4028 8.13381 31.8058 8.85293C31.2631 9.50421 30.5711 9.42279 30.1912 8.66297C30.0691 8.41874 29.9605 8.17451 29.852 7.93029C29.0379 6.07143 28.1017 4.28042 27.0976 2.50298C26.7991 1.97382 26.2021 1.72959 25.6865 1.86528C25.0895 1.98739 24.7232 2.44871 24.7232 3.08642ZM30.0962 25.0941C29.757 25.2977 29.4856 25.4605 29.2007 25.6097C27.4504 26.4917 25.9307 27.6043 25.0217 29.4224C24.8181 29.8295 24.7639 30.0601 25.0488 30.4265C25.3744 30.8471 25.6458 31.3355 25.9307 31.7833C26.2835 32.3532 26.7584 32.8009 27.3418 33.1401C28.0067 33.52 28.658 33.8999 29.3228 34.2798C29.6213 34.4427 29.9469 34.8226 30.1912 34.7005C30.4761 34.5784 30.2726 34.0899 30.3404 33.7778C30.3404 33.7643 30.3404 33.7507 30.3404 33.7236C30.5032 30.8742 30.4218 28.0249 30.0962 25.0941ZM30.2726 50.2633C30.8424 50.2904 31.3038 49.9783 31.548 49.3813C32.2128 47.7396 32.742 46.0571 33.1762 44.3339C33.2576 44.0354 33.1626 43.954 32.9048 43.859C32.3621 43.6691 31.8194 43.4656 31.3173 43.2078C30.8967 43.0042 30.7339 43.0721 30.6389 43.5334C30.3811 44.8767 29.9334 46.1656 29.4992 47.4546C29.3635 47.8752 29.1871 48.2687 29.0786 48.7029C28.9022 49.4763 29.4856 50.2226 30.2726 50.2633Z" fill="#1EC996"/>
<path d="M4.73727 15.1215C6.40617 16.0848 8.07507 17.0346 9.74396 17.9979C10.6395 18.5135 11.535 19.0156 12.4169 19.5447C13.0953 19.9518 13.1903 20.3452 12.7697 21.0101C12.5933 21.295 12.5119 21.6342 12.227 21.8513C11.847 20.6437 10.7344 20.2367 9.78467 19.6804C8.03436 18.6628 6.28406 17.6452 4.53375 16.6411C4.18098 16.4376 4.03173 16.2612 4.33023 15.8813C4.52018 15.6506 4.61516 15.3793 4.73727 15.1215Z" fill="#21D7A0" fill-opacity="0.2"/>
<path d="M3.896 21.0915C3.896 20.603 4.27591 20.2096 4.76437 20.2231C5.23925 20.2367 5.63273 20.6437 5.61917 21.1186C5.6056 21.5799 5.23925 21.9463 4.76437 21.9463C4.27591 21.9599 3.896 21.5935 3.896 21.0915Z" fill="#1EC996"/>
<path d="M24.7232 3.08637C24.7232 2.44866 25.076 1.98734 25.7002 1.81095C26.2158 1.6617 26.8128 1.90593 27.1113 2.44866C28.1017 4.21254 29.0515 6.00355 29.8656 7.87597C29.9742 8.1202 30.0827 8.37799 30.2048 8.60865C30.5847 9.36848 31.2767 9.44988 31.8194 8.79861C32.4165 8.09306 33.0406 7.41465 33.7326 6.77694C35.1437 5.48795 36.704 4.42963 38.4272 3.61553C39.0785 3.30346 39.784 3.56126 40.0961 4.19897C40.4217 4.82311 40.1911 5.55579 39.5534 5.88143C37.6809 6.83121 35.9578 7.97095 34.5331 9.51773C33.217 10.956 32.2808 12.5706 32.4165 14.6058C32.4843 15.5556 32.8506 16.4375 33.0813 17.3466C33.7054 19.8839 34.1532 22.4483 34.4653 25.0534C34.8316 28.0791 34.7773 31.1184 34.7366 34.1577C34.7231 35.0125 34.6009 35.8673 34.5467 36.7221C34.5195 37.102 34.3839 37.197 34.0446 36.9799C33.529 36.6678 32.9999 36.3422 32.4572 36.0844C32.023 35.8809 31.8873 35.5824 31.9416 35.121C32.1994 33.0587 32.1994 30.9692 32.118 28.8932C32.023 26.3152 31.7652 23.7508 31.2903 21.2136C30.8561 18.8663 30.3269 16.5325 29.5943 14.2395C29.5128 13.9953 29.5535 13.9003 29.7978 13.7917C30.3405 13.5339 30.5033 13.1812 30.3405 12.7063C30.1913 12.2449 29.7842 11.9871 29.2686 12.1228C28.8887 12.2178 28.8344 11.9872 28.7395 11.7429C27.9796 9.76196 27.1248 7.84883 26.1479 5.96284C25.7951 5.28443 25.4152 4.63315 25.0625 3.95474C24.8996 3.71051 24.6825 3.42558 24.7232 3.08637Z" fill="#21D7A0" fill-opacity="0.2"/>
<path d="M21.4532 12.9777C19.3773 13.0998 17.4913 12.4485 15.7139 11.4716C14.1399 10.6033 12.7831 9.49066 11.8469 7.91674C11.6434 7.56396 11.4941 7.18405 11.372 6.80414C11.2635 6.4785 11.3585 6.31568 11.6841 6.19357C13.2173 5.66441 14.7369 5.82723 16.2566 6.23427C16.3651 6.26141 16.4873 6.30212 16.5958 6.34282C16.6229 6.35639 16.6636 6.38353 16.6908 6.39709C16.7179 6.41066 16.7586 6.41066 16.7858 6.42423C16.8129 6.61418 16.9757 6.64132 17.1114 6.70916C18.6717 7.6318 20.0828 8.7444 21.0598 10.3048C21.5754 11.146 21.9417 12.0008 21.4532 12.9777Z" fill="white"/>
<path d="M39.5398 43.574C36.6091 43.2755 33.814 42.4614 31.1546 41.1996C28.1153 39.7614 25.2931 37.9839 22.7423 35.7723C22.2674 35.3652 21.8604 34.8768 21.4533 34.4019C21.2769 34.1984 21.2498 34.0627 21.4669 33.8592C21.9282 33.3843 22.3624 32.8823 22.7966 32.3938C23.1358 32.4481 23.2036 32.7737 23.3393 33.0044C23.8956 33.9406 24.5604 34.7547 25.5645 35.2838C26.9892 36.0301 28.3731 36.8985 29.7707 37.699C32.118 39.0558 34.4788 40.3991 36.8262 41.7559C37.8166 42.3258 38.7936 42.8956 39.8519 43.5062C39.6891 43.5469 39.6076 43.5605 39.5398 43.574Z" fill="white"/>
<path d="M4.72346 44.7138C3.82795 45.3108 3.47518 45.2294 2.94601 44.2932C2.60681 43.7098 2.2676 43.1263 1.92839 42.5429C1.57562 41.9323 1.68417 41.4981 2.30831 41.1454C4.94055 39.5986 7.58636 38.0654 10.2322 36.5186C10.897 36.1387 11.2769 36.2337 11.6568 36.8985C11.996 37.4684 12.3081 38.0382 12.6338 38.6217C12.5795 38.9202 12.3624 39.083 12.1317 39.2187C9.68944 40.6298 7.24715 42.0409 4.7913 43.452C4.43852 43.6555 4.15359 43.8319 4.5335 44.2661C4.64205 44.3611 4.66918 44.551 4.72346 44.7138Z" fill="white"/>
<path d="M29.6618 21.9599C29.6618 22.0278 29.6618 22.082 29.6754 22.1499C29.594 22.1635 29.499 22.1634 29.4311 22.2042C28.305 22.8419 27.1788 23.5067 26.0526 24.1444C25.2793 24.5786 24.6008 25.1349 24.0988 25.8676C23.5561 26.6545 23.0541 27.4822 22.5385 28.2827C22.4571 28.4049 22.4028 28.5541 22.2128 28.5541C22.0636 27.9842 21.6972 27.6857 21.2359 27.7536C20.7882 27.8214 20.4489 28.2285 20.4625 28.6762C20.4897 29.2189 20.8696 29.4903 21.5751 29.4767C21.5615 29.6396 21.4937 29.7752 21.3987 29.8838C20.1097 31.4577 18.7665 32.9774 17.2333 34.3206C16.6905 33.7507 16.7177 33.2487 17.2061 32.5974C18.0745 31.4306 18.6715 30.0873 19.2956 28.7848C20.7475 25.7726 22.9862 23.4931 25.7677 21.7021C26.8667 20.983 27.9793 20.2775 29.1869 19.6533C29.3769 20.3589 29.5261 21.0509 29.6075 21.7428C29.5804 21.8242 29.594 21.8921 29.6618 21.9599Z" fill="white"/>
<path d="M39.5396 43.5742C39.621 43.5606 39.7024 43.547 39.8517 43.5199C38.8069 42.9093 37.8164 42.3394 36.826 41.7696C34.4787 40.4128 32.1178 39.0695 29.7705 37.7127C28.3729 36.9121 26.989 36.0438 25.5643 35.2975C24.5603 34.7684 23.8954 33.9678 23.3391 33.018C23.2034 32.7874 23.1356 32.4617 22.7964 32.4075C23.0406 32.0683 23.2713 31.5255 23.5969 31.4984C23.9226 31.4848 24.0854 32.0683 24.2889 32.4075C25.0216 33.7236 26.2292 34.4699 27.491 35.2025C32.2806 37.9569 37.0566 40.7248 41.8327 43.4927C41.9276 43.547 42.0226 43.6284 42.2126 43.7641C41.2357 43.8048 40.3808 43.7505 39.5396 43.5742Z" fill="#21D7A0" fill-opacity="0.2"/>
<path d="M30.2727 50.2632C29.4993 50.2225 28.9158 49.4763 29.0922 48.7164C29.1872 48.2958 29.3636 47.8888 29.5128 47.4682C29.9606 46.1792 30.3948 44.8902 30.6526 43.5469C30.7475 43.0992 30.9104 43.0178 31.331 43.2213C31.8466 43.4791 32.3893 43.6691 32.9185 43.8726C33.1763 43.9676 33.2577 44.049 33.1898 44.3475C32.7556 46.0706 32.2265 47.7531 31.5616 49.3949C31.3038 49.9783 30.829 50.2904 30.2727 50.2632Z" fill="#21D7A0" fill-opacity="0.2"/>
<path d="M17.2334 34.3205C18.7666 32.9773 20.1099 31.4576 21.3989 29.8837C21.4938 29.7616 21.5752 29.6259 21.5752 29.4766C21.9823 29.3003 22.1994 29.0018 22.1994 28.554C22.3893 28.554 22.4436 28.4048 22.525 28.2826C23.0406 27.4685 23.5426 26.6544 24.0854 25.8675C24.5874 25.1348 25.2658 24.5785 26.0392 24.1443C27.1654 23.5066 28.2915 22.8553 29.4177 22.204C29.4855 22.1633 29.5805 22.1633 29.6619 22.1498C29.7026 22.2855 29.7433 22.4076 29.7705 22.5433C29.8519 22.991 29.7976 23.3166 29.3092 23.5609C28.3322 24.0629 27.4096 24.6599 26.4598 25.1891C25.5779 25.6775 24.913 26.3559 24.3839 27.2107C22.715 29.9515 20.7069 32.4074 18.2782 34.5376C17.6404 35.0939 17.6404 35.1075 17.2334 34.3205Z" fill="#21D7A0" fill-opacity="0.2"/>
<path d="M4.72341 44.7139C4.65556 44.5646 4.62843 44.3747 4.53345 44.2525C4.15354 43.8184 4.43847 43.642 4.79125 43.4385C7.2471 42.0409 9.68939 40.6298 12.1317 39.2052C12.3623 39.0695 12.5794 38.9067 12.6337 38.6082C13.2443 39.4901 13.19 39.8564 12.2674 40.3856C9.75723 41.8238 7.2471 43.2621 4.72341 44.7139Z" fill="#21D7A0" fill-opacity="0.2"/>
<path d="M21.4531 12.9776C21.9416 12.0007 21.5752 11.1459 21.0596 10.3318C20.0827 8.77147 18.6716 7.65887 17.1113 6.73623C16.9892 6.66839 16.8128 6.64125 16.7856 6.45129C18.536 6.95332 20.042 7.87596 21.3717 9.0971C22.2129 9.88406 22.9456 10.7524 23.312 11.8922C23.4884 12.4756 23.4612 12.5434 22.8914 12.7334C22.4165 12.8691 21.9552 13.0048 21.4531 12.9776Z" fill="#21D7A0" fill-opacity="0.2"/>
<path d="M39.3227 16.2612C40.2589 16.0441 41.2223 16.0576 42.2535 16.0441C41.9007 16.424 41.4665 16.5732 41.1002 16.7903C39.377 17.7808 37.6403 18.7442 35.9171 19.7346C35.6186 19.911 35.4829 19.911 35.4422 19.5311C35.4151 19.2462 35.3472 18.9748 35.293 18.6899C36.6362 17.9301 37.9659 17.1702 39.3092 16.4104C39.377 16.3697 39.3906 16.3154 39.3227 16.2612Z" fill="#21D7A0" fill-opacity="0.2"/>
<path d="M13.8821 24.28C13.76 24.2393 13.6243 24.1986 13.5022 24.1443C13.2037 24.0087 13.1087 23.8594 13.3258 23.5338C13.6515 23.0589 13.9228 22.5569 14.1942 22.0548C14.3299 21.7835 14.4656 21.7156 14.7369 21.8784C15.2525 22.1905 15.7817 22.489 16.3244 22.7739C16.5958 22.9096 16.5958 23.0724 16.4601 23.2895C16.1209 23.8594 15.8088 24.4157 15.4696 24.9856C15.2118 24.5107 14.4927 24.1851 13.8821 24.28Z" fill="#21D7A0" fill-opacity="0.2"/>
<path d="M15.551 35.0532C15.958 35.5145 16.1751 36.0844 16.5008 36.6C16.5957 36.7493 16.5957 36.8714 16.4194 36.9799C15.8224 37.3191 15.2253 37.6719 14.6283 38.0247C14.4384 38.1332 14.357 38.0382 14.2756 37.889C13.9499 37.3056 13.6107 36.7086 13.2715 36.1387C13.163 35.9623 13.2037 35.8673 13.3665 35.7859C13.5293 35.7045 13.6786 35.5688 13.8685 35.5824C14.3027 35.7452 14.669 35.5688 15.0218 35.3517C15.1846 35.216 15.3339 35.0668 15.551 35.0532Z" fill="#21D7A0" fill-opacity="0.2"/>
<path d="M39.3228 16.2612C39.3906 16.3291 39.3771 16.3833 39.3092 16.4241C37.966 17.1839 36.6363 17.9437 35.293 18.7035C34.8317 17.1703 34.8317 17.1567 36.4056 16.7904C37.369 16.5462 38.3323 16.3291 39.3228 16.2612Z" fill="white"/>
<path d="M18.4277 26.7223C18.2106 27.1429 17.9935 27.5499 17.7493 28.0248C17.3965 27.4821 17.0302 26.9936 16.7724 26.4645C16.596 26.1117 17.0302 25.9082 17.193 25.6504C17.2473 25.8675 17.4236 25.9489 17.6 25.9896C18.0071 26.0981 18.2377 26.3831 18.4277 26.7223Z" fill="white"/>
<path d="M18.4275 26.7223C18.2375 26.3831 18.0069 26.0981 17.5862 25.9896C17.4234 25.9489 17.2335 25.8675 17.1792 25.6504C17.1792 25.6233 17.1792 25.5826 17.1928 25.5554C17.5455 24.687 17.5591 24.687 18.2647 25.284C19.0109 25.9218 19.0109 25.9218 18.4275 26.7223Z" fill="#21D7A0" fill-opacity="0.2"/>
<path d="M15.5511 35.0532C15.334 35.0668 15.1983 35.2296 15.022 35.3246C14.6556 35.5417 14.3028 35.7181 13.8687 35.5552C14.2214 35.1211 14.737 34.9447 15.2119 34.6869C15.4833 34.5376 15.4561 34.8904 15.5511 35.0532Z" fill="white"/>
<path d="M13.8823 24.28C14.4793 24.1851 15.1984 24.4971 15.4834 24.9992C15.4291 25.1077 15.3613 25.2298 15.2256 25.1348C14.7778 24.8499 14.2622 24.6735 13.8823 24.28Z" fill="white"/>
<path d="M29.6621 21.9599C29.5943 21.9056 29.5807 21.8242 29.6078 21.7428C29.6757 21.7971 29.6892 21.8649 29.6621 21.9599Z" fill="#21D7A0" fill-opacity="0.2"/>
<path d="M16.6907 6.42417C16.6635 6.4106 16.6228 6.38347 16.5957 6.3699C16.65 6.34276 16.6771 6.3699 16.6907 6.42417Z" fill="#21D7A0" fill-opacity="0.2"/>
<path d="M22.1996 28.5405C22.1996 28.9882 21.969 29.2867 21.5755 29.4631C20.8699 29.4767 20.49 29.1918 20.4629 28.6626C20.4358 28.2149 20.7885 27.8078 21.2363 27.74C21.684 27.6721 22.0504 27.9706 22.1996 28.5405Z" fill="#1EC996"/>
</svg>
