<svg width="100" height="20" viewBox="0 0 100 20" fill="none" xmlns="http://www.w3.org/2000/svg">
<g id="imp_logo_bcat 1" clip-path="url(#clip0_0_592)">
<g id="&#208;&#161;&#208;&#187;&#208;&#190;&#208;&#185;_x0020_1">
<g id="_1974163791072">
<path id="Vector" d="M99.9998 0.0180664H18.708V19.0724H99.9998V0.0180664Z" fill="#2B2A29"/>
<path id="Vector_2" fill-rule="evenodd" clip-rule="evenodd" d="M18.7082 0.0180664H0V19.0724H18.7082V0.0180664Z" fill="#95D94E"/>
<path id="Vector_3" fill-rule="evenodd" clip-rule="evenodd" d="M3.39648 12.8342V8.35415H4.62143V5.0083H6.8486V6.14249H7.96219V7.21997H9.63256H11.3029V6.14249H12.3608V5.0083H14.588V8.35415H15.813V12.8342H14.5323V14.0818H9.63256H4.67711V12.8342H3.39648ZM10.3564 10.5658H11.47V11.7H10.3564V10.5658ZM5.95773 10.5658H7.127V11.7H5.95773V10.5658Z" fill="#2B2A29"/>
<path id="Vector_4" d="M24.1089 12.9477V6.14258H25.4452V12.9477H24.1089ZM29.12 10.2257V8.86463H30.4563V10.2257H29.12ZM26.4474 12.9477V6.14258H27.7837V7.5036H29.12V8.86463H27.7837V12.9477H26.4474ZM31.7926 12.9477V8.86463H30.4563V7.5036H31.7926V6.14258H33.1289V12.9477H31.7926ZM39.4764 8.86463V7.5036H40.8127V8.86463H39.4764ZM34.1312 12.9477V6.14258H39.4764V7.5036H35.4675V8.86463H39.4764V10.2257H35.4675V12.9477H34.1312ZM47.1601 12.9477V10.2257H48.4964V12.9477H47.1601ZM47.1601 8.86463V7.5036H48.4964V8.86463H47.1601ZM41.8149 12.9477V6.14258H47.1601V7.5036H43.1512V8.86463H47.1601V10.2257H43.1512V12.9477H41.8149ZM50.8349 12.9477V11.5867H54.8439V12.9477H50.8349ZM49.4986 11.5867V7.5036H50.8349V11.5867H49.4986ZM54.8439 11.5867V7.5036H56.1802V11.5867H54.8439ZM50.8349 7.5036V6.14258H54.8439V7.5036H50.8349ZM58.5187 12.9477V11.5867H62.5276V12.9477H58.5187ZM57.1824 11.5867V10.2257H58.5187V11.5867H57.1824ZM62.5276 11.5867V6.14258H63.8639V11.5867H62.5276ZM64.8661 12.9477V6.14258H71.5476V7.5036H66.2024V8.86463H68.875V10.2257H66.2024V11.5867H71.5476V12.9477H64.8661ZM73.8862 12.9477V11.5867H77.8951V12.9477H73.8862ZM77.8951 11.5867V10.2257H79.2314V11.5867H77.8951ZM72.4942 11.5867V7.5036H73.8862V11.5867H72.4942ZM77.8951 8.86463V7.5036H79.2314V8.86463H77.8951ZM73.8862 7.5036V6.14258H77.8951V7.5036H73.8862ZM82.9062 12.9477V7.5036H80.1779V6.14258H86.9151V7.5036H84.2425V12.9477H82.9062ZM87.8617 12.9477V11.5867H93.2626V12.9477H87.8617ZM93.2626 11.5867V10.2257H94.5989V11.5867H93.2626ZM89.198 10.2257V8.86463H93.2626V10.2257H89.198ZM87.8617 8.86463V7.5036H89.198V8.86463H87.8617ZM89.198 7.5036V6.14258H94.5989V7.5036H89.198Z" fill="#FEFEFE"/>
</g>
</g>
</g>
<defs>
<clipPath id="clip0_0_592">
<rect width="100" height="19.0909" fill="white"/>
</clipPath>
</defs>
</svg>
