<svg width="49" height="49" viewBox="0 0 49 49" fill="none" xmlns="http://www.w3.org/2000/svg">
<path d="M34.1123 3.38894C34.0868 3.38894 34.0612 3.37616 34.0356 3.36337C33.9972 3.33779 33.9589 3.325 33.9205 3.29942C31.2349 2.37866 28.4726 1.84154 25.6464 1.73923C21.0169 1.56019 16.5921 2.40423 12.3975 4.39923C11.6174 4.7701 10.9013 5.24327 10.2107 5.75481C9.95492 5.94664 9.81424 6.17683 9.78867 6.50933C9.72472 7.53241 9.77588 8.5427 9.7503 9.56578C9.73751 10.218 9.48174 10.5377 8.97021 10.5505C8.44588 10.5633 8.12617 10.2052 8.12617 9.56578C8.11338 8.58106 8.11338 7.58356 8.11338 6.59885C8.12617 5.69087 8.48424 4.97472 9.22598 4.4376C11.5663 2.69837 14.2263 1.6625 17.0269 0.971924C18.779 0.537116 20.5566 0.268558 22.3469 0.102308C22.4492 0.0895197 22.5771 0.127885 22.6411 0C23.8176 0 25.0069 0 26.1835 0C26.2218 0.0895193 26.3114 0.0895208 26.3881 0.0895208C28.1018 0.217405 29.8026 0.473175 31.4779 0.856829C34.4193 1.53462 37.2071 2.57048 39.6625 4.38644C40.4426 4.96193 40.8135 5.70366 40.8135 6.67558C40.8135 11.3434 40.8135 16.0112 40.8135 20.679C40.8135 22.6867 40.5066 24.6434 39.8671 26.5489C39.752 26.8941 39.7904 27.1243 40.059 27.3801C42.7446 30.0401 45.4046 32.7129 48.0773 35.3857C48.4226 35.731 48.7551 36.0891 48.9597 36.5494C48.9597 36.8308 48.9597 37.1249 48.9597 37.4063C48.6145 38.1864 47.9622 38.5061 47.1566 38.6979C45.0337 39.1967 42.9236 39.7593 40.8135 40.2709C40.4682 40.3604 40.3275 40.5139 40.2508 40.8464C39.7009 43.1355 39.1254 45.4246 38.5371 47.701C38.2558 48.788 37.1688 49.2868 36.2224 48.8136C35.9922 48.6985 35.8132 48.5194 35.6342 48.3404C33.0893 45.7955 30.5316 43.2506 27.9994 40.6929C27.7437 40.4243 27.5774 40.3604 27.2705 40.6418C26.7462 41.1277 26.1707 41.5625 25.608 42.0101C24.8151 42.624 24.1245 42.624 23.3572 41.9973C22.7945 41.5497 22.2318 41.1149 21.6947 40.6418C21.4262 40.3988 21.2727 40.4116 21.0042 40.6673C18.4337 43.2634 15.8504 45.8339 13.2671 48.4171C12.6149 49.0693 11.8604 49.1717 11.1442 48.7369C10.735 48.4811 10.5176 48.1102 10.4153 47.6626C9.85261 45.3991 9.26434 43.1227 8.71444 40.8592C8.6377 40.5267 8.49703 40.3604 8.15174 40.2837C5.86261 39.7338 3.57347 39.1583 1.29712 38.57C0.440296 38.3526 -0.0584546 37.6748 0.00548775 36.8564C0.0310647 36.3832 0.274046 36.0251 0.606546 35.6926C3.38164 32.9175 6.15674 30.1424 8.93184 27.3801C9.18761 27.1243 9.25155 26.9197 9.12367 26.5616C8.52261 24.7968 8.21569 22.9809 8.17732 21.1265C8.13896 19.5664 8.16453 18.0062 8.16453 16.4332C8.16453 16.3181 8.17732 16.203 8.2029 16.1007C8.31799 15.6659 8.6377 15.4357 9.0853 15.474C9.49453 15.5124 9.77588 15.7938 9.78867 16.2414C9.80146 17.3412 9.78867 18.441 9.80146 19.5408C9.81424 21.4079 9.89097 23.2622 10.3897 25.0782C11.3872 28.6717 13.3183 31.6642 16.2085 34.0173C18.779 36.1146 21.3494 38.1992 23.9199 40.2965C24.457 40.8592 24.457 40.8592 25.0197 40.4116C25.3139 40.1814 25.608 39.9256 25.9149 39.6954C28.1145 37.8922 30.3142 36.0891 32.5394 34.2987C34.496 32.7129 36.1201 30.8714 37.2839 28.6334C38.6395 26.0245 39.2533 23.2494 39.2533 20.3209C39.2533 15.8577 39.2405 11.3945 39.2661 6.93135C39.2661 6.33029 39.0998 5.90827 38.5883 5.56298C37.156 4.66779 35.7237 3.86212 34.1123 3.38894ZM10.6199 30.0657C10.4537 29.746 10.2491 29.4263 10.1212 29.0938C9.96771 28.7101 9.83982 28.7485 9.58405 29.017C7.05194 31.5619 4.50703 34.1068 1.96212 36.6517C1.91097 36.7029 1.8726 36.7413 1.82145 36.7924C1.6552 36.9587 1.66799 37.0354 1.91097 37.0866C2.70385 37.2656 3.48395 37.4702 4.26405 37.662C5.73472 38.0329 7.2054 38.4166 8.68886 38.7874C8.89348 38.8386 9.04694 38.7746 9.2004 38.6212C10.6199 37.2017 12.0394 35.7693 13.459 34.3626C13.6891 34.1324 13.6636 33.979 13.4462 33.7743C13.152 33.493 12.8707 33.1861 12.6021 32.8664C11.8476 31.984 11.2338 31.0248 10.6199 30.0657ZM10.7734 39.4524C10.2235 39.7849 10.134 39.964 10.2746 40.5394C10.5048 41.473 10.735 42.4193 10.9652 43.3529C11.2721 44.5806 11.5791 45.8083 11.8988 47.036C11.9243 47.1383 11.9116 47.4196 12.129 47.215C12.5382 46.8186 13.0114 46.4861 13.2927 45.9745C13.3311 45.9618 13.395 45.949 13.4206 45.9234C15.5563 43.8005 17.6792 41.6776 19.8148 39.5547C19.9939 39.3757 19.9171 39.2606 19.7637 39.1327C18.2291 37.8794 16.6817 36.6262 15.147 35.3601C15.0064 35.245 14.9168 35.2322 14.789 35.3601C13.459 36.7285 12.1162 38.0841 10.7734 39.4524ZM36.7979 47.3557C36.8491 47.3173 36.9002 47.279 36.9514 47.2534C37.5269 44.9643 38.1023 42.6751 38.6778 40.386C38.7418 40.1174 38.665 39.9384 38.4732 39.7466C37.0665 38.3398 35.6597 36.9331 34.253 35.5136C34.0356 35.2834 33.9077 35.2578 33.6392 35.4752C32.2069 36.6773 30.749 37.8794 29.2783 39.0432C28.9458 39.3117 28.9458 39.4396 29.2271 39.721C31.2989 41.7799 33.3578 43.8389 35.4168 45.9106C35.9027 46.3582 36.3375 46.8697 36.7979 47.3557ZM47.2461 37.0098C47.1694 36.9075 47.1438 36.8436 47.1054 36.8052C44.4966 34.1964 41.8749 31.5747 39.2789 28.9659C39.0231 28.7101 38.9592 28.8764 38.8569 29.081C37.9872 30.8586 36.8491 32.4316 35.4807 33.8511C35.2761 34.0685 35.2889 34.1836 35.4935 34.3882C36.913 35.7949 38.3197 37.2016 39.7137 38.6084C39.8927 38.7874 40.0718 38.8386 40.3147 38.7746C42.5911 38.1736 44.893 37.5981 47.2461 37.0098Z" fill="#1EC996"/>
<path d="M36.5164 26.3314C35.6979 28.288 34.5981 30.0656 33.1019 31.5747C31.9509 32.7256 30.6337 33.6848 29.3932 34.7334C28.0504 35.8588 26.6821 36.9458 25.3265 38.0584C24.5975 38.6595 24.3674 38.6595 23.6256 38.0584C21.4132 36.2552 19.188 34.4649 17.0012 32.6361C13.932 30.0656 12.116 26.7662 11.5533 22.8018C11.4254 21.9194 11.3871 21.0242 11.3871 20.129C11.3871 16.0367 11.3998 11.9316 11.3743 7.83927C11.3743 7.1359 11.6172 6.68831 12.2183 6.33023C14.3923 5.05138 16.7454 4.32244 19.2008 3.83648C20.6459 3.55513 22.091 3.38888 23.5617 3.29936C25.0451 3.19705 26.5158 3.3633 27.9865 3.55513C30.5698 3.90042 33.0891 4.50148 35.4422 5.65244C35.9537 5.90821 36.4397 6.21513 36.9384 6.48369C37.1686 6.61158 37.3476 6.77783 37.4627 7.00802C37.4627 12.0083 37.4627 17.0086 37.4627 22.0217C37.4627 22.1496 37.4372 22.2775 37.4244 22.4053C37.2965 23.7225 36.9256 24.9886 36.5292 26.2419C36.5164 26.2802 36.5164 26.3186 36.5164 26.3314ZM35.8642 15.052C35.8642 12.7884 35.8514 10.5248 35.877 8.26129C35.877 7.89042 35.7491 7.68581 35.4294 7.51956C33.5495 6.49648 31.5289 5.90821 29.4444 5.49898C27.8842 5.19206 26.2984 5.00023 24.6998 4.96186C23.1269 4.9235 21.5539 5.1409 20.0065 5.40946C17.7429 5.8059 15.5433 6.41975 13.4972 7.53235C13.2158 7.68581 13.0496 7.85206 13.0496 8.22292C13.0623 12.4048 13.0496 16.5738 13.0623 20.7556C13.0751 24.7456 14.5074 28.1601 17.4488 30.8329C19.61 32.8024 21.9631 34.5672 24.2139 36.4471C24.4952 36.6773 24.6359 36.4982 24.8149 36.3576C26.7844 34.759 28.7538 33.1732 30.6976 31.5491C34.1377 28.6845 35.877 25.0142 35.8642 20.5254C35.8642 18.6839 35.8642 16.8679 35.8642 15.052Z" fill="#1EC996"/>
<path d="M36.5167 26.2548C36.9132 25.0015 37.284 23.7355 37.4119 22.4182C37.4247 22.2904 37.4503 22.1625 37.4503 22.0346C37.4503 17.0343 37.4503 12.034 37.4503 7.02093C37.7061 6.29199 37.3096 5.49911 36.6574 5.02593C35.9668 4.52718 35.2507 4.0668 34.4834 3.68314C34.3299 3.60641 34.1381 3.58084 34.0869 3.37622C35.6855 3.84939 37.1306 4.64228 38.4989 5.58863C38.9977 5.93391 39.1767 6.35593 39.1767 6.95699C39.1639 11.4202 39.1639 15.8833 39.1639 20.3465C39.1639 23.2751 38.5501 26.0502 37.1945 28.659C36.0308 30.897 34.4066 32.7513 32.45 34.3243C30.2376 36.1147 28.038 37.9179 25.8256 39.721C25.5314 39.964 25.2373 40.207 24.9304 40.4372C24.3677 40.8848 24.3677 40.872 23.8306 40.3221C24.3933 40.0408 24.8025 39.5676 25.2885 39.1839C27.1428 37.7005 28.9843 36.2042 30.8259 34.6952C33.3708 32.5979 35.2123 30.0018 36.3761 26.9198C36.4528 26.728 36.5295 26.5361 36.4784 26.3187V26.3315C36.5807 26.3187 36.6062 26.2932 36.5167 26.2548Z" fill="#D3F7EC"/>
<path d="M8.95732 12.213C9.39213 12.213 9.76299 12.5967 9.76299 13.0443C9.76299 13.4919 9.37934 13.8627 8.93174 13.8499C8.49693 13.8372 8.11328 13.4407 8.11328 13.0187C8.11328 12.5967 8.52251 12.213 8.95732 12.213Z" fill="#1EC996"/>
<path d="M36.798 47.3557C36.3504 46.8697 35.9028 46.3709 35.4296 45.8978C33.3707 43.826 31.3117 41.7671 29.24 39.7082C28.9458 39.4268 28.9458 39.2989 29.2911 39.0304C30.7618 37.8666 32.2069 36.6773 33.652 35.4624C33.9206 35.245 34.0484 35.2706 34.2658 35.5008C35.6598 36.9203 37.0665 38.327 38.486 39.7337C38.6779 39.9256 38.7546 40.1046 38.6907 40.3732C38.1024 42.6623 37.5397 44.9514 36.9642 47.2406C36.9003 47.2789 36.8491 47.3173 36.798 47.3557Z" fill="#D3F7EC"/>
<path d="M47.2461 37.0098C44.893 37.5981 42.6039 38.1735 40.3148 38.7618C40.0718 38.8258 39.8927 38.7746 39.7137 38.5956C38.307 37.1888 36.9002 35.7693 35.4935 34.3754C35.2889 34.1708 35.2761 34.0557 35.4807 33.8383C36.8491 32.4315 37.9873 30.8458 38.8569 29.0682C38.9592 28.8635 39.0231 28.6973 39.2789 28.9531C41.8877 31.5747 44.4966 34.1835 47.1054 36.7924C47.1438 36.8435 47.1694 36.8947 47.2461 37.0098Z" fill="#D3F7EC"/>
<path d="M10.7734 39.4524C12.1162 38.0969 13.459 36.7413 14.8018 35.3729C14.9297 35.245 15.0192 35.2578 15.1599 35.3729C16.6945 36.639 18.2291 37.8922 19.7765 39.1455C19.93 39.2734 20.0195 39.3885 19.8277 39.5675C17.692 41.6904 15.5691 43.8133 13.4334 45.9362C13.4079 45.9618 13.3439 45.9746 13.3056 45.9873C13.216 45.885 13.1905 45.7699 13.1649 45.6421C12.7301 43.89 12.2697 42.138 11.8477 40.386C11.7454 39.9768 11.528 39.7466 11.1571 39.6187C11.0292 39.5547 10.863 39.5931 10.7734 39.4524Z" fill="#D3F7EC"/>
<path d="M10.6199 30.0657C11.2338 31.0376 11.8476 31.9967 12.6021 32.8536C12.8707 33.1605 13.152 33.4674 13.4462 33.7615C13.6636 33.9662 13.6892 34.1196 13.459 34.3498C12.0267 35.7565 10.6071 37.1888 9.20041 38.6084C9.04695 38.7618 8.89348 38.8258 8.68887 38.7746C7.21819 38.4038 5.74752 38.0201 4.26406 37.6492C3.94435 36.8563 3.96992 36.7285 4.59656 36.1146C6.47646 34.2603 8.36916 32.406 10.2491 30.5516C10.3897 30.411 10.5816 30.2831 10.6199 30.0657Z" fill="#D3F7EC"/>
<path d="M10.6198 30.0657C10.5814 30.2959 10.4024 30.411 10.2489 30.5517C8.36901 32.406 6.48911 34.2603 4.59642 36.1147C3.96978 36.7285 3.9442 36.8564 4.26392 37.6493C3.48382 37.4575 2.69093 37.2528 1.91084 37.0738C1.66786 37.0226 1.65507 36.9331 1.82132 36.7797C1.87247 36.7413 1.91084 36.6901 1.96199 36.639C4.5069 34.0941 7.0518 31.562 9.58392 29.0043C9.83969 28.7357 9.96757 28.6974 10.121 29.081C10.2489 29.4263 10.4407 29.7332 10.6198 30.0657Z" fill="#FDFEFF"/>
<path d="M10.7734 39.4524C10.8629 39.6059 11.0292 39.5547 11.1571 39.6059C11.5279 39.7465 11.7453 39.9767 11.8476 40.3732C12.2697 42.1252 12.73 43.8772 13.1649 45.6292C13.1904 45.7571 13.216 45.8722 13.3055 45.9745C13.0242 46.4861 12.551 46.8185 12.1418 47.215C11.9372 47.4196 11.9372 47.1383 11.9116 47.036C11.5919 45.8083 11.2849 44.5806 10.978 43.3529C10.7478 42.4193 10.5176 41.473 10.2874 40.5394C10.134 39.9511 10.2235 39.7849 10.7734 39.4524Z" fill="#FDFEFF"/>
<path d="M35.8644 15.052C35.8644 16.8679 35.8644 18.6839 35.8644 20.4999C35.8772 24.9886 34.138 28.6589 30.6979 31.5235C28.754 33.1477 26.7718 34.7334 24.8152 36.332C24.6362 36.4727 24.4955 36.6645 24.2141 36.4215C21.9634 34.5416 19.6103 32.7768 17.449 30.8074C14.5077 28.1346 13.0754 24.7073 13.0626 20.7301C13.0498 16.5482 13.0626 12.3792 13.0498 8.19735C13.0498 7.82649 13.2161 7.66024 13.4974 7.50677C15.5308 6.39418 17.7304 5.78033 20.0067 5.38389C21.5669 5.11533 23.1271 4.89793 24.7001 4.93629C26.2859 4.97466 27.8716 5.16648 29.4446 5.47341C31.5291 5.88264 33.5497 6.47091 35.4296 7.49399C35.7493 7.67302 35.8772 7.86485 35.8772 8.23571C35.8516 10.5249 35.8644 12.7884 35.8644 15.052ZM24.4571 6.54764C23.741 6.61158 23.2806 6.98245 22.9864 7.60908C22.2831 9.09254 21.5413 10.5504 20.8252 12.0211C20.7229 12.2385 20.6078 12.4175 20.3264 12.4559C18.9453 12.6349 17.5513 12.8396 16.1702 13.0442C15.7482 13.1081 15.3134 13.1465 14.9041 13.2616C13.7787 13.5941 13.5102 15.0008 14.3926 15.896C15.5819 17.0853 16.7712 18.2491 17.9862 19.4001C18.2036 19.6175 18.2803 19.8093 18.2163 20.1162C17.9222 21.7403 17.6664 23.3773 17.3723 25.0014C17.2316 25.7303 17.4235 26.293 18.0117 26.7151C18.5872 27.1243 19.1755 27.022 19.7638 26.7023C21.2088 25.9222 22.6667 25.1804 24.1118 24.4003C24.3804 24.2469 24.5722 24.2597 24.8536 24.4131C26.3242 25.206 27.8077 25.9733 29.2912 26.7534C29.8666 27.0603 30.4293 27.0859 30.9537 26.7023C31.5036 26.3058 31.7082 25.7559 31.5803 25.0653C31.2862 23.4028 31.0176 21.7403 30.7235 20.0778C30.6723 19.8221 30.7235 19.6302 30.9153 19.4384C31.7082 18.6711 32.4883 17.9038 33.2684 17.1237C33.7288 16.6761 34.2019 16.2541 34.6367 15.7809C35.5191 14.809 35.0715 13.415 33.7799 13.1976C32.1302 12.9163 30.4805 12.6733 28.8308 12.4559C28.4471 12.4048 28.2425 12.2769 28.0763 11.9316C27.3729 10.4609 26.6439 9.01581 25.9406 7.55793C25.6209 6.94408 25.1477 6.586 24.4571 6.54764Z" fill="#FDFEFF"/>
<path d="M36.5165 26.2548C36.5932 26.2931 36.5676 26.3187 36.5037 26.3443C36.5165 26.3187 36.5165 26.2803 36.5165 26.2548Z" fill="#FDFEFF"/>
<path d="M24.4571 6.54773C25.1477 6.59888 25.6209 6.95696 25.9278 7.58359C26.6311 9.04148 27.3729 10.4994 28.0635 11.9572C28.2297 12.3025 28.4343 12.4304 28.818 12.4816C30.4677 12.699 32.1302 12.942 33.7671 13.2233C35.0588 13.4407 35.5191 14.8347 34.6239 15.8066C34.2019 16.2798 33.716 16.7018 33.2556 17.1494C32.4755 17.9167 31.6954 18.6968 30.9025 19.4641C30.7107 19.6559 30.6595 19.8349 30.7107 20.1035C31.0048 21.766 31.2734 23.4285 31.5675 25.091C31.6954 25.7816 31.4908 26.3187 30.9409 26.7279C30.4037 27.1116 29.8411 27.086 29.2784 26.7791C27.7949 25.999 26.3114 25.2317 24.8408 24.4388C24.5722 24.2853 24.3804 24.2853 24.099 24.426C22.6539 25.2061 21.196 25.9478 19.751 26.7279C19.1627 27.0476 18.5744 27.15 17.9989 26.7407C17.4107 26.3187 17.2188 25.756 17.3595 25.0271C17.6664 23.4029 17.9094 21.766 18.2035 20.1419C18.2547 19.8349 18.1908 19.6431 17.9734 19.4257C16.7712 18.262 15.5691 17.0982 14.3798 15.9217C13.4974 15.0393 13.7659 13.6325 14.8913 13.2872C15.3006 13.1594 15.7354 13.1338 16.1574 13.0698C17.5385 12.8652 18.9325 12.6606 20.3136 12.4816C20.6078 12.4432 20.7101 12.2642 20.8124 12.0468C21.5285 10.5761 22.2703 9.10542 22.9736 7.63475C23.2806 6.96975 23.741 6.59888 24.4571 6.54773ZM33.3579 14.8091C31.478 14.5277 29.7643 14.272 28.0507 14.0162C27.4624 13.9267 27.066 13.607 26.7974 13.0954C26.5161 12.5327 26.2603 11.9828 25.9789 11.4201C25.493 10.4226 24.9942 9.43792 24.5083 8.44042C24.3292 8.52994 24.3036 8.67061 24.2525 8.77292C23.5491 10.1924 22.8585 11.5992 22.168 13.0187C21.8866 13.5942 21.4774 13.9523 20.8252 14.029C20.2625 14.0929 19.687 14.1952 19.1243 14.2848C17.9861 14.451 16.848 14.6173 15.6586 14.7963C15.7609 14.9114 15.7993 14.9753 15.8633 15.0265C17.0014 16.1391 18.1396 17.2645 19.2906 18.3643C19.7893 18.8374 20.0323 19.3746 19.8916 20.0779C19.687 21.1138 19.5335 22.1497 19.3545 23.1855C19.2394 23.8505 19.1371 24.5027 19.0092 25.2445C20.5822 24.4132 22.0657 23.6459 23.5363 22.853C24.163 22.5077 24.764 22.4822 25.3907 22.8402C26.2219 23.3006 27.0787 23.7354 27.9228 24.183C28.575 24.5283 29.2272 24.8608 29.9434 25.2445C29.6364 23.4413 29.3679 21.7276 29.061 20.0268C28.9459 19.4001 29.1505 18.9014 29.5853 18.4794C30.6084 17.4819 31.6314 16.4716 32.6673 15.4741C32.8463 15.2567 33.0637 15.0776 33.3579 14.8091Z" fill="#1EC996"/>
<path d="M33.3579 14.8091C33.0637 15.0776 32.8463 15.2567 32.6417 15.4613C31.6186 16.4588 30.5956 17.4691 29.5597 18.4666C29.1249 18.9014 28.9203 19.3873 29.0354 20.014C29.3423 21.7148 29.6109 23.4285 29.9178 25.2317C29.2016 24.8608 28.5494 24.5155 27.8972 24.1702C27.0532 23.7226 26.1963 23.2878 25.3651 22.8274C24.7384 22.4821 24.1502 22.4949 23.5108 22.8402C22.0401 23.6459 20.5566 24.4004 18.9836 25.2317C19.1115 24.4899 19.2138 23.8249 19.3289 23.1727C19.508 22.1369 19.6614 21.101 19.866 20.0651C20.0067 19.3618 19.7637 18.8374 19.265 18.3515C18.114 17.2517 16.9886 16.1263 15.8377 15.0137C15.7865 14.9625 15.7354 14.8986 15.6331 14.7835C16.8224 14.6044 17.9606 14.4382 19.0987 14.2719C19.6614 14.1824 20.2241 14.0929 20.7996 14.0162C21.4518 13.9394 21.861 13.5814 22.1424 13.0059C22.833 11.5864 23.5363 10.1796 24.2269 8.76011C24.2781 8.64502 24.3036 8.51713 24.4827 8.42761C24.9814 9.42511 25.4674 10.4098 25.9534 11.4073C26.2219 11.97 26.4905 12.5199 26.7718 13.0826C27.0276 13.6069 27.424 13.9267 28.0251 14.0034C29.7643 14.2719 31.478 14.5277 33.3579 14.8091Z" fill="#FDFEFF"/>
</svg>
