<svg width="221" height="66" viewBox="0 0 221 66" fill="none" xmlns="http://www.w3.org/2000/svg">
<path fill-rule="evenodd" clip-rule="evenodd" d="M0.477764 38.9773L28.4582 34.333C28.3113 33.7494 28.1428 33.1747 27.9535 32.6072C27.6591 31.7261 27.3121 30.8598 26.9152 30.0068L26.9142 30.0039C26.8797 29.9233 26.8426 29.842 26.7926 29.7745C26.7578 29.7273 26.716 29.6857 26.6628 29.6543C26.5685 29.7427 26.4644 29.823 26.3516 29.8948C25.5213 30.4282 24.2556 30.5059 23.0198 30.2686C21.7882 30.0327 20.5794 29.4839 19.8575 28.763C19.7103 28.6162 19.5828 28.4619 19.4796 28.3017L19.451 28.2578C19.4385 28.2486 19.4185 28.2362 19.408 28.2253C19.2782 28.0962 19.2167 28.0051 19.2233 27.9088C19.2299 27.8082 19.3064 27.7358 19.4523 27.6457C19.7372 27.4678 20.0342 27.3118 20.3418 27.1742C20.648 27.0369 20.9638 26.9183 21.2875 26.8147L21.2885 26.8141C21.8316 26.646 22.6619 26.5257 23.4407 26.5605C24.0542 26.5877 24.6384 26.7112 25.0334 26.9832L25.0383 26.9851L25.1037 26.9904C25.153 26.9953 25.2026 27.0002 25.2443 26.9881L25.2069 26.9222C24.9177 26.4582 24.6042 26.0162 24.2753 25.5844C23.9447 25.1515 23.5961 24.7249 23.2376 24.2963C23.2242 24.2803 23.2133 24.259 23.2061 24.2396C23.2002 24.2233 23.1962 24.2052 23.1956 24.1888C23.1916 24.1662 23.1877 24.1397 23.1874 24.1135C23.1864 24.0745 23.1933 24.0358 23.213 24.0054L23.2179 23.9965C23.2524 23.9457 23.3024 23.9182 23.3549 23.91C23.4036 23.9028 23.4548 23.9123 23.4962 23.9352L23.5196 23.9497C23.6362 24.0447 24.3259 24.8255 24.8388 25.4061C24.9847 25.5709 25.1106 25.7174 25.2042 25.8255C24.9956 24.2626 24.9509 23.3022 25.2571 22.447C25.5818 21.54 26.2958 20.7677 27.622 19.536L27.6262 19.5321C27.7721 19.4128 27.8792 19.3578 27.9854 19.3807C28.0905 19.4043 28.1674 19.5 28.2505 19.6802C28.4845 20.1789 28.6725 20.6884 28.8016 21.2114C28.9304 21.7356 29.0007 22.2733 29.0001 22.8271C29.0033 23.3615 28.9261 23.872 28.7559 24.3491C28.5926 24.8049 28.3452 25.2298 28.0025 25.6162C27.7491 25.9104 27.4665 26.1666 27.156 26.3839C26.8547 26.5949 26.5261 26.7705 26.1729 26.9101C26.1729 27.0382 26.2547 27.1401 26.3362 27.241L26.3829 27.2994C26.6237 27.6244 26.8495 27.9583 27.0644 28.2978C27.2776 28.6339 27.481 28.979 27.6788 29.3273C28.0879 30.0573 28.4536 30.806 28.7612 31.5783C29.0694 32.3516 29.3198 33.1488 29.4965 33.9735L29.5097 34.0335L29.5363 34.1534L29.6329 34.1377L29.6677 33.8618C29.9861 31.6688 30.3364 29.3702 30.6814 27.1057C30.8983 25.681 31.1142 24.2688 31.3117 22.946C31.2535 21.8441 30.8809 20.3404 30.3765 18.8365C29.7988 17.113 29.048 15.3911 28.3987 14.2718C28.2509 14.0355 27.7179 14.2144 27.0262 14.4454C26.2932 14.6909 25.3925 14.992 24.5234 14.9228C23.7239 14.8586 23.0273 14.6466 22.3856 14.3229C21.7472 14.0011 21.1643 13.5686 20.5873 13.0611C20.4299 12.931 20.3494 12.8353 20.3451 12.7324C20.3402 12.6223 20.4174 12.5368 20.5731 12.431L20.5744 12.43C21.0115 12.1472 21.461 11.9005 21.9282 11.6993C22.3971 11.4978 22.8851 11.3415 23.3967 11.2399C25.1526 10.9073 26.1768 11.4627 26.4591 11.6157L26.5757 11.6787L26.5626 11.6636C26.5304 11.622 26.5021 11.5859 26.4883 11.5666C26.4361 11.4994 26.3871 11.4283 26.3382 11.3572C26.2892 11.2871 26.2406 11.2166 26.1883 11.1501L26.1874 11.1485C26.166 11.1206 26.1588 11.0803 26.163 11.0456C26.1673 11.0099 26.1854 10.9722 26.2133 10.9499C26.2357 10.9329 26.2636 10.9165 26.2909 10.905C26.3214 10.8923 26.3543 10.8857 26.3838 10.8896L26.4003 10.8929C26.5429 10.9375 26.6359 11.0351 26.7312 11.1351L26.787 11.1924C26.9116 11.3199 27.0285 11.4467 27.1445 11.5731C27.2622 11.7013 27.3804 11.8294 27.4991 11.9509L27.5165 11.9703C27.5553 12.0122 27.595 12.0558 27.642 12.0663C27.6597 12.0135 27.6535 11.9549 27.6479 11.8969C27.644 11.8599 27.64 11.8218 27.6407 11.7809C27.6394 11.5184 27.6486 11.2566 27.6808 10.9978C27.7136 10.7363 27.7715 10.4768 27.8674 10.2225C28.2193 9.30932 28.7477 8.67529 29.4082 8.20149C30.065 7.73096 30.8487 7.41968 31.7158 7.15067L31.7191 7.15034C31.8275 7.12085 31.9113 7.11987 31.9813 7.1569C32.0526 7.19458 32.0983 7.26404 32.1285 7.37447C32.2938 7.92625 32.4032 8.48262 32.4341 9.04358C32.4657 9.60553 32.4183 10.1721 32.2688 10.7432C32.1758 11.0902 32.0339 11.4028 31.8427 11.6836C31.6517 11.9644 31.4125 12.2121 31.1247 12.4287L31.1237 12.4293C30.8076 12.6613 30.4764 12.8396 30.1271 12.9651C29.7821 13.0892 29.4193 13.1617 29.0365 13.1836C28.6518 13.3091 28.6537 13.3127 28.9048 13.6967C28.9416 13.7521 28.9771 13.8098 29.0119 13.8668C29.0434 13.9179 29.0743 13.969 29.1098 14.0224C29.7206 14.8871 30.2526 15.7869 30.6913 16.7296C31.1306 17.6733 31.4766 18.6608 31.7168 19.6999C31.7211 19.7221 31.723 19.7506 31.7257 19.7739C32.3221 17.5409 32.7578 14.0604 33.1356 11.0446C33.2848 9.85226 33.4255 8.73198 33.5635 7.78339L33.57 7.73227C33.6137 7.38987 33.6311 7.25159 33.6118 7.16509C33.6003 7.11332 33.569 7.06712 33.5181 6.99012C33.4659 6.91246 33.3949 6.80597 33.3029 6.63394L33.2999 6.62772C32.9694 5.88556 32.8025 5.14603 32.8087 4.40878C32.8149 3.67056 32.9957 2.93593 33.3597 2.20426C33.8184 1.29401 34.3373 0.790065 35.0017 0.146206L35.051 0.0977124C35.0736 0.0754313 35.098 0.0567537 35.1233 0.0416812C35.1808 0.00793185 35.2422 -0.00550108 35.302 0.00203519C35.3615 0.00924378 35.418 0.0374215 35.4653 0.084605C35.4857 0.105248 35.5051 0.130152 35.5215 0.158003C35.8494 0.674729 36.1271 1.2098 36.3272 1.7688C36.5283 2.33074 36.6518 2.91824 36.6706 3.53851C36.6883 4.05589 36.6095 4.54444 36.4376 4.99858C36.2641 5.45567 35.9963 5.87835 35.6382 6.26106C35.2163 6.70472 34.913 6.8656 34.6908 6.98324C34.3981 7.13789 34.264 7.20932 34.1743 7.91511C34.0866 8.66153 33.9979 9.41089 33.9118 10.1619C33.824 10.9208 33.7389 11.6754 33.6574 12.4192V12.4205C33.6545 12.4431 33.6486 12.4703 33.6413 12.5031C33.6242 12.5843 33.5966 12.7121 33.5953 12.7803C33.64 12.7265 33.7172 12.6033 33.87 12.4441C34.475 11.8107 35.6132 10.6206 35.9901 10.4024C36.0476 10.3657 36.2237 10.2556 36.3992 10.1658C36.6065 10.0593 36.8211 9.98693 36.9098 10.0774L36.9111 10.0787C36.9601 10.1314 36.9604 10.1825 36.9292 10.2304C37.104 10.1983 37.2808 10.157 37.3511 10.1298L37.3521 10.1288C37.9567 9.90763 38.5622 9.79295 39.1701 9.77755C39.777 9.76248 40.3852 9.84636 40.9941 10.0197C41.5284 10.1439 41.9917 10.3261 42.4001 10.5348C42.8092 10.7445 43.1621 10.9801 43.4766 11.2111C43.6514 11.329 43.7789 11.4339 43.8055 11.5715C43.8328 11.714 43.7493 11.8638 43.4963 12.0525C42.9255 12.4906 42.2444 12.8766 41.5268 13.1463C40.8663 13.395 40.173 13.5463 39.5043 13.5522C38.0217 13.5604 36.9801 12.7386 36.2851 12.1898C35.879 11.87 35.6043 11.6531 35.4837 11.7691C35.4624 11.7907 35.4436 11.814 35.4252 11.8363C35.4049 11.8615 35.3845 11.8864 35.3598 11.9123C34.9859 12.3454 34.6409 12.793 34.3268 13.2606C34.013 13.7288 33.7304 14.2177 33.482 14.7338L33.478 14.741C33.4508 14.7869 33.4199 14.8331 33.389 14.8789C33.3647 14.9153 33.3403 14.9514 33.3183 14.9881L32.785 19.8385C32.7565 20.0914 32.6812 20.5413 32.5902 21.0901C32.3188 22.7203 31.8998 25.238 32.1164 26.0172L32.2041 25.8606C32.255 25.7708 32.3043 25.6846 32.348 25.5929L32.349 25.5906C32.6769 24.9595 33.0423 24.3566 33.4468 23.7835C33.8513 23.2101 34.2962 22.6655 34.7812 22.1501C35.19 21.7111 35.6138 21.2936 36.04 20.8736C36.2247 20.692 36.4097 20.5098 36.594 20.3257L36.4218 20.1311C36.2447 19.9315 36.0653 19.7297 35.9043 19.5229C35.6756 19.229 35.4919 18.9128 35.3539 18.5779C35.2159 18.2421 35.1239 17.8885 35.0796 17.5202C34.8466 15.6535 35.7259 14.3963 36.178 13.7492L36.2158 13.6948C36.3055 13.5683 36.3804 13.4982 36.4691 13.4801C36.5641 13.4602 36.6512 13.4998 36.7613 13.5912L36.7623 13.5925C36.8398 13.6591 36.9167 13.7259 36.984 13.7872C37.0573 13.8534 37.1293 13.9222 37.1976 13.9939C37.5154 14.3236 37.8173 14.6689 38.074 15.0444C38.3326 15.4232 38.5465 15.8334 38.6845 16.2899C38.9043 17.0363 38.7154 17.8194 38.5849 18.3607C38.5304 18.5874 38.4877 18.766 38.4837 18.8568L38.5829 18.7883C39.1212 18.4138 39.6653 18.036 40.2472 17.7172C40.3054 17.6824 40.3685 17.6562 40.427 17.632L40.5118 17.5956L40.5374 17.5989C40.5472 17.5999 40.561 17.6018 40.5785 17.6071H40.5798C40.6011 17.6136 40.6235 17.6244 40.6419 17.6434C40.677 17.6749 40.6984 17.7139 40.704 17.7562C40.7092 17.8007 40.6967 17.845 40.6629 17.8846L40.6586 17.8895C40.5942 17.9557 40.5256 18.0147 40.4585 18.071C40.2147 18.2821 39.9633 18.4852 39.7143 18.691C39.2943 19.0373 38.8711 19.3856 38.4647 19.7316C38.4472 19.7477 38.4288 19.7618 38.4098 19.7752C38.392 19.7883 38.3727 19.8027 38.3641 19.8181L38.4006 19.8149C38.4522 19.8086 38.5054 19.7988 38.5576 19.7877C38.6145 19.7752 38.6651 19.7621 38.7088 19.7497L38.7127 19.7487C40.0567 19.42 41.2613 19.5124 42.296 19.8604C43.5397 20.2788 44.5382 21.0672 45.2408 21.9394C45.3436 22.0331 45.385 22.1255 45.3692 22.2173C45.3538 22.3081 45.2832 22.3844 45.1606 22.4476C44.5701 22.7514 43.9645 23.0057 43.3369 23.1787C42.7087 23.3517 42.0584 23.4424 41.3812 23.4195C40.5072 23.393 39.7396 23.1741 39.086 22.7707C38.4302 22.3654 37.8893 21.775 37.47 21.0049L37.4638 20.9905C37.4575 20.9725 37.4483 20.9558 37.4355 20.9391C37.4253 20.9266 37.4138 20.9135 37.399 20.9011C37.2725 20.9001 37.1828 20.981 37.0807 21.0728L37.0021 21.1419C36.6949 21.4751 36.3942 21.8133 36.1024 22.1573C35.8087 22.5037 35.5258 22.8556 35.257 23.2134C34.568 24.1259 33.7784 25.3055 33.0975 26.509C32.533 27.5078 32.0428 28.5248 31.7454 29.422C31.4888 30.8483 31.3199 32.3745 31.1645 33.8847L50.2655 30.7143L49.7053 41.6448L57.2135 26.9701C57.4261 26.5533 57.849 26.3134 58.288 26.3124L66.0738 26.3115C66.7402 26.3115 67.2807 26.8501 67.2807 27.515C67.2807 28.1791 66.7399 28.7185 66.0738 28.7185H59.0253L49.7099 46.9192L49.3655 57.7842C49.3688 58.0358 49.2932 58.2911 49.1329 58.5093C48.7399 59.0437 47.9864 59.1597 47.4508 58.7678L36.1984 50.493L14.8061 56.5093C14.857 56.8582 14.883 57.2157 14.883 57.5791C14.883 59.6214 14.0497 61.476 12.7028 62.821L12.6986 62.826C11.3497 64.169 9.48957 65 7.44182 65C5.38783 65 3.52737 64.169 2.18017 62.826C0.833623 61.4832 0 59.627 0 57.5791C0 55.5338 0.834937 53.6802 2.18017 52.3371L2.1851 52.3329C3.53198 50.9907 5.39112 50.1588 7.44182 50.1588C9.49549 50.1588 11.3566 50.9904 12.7032 52.3329C13.1073 52.7359 13.4651 53.1848 13.7684 53.672L18.7232 50.8944L0.47645 38.9789L0.477764 38.9773ZM7.44347 55.0643C8.27348 55.0643 9.00852 55.4643 9.46822 56.0807L11.6638 54.8503C11.471 54.5541 11.2482 54.2802 10.9991 54.0318C10.0896 53.1248 8.83207 52.5635 7.44347 52.5635C6.05289 52.5635 4.79408 53.1245 3.88521 54.0295C2.97765 54.9365 2.41511 56.1914 2.41511 57.5778C2.41511 58.9625 2.97798 60.2171 3.88751 61.1234C4.79638 62.0304 6.05486 62.5917 7.44347 62.5917C8.83536 62.5917 10.0932 62.0317 10.9991 61.1283L11.0034 61.1234C11.9099 60.2204 12.4715 58.9658 12.4715 57.5778C12.4715 57.4402 12.4656 57.3042 12.4551 57.1695L9.94631 57.8753C9.79845 59.1227 8.73448 60.0916 7.44347 60.0916C6.05158 60.0916 4.92255 58.9658 4.92255 57.5778C4.92255 56.1898 6.05125 55.0646 7.44347 55.0646V55.0643ZM47.2918 47.372L39.1333 49.667L47.0345 55.4771L47.2918 47.372Z" fill="#1EC996"/>
<path d="M82.6455 42.3963C82.1082 42.3963 81.6717 42.2732 81.3358 42.0269C81.0224 41.7807 80.8321 41.4561 80.765 41.0531C80.6978 40.6277 80.7762 40.1576 81 39.6427L89.8654 19.9979C90.1564 19.3487 90.5034 18.8898 90.9064 18.6211C91.3317 18.3301 91.8131 18.1846 92.3503 18.1846C92.8652 18.1846 93.3242 18.3301 93.7272 18.6211C94.1525 18.8898 94.5107 19.3487 94.8017 19.9979L103.701 39.6427C103.947 40.1576 104.036 40.6277 103.969 41.0531C103.902 41.4785 103.712 41.8143 103.398 42.0605C103.085 42.2844 102.671 42.3963 102.156 42.3963C101.529 42.3963 101.037 42.2508 100.678 41.9598C100.343 41.6464 100.04 41.1762 99.7717 40.5494L97.5889 35.4787L99.4023 36.654H85.2312L87.0446 35.4787L84.8954 40.5494C84.6044 41.1986 84.3021 41.6687 83.9887 41.9598C83.6753 42.2508 83.2276 42.3963 82.6455 42.3963ZM92.2832 23.121L87.5819 34.3034L86.7088 33.2288H97.9248L97.0852 34.3034L92.3503 23.121H92.2832ZM109.548 42.3963C108.854 42.3963 108.317 42.206 107.937 41.8255C107.578 41.4225 107.399 40.874 107.399 40.18V20.7367C107.399 19.9979 107.59 19.4383 107.97 19.0577C108.373 18.6547 108.944 18.4532 109.683 18.4532H125.701C126.44 18.4532 126.999 18.6547 127.38 19.0577C127.783 19.4383 127.984 19.9979 127.984 20.7367V40.18C127.984 40.874 127.794 41.4225 127.413 41.8255C127.055 42.206 126.529 42.3963 125.835 42.3963C125.141 42.3963 124.604 42.206 124.223 41.8255C123.865 41.4225 123.686 40.874 123.686 40.18V22.0464H111.698V40.18C111.698 40.874 111.519 41.4225 111.16 41.8255C110.802 42.206 110.265 42.3963 109.548 42.3963ZM135.259 42.3963C134.565 42.3963 134.027 42.206 133.647 41.8255C133.289 41.4225 133.11 40.874 133.11 40.18V20.636C133.11 19.9196 133.3 19.3823 133.68 19.0241C134.061 18.6435 134.598 18.4532 135.292 18.4532H143.385C145.982 18.4532 147.986 19.1025 149.396 20.4009C150.807 21.6994 151.512 23.5127 151.512 25.841C151.512 28.1693 150.807 29.9938 149.396 31.3147C147.986 32.6131 145.982 33.2624 143.385 33.2624H137.408V40.18C137.408 40.874 137.229 41.4225 136.871 41.8255C136.512 42.206 135.975 42.3963 135.259 42.3963ZM137.408 29.8707H142.714C144.236 29.8707 145.389 29.5349 146.172 28.8633C146.956 28.1693 147.348 27.1618 147.348 25.841C147.348 24.5202 146.956 23.5239 146.172 22.8523C145.389 22.1807 144.236 21.8449 142.714 21.8449H137.408V29.8707ZM157.299 42.1277C156.56 42.1277 155.99 41.9374 155.587 41.5568C155.206 41.1538 155.016 40.583 155.016 39.8442V20.7367C155.016 19.9979 155.206 19.4383 155.587 19.0577C155.99 18.6547 156.56 18.4532 157.299 18.4532H169.288C169.847 18.4532 170.273 18.5987 170.564 18.8898C170.877 19.1808 171.034 19.595 171.034 20.1323C171.034 20.6919 170.877 21.1285 170.564 21.4419C170.273 21.7329 169.847 21.8785 169.288 21.8785H159.146V28.3931H168.549C169.131 28.3931 169.567 28.5387 169.858 28.8297C170.15 29.1207 170.295 29.5461 170.295 30.1058C170.295 30.6654 170.15 31.0908 169.858 31.3818C169.567 31.6729 169.131 31.8184 168.549 31.8184H159.146V38.7024H169.288C169.847 38.7024 170.273 38.848 170.564 39.139C170.877 39.43 171.034 39.8554 171.034 40.4151C171.034 40.9747 170.877 41.4001 170.564 41.6911C170.273 41.9822 169.847 42.1277 169.288 42.1277H157.299ZM192.985 42.3963C192.291 42.3963 191.754 42.206 191.373 41.8255C191.015 41.4225 190.836 40.874 190.836 40.18V22.0464H182.373V26.7477C182.373 28.7849 182.239 30.5983 181.97 32.1878C181.702 33.7773 181.31 35.1877 180.795 36.419C180.303 37.6502 179.676 38.7248 178.915 39.6427C178.176 40.5606 177.325 41.3553 176.362 42.0269C175.87 42.3851 175.366 42.5083 174.851 42.3963C174.336 42.3068 173.889 42.0157 173.508 41.5232C173.15 41.0083 173.027 40.5046 173.139 40.0121C173.273 39.5196 173.598 39.0942 174.112 38.736C174.829 38.2435 175.456 37.6391 175.993 36.9227C176.53 36.2063 176.978 35.3332 177.336 34.3034C177.694 33.2735 177.963 32.0534 178.142 30.6431C178.321 29.2103 178.411 27.5424 178.411 25.6395V20.7367C178.411 19.9979 178.601 19.4383 178.982 19.0577C179.385 18.6547 179.956 18.4532 180.694 18.4532H192.851C193.589 18.4532 194.149 18.6547 194.53 19.0577C194.933 19.4383 195.134 19.9979 195.134 20.7367V40.18C195.134 40.874 194.944 41.4225 194.563 41.8255C194.205 42.206 193.679 42.3963 192.985 42.3963ZM202.587 42.1277C201.849 42.1277 201.278 41.9374 200.875 41.5568C200.494 41.1538 200.304 40.583 200.304 39.8442V20.4009C200.304 19.6845 200.483 19.136 200.841 18.7555C201.222 18.3749 201.759 18.1846 202.453 18.1846C203.147 18.1846 203.673 18.3749 204.031 18.7555C204.412 19.136 204.602 19.6845 204.602 20.4009V28.326H211.016C212.695 28.326 214.139 28.5946 215.348 29.1319C216.557 29.6468 217.475 30.4192 218.102 31.449C218.751 32.4564 219.076 33.7101 219.076 35.21C219.076 37.4488 218.359 39.1614 216.926 40.3479C215.516 41.5344 213.546 42.1277 211.016 42.1277H202.587ZM204.602 38.7024H210.479C212.001 38.7024 213.121 38.4226 213.837 37.8629C214.553 37.2809 214.912 36.3966 214.912 35.21C214.912 34.0235 214.553 33.1504 213.837 32.5907C213.121 32.0311 212.001 31.7512 210.479 31.7512H204.602V38.7024Z" fill="#2D4A45"/>
<path d="M85.0247 57.2727C84.8575 57.2727 84.7282 57.2271 84.637 57.1359C84.5458 57.0446 84.5001 56.9116 84.5001 56.7367V52.4718H82.3791V53.156C82.3791 53.7338 82.3487 54.247 82.2879 54.6955C82.227 55.1364 82.132 55.5204 82.0028 55.8473C81.8811 56.1742 81.7177 56.4478 81.5124 56.6683C81.3148 56.8888 81.0677 57.0674 80.7712 57.2043C80.6572 57.2575 80.5507 57.2727 80.4519 57.2499C80.3531 57.2347 80.2694 57.1929 80.201 57.1245C80.1402 57.056 80.0984 56.9762 80.0756 56.885C80.0604 56.7937 80.0718 56.7025 80.1098 56.6113C80.1478 56.5201 80.2238 56.444 80.3379 56.3832C80.5507 56.2616 80.7256 56.1133 80.8624 55.9385C80.9993 55.756 81.1057 55.5356 81.1817 55.2771C81.2654 55.0186 81.3224 54.7145 81.3528 54.3648C81.3908 54.0151 81.4098 53.6046 81.4098 53.1332V52.2323C81.4098 52.0423 81.4592 51.8978 81.558 51.799C81.6645 51.6926 81.8127 51.6394 82.0028 51.6394H84.9563C85.1463 51.6394 85.2908 51.6926 85.3896 51.799C85.4885 51.8978 85.5379 52.0423 85.5379 52.2323V56.7367C85.5379 56.9116 85.4923 57.0446 85.401 57.1359C85.3098 57.2271 85.1844 57.2727 85.0247 57.2727ZM89.0855 57.2955C88.7054 57.2955 88.3595 57.2195 88.0478 57.0674C87.7437 56.9154 87.5042 56.7101 87.3294 56.4516C87.1621 56.1932 87.0785 55.9043 87.0785 55.585C87.0785 55.1744 87.1811 54.8514 87.3864 54.6157C87.5917 54.38 87.9376 54.2128 88.4241 54.1139C88.9107 54.0075 89.5645 53.9543 90.3855 53.9543H90.9215V54.6157H90.4083C89.8229 54.6157 89.3592 54.6423 89.0171 54.6955C88.6826 54.7487 88.4469 54.8437 88.3101 54.9806C88.1732 55.1098 88.1048 55.2923 88.1048 55.528C88.1048 55.8244 88.2074 56.0677 88.4127 56.2578C88.6256 56.4478 88.9145 56.5429 89.2794 56.5429C89.5683 56.5429 89.8229 56.4744 90.0434 56.3376C90.2639 56.1932 90.4387 56.0031 90.568 55.7674C90.6972 55.5242 90.7618 55.2467 90.7618 54.935V53.6236C90.7618 53.175 90.6706 52.8519 90.4881 52.6543C90.3057 52.449 89.9978 52.3464 89.5645 52.3464C89.3136 52.3464 89.0551 52.3806 88.789 52.449C88.5229 52.5174 88.2455 52.6239 87.9566 52.7683C87.8425 52.8215 87.7437 52.8405 87.6601 52.8253C87.5765 52.8025 87.508 52.7569 87.4548 52.6885C87.4092 52.6125 87.3826 52.5326 87.375 52.449C87.375 52.3578 87.394 52.2704 87.432 52.1867C87.4776 52.1031 87.5536 52.0423 87.6601 52.0043C87.9946 51.837 88.3253 51.7192 88.6522 51.6508C88.9867 51.5747 89.2984 51.5367 89.5873 51.5367C90.0814 51.5367 90.4881 51.6166 90.8074 51.7762C91.1267 51.9283 91.3662 52.1677 91.5259 52.4946C91.6855 52.8139 91.7653 53.2244 91.7653 53.7262V56.7367C91.7653 56.9116 91.7235 57.0446 91.6399 57.1359C91.5563 57.2271 91.4346 57.2727 91.275 57.2727C91.1229 57.2727 91.0013 57.2271 90.9101 57.1359C90.8265 57.0446 90.7846 56.9116 90.7846 56.7367V55.9271H90.8873C90.8265 56.2084 90.7124 56.4516 90.5452 56.6569C90.3779 56.8622 90.1688 57.0218 89.918 57.1359C89.6747 57.2423 89.3972 57.2955 89.0855 57.2955ZM94.0454 57.2727C93.8782 57.2727 93.7489 57.2271 93.6577 57.1359C93.5665 57.0446 93.5209 56.9116 93.5209 56.7367V52.0841C93.5209 51.9092 93.5665 51.78 93.6577 51.6964C93.7489 51.6052 93.8782 51.5595 94.0454 51.5595C94.2127 51.5595 94.3381 51.6052 94.4217 51.6964C94.513 51.78 94.5586 51.9092 94.5586 52.0841V53.9201H97.4551V52.0841C97.4551 51.9092 97.4969 51.78 97.5805 51.6964C97.6717 51.6052 97.801 51.5595 97.9682 51.5595C98.1355 51.5595 98.2647 51.6052 98.3559 51.6964C98.4472 51.78 98.4928 51.9092 98.4928 52.0841V56.7367C98.4928 56.9116 98.4472 57.0446 98.3559 57.1359C98.2647 57.2271 98.1355 57.2727 97.9682 57.2727C97.801 57.2727 97.6717 57.2271 97.5805 57.1359C97.4969 57.0446 97.4551 56.9116 97.4551 56.7367V54.7525H94.5586V56.7367C94.5586 56.9116 94.5168 57.0446 94.4331 57.1359C94.3495 57.2271 94.2203 57.2727 94.0454 57.2727ZM100.133 58.7552C99.9957 58.7552 99.8855 58.7133 99.8019 58.6297C99.7182 58.5461 99.6764 58.4283 99.6764 58.2762V56.8736C99.6764 56.5315 99.8475 56.3604 100.19 56.3604H100.76L100.133 56.5771C100.345 56.311 100.513 56.0221 100.634 55.7104C100.756 55.3911 100.843 55.0338 100.897 54.6385C100.957 54.2356 100.988 53.7794 100.988 53.2701V52.2323C100.988 52.0423 101.037 51.8978 101.136 51.799C101.243 51.6926 101.391 51.6394 101.581 51.6394H104.42C104.61 51.6394 104.755 51.6926 104.854 51.799C104.96 51.8978 105.013 52.0423 105.013 52.2323V56.8394L104.534 56.3604H105.39C105.557 56.3604 105.682 56.406 105.766 56.4973C105.857 56.5809 105.903 56.7063 105.903 56.8736V58.2762C105.903 58.5955 105.755 58.7552 105.458 58.7552C105.306 58.7552 105.192 58.7133 105.116 58.6297C105.04 58.5461 105.002 58.4283 105.002 58.2762V57.1929H100.577V58.2762C100.577 58.5955 100.429 58.7552 100.133 58.7552ZM101.262 56.3604H104.033V52.449H101.9V53.4639C101.9 54.0113 101.843 54.5435 101.729 55.0604C101.623 55.5698 101.467 56.0031 101.262 56.3604ZM107.621 57.1929C107.446 57.1929 107.313 57.1473 107.222 57.056C107.13 56.9648 107.085 56.8318 107.085 56.6569V52.0841C107.085 51.9092 107.127 51.78 107.21 51.6964C107.301 51.6052 107.423 51.5595 107.575 51.5595C107.742 51.5595 107.868 51.6052 107.951 51.6964C108.035 51.78 108.077 51.9092 108.077 52.0841V56.3604H110.301V52.0841C110.301 51.9092 110.342 51.78 110.426 51.6964C110.517 51.6052 110.639 51.5595 110.791 51.5595C110.958 51.5595 111.084 51.6052 111.167 51.6964C111.251 51.78 111.293 51.9092 111.293 52.0841V56.3604H113.516V52.0841C113.516 51.9092 113.558 51.78 113.642 51.6964C113.733 51.6052 113.855 51.5595 114.007 51.5595C114.166 51.5595 114.288 51.6052 114.372 51.6964C114.463 51.78 114.508 51.9092 114.508 52.0841V56.6569C114.508 56.8318 114.459 56.9648 114.36 57.056C114.269 57.1473 114.14 57.1929 113.973 57.1929H107.621ZM118.051 57.2955C117.671 57.2955 117.325 57.2195 117.013 57.0674C116.709 56.9154 116.47 56.7101 116.295 56.4516C116.127 56.1932 116.044 55.9043 116.044 55.585C116.044 55.1744 116.146 54.8514 116.352 54.6157C116.557 54.38 116.903 54.2128 117.389 54.1139C117.876 54.0075 118.53 53.9543 119.351 53.9543H119.887V54.6157H119.374C118.788 54.6157 118.325 54.6423 117.982 54.6955C117.648 54.7487 117.412 54.8437 117.275 54.9806C117.139 55.1098 117.07 55.2923 117.07 55.528C117.07 55.8244 117.173 56.0677 117.378 56.2578C117.591 56.4478 117.88 56.5429 118.245 56.5429C118.534 56.5429 118.788 56.4744 119.009 56.3376C119.229 56.1932 119.404 56.0031 119.533 55.7674C119.663 55.5242 119.727 55.2467 119.727 54.935V53.6236C119.727 53.175 119.636 52.8519 119.454 52.6543C119.271 52.449 118.963 52.3464 118.53 52.3464C118.279 52.3464 118.02 52.3806 117.754 52.449C117.488 52.5174 117.211 52.6239 116.922 52.7683C116.808 52.8215 116.709 52.8405 116.625 52.8253C116.542 52.8025 116.473 52.7569 116.42 52.6885C116.375 52.6125 116.348 52.5326 116.34 52.449C116.34 52.3578 116.359 52.2704 116.397 52.1867C116.443 52.1031 116.519 52.0423 116.625 52.0043C116.96 51.837 117.291 51.7192 117.618 51.6508C117.952 51.5747 118.264 51.5367 118.553 51.5367C119.047 51.5367 119.454 51.6166 119.773 51.7762C120.092 51.9283 120.332 52.1677 120.491 52.4946C120.651 52.8139 120.731 53.2244 120.731 53.7262V56.7367C120.731 56.9116 120.689 57.0446 120.605 57.1359C120.522 57.2271 120.4 57.2727 120.24 57.2727C120.088 57.2727 119.967 57.2271 119.875 57.1359C119.792 57.0446 119.75 56.9116 119.75 56.7367V55.9271H119.853C119.792 56.2084 119.678 56.4516 119.511 56.6569C119.343 56.8622 119.134 57.0218 118.883 57.1359C118.64 57.2423 118.363 57.2955 118.051 57.2955ZM126.181 59.3253C126.014 59.3253 125.884 59.2759 125.793 59.1771C125.71 59.0859 125.668 58.9528 125.668 58.778V56.0069H125.782C125.66 56.4174 125.463 56.7367 125.189 56.9648C124.923 57.1853 124.588 57.2955 124.185 57.2955C123.782 57.2955 123.429 57.1777 123.125 56.942C122.821 56.7063 122.585 56.3718 122.418 55.9385C122.251 55.5052 122.167 54.9958 122.167 54.4104C122.167 53.825 122.251 53.3157 122.418 52.8823C122.585 52.449 122.821 52.1183 123.125 51.8902C123.429 51.6546 123.782 51.5367 124.185 51.5367C124.588 51.5367 124.927 51.6508 125.2 51.8788C125.474 52.0993 125.668 52.4148 125.782 52.8253H125.668V49.6209C125.668 49.4385 125.71 49.3016 125.793 49.2104C125.884 49.1192 126.014 49.0736 126.181 49.0736C126.348 49.0736 126.477 49.1192 126.569 49.2104C126.66 49.3016 126.706 49.4385 126.706 49.6209V52.8253H126.591C126.698 52.4148 126.888 52.0993 127.162 51.8788C127.443 51.6508 127.781 51.5367 128.177 51.5367C128.579 51.5367 128.933 51.6546 129.237 51.8902C129.549 52.1183 129.788 52.449 129.956 52.8823C130.123 53.3157 130.206 53.825 130.206 54.4104C130.206 54.9958 130.123 55.5052 129.956 55.9385C129.788 56.3718 129.553 56.7063 129.248 56.942C128.944 57.1777 128.587 57.2955 128.177 57.2955C127.781 57.2955 127.447 57.1853 127.173 56.9648C126.907 56.7367 126.713 56.4174 126.591 56.0069H126.706V58.778C126.706 58.9528 126.66 59.0859 126.569 59.1771C126.485 59.2759 126.356 59.3253 126.181 59.3253ZM124.448 56.4859C124.706 56.4859 124.927 56.4098 125.109 56.2578C125.291 56.0981 125.432 55.8663 125.531 55.5622C125.637 55.2505 125.691 54.8666 125.691 54.4104C125.691 53.7338 125.577 53.2206 125.348 52.8709C125.128 52.5212 124.828 52.3464 124.448 52.3464C124.197 52.3464 123.976 52.4262 123.786 52.5859C123.604 52.7379 123.459 52.9698 123.353 53.2815C123.254 53.5856 123.205 53.9619 123.205 54.4104C123.205 54.8666 123.254 55.2505 123.353 55.5622C123.452 55.8663 123.592 56.0981 123.775 56.2578C123.965 56.4098 124.189 56.4859 124.448 56.4859ZM127.914 56.4859C128.173 56.4859 128.393 56.4098 128.576 56.2578C128.766 56.0981 128.91 55.8663 129.009 55.5622C129.115 55.2505 129.169 54.8666 129.169 54.4104C129.169 53.9619 129.115 53.5856 129.009 53.2815C128.91 52.9698 128.766 52.7379 128.576 52.5859C128.393 52.4262 128.173 52.3464 127.914 52.3464C127.663 52.3464 127.447 52.4262 127.264 52.5859C127.082 52.7379 126.937 52.9698 126.831 53.2815C126.732 53.5856 126.683 53.9619 126.683 54.4104C126.683 55.1022 126.793 55.623 127.013 55.9727C127.234 56.3148 127.534 56.4859 127.914 56.4859ZM133.339 57.2727C133.172 57.2727 133.043 57.2271 132.951 57.1359C132.86 57.0446 132.814 56.9116 132.814 56.7367V52.4718H131.195C130.891 52.4718 130.739 52.3312 130.739 52.0499C130.739 51.9206 130.781 51.8218 130.864 51.7534C130.948 51.6774 131.058 51.6394 131.195 51.6394H135.46C135.772 51.6394 135.928 51.7762 135.928 52.0499C135.928 52.1867 135.886 52.2932 135.802 52.3692C135.726 52.4376 135.612 52.4718 135.46 52.4718H133.852V56.7367C133.852 56.9116 133.807 57.0446 133.715 57.1359C133.632 57.2271 133.506 57.2727 133.339 57.2727ZM137.31 57.2727C137.142 57.2727 137.013 57.2271 136.922 57.1359C136.831 57.0446 136.785 56.9116 136.785 56.7367V52.0841C136.785 51.9092 136.831 51.78 136.922 51.6964C137.013 51.6052 137.142 51.5595 137.31 51.5595C137.477 51.5595 137.602 51.6052 137.686 51.6964C137.777 51.78 137.823 51.9092 137.823 52.0841V53.9201H140.719V52.0841C140.719 51.9092 140.761 51.78 140.845 51.6964C140.936 51.6052 141.065 51.5595 141.233 51.5595C141.4 51.5595 141.529 51.6052 141.62 51.6964C141.711 51.78 141.757 51.9092 141.757 52.0841V56.7367C141.757 56.9116 141.711 57.0446 141.62 57.1359C141.529 57.2271 141.4 57.2727 141.233 57.2727C141.065 57.2727 140.936 57.2271 140.845 57.1359C140.761 57.0446 140.719 56.9116 140.719 56.7367V54.7525H137.823V56.7367C137.823 56.9116 137.781 57.0446 137.697 57.1359C137.614 57.2271 137.485 57.2727 137.31 57.2727ZM145.301 57.2955C144.921 57.2955 144.575 57.2195 144.264 57.0674C143.959 56.9154 143.72 56.7101 143.545 56.4516C143.378 56.1932 143.294 55.9043 143.294 55.585C143.294 55.1744 143.397 54.8514 143.602 54.6157C143.807 54.38 144.153 54.2128 144.64 54.1139C145.126 54.0075 145.78 53.9543 146.601 53.9543H147.137V54.6157H146.624C146.039 54.6157 145.575 54.6423 145.233 54.6955C144.898 54.7487 144.663 54.8437 144.526 54.9806C144.389 55.1098 144.321 55.2923 144.321 55.528C144.321 55.8244 144.423 56.0677 144.628 56.2578C144.841 56.4478 145.13 56.5429 145.495 56.5429C145.784 56.5429 146.039 56.4744 146.259 56.3376C146.48 56.1932 146.654 56.0031 146.784 55.7674C146.913 55.5242 146.978 55.2467 146.978 54.935V53.6236C146.978 53.175 146.886 52.8519 146.704 52.6543C146.521 52.449 146.214 52.3464 145.78 52.3464C145.529 52.3464 145.271 52.3806 145.005 52.449C144.739 52.5174 144.461 52.6239 144.172 52.7683C144.058 52.8215 143.959 52.8405 143.876 52.8253C143.792 52.8025 143.724 52.7569 143.671 52.6885C143.625 52.6125 143.598 52.5326 143.591 52.449C143.591 52.3578 143.61 52.2704 143.648 52.1867C143.693 52.1031 143.769 52.0423 143.876 52.0043C144.21 51.837 144.541 51.7192 144.868 51.6508C145.202 51.5747 145.514 51.5367 145.803 51.5367C146.297 51.5367 146.704 51.6166 147.023 51.7762C147.342 51.9283 147.582 52.1677 147.742 52.4946C147.901 52.8139 147.981 53.2244 147.981 53.7262V56.7367C147.981 56.9116 147.939 57.0446 147.856 57.1359C147.772 57.2271 147.65 57.2727 147.491 57.2727C147.339 57.2727 147.217 57.2271 147.126 57.1359C147.042 57.0446 147 56.9116 147 56.7367V55.9271H147.103C147.042 56.2084 146.928 56.4516 146.761 56.6569C146.594 56.8622 146.385 57.0218 146.134 57.1359C145.89 57.2423 145.613 57.2955 145.301 57.2955ZM153.671 57.2727C153.519 57.2727 153.401 57.2309 153.317 57.1473C153.234 57.056 153.192 56.9306 153.192 56.7709V55.1174H152.428C152.147 55.1174 151.903 55.1897 151.698 55.3341C151.493 55.4785 151.329 55.661 151.208 55.8815L150.58 56.9762C150.504 57.1054 150.413 57.1891 150.307 57.2271C150.208 57.2727 150.105 57.2803 149.999 57.2499C149.9 57.2271 149.813 57.1777 149.737 57.1016C149.661 57.0256 149.611 56.9344 149.588 56.828C149.573 56.7215 149.604 56.6113 149.68 56.4973L150.17 55.642C150.299 55.4291 150.47 55.2467 150.683 55.0946C150.896 54.9426 151.116 54.8666 151.344 54.8666H151.504V54.9692C150.881 54.9692 150.394 54.8247 150.044 54.5359C149.695 54.247 149.52 53.844 149.52 53.3271C149.52 52.985 149.596 52.6885 149.748 52.4376C149.908 52.1791 150.14 51.9815 150.444 51.8446C150.748 51.7078 151.128 51.6394 151.584 51.6394H153.625C153.792 51.6394 153.922 51.685 154.013 51.7762C154.112 51.8674 154.161 52.0005 154.161 52.1753V56.7709C154.161 56.9306 154.116 57.056 154.024 57.1473C153.941 57.2309 153.823 57.2727 153.671 57.2727ZM151.789 54.399H153.192V52.3578H151.789C151.356 52.3578 151.037 52.449 150.831 52.6315C150.626 52.8063 150.523 53.0534 150.523 53.3727C150.523 53.692 150.626 53.9429 150.831 54.1253C151.037 54.3078 151.356 54.399 151.789 54.399ZM159.369 57.2727C159.225 57.2727 159.111 57.2309 159.027 57.1473C158.951 57.056 158.913 56.9306 158.913 56.7709V52.1183C158.913 51.9967 158.928 51.894 158.958 51.8104C158.996 51.7268 159.05 51.666 159.118 51.628C159.187 51.5823 159.274 51.5595 159.38 51.5595C159.479 51.5595 159.563 51.5785 159.631 51.6166C159.7 51.647 159.757 51.6888 159.802 51.742C159.856 51.7952 159.901 51.8598 159.939 51.9359L161.821 55.2543L163.691 51.9359C163.737 51.8522 163.782 51.7838 163.828 51.7306C163.873 51.6774 163.93 51.6356 163.999 51.6052C164.067 51.5747 164.151 51.5595 164.25 51.5595C164.409 51.5595 164.527 51.609 164.603 51.7078C164.679 51.799 164.717 51.9359 164.717 52.1183V56.7709C164.717 56.9306 164.675 57.056 164.592 57.1473C164.516 57.2309 164.406 57.2727 164.261 57.2727C164.117 57.2727 164.003 57.2309 163.919 57.1473C163.835 57.056 163.794 56.9306 163.794 56.7709V52.8367H164.056L162.186 56.1095C162.148 56.1704 162.102 56.2274 162.049 56.2806C161.996 56.3262 161.92 56.349 161.821 56.349C161.714 56.349 161.634 56.3262 161.581 56.2806C161.536 56.2274 161.494 56.1704 161.456 56.1095L159.574 52.8367H159.825V56.7709C159.825 56.9306 159.787 57.056 159.711 57.1473C159.635 57.2309 159.521 57.2727 159.369 57.2727ZM168.264 57.2955C167.884 57.2955 167.538 57.2195 167.226 57.0674C166.922 56.9154 166.683 56.7101 166.508 56.4516C166.341 56.1932 166.257 55.9043 166.257 55.585C166.257 55.1744 166.36 54.8514 166.565 54.6157C166.77 54.38 167.116 54.2128 167.603 54.1139C168.089 54.0075 168.743 53.9543 169.564 53.9543H170.1V54.6157H169.587C169.002 54.6157 168.538 54.6423 168.196 54.6955C167.861 54.7487 167.626 54.8437 167.489 54.9806C167.352 55.1098 167.283 55.2923 167.283 55.528C167.283 55.8244 167.386 56.0677 167.591 56.2578C167.804 56.4478 168.093 56.5429 168.458 56.5429C168.747 56.5429 169.002 56.4744 169.222 56.3376C169.443 56.1932 169.617 56.0031 169.747 55.7674C169.876 55.5242 169.94 55.2467 169.94 54.935V53.6236C169.94 53.175 169.849 52.8519 169.667 52.6543C169.484 52.449 169.176 52.3464 168.743 52.3464C168.492 52.3464 168.234 52.3806 167.968 52.449C167.702 52.5174 167.424 52.6239 167.135 52.7683C167.021 52.8215 166.922 52.8405 166.839 52.8253C166.755 52.8025 166.687 52.7569 166.633 52.6885C166.588 52.6125 166.561 52.5326 166.554 52.449C166.554 52.3578 166.573 52.2704 166.611 52.1867C166.656 52.1031 166.732 52.0423 166.839 52.0043C167.173 51.837 167.504 51.7192 167.831 51.6508C168.165 51.5747 168.477 51.5367 168.766 51.5367C169.26 51.5367 169.667 51.6166 169.986 51.7762C170.305 51.9283 170.545 52.1677 170.705 52.4946C170.864 52.8139 170.944 53.2244 170.944 53.7262V56.7367C170.944 56.9116 170.902 57.0446 170.819 57.1359C170.735 57.2271 170.613 57.2727 170.454 57.2727C170.302 57.2727 170.18 57.2271 170.089 57.1359C170.005 57.0446 169.963 56.9116 169.963 56.7367V55.9271H170.066C170.005 56.2084 169.891 56.4516 169.724 56.6569C169.557 56.8622 169.348 57.0218 169.097 57.1359C168.853 57.2423 168.576 57.2955 168.264 57.2955ZM175.106 57.2955C174.543 57.2955 174.057 57.1777 173.646 56.942C173.235 56.6987 172.92 56.3604 172.7 55.9271C172.479 55.4861 172.369 54.9692 172.369 54.3762C172.369 53.9353 172.43 53.5399 172.551 53.1902C172.681 52.8405 172.863 52.544 173.099 52.3008C173.334 52.0499 173.619 51.8598 173.954 51.7306C174.296 51.6014 174.68 51.5367 175.106 51.5367C175.372 51.5367 175.653 51.5785 175.95 51.6622C176.246 51.7458 176.52 51.8826 176.771 52.0727C176.854 52.1335 176.907 52.2057 176.93 52.2894C176.953 52.3654 176.953 52.4452 176.93 52.5288C176.915 52.6125 176.877 52.6847 176.816 52.7455C176.763 52.7987 176.691 52.8291 176.6 52.8367C176.516 52.8443 176.425 52.8177 176.326 52.7569C176.143 52.6201 175.95 52.5212 175.744 52.4604C175.547 52.3996 175.357 52.3692 175.174 52.3692C174.893 52.3692 174.642 52.4148 174.421 52.506C174.209 52.5973 174.026 52.7303 173.874 52.9052C173.73 53.0724 173.619 53.2815 173.543 53.5323C173.467 53.7756 173.429 54.0607 173.429 54.3876C173.429 55.0338 173.581 55.5432 173.885 55.9157C174.19 56.2806 174.619 56.463 175.174 56.463C175.357 56.463 175.547 56.4364 175.744 56.3832C175.942 56.3224 176.136 56.2236 176.326 56.0867C176.425 56.0259 176.516 56.0031 176.6 56.0183C176.683 56.0259 176.752 56.0601 176.805 56.1209C176.866 56.1742 176.904 56.2426 176.919 56.3262C176.934 56.4022 176.926 56.4821 176.896 56.5657C176.873 56.6493 176.82 56.7177 176.736 56.7709C176.493 56.9534 176.227 57.0864 175.938 57.1701C175.649 57.2537 175.372 57.2955 175.106 57.2955ZM179.811 57.2727C179.643 57.2727 179.514 57.2271 179.423 57.1359C179.332 57.0446 179.286 56.9116 179.286 56.7367V52.4718H177.667C177.363 52.4718 177.211 52.3312 177.211 52.0499C177.211 51.9206 177.252 51.8218 177.336 51.7534C177.42 51.6774 177.53 51.6394 177.667 51.6394H181.932C182.243 51.6394 182.399 51.7762 182.399 52.0499C182.399 52.1867 182.357 52.2932 182.274 52.3692C182.198 52.4376 182.084 52.4718 181.932 52.4718H180.324V56.7367C180.324 56.9116 180.278 57.0446 180.187 57.1359C180.103 57.2271 179.978 57.2727 179.811 57.2727ZM185.789 57.2955C185.188 57.2955 184.672 57.1815 184.238 56.9534C183.812 56.7177 183.482 56.387 183.246 55.9613C183.01 55.528 182.893 55.0186 182.893 54.4332C182.893 53.8554 183.007 53.3499 183.235 52.9166C183.47 52.4832 183.79 52.1449 184.193 51.9016C184.603 51.6584 185.071 51.5367 185.595 51.5367C185.968 51.5367 186.302 51.6014 186.599 51.7306C186.903 51.8522 187.161 52.0309 187.374 52.2666C187.587 52.5022 187.747 52.7911 187.853 53.1332C187.967 53.4677 188.024 53.8478 188.024 54.2736C188.024 54.3952 187.986 54.4902 187.91 54.5587C187.842 54.6195 187.739 54.6499 187.602 54.6499H183.702V53.9885H187.34L187.146 54.1481C187.146 53.7528 187.085 53.4183 186.964 53.1446C186.85 52.8633 186.679 52.6505 186.45 52.506C186.23 52.3616 185.952 52.2894 185.618 52.2894C185.253 52.2894 184.941 52.3768 184.683 52.5516C184.424 52.7189 184.227 52.9584 184.09 53.2701C183.953 53.5742 183.885 53.9277 183.885 54.3306V54.399C183.885 55.0832 184.048 55.6002 184.375 55.9499C184.702 56.2996 185.173 56.4745 185.789 56.4745C186.032 56.4745 186.279 56.444 186.53 56.3832C186.789 56.3224 187.036 56.2122 187.272 56.0525C187.386 55.9841 187.488 55.9537 187.579 55.9613C187.678 55.9613 187.758 55.9917 187.819 56.0525C187.88 56.1057 187.918 56.1742 187.933 56.2578C187.948 56.3338 187.937 56.4174 187.899 56.5087C187.861 56.5999 187.788 56.6797 187.682 56.7481C187.431 56.923 187.131 57.0598 186.781 57.1587C186.439 57.2499 186.108 57.2955 185.789 57.2955ZM189.95 59.3253C189.791 59.3253 189.665 59.2797 189.574 59.1885C189.483 59.0973 189.437 58.968 189.437 58.8008V52.0841C189.437 51.9092 189.483 51.78 189.574 51.6964C189.665 51.6052 189.791 51.5595 189.95 51.5595C190.118 51.5595 190.243 51.6052 190.327 51.6964C190.418 51.78 190.464 51.9092 190.464 52.0841V53.1218L190.338 52.9166C190.46 52.4984 190.699 52.1639 191.057 51.913C191.414 51.6622 191.843 51.5367 192.345 51.5367C192.839 51.5367 193.269 51.6546 193.634 51.8902C193.999 52.1183 194.284 52.449 194.489 52.8823C194.694 53.3081 194.797 53.8174 194.797 54.4104C194.797 54.9958 194.694 55.509 194.489 55.9499C194.291 56.3832 194.006 56.7177 193.634 56.9534C193.269 57.1815 192.839 57.2955 192.345 57.2955C191.851 57.2955 191.425 57.1701 191.068 56.9192C190.711 56.6683 190.471 56.3376 190.35 55.9271H190.475V58.8008C190.475 58.968 190.429 59.0973 190.338 59.1885C190.247 59.2797 190.118 59.3253 189.95 59.3253ZM192.106 56.4745C192.433 56.4745 192.718 56.3946 192.961 56.235C193.212 56.0753 193.406 55.8435 193.543 55.5394C193.679 55.2353 193.748 54.859 193.748 54.4104C193.748 53.7414 193.6 53.2321 193.303 52.8823C193.007 52.5326 192.607 52.3578 192.106 52.3578C191.771 52.3578 191.479 52.4376 191.228 52.5973C190.984 52.7493 190.794 52.9774 190.657 53.2815C190.528 53.5856 190.464 53.9619 190.464 54.4104C190.464 55.0794 190.612 55.5926 190.908 55.9499C191.205 56.2996 191.604 56.4745 192.106 56.4745ZM198.659 57.2955C198.096 57.2955 197.61 57.1777 197.199 56.942C196.789 56.6987 196.473 56.3604 196.253 55.9271C196.032 55.4861 195.922 54.9692 195.922 54.3762C195.922 53.9353 195.983 53.5399 196.104 53.1902C196.234 52.8405 196.416 52.544 196.652 52.3008C196.887 52.0499 197.173 51.8598 197.507 51.7306C197.849 51.6014 198.233 51.5367 198.659 51.5367C198.925 51.5367 199.206 51.5785 199.503 51.6622C199.799 51.7458 200.073 51.8826 200.324 52.0727C200.407 52.1335 200.461 52.2057 200.483 52.2894C200.506 52.3654 200.506 52.4452 200.483 52.5288C200.468 52.6125 200.43 52.6847 200.369 52.7455C200.316 52.7987 200.244 52.8291 200.153 52.8367C200.069 52.8443 199.978 52.8177 199.879 52.7569C199.697 52.6201 199.503 52.5212 199.297 52.4604C199.1 52.3996 198.91 52.3692 198.727 52.3692C198.446 52.3692 198.195 52.4148 197.975 52.506C197.762 52.5973 197.579 52.7303 197.427 52.9052C197.283 53.0724 197.173 53.2815 197.097 53.5323C197.02 53.7756 196.982 54.0607 196.982 54.3876C196.982 55.0338 197.135 55.5432 197.439 55.9157C197.743 56.2806 198.172 56.463 198.727 56.463C198.91 56.463 199.1 56.4364 199.297 56.3832C199.495 56.3224 199.689 56.2236 199.879 56.0867C199.978 56.0259 200.069 56.0031 200.153 56.0183C200.236 56.0259 200.305 56.0601 200.358 56.1209C200.419 56.1742 200.457 56.2426 200.472 56.3262C200.487 56.4022 200.48 56.4821 200.449 56.5657C200.426 56.6493 200.373 56.7177 200.29 56.7709C200.046 56.9534 199.78 57.0864 199.491 57.1701C199.202 57.2537 198.925 57.2955 198.659 57.2955ZM202.201 57.2727C202.033 57.2727 201.904 57.2271 201.813 57.1359C201.722 57.0446 201.676 56.9116 201.676 56.7367V52.1069C201.676 51.9397 201.722 51.8104 201.813 51.7192C201.904 51.628 202.033 51.5823 202.201 51.5823C202.368 51.5823 202.493 51.628 202.577 51.7192C202.668 51.8104 202.714 51.9397 202.714 52.1069V53.9201H203.694L205.337 51.8104C205.413 51.704 205.5 51.6394 205.599 51.6166C205.698 51.5861 205.793 51.5861 205.884 51.6166C205.975 51.6394 206.051 51.6888 206.112 51.7648C206.173 51.8408 206.203 51.9283 206.203 52.0271C206.203 52.1259 206.161 52.2285 206.078 52.335L204.527 54.3534L204.265 54.0341C204.47 54.0569 204.652 54.1101 204.812 54.1937C204.972 54.2774 205.124 54.4028 205.268 54.5701C205.413 54.7373 205.568 54.9616 205.736 55.2429L206.511 56.5657C206.58 56.6797 206.602 56.7861 206.58 56.885C206.564 56.9838 206.519 57.0674 206.443 57.1359C206.374 57.1967 206.291 57.2347 206.192 57.2499C206.093 57.2727 205.994 57.2613 205.895 57.2157C205.796 57.1777 205.713 57.1016 205.644 56.9876L204.778 55.528C204.656 55.3227 204.538 55.163 204.424 55.049C204.31 54.935 204.185 54.8552 204.048 54.8095C203.911 54.7639 203.744 54.7411 203.546 54.7411H202.714V56.7367C202.714 56.9116 202.668 57.0446 202.577 57.1359C202.493 57.2271 202.368 57.2727 202.201 57.2727ZM209.535 57.2955C209.155 57.2955 208.809 57.2195 208.497 57.0674C208.193 56.9154 207.954 56.7101 207.779 56.4516C207.612 56.1932 207.528 55.9043 207.528 55.585C207.528 55.1744 207.631 54.8514 207.836 54.6157C208.041 54.38 208.387 54.2128 208.874 54.1139C209.36 54.0075 210.014 53.9543 210.835 53.9543H211.371V54.6157H210.858C210.273 54.6157 209.809 54.6423 209.467 54.6955C209.132 54.7487 208.896 54.8437 208.76 54.9806C208.623 55.1098 208.554 55.2923 208.554 55.528C208.554 55.8244 208.657 56.0677 208.862 56.2578C209.075 56.4478 209.364 56.5429 209.729 56.5429C210.018 56.5429 210.273 56.4744 210.493 56.3376C210.713 56.1932 210.888 56.0031 211.018 55.7674C211.147 55.5242 211.211 55.2467 211.211 54.935V53.6236C211.211 53.175 211.12 52.8519 210.938 52.6543C210.755 52.449 210.447 52.3464 210.014 52.3464C209.763 52.3464 209.505 52.3806 209.239 52.449C208.973 52.5174 208.695 52.6239 208.406 52.7683C208.292 52.8215 208.193 52.8405 208.11 52.8253C208.026 52.8025 207.958 52.7569 207.904 52.6885C207.859 52.6125 207.832 52.5326 207.825 52.449C207.825 52.3578 207.844 52.2704 207.882 52.1867C207.927 52.1031 208.003 52.0423 208.11 52.0043C208.444 51.837 208.775 51.7192 209.102 51.6508C209.436 51.5747 209.748 51.5367 210.037 51.5367C210.531 51.5367 210.938 51.6166 211.257 51.7762C211.576 51.9283 211.816 52.1677 211.975 52.4946C212.135 52.8139 212.215 53.2244 212.215 53.7262V56.7367C212.215 56.9116 212.173 57.0446 212.089 57.1359C212.006 57.2271 211.884 57.2727 211.725 57.2727C211.573 57.2727 211.451 57.2271 211.36 57.1359C211.276 57.0446 211.234 56.9116 211.234 56.7367V55.9271H211.337C211.276 56.2084 211.162 56.4516 210.995 56.6569C210.827 56.8622 210.618 57.0218 210.368 57.1359C210.124 57.2423 209.847 57.2955 209.535 57.2955ZM217.905 57.2727C217.753 57.2727 217.635 57.2309 217.551 57.1473C217.467 57.056 217.426 56.9306 217.426 56.7709V55.1174H216.662C216.38 55.1174 216.137 55.1897 215.932 55.3341C215.727 55.4785 215.563 55.661 215.441 55.8815L214.814 56.9762C214.738 57.1054 214.647 57.1891 214.541 57.2271C214.442 57.2727 214.339 57.2803 214.233 57.2499C214.134 57.2271 214.046 57.1777 213.97 57.1016C213.894 57.0256 213.845 56.9344 213.822 56.828C213.807 56.7215 213.837 56.6113 213.913 56.4973L214.404 55.642C214.533 55.4291 214.704 55.2467 214.917 55.0946C215.13 54.9426 215.35 54.8666 215.578 54.8666H215.738V54.9692C215.115 54.9692 214.628 54.8247 214.278 54.5359C213.929 54.247 213.754 53.844 213.754 53.3271C213.754 52.985 213.83 52.6885 213.982 52.4376C214.141 52.1791 214.373 51.9815 214.677 51.8446C214.982 51.7078 215.362 51.6394 215.818 51.6394H217.859C218.026 51.6394 218.156 51.685 218.247 51.7762C218.346 51.8674 218.395 52.0005 218.395 52.1753V56.7709C218.395 56.9306 218.349 57.056 218.258 57.1473C218.175 57.2309 218.057 57.2727 217.905 57.2727ZM216.023 54.399H217.426V52.3578H216.023C215.59 52.3578 215.27 52.449 215.065 52.6315C214.86 52.8063 214.757 53.0534 214.757 53.3727C214.757 53.692 214.86 53.9429 215.065 54.1253C215.27 54.3078 215.59 54.399 216.023 54.399Z" fill="#8A94A0"/>
</svg>
