<svg width="53" height="52" viewBox="0 0 53 52" fill="none" xmlns="http://www.w3.org/2000/svg">
<path d="M26.5209 30.5156C26.0103 30.7916 25.5688 30.695 25.1824 30.2672C24.7408 29.7843 24.2579 29.3427 23.8025 28.8736C23.6094 28.6666 23.4852 28.6252 23.2644 28.8598C22.7124 29.4531 22.1329 30.0189 21.5534 30.5846C21.3878 30.7502 21.3326 30.9158 21.374 31.1365C21.6086 32.337 21.236 33.3581 20.4081 34.1998C17.8002 36.8353 15.1646 39.4709 12.5291 42.0788C11.7564 42.8515 10.7629 42.8239 9.96257 42.0374C9.14845 41.2371 8.34813 40.4368 7.56162 39.6227C7.29944 39.3467 7.14766 39.3743 6.92688 39.6503C6.18176 40.5748 5.39524 41.4717 4.65012 42.3824C4.04298 43.1275 4.40174 44.0244 5.35384 44.1762C6.01618 44.2728 6.36114 44.6315 6.29215 45.1697C6.23695 45.694 5.7954 45.9976 5.14687 45.9148C4.07058 45.7768 3.28406 45.2111 2.84251 44.2314C2.40095 43.2517 2.49754 42.2996 3.17367 41.4717C3.98779 40.4506 4.8295 39.4571 5.68501 38.4636C5.93338 38.1738 5.96098 38.0082 5.67121 37.7323C4.51213 36.6146 3.36685 35.4555 2.23537 34.3102C1.39366 33.4685 1.32466 32.7234 2.05599 31.7575C2.23537 31.5229 2.13878 31.3849 2.04219 31.2055C1.57304 30.3638 1.09009 29.5359 0.634734 28.6804C0.400158 28.2526 0.206979 27.7973 0 27.3419C0 26.9004 0 26.445 0 26.0035C0.275971 24.941 0.979698 24.1821 1.73862 23.4645C2.42855 22.816 3.07708 22.1261 3.75321 21.4637C4.88469 20.3461 6.43013 20.1115 7.83759 20.8566C8.80349 21.3672 9.75559 21.9191 10.7077 22.471C10.9561 22.609 11.1216 22.6642 11.3838 22.4434C12.1289 21.8363 13.0121 21.8915 13.7158 22.5538C14.2539 23.0644 14.7921 23.5611 15.3164 24.0855C15.5234 24.2924 15.6614 24.2924 15.8546 24.0717C16.2685 23.6301 16.6963 23.2024 17.124 22.7884C17.3448 22.5814 17.3448 22.4572 17.124 22.2503C16.6135 21.7673 16.1167 21.2568 15.6338 20.7462C15.206 20.3047 15.1646 19.8493 15.5234 19.4629C15.896 19.0766 16.3927 19.0766 16.8481 19.5043C17.3724 20.0011 17.8829 20.5116 18.3797 21.036C18.5453 21.2154 18.6557 21.2292 18.835 21.0498C19.2904 20.5806 19.7458 20.1115 20.2287 19.6699C20.4495 19.4629 20.3805 19.3526 20.2011 19.187C19.6906 18.6902 19.1938 18.1935 18.7109 17.6829C18.2831 17.2414 18.2555 16.7308 18.6281 16.3583C19.0006 15.9857 19.4836 16.0133 19.9389 16.4687C20.4357 16.9516 20.9186 17.4346 21.3878 17.9313C21.5948 18.1521 21.719 18.1383 21.9259 17.9313C22.3261 17.5035 22.74 17.0896 23.1816 16.7032C23.4576 16.4549 23.499 16.2893 23.1954 16.0133C22.6987 15.558 22.2295 15.075 21.7741 14.5921C21.374 14.1781 21.3464 13.6675 21.6914 13.3088C22.0363 12.95 22.5607 12.95 22.9746 13.3502C23.4852 13.8331 23.9819 14.3299 24.4649 14.8542C24.6856 15.0888 24.8236 15.0888 25.0444 14.8542C25.4584 14.4127 25.8723 13.9849 26.3139 13.571C26.5623 13.3364 26.5209 13.2122 26.3001 12.9914C25.8033 12.5223 25.3204 12.0255 24.8374 11.5288C24.3959 11.0872 24.3821 10.5767 24.7684 10.2179C25.141 9.85914 25.6239 9.88674 26.0517 10.3007C26.5346 10.7836 27.0176 11.2804 27.4868 11.7909C27.6937 12.0255 27.8455 12.0945 28.0939 11.8185C28.5078 11.3494 28.9356 10.9078 29.391 10.4801C29.5979 10.2869 29.6117 10.1627 29.391 9.95573C28.8942 9.48658 28.4113 8.98983 27.9283 8.50688C27.473 8.03773 27.4316 7.52718 27.8179 7.14082C28.2181 6.75446 28.6872 6.80966 29.1702 7.29261C29.6669 7.78936 30.1775 8.28611 30.6604 8.79665C30.826 8.96224 30.9502 9.04503 31.1986 8.90704C32.0127 8.43789 32.8958 8.2999 33.8341 8.3413C33.8617 8.3551 33.8893 8.3827 33.9169 8.3965C36.856 8.75526 38.6498 12.1083 37.0768 14.8128C36.9526 15.0336 37.0078 15.144 37.1596 15.2958C37.6701 15.8063 38.1806 16.3169 38.6912 16.8274C39.1879 17.3242 39.2293 17.7795 38.843 18.1797C38.4428 18.5798 37.9461 18.5384 37.4493 18.0417C36.9664 17.5725 36.4972 17.1034 36.0281 16.6204C35.8625 16.4549 35.7521 16.3721 35.5451 16.5928C35.1036 17.0758 34.6344 17.5311 34.1653 17.9865C33.9859 18.1659 33.9997 18.2625 34.1791 18.4419C34.7034 18.9662 35.2278 19.4767 35.7383 20.0287C36.1523 20.484 36.1523 21.0084 35.7659 21.3534C35.3933 21.6845 34.9104 21.6431 34.4826 21.2154C33.9859 20.7186 33.4753 20.2219 32.9924 19.7113C32.813 19.5181 32.6888 19.5043 32.4956 19.7113C32.0403 20.1805 31.5849 20.6496 31.1158 21.0912C30.9364 21.2568 30.9364 21.3672 31.1158 21.5465C31.6125 22.0157 32.0955 22.5124 32.5784 22.9954C33.0338 23.4507 33.1028 24.0027 32.7578 24.3614C32.3576 24.7754 31.8747 24.734 31.3642 24.2373C30.8674 23.7543 30.3845 23.2714 29.9015 22.7746C29.7359 22.5952 29.6117 22.5814 29.4461 22.7608C29.0046 23.2162 28.5492 23.6715 28.0939 24.0993C27.9007 24.2924 27.9007 24.4166 28.0939 24.596C28.5906 25.0652 29.0736 25.5619 29.5703 26.0449C30.0395 26.514 30.0809 26.9556 29.7083 27.3557C29.322 27.7559 28.839 27.7421 28.3423 27.2729C27.8593 26.8038 27.3902 26.3208 26.9072 25.8655C26.8106 25.7689 26.7554 25.5757 26.5484 25.6585C26.0241 26.1691 25.4998 26.6934 24.9754 27.1901C24.8098 27.3419 24.8236 27.4523 24.9754 27.5903C25.4308 28.0181 25.8723 28.4734 26.3277 28.9012C26.9624 29.6601 26.99 29.8533 26.5209 30.5156ZM17.5242 24.9548C17.4552 24.9962 17.3724 25.0238 17.3034 25.079C16.7791 25.5343 16.7791 25.5343 17.2758 26.0311C17.9657 26.721 18.6833 27.3971 19.3456 28.1147C19.663 28.4596 19.8561 28.4734 20.2011 28.1285C22.8504 25.5067 25.4446 22.816 28.1353 20.2495C29.8739 18.5936 31.5573 16.855 33.2408 15.1578C34.2067 14.1781 34.4964 12.5085 33.8893 11.2942C33.7099 10.9492 33.5995 10.4939 33.1166 10.3973C33.1718 10.1765 33.1718 10.1075 32.882 10.1489C32.2473 10.2455 31.7643 10.5629 31.3366 11.0044C26.8382 15.5028 22.3399 20.0011 17.8416 24.5132C17.7174 24.6374 17.5242 24.734 17.5242 24.9548ZM11.853 40.2436C14.2953 37.8013 16.7515 35.3727 19.18 32.9304C19.9113 32.199 19.9251 31.2055 19.1662 30.4328C17.1516 28.3906 15.1094 26.376 13.081 24.3614C12.5015 23.6853 12.5015 23.6853 11.8806 24.3062C9.12086 27.066 6.37494 29.8395 3.60143 32.5992C3.33925 32.8614 3.31166 32.9993 3.58763 33.2753C5.94718 35.6073 8.29294 37.9668 10.6387 40.3126C11.2734 40.9197 11.2734 40.9197 11.853 40.2436ZM3.44964 30.281C5.54703 28.1974 7.60301 26.1691 9.659 24.1407C9.85218 23.9475 9.76939 23.8647 9.57621 23.7681C8.7207 23.299 7.87898 22.8022 7.00967 22.3606C6.33354 22.0157 5.64362 22.0709 5.09167 22.5952C4.08438 23.5335 3.11848 24.5132 2.16638 25.4929C1.69722 25.9759 1.55924 26.6106 1.84901 27.2177C2.33196 28.2388 2.8839 29.2185 3.44964 30.281Z" fill="#1EC996"/>
<path d="M26.5211 30.5157C26.9902 29.8533 26.9626 29.6601 26.3003 28.9012C26.3969 28.8322 26.4245 28.7356 26.4245 28.6391C26.3969 27.6456 26.4521 26.6383 26.5211 25.6448C26.728 25.562 26.7832 25.7689 26.8798 25.8517C27.3628 26.3209 27.8319 26.8038 28.3149 27.2592C28.7978 27.7283 29.2946 27.7421 29.6809 27.342C30.0535 26.9418 30.0121 26.5003 29.543 26.0311C29.06 25.5482 28.5771 25.0514 28.0665 24.5823C27.8733 24.4029 27.8595 24.2787 28.0665 24.0855C28.5357 23.644 28.9772 23.2024 29.4188 22.7471C29.5982 22.5677 29.7085 22.5815 29.8741 22.7609C30.3571 23.2576 30.84 23.7406 31.3368 24.2235C31.8473 24.7203 32.3441 24.7617 32.7304 24.3477C33.0754 23.9889 33.0064 23.437 32.551 22.9816C32.0681 22.4987 31.5851 22.0019 31.0884 21.5328C30.909 21.3672 30.909 21.2568 31.0884 21.0774C31.5575 20.6221 32.0267 20.1667 32.4683 19.6976C32.6614 19.4906 32.7856 19.5182 32.965 19.6976C33.448 20.2081 33.9585 20.7049 34.4552 21.2016C34.883 21.6294 35.366 21.6708 35.7385 21.3396C36.1249 20.9946 36.1387 20.4565 35.7109 20.0149C35.2142 19.4768 34.6898 18.9525 34.1517 18.4281C33.9861 18.2625 33.9585 18.1521 34.1379 17.9728C34.607 17.5174 35.0762 17.0621 35.5177 16.5791C35.7247 16.3583 35.8351 16.4411 36.0007 16.6067C36.4698 17.0896 36.939 17.5588 37.4219 18.028C37.9187 18.5247 38.4154 18.5661 38.8156 18.1659C39.202 17.7658 39.1606 17.3104 38.6638 16.8137C38.1533 16.3031 37.6427 15.7926 37.1322 15.282C36.9804 15.1303 36.9252 15.0199 37.0494 14.7991C38.6224 12.0808 36.8286 8.74151 33.8895 8.38275C33.8619 8.38275 33.8343 8.35516 33.8067 8.32756C34.0137 8.31376 34.0827 8.13438 34.1517 7.98259C34.9382 6.32677 35.8489 4.75373 37.0356 3.34627C37.4219 2.89092 37.8359 2.46317 38.305 2.09061C38.3878 2.02161 38.7328 1.92502 38.3464 1.78704C39.2434 1.56626 40.0437 1.86983 40.7888 2.32518C41.7409 2.90472 42.486 3.71884 43.1345 4.61574C45.3423 7.63763 46.6946 11.0597 47.8675 14.5783C48.8748 17.6278 49.6337 20.7463 50.1028 23.9199C50.4478 26.2519 50.641 28.5839 50.2684 30.9434C49.7303 34.2413 48.4056 37.1528 45.9633 39.4709C44.2384 41.113 42.1824 42.1617 39.7815 42.3686C36.5388 42.6584 33.8067 41.4993 31.5162 39.2502C29.6947 37.4701 28.5495 35.2762 27.8595 32.8338C27.6664 32.1577 27.3766 31.9507 26.7143 32.0335C26.6591 31.5506 26.5901 31.0262 26.5211 30.5157ZM33.6135 34.6552C34.2069 34.669 34.6346 34.3241 34.6622 33.8273C34.6898 33.3582 34.3173 32.9718 33.7377 32.9166C33.1996 32.8614 32.9512 32.5854 32.9098 32.0611C32.8684 31.5368 32.4683 31.1642 32.0129 31.178C31.53 31.1918 31.1712 31.6195 31.1712 32.1577C31.1574 33.4686 32.3027 34.6414 33.6135 34.6552ZM39.6849 34.6552C40.2644 34.669 40.6508 34.3655 40.7198 33.8687C40.775 33.441 40.4576 32.9718 40.0161 32.9442C39.3123 32.9028 39.0088 32.5992 38.9536 31.9093C38.9122 31.4402 38.4706 31.1366 38.0429 31.178C37.6289 31.2194 37.284 31.6057 37.2564 32.0611C37.1874 33.4272 38.3326 34.6414 39.6849 34.6552ZM37.9325 28.5839C38.5534 28.5977 38.9674 28.2803 38.995 27.7697C39.0226 27.2868 38.6638 26.9004 38.0843 26.8452C37.5323 26.8038 37.2978 26.5141 37.2564 25.9897C37.2012 25.424 36.87 25.1204 36.3595 25.148C35.8627 25.1618 35.5315 25.5068 35.5177 26.0587C35.4763 27.3834 36.6216 28.5563 37.9325 28.5839Z" fill="#21D7A0" fill-opacity="0.2"/>
<path d="M26.7276 32.0611C27.39 31.9783 27.6797 32.1853 27.8729 32.8614C28.5628 35.3037 29.7081 37.4977 31.5295 39.2777C33.8201 41.5131 36.5522 42.6722 39.7949 42.3962C42.1958 42.1892 44.2518 41.1543 45.9766 39.4985C48.419 37.1665 49.7437 34.2688 50.2818 30.971C50.6682 28.6114 50.4612 26.2795 50.1162 23.9475C49.6471 20.76 48.8881 17.6554 47.8808 14.6059C46.7218 11.0872 45.3695 7.65139 43.1479 4.64331C42.4994 3.7464 41.7543 2.93228 40.8022 2.35274C40.0571 1.89739 39.2705 1.58002 38.3598 1.8146C37.2008 1.99398 36.3728 2.71151 35.6001 3.49802C34.7998 4.31214 34.1513 5.25044 33.5579 6.21634C33.4337 6.42332 33.3096 6.6303 33.1716 6.82348C32.8818 7.18224 32.4402 7.25123 32.0677 7.03046C31.7089 6.82348 31.5019 6.34053 31.7227 5.95417C32.9508 3.81539 34.3169 1.787 36.566 0.600324C38.6082 -0.475964 40.747 -0.0896043 42.6926 1.63522C44.4174 3.16686 45.6455 5.07106 46.6804 7.09945C48.9019 11.4046 50.3232 15.9857 51.3029 20.7186C51.8686 23.4094 52.324 26.1277 52.2274 28.9012C52.048 33.6203 50.4474 37.7185 46.9287 40.9749C45.7559 42.065 44.4174 42.8929 42.9134 43.4449C42.5408 43.5829 42.4442 43.7761 42.4442 44.1486C42.4718 45.8458 42.458 47.5569 42.458 49.2541C42.4442 50.9099 41.3679 51.9862 39.7121 52C39.2153 52 38.7186 52 38.2218 52C36.6764 51.9724 35.5587 50.8547 35.5449 49.3231C35.5311 47.5845 35.5449 45.8458 35.5449 44.1072C35.5449 43.845 35.5173 43.6795 35.2276 43.5691C31.0328 42.065 28.4249 39.0155 26.7828 35.0002C26.5621 34.462 26.4103 33.8963 26.2309 33.3305C26.0101 32.6682 26.1205 32.406 26.7276 32.0611ZM37.2835 46.8531C37.2835 47.681 37.2697 48.509 37.2835 49.3231C37.2973 49.9026 37.6423 50.2062 38.2494 50.22C38.8152 50.2338 38.898 50.1372 38.9808 49.4335C38.9946 49.2955 38.9946 49.1575 38.9946 49.0195C38.9946 47.75 39.0084 46.4806 38.9946 45.2111C38.9808 44.19 39.2153 44.1762 37.9735 44.1762C37.8493 44.1762 37.7251 44.1762 37.6147 44.1348C37.3111 44.0244 37.2697 44.1624 37.2697 44.4246C37.2835 45.2387 37.2835 46.0528 37.2835 46.8531Z" fill="#1EC996"/>
<path d="M11.6182 50.2613C9.58983 50.2613 7.56144 50.2613 5.53305 50.2613C4.67754 50.2613 4.49815 50.4131 4.31877 51.241C4.22218 51.724 3.79443 52.0552 3.35287 51.9862C2.86992 51.9172 2.55256 51.4756 2.59395 50.9237C2.69054 49.5438 3.84962 48.5089 5.32607 48.5089C9.02409 48.4951 12.7221 48.5089 16.4201 48.5089C16.8479 48.5089 17.2756 48.5089 17.7172 48.5089C18.5037 48.4951 19.0418 47.9846 19.0418 47.2395C19.0418 46.4943 18.5175 45.9424 17.7448 45.9286C16.0752 45.9148 14.4055 45.9286 12.7359 45.9286C12.5841 45.9286 12.4185 45.9424 12.2668 45.9148C11.8252 45.8458 11.5492 45.5698 11.5078 45.1283C11.4802 44.6867 11.701 44.3694 12.1426 44.2452C12.2668 44.2038 12.4185 44.19 12.5427 44.19C14.2951 44.19 16.0476 44.1762 17.8138 44.19C19.3592 44.2038 20.5597 45.3077 20.8081 46.8669C21.015 48.2192 20.1181 49.6404 18.7797 50.0958C18.4347 50.2061 18.0759 50.2613 17.7172 50.2613C15.675 50.2475 13.6466 50.2613 11.6182 50.2613Z" fill="#1EC996"/>
<path d="M9.76938 45.0592C9.75558 45.5422 9.34163 45.9285 8.85868 45.9147C8.38952 45.9009 8.03076 45.5284 8.03076 45.0454C8.03076 44.5625 8.44472 44.1623 8.92767 44.1761C9.36922 44.2037 9.76938 44.6177 9.76938 45.0592Z" fill="#1EC996"/>
<path d="M13.0947 24.3615C15.1231 26.3898 17.1653 28.3906 19.1799 30.4328C19.925 31.1917 19.9112 32.199 19.1937 32.9304C16.7652 35.3727 14.309 37.8013 11.8667 40.2436C11.8529 40.009 11.6597 39.8986 11.5217 39.7469C9.53471 37.7461 7.53392 35.7591 5.54692 33.7583C4.87079 33.0821 4.87079 32.7372 5.53312 32.0749C7.93407 29.6601 10.3488 27.2592 12.7498 24.8444C12.874 24.7064 13.0809 24.596 13.0947 24.3615ZM6.94058 32.0749C6.55422 32.0611 6.29204 32.2404 6.14026 32.5578C5.98848 32.9028 6.01607 33.2339 6.29204 33.5099C7.7271 34.945 9.16215 36.38 10.611 37.7875C10.9974 38.1738 11.5079 38.16 11.8529 37.8151C12.2254 37.4563 12.2116 36.9457 11.8115 36.5318C10.4316 35.1519 9.03796 33.7721 7.6443 32.3922C7.45112 32.2128 7.23035 32.0335 6.94058 32.0749ZM14.5574 34.6966C14.585 34.462 14.4194 34.255 14.2124 34.048C12.8602 32.6958 11.5079 31.3435 10.1556 30.0051C9.71409 29.5635 9.21734 29.5359 8.84478 29.9085C8.47222 30.281 8.51361 30.7778 8.95517 31.2193C9.6451 31.9093 10.335 32.613 11.0388 33.3029C11.7149 33.9791 12.4048 34.669 13.0809 35.3451C13.3569 35.6073 13.6743 35.6763 14.033 35.5383C14.378 35.4003 14.5436 35.1381 14.5574 34.6966Z" fill="#21D7A0" fill-opacity="0.2"/>
<path d="M33.1167 10.4111C33.5996 10.5077 33.7238 10.9631 33.8894 11.308C34.4965 12.5223 34.2206 14.1919 33.2409 15.1716C31.5436 16.8827 29.874 18.6075 28.1354 20.2633C25.4309 22.8436 22.8367 25.5206 20.2012 28.1423C19.8563 28.4873 19.6631 28.4735 19.3457 28.1285C18.6834 27.411 17.9658 26.7348 17.2759 26.0449C16.7792 25.5482 16.7792 25.5482 17.3035 25.0928C17.3587 25.0376 17.4553 25.01 17.5243 24.9686C17.5795 25.01 17.6485 25.0376 17.6899 25.079C18.2694 25.7138 18.2694 25.5068 18.7248 25.0514C19.9528 23.8095 21.1809 22.5539 22.3952 21.312C25.6241 18.0141 28.9081 14.7715 32.1784 11.5012C32.5371 11.1563 32.8683 10.8113 33.1167 10.4111ZM21.0843 25.8241C21.4155 25.8517 21.6501 25.6172 21.8846 25.3826C23.5129 23.7544 25.1411 22.1261 26.7693 20.4979C28.8805 18.3867 31.0055 16.2617 33.1167 14.1505C33.3927 13.8746 33.6272 13.5848 33.5168 13.157C33.3099 12.3981 32.5233 12.2601 31.9024 12.8811C28.1354 16.6481 24.3546 20.4151 20.5876 24.1959C20.4772 24.3063 20.3668 24.4167 20.2978 24.5547C19.9666 25.1204 20.3668 25.8103 21.0843 25.8241Z" fill="#21D7A0" fill-opacity="0.2"/>
<path d="M3.4496 30.281C2.88386 29.2185 2.33191 28.2388 1.84896 27.2177C1.55919 26.6106 1.69718 25.9759 2.16633 25.4929C3.11843 24.5132 4.08433 23.5335 5.09163 22.5814C5.64357 22.0571 6.3335 22.0019 7.00963 22.3468C7.87894 22.7884 8.72065 23.2851 9.57616 23.7543C9.75554 23.8509 9.83834 23.9337 9.65895 24.1268C7.60297 26.169 5.54698 28.1974 3.4496 30.281Z" fill="white"/>
<path d="M13.095 24.3614C13.0812 24.596 12.888 24.7064 12.7362 24.8444C10.3352 27.2591 7.92049 29.6601 5.51954 32.0748C4.8572 32.7371 4.8572 33.0821 5.53333 33.7582C7.53413 35.759 9.52112 37.746 11.5081 39.7468C11.6461 39.8848 11.8393 39.9952 11.8531 40.2436C11.2735 40.9197 11.2735 40.9197 10.6526 40.2988C8.30685 37.953 5.96109 35.5934 3.60153 33.2615C3.31176 32.9855 3.33936 32.8475 3.61533 32.5854C6.38884 29.8256 9.13476 27.0659 11.8945 24.2924C12.5154 23.6853 12.5154 23.6853 13.095 24.3614Z" fill="white"/>
<path d="M33.1164 10.411C32.868 10.825 32.5231 11.1562 32.1919 11.5011C28.9216 14.7714 25.6376 18.0141 22.4087 21.3119C21.1806 22.5676 19.9664 23.8095 18.7383 25.0513C18.2967 25.4929 18.2967 25.7137 17.7034 25.0789C17.662 25.0237 17.593 25.0099 17.5378 24.9685C17.524 24.734 17.7172 24.6512 17.8552 24.527C22.3535 20.0287 26.8518 15.5303 31.3502 11.0182C31.7917 10.5766 32.2609 10.2731 32.8956 10.1627C33.1716 10.1075 33.1716 10.1903 33.1164 10.411Z" fill="white"/>
<path d="M26.5073 25.6448C26.4383 26.6383 26.3831 27.6318 26.4107 28.6391C26.4107 28.7495 26.3831 28.846 26.2865 28.9012C25.8312 28.4597 25.3896 28.0181 24.9342 27.5904C24.7687 27.4386 24.7687 27.342 24.9342 27.1902C25.4724 26.6659 25.9829 26.1553 26.5073 25.6448Z" fill="white"/>
<path d="M33.6134 34.6552C32.3025 34.6414 31.1572 33.4686 31.171 32.1577C31.171 31.6196 31.5436 31.1918 32.0127 31.178C32.4681 31.1642 32.8682 31.523 32.9096 32.0611C32.951 32.5855 33.1994 32.8752 33.7376 32.9166C34.3033 32.9718 34.6759 33.3444 34.6621 33.8273C34.6345 34.3241 34.2067 34.669 33.6134 34.6552Z" fill="#1EC996"/>
<path d="M39.6849 34.6552C38.3327 34.6414 37.1874 33.4133 37.2564 32.0611C37.284 31.6057 37.6151 31.2194 38.0429 31.178C38.4707 31.1366 38.9122 31.4401 38.9536 31.9093C39.0088 32.5992 39.3124 32.9166 40.0161 32.9442C40.4714 32.9718 40.775 33.4547 40.7198 33.8687C40.6646 34.3654 40.2645 34.669 39.6849 34.6552Z" fill="#1EC996"/>
<path d="M37.9324 28.5838C36.6216 28.57 35.4763 27.3833 35.5177 26.0724C35.5315 25.5205 35.8489 25.1755 36.3594 25.1617C36.87 25.1479 37.2149 25.4515 37.2563 26.0034C37.2977 26.5278 37.5323 26.8037 38.0842 26.8589C38.6638 26.9141 39.0225 27.3005 38.9949 27.7834C38.9673 28.2802 38.5534 28.5838 37.9324 28.5838Z" fill="#1EC996"/>
<path d="M37.2837 46.8532C37.2837 46.039 37.2837 45.2387 37.2837 44.4246C37.2837 44.1624 37.3251 44.0245 37.6287 44.1348C37.7391 44.1762 37.8633 44.1762 37.9875 44.1762C39.2293 44.1762 38.9947 44.2038 39.0085 45.2111C39.0223 46.4806 39.0085 47.7501 39.0085 49.0195C39.0085 49.1575 39.0223 49.2955 38.9947 49.4335C38.912 50.1234 38.8154 50.2338 38.2634 50.22C37.6563 50.2062 37.3113 49.9026 37.2975 49.3231C37.2699 48.509 37.2837 47.6811 37.2837 46.8532Z" fill="#21D7A0" fill-opacity="0.2"/>
<path d="M6.94079 32.0749C7.23056 32.0473 7.45134 32.2129 7.64452 32.4061C9.03818 33.7859 10.4318 35.1658 11.8117 36.5457C12.2256 36.9596 12.2256 37.4564 11.8531 37.8289C11.4943 38.1739 10.9976 38.1877 10.6112 37.8013C9.16237 36.3801 7.72731 34.945 6.29226 33.5238C6.01629 33.2478 5.98869 32.9166 6.14048 32.5717C6.29226 32.2267 6.55443 32.0611 6.94079 32.0749Z" fill="#1EC996"/>
<path d="M14.5573 34.6965C14.5435 35.1381 14.3779 35.4003 14.0468 35.5382C13.7018 35.6762 13.3706 35.621 13.0947 35.3451C12.4047 34.6689 11.7286 33.979 11.0525 33.3029C10.3626 32.613 9.65882 31.923 8.96889 31.2193C8.51354 30.7639 8.48594 30.281 8.85851 29.9084C9.23107 29.5359 9.72782 29.5635 10.1694 30.005C11.5216 31.3573 12.8739 32.7095 14.2262 34.048C14.4193 34.255 14.5849 34.462 14.5573 34.6965Z" fill="#1EC996"/>
<path d="M21.0841 25.8241C20.3804 25.8103 19.9665 25.1204 20.2976 24.5408C20.3666 24.4028 20.477 24.2924 20.5874 24.1821C24.3544 20.415 28.1352 16.6342 31.9022 12.8672C32.5232 12.2463 33.3097 12.3981 33.5166 13.1432C33.6408 13.571 33.4063 13.8607 33.1165 14.1367C31.0053 16.2479 28.8803 18.3729 26.7691 20.484C25.1409 22.1123 23.5127 23.7405 21.8845 25.3687C21.6499 25.6171 21.4153 25.8517 21.0841 25.8241Z" fill="#1EC996"/>
</svg>
