<svg width="53" height="52" viewBox="0 0 53 52" fill="none" xmlns="http://www.w3.org/2000/svg">
<path d="M5.21483 15.4412C5.21483 15.1831 5.20125 14.9387 5.20125 14.6807C5.21483 13.9337 5.09261 12.6572 5.73089 12.3041C10.7557 9.52005 15.7398 6.80394 20.7646 4.01992C22.3127 3.16435 23.7523 2.28161 25.3005 1.42603C25.4499 1.34455 26.2239 1.61616 26.3054 1.4532C28.8178 2.83841 31.3574 4.56314 33.8698 5.96194C38.5144 8.54225 43.1589 11.1361 47.8035 13.7029C48.3331 13.988 48.5504 14.3683 48.5368 14.9658C48.5232 25.0698 48.5232 35.1873 48.5368 45.2912C48.5368 45.7937 48.3874 45.9159 47.8985 45.9024C46.8257 45.8752 46.8257 45.9024 46.8257 44.8295C46.8257 35.2688 46.8257 25.6945 46.8392 16.1338C46.8392 15.4412 46.6219 15.0202 45.9972 14.6671C39.5465 11.109 33.1229 7.5237 26.6857 3.93844C26.2104 3.66683 25.7894 3.66683 25.3005 3.93844C18.8361 7.53728 12.3718 11.1361 5.90744 14.7214C5.62225 14.8844 5.33705 15.0881 5.21483 15.4412Z" fill="#21D7A0" fill-opacity="0.2"/>
<path d="M52.0271 48.0345C52.0271 48.6049 52.0271 49.1888 52.0271 49.7592C51.7419 50.9679 50.995 51.7148 49.7863 52C33.8699 52 17.9535 52 2.03708 52C1.41238 51.7012 0.801253 51.4025 0.407417 50.7778C0.0135805 50.1395 0 49.4333 0 48.7271C0.0135806 47.0159 1.08644 45.9431 2.79759 45.9295C3.36798 45.9295 3.95194 45.9295 4.52232 45.9295C5.20135 45.9295 5.20135 45.9295 5.20135 45.2369C5.20135 35.3095 5.20135 25.3685 5.20135 15.4411C5.33716 15.0881 5.60877 14.8843 5.9347 14.7078C12.399 11.1225 18.8634 7.52368 25.3277 3.92484C25.8166 3.65322 26.2376 3.66681 26.713 3.92484C33.1501 7.5101 39.5737 11.0954 46.0245 14.6535C46.6492 14.993 46.8665 15.4276 46.8665 16.1202C46.8529 25.6809 46.8529 35.2552 46.8529 44.8159C46.8529 45.8888 46.8529 45.8616 47.9258 45.8888C48.4011 45.9023 48.5641 45.7801 48.5641 45.2776C48.5505 35.1737 48.5505 25.0562 48.5641 14.9522C48.5641 14.3547 48.3468 13.988 47.8307 13.6893C43.1726 11.1225 38.5416 8.52864 33.8971 5.94834C31.3847 4.54954 28.8587 3.16433 26.3463 1.77911C25.9932 1.56182 25.6944 1.75195 25.3956 1.91491C18.3609 5.82611 11.3126 9.75089 4.26429 13.6349C3.68033 13.9609 3.46304 14.3547 3.46304 15.0066C3.47662 23.1142 3.47662 31.2353 3.47662 39.3429C3.47662 39.5331 3.4902 39.7232 3.46304 39.8997C3.4223 40.3479 3.09637 40.6602 2.67537 40.6874C2.24079 40.7146 1.84696 40.4158 1.77905 39.9676C1.75189 39.7639 1.75189 39.5602 1.75189 39.3565C1.75189 31.2897 1.76547 23.2364 1.73831 15.1695C1.73831 13.6893 2.29511 12.7386 3.58527 12.0324C10.5385 8.21629 17.4782 4.34583 24.3907 0.475375C25.5043 -0.149331 26.5228 -0.162911 27.6364 0.461794C34.5897 4.34583 41.5565 8.22987 48.5369 12.0732C49.7592 12.7386 50.3024 13.6621 50.3024 15.0609C50.2752 25.1648 50.2888 35.2823 50.2888 45.3863C50.2888 45.5357 50.2888 45.685 50.2888 45.848C50.2888 45.9838 50.316 46.0789 50.4518 46.1332C51.2938 46.5135 51.7283 47.2196 52.0271 48.0345ZM3.68033 47.7085C3.23217 47.5727 2.78401 47.5863 2.33586 47.7221C1.64325 48.0888 1.4667 49.5419 2.05066 50.058C2.22721 50.2074 2.43092 50.2888 2.66179 50.2753C3.0013 50.2753 3.34082 50.2617 3.68033 50.2617C18.3609 50.2617 33.0279 50.2617 47.7085 50.2617C48.469 50.2617 48.5776 50.153 48.6048 49.3925C48.6048 49.2703 48.6048 49.1617 48.6048 49.0394C48.6048 47.7357 48.6048 47.7357 47.3282 47.7357C32.7699 47.7085 18.2251 47.7085 3.68033 47.7085ZM38.8268 39.8861C37.3601 39.8726 35.8934 39.8726 34.4131 39.859C34.1008 39.859 34.06 39.9676 34.1144 40.2528C34.5218 42.0183 34.902 43.7838 35.2823 45.5492C35.3366 45.7937 35.4317 45.9295 35.7169 45.9159C36.3008 45.8887 36.8984 45.9023 37.4959 45.8888C37.6181 45.8888 37.7268 45.9023 37.849 45.9023C39.1799 45.9159 39.1935 45.9159 39.4787 44.6393C39.791 43.2405 40.0898 41.8417 40.4157 40.4429C40.5244 39.9948 40.4021 39.8182 39.9268 39.859C39.5602 39.8997 39.1935 39.8861 38.8268 39.8861ZM16.2695 39.8861C14.83 39.8726 13.3904 39.8726 11.9509 39.859C11.5842 39.859 11.5163 40.0084 11.5978 40.3207C11.9916 42.0726 12.3855 43.8245 12.7657 45.5764C12.82 45.8073 12.9151 45.9295 13.1731 45.9159C13.7707 45.9023 14.3546 45.9023 14.9522 45.8888C15.3868 45.8888 15.8349 45.8887 16.2695 45.9159C16.5547 45.9295 16.6905 45.8208 16.7584 45.5357C17.1387 43.7838 17.5189 42.0319 17.9128 40.2936C17.9807 39.9948 17.9399 39.8454 17.5868 39.8726C17.1522 39.8861 16.7041 39.8861 16.2695 39.8861ZM20.3165 38.3923C20.9684 40.7825 21.6067 43.1862 22.2585 45.59C22.3264 45.8344 22.4351 45.9159 22.6795 45.9159C24.4722 45.9023 26.2648 45.9023 28.0574 45.8888C28.4241 45.9023 28.8044 45.8752 29.171 45.9159C29.592 45.9702 29.755 45.7665 29.8636 45.3863C30.4612 43.1455 31.0723 40.9183 31.6834 38.6775C31.8464 38.0935 31.8464 38.0935 31.2353 38.0935C27.7722 38.0935 24.2956 38.0799 20.8326 38.0799C20.6968 38.0799 20.561 38.0799 20.4252 38.0935C20.2079 38.1343 20.2214 38.2565 20.3165 38.3923ZM43.2676 25.5451C42.5615 28.0167 41.0133 29.6192 38.4737 30.176C38.1885 30.244 38.1478 30.4069 38.1478 30.6514C38.1478 31.8329 38.1614 33.0144 38.1478 34.2095C38.1478 34.5354 38.2564 34.6576 38.5824 34.6441C39.5194 34.6305 40.4429 34.6441 41.38 34.6305C42.2898 34.6169 42.9417 34.9836 43.2812 35.8391C43.4306 36.749 43.3899 37.6725 43.3084 38.5824C43.1454 38.9762 42.9281 39.3429 42.5479 39.5738C42.3985 39.6553 42.3306 39.7911 42.3034 39.9405C41.8824 41.8146 41.475 43.7023 41.054 45.5764C40.9997 45.8073 41.054 45.9159 41.312 45.9159C42.0047 45.9023 42.6973 45.9023 43.3899 45.8888C43.743 45.9023 44.0961 45.8752 44.4492 45.9159C44.9516 45.9702 45.1146 45.8209 45.1146 45.2776C45.101 35.7441 45.101 26.2105 45.1146 16.6906C45.1146 16.2831 44.9788 16.0659 44.6257 15.8621C41.7059 14.2596 38.7996 12.63 35.8798 11.0139C32.7427 9.27557 29.6056 7.52368 26.4685 5.78537C26.2241 5.64957 25.9796 5.43228 25.708 5.75821C25.6401 5.78537 25.5722 5.79895 25.5179 5.82611C19.4202 9.20767 13.3361 12.6028 7.22485 15.9708C6.9804 16.1066 6.9125 16.2831 6.9125 16.5412C6.9125 26.1698 6.9125 35.812 6.9125 45.4406C6.9125 45.7801 6.99399 45.9159 7.36066 45.9159C8.4471 45.9023 9.53355 45.8887 10.6064 45.9159C10.9867 45.9295 11.0138 45.7665 10.9459 45.4678C10.5385 43.648 10.1311 41.8417 9.73726 40.0219C9.69652 39.8318 9.62861 39.6824 9.45206 39.5602C8.85452 39.1664 8.63723 38.596 8.63723 37.9034C8.63723 37.4688 8.63723 37.0206 8.63723 36.5861C8.65081 35.3367 9.34342 34.6441 10.6064 34.6305C11.5435 34.6169 12.4669 34.6169 13.404 34.6305C13.7571 34.6441 13.8793 34.5218 13.8793 34.1687C13.8657 33.0144 13.8522 31.86 13.8793 30.7193C13.8929 30.3254 13.7299 30.2032 13.3768 30.1353C10.7694 29.5649 8.85452 27.3513 8.63723 24.7031C8.41994 22.0685 9.98171 19.5561 12.4534 18.5783C13.9472 17.9807 15.4683 17.9943 16.9621 18.5918C17.2745 18.7141 17.3695 18.6869 17.3831 18.3338C17.3967 17.9807 17.451 17.6276 17.5325 17.2745C18.4696 12.9287 22.2314 10.1311 26.7673 10.4028C30.8822 10.6608 34.2773 14.0695 34.644 18.3474C34.6712 18.6733 34.7526 18.7141 35.0378 18.5918C35.6761 18.3202 36.3551 18.1708 37.0613 18.1437C40.1441 18.035 42.6158 20.0314 43.322 23.1956C43.4306 23.8747 43.4035 24.5673 43.322 25.2463C43.3084 25.2735 43.3084 25.3006 43.3084 25.3278C43.2948 25.4229 43.2812 25.4908 43.2676 25.5451ZM26.9031 18.3474C26.9031 18.9449 26.9031 19.5289 26.9031 20.1264C26.9031 20.2622 26.8488 20.4388 26.971 20.5067C27.1339 20.6018 27.2426 20.4116 27.3512 20.3301C28.1525 19.7054 28.9266 19.0536 29.7278 18.4289C30.1896 18.0622 30.6513 18.1029 30.9908 18.4968C31.3439 18.9042 31.2624 19.4067 30.7735 19.8141C29.6056 20.7647 28.4241 21.7018 27.2426 22.6388C27.066 22.7746 26.8895 22.8969 26.8895 23.1549C26.9031 23.9562 26.8895 24.7438 26.8895 25.5451C26.8895 25.8167 26.9981 25.9118 27.2698 25.8574C28.6957 25.5587 29.9587 24.9204 30.9637 23.8611C33.1094 21.6203 33.5304 18.3202 32.0501 15.6856C30.5427 12.9966 27.5142 11.6386 24.4857 12.2769C21.2943 12.9559 19.0264 15.8621 19.0807 19.2301C19.1214 22.4216 21.5388 25.2871 24.6487 25.8574C25.029 25.9253 25.1376 25.8031 25.124 25.45C25.1104 24.7574 25.1104 24.0648 25.124 23.3722C25.1376 23.0463 25.0154 22.8425 24.7709 22.6388C23.6166 21.7289 22.4622 20.8055 21.3215 19.882C20.7918 19.4474 20.6696 18.9449 20.9955 18.5375C21.3622 18.0758 21.8375 18.0758 22.4215 18.5375C23.182 19.1351 23.9289 19.7462 24.6894 20.3437C24.7981 20.4252 24.9067 20.6153 25.0697 20.5203C25.1919 20.4524 25.1376 20.2758 25.1376 20.14C25.1376 18.9585 25.124 17.7634 25.1512 16.5819C25.1648 15.9572 25.5043 15.6177 26.0339 15.6177C26.55 15.6177 26.8895 15.9708 26.9031 16.5955C26.9167 17.1659 26.9031 17.7498 26.9031 18.3474ZM21.8647 32.9057C22.8153 32.9057 23.766 32.9057 24.703 32.9057C24.9882 32.9057 25.1376 32.8514 25.1376 32.5255C25.124 31.018 25.124 29.5106 25.1376 28.0032C25.1376 27.7451 25.029 27.6501 24.7845 27.6093C23.345 27.4192 22.0548 26.876 20.8869 26.0068C20.6832 25.8574 20.5881 25.8574 20.4931 26.129C19.7054 28.3019 18.1979 29.66 15.93 30.176C15.7263 30.2168 15.6041 30.3119 15.6041 30.5427C15.6176 31.7921 15.6041 33.0415 15.6041 34.3045C15.6041 34.4403 15.6041 34.6033 15.7806 34.6169C16.2423 34.6305 16.6905 34.6305 17.1522 34.6169C17.3288 34.6169 17.3288 34.4539 17.3559 34.3181C17.614 33.3675 18.2115 32.9057 19.2029 32.9057C20.0992 32.8922 20.982 32.9057 21.8647 32.9057ZM26.8895 30.2711C26.8895 30.9637 26.9167 31.6563 26.8759 32.3489C26.8488 32.7971 26.9981 32.9193 27.4463 32.9193C29.2254 32.8922 31.0044 32.9057 32.7699 32.9057C33.544 32.9057 34.2637 33.1774 34.4674 33.9243C34.6712 34.6305 35.0514 34.6984 35.6218 34.6441C35.7169 34.6305 35.8255 34.6305 35.9206 34.6441C36.2737 34.6848 36.3959 34.5354 36.3823 34.1823C36.3687 33.0144 36.3687 31.8465 36.3823 30.6785C36.3823 30.3254 36.2465 30.2304 35.9341 30.1489C33.7884 29.6192 32.3081 28.3291 31.5476 26.2513C31.4118 25.8846 31.3168 25.871 31.0044 26.0883C29.8908 26.9031 28.655 27.4192 27.2833 27.6093C26.971 27.6501 26.8488 27.7723 26.8488 28.0846C26.9031 28.8044 26.9031 29.5378 26.8895 30.2711ZM15.6041 27.2155C15.6041 27.4735 15.6041 27.6229 15.6041 27.7859C15.6312 28.4513 15.7127 28.5192 16.3238 28.2612C17.9807 27.5686 18.8634 26.3056 19.0671 24.5401C19.0943 24.3228 19.0128 24.1463 18.8906 23.9833C18.3337 23.1821 17.9128 22.3265 17.6683 21.3759C17.5868 21.0363 17.3695 20.819 17.0979 20.6425C14.8028 19.1351 11.72 20.1129 10.7151 22.666C9.80516 24.9611 11.041 27.5957 13.3497 28.3563C13.7435 28.4785 13.9336 28.4377 13.9065 27.9896C13.8929 27.6365 13.8929 27.2834 13.9065 26.9167C13.9201 26.5908 13.8114 26.3871 13.5262 26.2105C12.9287 25.8303 12.3311 25.4364 11.7472 25.029C11.2719 24.7031 11.1496 24.2278 11.4212 23.8068C11.6929 23.3722 12.2089 23.2907 12.7114 23.6031C12.9558 23.7524 13.1867 23.9154 13.4312 24.0784C13.5398 24.1463 13.662 24.2957 13.7843 24.2278C13.9472 24.1463 13.8793 23.9562 13.8929 23.8068C13.9065 23.4401 13.8929 23.0598 13.8929 22.6932C13.9065 22.0549 14.1917 21.6882 14.7077 21.661C15.2238 21.6339 15.5905 22.0277 15.6176 22.666C15.6312 23.1006 15.6312 23.5487 15.6312 23.9833C15.6312 24.2278 15.7399 24.2821 15.9436 24.1463C16.2288 23.9562 16.5004 23.766 16.7856 23.5895C17.288 23.2771 17.7905 23.345 18.0757 23.7796C18.3473 24.2006 18.2251 24.7167 17.7498 25.0562C17.2745 25.3821 16.7991 25.7216 16.2967 25.9932C15.7399 26.2784 15.4411 26.6723 15.6041 27.2155ZM37.1564 19.9771C36.328 19.8684 35.5539 20.2079 34.807 20.6968C34.5625 20.8462 34.4267 21.0499 34.3452 21.3351C34.1279 22.1771 33.802 22.9784 33.2859 23.6845C32.96 24.1191 32.9057 24.5537 33.0143 25.0562C33.3946 26.6587 34.3181 27.7723 35.8798 28.3427C36.2737 28.4921 36.4095 28.3698 36.3823 27.976C36.3687 27.6093 36.3687 27.2291 36.3823 26.8624C36.3959 26.55 36.2872 26.3599 36.0292 26.1969C35.4181 25.8031 34.807 25.4093 34.2094 24.9883C33.7748 24.6759 33.6798 24.187 33.9378 23.7932C34.1958 23.3858 34.6712 23.2771 35.1329 23.5487C35.4181 23.7117 35.6761 23.8883 35.9341 24.0784C36.2329 24.2957 36.3823 24.2821 36.3687 23.8611C36.3551 23.4265 36.3551 22.9784 36.3823 22.5438C36.423 21.987 36.8169 21.6203 37.3058 21.661C37.7811 21.6882 38.0799 22.0549 38.107 22.5981C38.1206 23.0598 38.107 23.508 38.1206 23.9697C38.1206 24.2278 38.2157 24.3228 38.4601 24.1599C38.7453 23.9697 39.0169 23.7796 39.3021 23.6031C39.8182 23.2771 40.3071 23.345 40.5923 23.7796C40.8775 24.2006 40.7688 24.7167 40.2799 25.0562C39.9268 25.3142 39.5602 25.5858 39.1663 25.7624C38.27 26.1698 37.9712 26.8216 38.0935 27.7859C38.1749 28.4649 38.2021 28.5328 38.8404 28.2884C40.7824 27.5143 41.9096 25.45 41.4886 23.3994C41.1083 21.3351 39.3836 19.9771 37.1564 19.9771ZM26.0747 34.6305C24.0919 34.6305 22.1091 34.6305 20.14 34.6305C19.0943 34.6305 19.0943 34.6305 19.0943 35.6762C19.0943 36.3552 19.0943 36.3552 19.8004 36.3552C23.8067 36.3552 27.8266 36.3552 31.8328 36.3552C32.96 36.3552 32.9328 36.3552 32.96 35.228C32.9736 34.7255 32.797 34.6033 32.3217 34.6169C30.2303 34.6441 28.1525 34.6305 26.0747 34.6305ZM18.3881 37.9984C17.9263 37.7268 17.5189 37.3602 17.4239 36.8169C17.3559 36.3959 17.1387 36.3552 16.7991 36.3688C15.0337 36.3824 13.2818 36.3688 11.5163 36.3824C10.2262 36.3959 10.4434 36.1922 10.3891 37.5231C10.3755 38.012 10.5113 38.1614 11.0138 38.1614C13.2954 38.1343 15.5905 38.1478 17.872 38.1478C18.0214 38.1343 18.2115 38.1886 18.3881 37.9984ZM33.639 38.012C33.7341 38.0799 33.7613 38.1071 33.7884 38.1071C36.2872 38.1207 38.7996 38.175 41.2985 38.0935C42.0047 38.0664 41.4886 37.2787 41.6244 36.8713C41.7059 36.6132 41.638 36.3688 41.2577 36.3688C39.1935 36.3824 37.1292 36.3688 35.065 36.3688C34.8884 36.3688 34.7119 36.3688 34.6712 36.5997C34.5897 37.2379 34.1958 37.6589 33.639 38.012ZM19.4338 41.8417C19.393 41.8553 19.3659 41.8553 19.3251 41.8689C19.1078 42.8467 18.9041 43.8109 18.6868 44.7887C18.4424 45.9023 18.4424 45.9023 19.5967 45.9023C20.561 45.9023 20.561 45.9023 20.3165 45.006C20.0177 43.9603 19.719 42.901 19.4338 41.8417ZM32.702 41.8417C32.6612 41.8825 32.6205 41.8961 32.6069 41.9232C32.2674 43.1591 31.9279 44.3949 31.5748 45.6307C31.5069 45.8888 31.6291 45.9159 31.8192 45.9159C32.2946 45.9159 32.7699 45.9023 33.2452 45.9159C33.5304 45.9295 33.5983 45.8073 33.5304 45.5492C33.2452 44.3134 32.9736 43.0776 32.702 41.8417Z" fill="#1EC996"/>
<path d="M26.9032 18.3474C26.9032 17.7498 26.9168 17.1659 26.9032 16.5683C26.876 15.9436 26.5501 15.5905 26.034 15.5905C25.5044 15.5905 25.1649 15.93 25.1513 16.5547C25.1377 17.7362 25.1377 18.9313 25.1377 20.1128C25.1377 20.2487 25.192 20.4252 25.0698 20.4931C24.9068 20.5882 24.7982 20.4116 24.6896 20.3166C23.929 19.719 23.1821 19.1079 22.4216 18.5103C21.8376 18.0486 21.3623 18.0486 20.9956 18.5103C20.6697 18.9178 20.7919 19.4338 21.3216 19.8548C22.4759 20.7783 23.6167 21.7018 24.771 22.6117C25.0291 22.8154 25.1377 23.0191 25.1241 23.345C25.1106 24.0376 25.1106 24.7302 25.1241 25.4228C25.1377 25.7759 25.0155 25.8982 24.6488 25.8303C21.5525 25.2599 19.1351 22.3944 19.0808 19.2029C19.0265 15.835 21.2944 12.9287 24.4858 12.2497C27.5007 11.6114 30.5292 12.9831 32.0502 15.6584C33.5305 18.2931 33.1095 21.5931 30.9638 23.8339C29.9452 24.8932 28.6958 25.5315 27.2699 25.8303C27.0118 25.8846 26.8896 25.7895 26.8896 25.5179C26.8896 24.7167 26.8896 23.929 26.8896 23.1277C26.8896 22.8561 27.0662 22.7475 27.2427 22.6117C28.4242 21.6746 29.5921 20.7375 30.7736 19.7869C31.2761 19.3795 31.3576 18.877 30.9909 18.4696C30.6514 18.0758 30.1897 18.035 29.7279 18.4017C28.9267 19.0264 28.139 19.6647 27.3513 20.303C27.2427 20.3845 27.1341 20.5746 26.9711 20.4795C26.8489 20.4116 26.9032 20.2351 26.9032 20.0993C26.9032 19.5289 26.9032 18.9449 26.9032 18.3474Z" fill="#21D7A0" fill-opacity="0.2"/>
<path d="M3.69384 47.7085C18.2386 47.7085 32.7698 47.7085 47.3146 47.7085C48.5912 47.7085 48.5912 47.7085 48.5912 49.0122C48.5912 49.1345 48.5912 49.2431 48.5912 49.3653C48.564 50.1258 48.4554 50.2345 47.6948 50.2345C33.0143 50.2345 18.3473 50.2345 3.66668 50.2345C3.40865 49.3925 3.32717 48.5505 3.69384 47.7085Z" fill="#21D7A0" fill-opacity="0.2"/>
<path d="M15.6041 27.2155C15.4547 26.6723 15.7399 26.2784 16.2967 25.9797C16.7992 25.7081 17.2745 25.3685 17.7498 25.0426C18.2387 24.7031 18.3609 24.187 18.0757 23.766C17.7905 23.3315 17.3016 23.2636 16.7856 23.5759C16.5004 23.7525 16.2152 23.9426 15.9436 24.1327C15.7399 24.2685 15.6312 24.2142 15.6312 23.9698C15.6312 23.5352 15.6448 23.087 15.6177 22.6524C15.5905 22.0141 15.2238 21.6339 14.7078 21.6475C14.1917 21.6746 13.9065 22.0413 13.8929 22.6796C13.8929 23.0463 13.8929 23.4265 13.8929 23.7932C13.8929 23.9426 13.9472 24.1327 13.7843 24.2142C13.6485 24.2821 13.5398 24.1327 13.4312 24.0648C13.1867 23.9154 12.9559 23.7389 12.7114 23.5895C12.2089 23.2771 11.6929 23.3722 11.4213 23.7932C11.1496 24.2142 11.2719 24.6895 11.7472 25.0155C12.3312 25.4229 12.9151 25.8167 13.5262 26.197C13.8114 26.3735 13.9201 26.5772 13.9065 26.9031C13.8793 27.2562 13.8793 27.6093 13.9065 27.976C13.9337 28.4378 13.7435 28.4785 13.3497 28.3427C11.041 27.5822 9.80517 24.9475 10.7151 22.6524C11.72 20.0993 14.8028 19.1215 17.0979 20.6289C17.3695 20.8055 17.5868 21.0228 17.6683 21.3623C17.9128 22.3129 18.3338 23.1685 18.8906 23.9698C19.0128 24.1463 19.0943 24.3093 19.0671 24.5266C18.8498 26.292 17.9807 27.555 16.3238 28.2476C15.7263 28.5057 15.6312 28.4378 15.6041 27.7723C15.5905 27.6229 15.6041 27.4735 15.6041 27.2155Z" fill="#21D7A0" fill-opacity="0.2"/>
<path d="M37.1564 19.977C39.3836 19.9634 41.1083 21.3351 41.5157 23.3586C41.9367 25.4092 40.8095 27.4871 38.8675 28.2476C38.2292 28.5056 38.2021 28.4377 38.1206 27.7451C37.9984 26.7809 38.2971 26.129 39.1935 25.7216C39.5873 25.545 39.9404 25.2598 40.3071 25.0154C40.796 24.6759 40.9046 24.1734 40.6194 23.7388C40.3342 23.3042 39.8453 23.2363 39.3293 23.5623C39.0441 23.7388 38.7589 23.9289 38.4873 24.1191C38.2428 24.282 38.1478 24.187 38.1478 23.9289C38.1478 23.4672 38.1478 23.0191 38.1342 22.5573C38.1206 22.0005 37.8082 21.6474 37.3329 21.6203C36.8576 21.5931 36.4638 21.9462 36.4094 22.503C36.3823 22.9376 36.3823 23.3857 36.3959 23.8203C36.4094 24.2413 36.2601 24.2413 35.9613 24.0376C35.7033 23.8475 35.4316 23.6709 35.16 23.508C34.6983 23.2499 34.223 23.345 33.9649 23.7524C33.7069 24.1598 33.802 24.6487 34.2366 24.9475C34.8341 25.3685 35.4316 25.7759 36.0563 26.1562C36.3144 26.3191 36.423 26.5093 36.4094 26.8216C36.3823 27.1883 36.3959 27.5685 36.4094 27.9352C36.423 28.329 36.3008 28.4513 35.907 28.3019C34.3452 27.7315 33.4081 26.6179 33.0415 25.0154C32.9192 24.5129 32.9871 24.0783 33.3131 23.6438C33.8156 22.9376 34.1551 22.1363 34.3724 21.2943C34.4403 21.0091 34.5896 20.8054 34.8341 20.656C35.5539 20.2215 36.328 19.8819 37.1564 19.977Z" fill="#21D7A0" fill-opacity="0.2"/>
<path d="M26.0746 34.6305C28.1525 34.6305 30.2439 34.6441 32.3217 34.6169C32.797 34.6169 32.9736 34.7256 32.96 35.2281C32.9328 36.3553 32.96 36.3553 31.8328 36.3553C27.8265 36.3553 23.8067 36.3553 19.8004 36.3553C19.0942 36.3553 19.0942 36.3553 19.0942 35.6762C19.0942 34.6305 19.0942 34.6305 20.1399 34.6305C22.1091 34.6305 24.0919 34.6305 26.0746 34.6305Z" fill="#21D7A0" fill-opacity="0.2"/>
<path d="M28.0438 45.8887C28.2339 44.6665 28.6549 43.4986 28.9673 42.3171C29.2796 41.0948 29.6327 39.8726 29.9723 38.6503C30.0809 38.2836 29.9723 38.175 29.6056 38.175C26.6722 38.1886 23.7252 38.175 20.7918 38.175C20.6017 38.175 20.4115 38.1614 20.3301 38.3923C20.235 38.2565 20.2214 38.1342 20.4251 38.1071C20.5609 38.0935 20.6967 38.0935 20.8325 38.0935C24.2956 38.0935 27.7722 38.0935 31.2352 38.1071C31.8464 38.1071 31.8464 38.1071 31.6834 38.691C31.0723 40.9318 30.4612 43.1591 29.8636 45.3998C29.755 45.7937 29.6056 45.9838 29.171 45.9295C28.7907 45.8752 28.4241 45.8887 28.0438 45.8887Z" fill="#21D7A0" fill-opacity="0.2"/>
<path d="M18.388 37.9985C18.2115 38.1886 18.0349 38.1343 17.872 38.1343C15.5904 38.1343 13.2953 38.1207 11.0138 38.1479C10.5113 38.1479 10.3755 37.9985 10.3891 37.5096C10.4298 36.1787 10.2261 36.3824 11.5163 36.3688C13.2817 36.3552 15.0336 36.3688 16.7991 36.3552C17.1386 36.3552 17.3559 36.396 17.4238 36.8034C17.5053 37.3602 17.9127 37.7133 18.388 37.9985Z" fill="#21D7A0" fill-opacity="0.2"/>
<path d="M33.6389 38.012C34.1957 37.6589 34.5896 37.2244 34.671 36.5996C34.6982 36.3688 34.8883 36.3688 35.0649 36.3688C37.1291 36.3688 39.1934 36.3688 41.2576 36.3688C41.6379 36.3688 41.7058 36.6132 41.6243 36.8713C41.5021 37.2923 42.0045 38.0799 41.2983 38.0935C38.7995 38.1886 36.2871 38.1207 33.7883 38.1071C33.7611 38.1071 33.734 38.0799 33.6389 38.012Z" fill="#21D7A0" fill-opacity="0.2"/>
<path d="M37.4958 45.8887C37.944 43.8924 38.3786 41.8825 38.8267 39.8861C39.1934 39.8725 39.5737 39.8861 39.9403 39.859C40.4157 39.8182 40.5243 39.9948 40.4293 40.4429C40.1033 41.8417 39.8045 43.2405 39.4922 44.6393C39.207 45.9159 39.1934 45.9159 37.8625 45.9023C37.7267 45.9023 37.6181 45.9023 37.4958 45.8887Z" fill="#21D7A0" fill-opacity="0.2"/>
<path d="M14.9387 45.8887C15.3869 43.8924 15.8215 41.8825 16.2696 39.8861C16.7042 39.8861 17.1524 39.8861 17.5869 39.859C17.9264 39.8454 17.9808 39.9812 17.9129 40.28C17.519 42.0318 17.1252 43.7702 16.7585 45.522C16.7042 45.8072 16.5684 45.9159 16.2696 45.9023C15.8215 45.8887 15.3869 45.9023 14.9387 45.8887Z" fill="#21D7A0" fill-opacity="0.2"/>
<path d="M3.69397 47.7085C3.34088 48.5505 3.40878 49.4061 3.66681 50.2481C3.3273 50.2481 2.98779 50.2616 2.64827 50.2616C2.4174 50.2616 2.21369 50.1937 2.03715 50.0444C1.45318 49.5419 1.62973 48.0752 2.32234 47.7085C2.78408 47.7085 3.23224 47.7085 3.69397 47.7085Z" fill="#E8EDF9"/>
<path d="M3.68041 47.7086C3.23225 47.7086 2.7841 47.7086 2.33594 47.7222C2.77052 47.5864 3.23225 47.5592 3.68041 47.7086Z" fill="#21D7A0" fill-opacity="0.2"/>
<path d="M43.3085 25.2734C43.3357 25.3006 43.3357 25.3278 43.2949 25.3549C43.2949 25.3278 43.2949 25.3006 43.3085 25.2734Z" fill="#E8EDF9"/>
<path d="M2.60748 42.4664C3.05564 42.4664 3.44947 42.8467 3.46306 43.2948C3.47664 43.7837 3.09638 44.164 2.62106 44.1776C2.15932 44.1776 1.77907 43.8109 1.76549 43.3627C1.73832 42.8738 2.13216 42.4664 2.60748 42.4664Z" fill="#1EC996"/>
</svg>
