<svg width="53" height="52" viewBox="0 0 53 52" fill="none" xmlns="http://www.w3.org/2000/svg">
<path d="M9.54316 9.6451C9.11585 9.6858 8.72923 9.86893 8.33244 10.0012C7.72199 10.1945 7.26416 10.0114 7.08102 9.50267C6.90806 9.03466 7.15224 8.59717 7.74234 8.38351C11.2219 7.11175 14.4674 7.55941 17.306 9.92998C20.1548 12.3209 21.2434 15.4545 20.5312 19.1172C19.758 23.1055 16.6345 26.0254 12.6564 26.6257C12.2698 26.6868 12.1376 26.8292 12.1376 27.2362C12.1579 31.377 12.1477 35.5281 12.1477 39.6689C12.1477 39.9233 12.1681 40.1573 12.3817 40.3506C13.155 41.0628 13.6128 41.948 13.7858 42.9857C13.8265 43.2502 13.9282 43.3418 14.2029 43.3723C17.5299 43.6979 19.2289 47.1469 17.4892 49.9957C17.4586 50.0567 17.4281 50.1076 17.3976 50.1686C17.4688 50.3314 17.6112 50.2602 17.713 50.2602C19.4528 50.2602 21.1925 50.25 22.9425 50.2704C23.2986 50.2704 23.4105 50.1788 23.4003 49.8125C23.38 48.6425 23.3902 47.4827 23.4003 46.3127C23.4003 46.0685 23.3596 45.9362 23.0646 45.8752C22.2506 45.7022 21.7725 45.1426 21.6911 44.3185C21.6199 43.6267 21.5995 42.9348 21.7012 42.243C21.8335 41.3172 22.505 40.7372 23.4512 40.7271C24.4483 40.7067 25.4453 40.7067 26.4424 40.7271C26.7985 40.7372 26.9002 40.6253 26.9002 40.2692C26.9002 38.9873 26.9104 38.9873 25.659 38.9873C24.9671 38.9873 24.2753 38.9873 23.5835 38.9873C22.4236 38.9771 21.6911 38.2954 21.6809 37.1458C21.6707 36.3624 21.5588 35.5586 21.864 34.7854C21.8946 34.7141 21.8946 34.6124 21.864 34.5412C21.569 33.7578 21.6707 32.9337 21.6911 32.1299C21.7216 31.0209 22.4338 30.3494 23.5428 30.3494C32.4248 30.3494 41.2966 30.3494 50.1786 30.3494C51.308 30.3494 52.0201 31.0616 51.9998 32.191C51.9896 32.9744 52.1626 33.7781 51.8167 34.5514C51.7963 34.6124 51.7861 34.6938 51.8167 34.7447C52.1626 35.5383 51.9896 36.3827 51.9998 37.2068C52.01 38.2649 51.2673 38.9771 50.2091 38.9873C49.2121 38.9975 48.215 38.9975 47.218 38.9873C46.9026 38.9771 46.8212 39.089 46.8212 39.3942C46.8008 40.7271 46.7906 40.7271 48.1133 40.7271C48.8255 40.7271 49.5377 40.7169 50.2397 40.7271C51.2673 40.7474 51.9896 41.4698 52.01 42.4974C52.0201 43.0366 52.0201 43.5758 52.01 44.1252C51.9998 45.0612 51.5013 45.692 50.5856 45.8955C50.3516 45.9464 50.2804 46.0278 50.2804 46.2516C50.2905 47.4827 50.2905 48.7239 50.2804 49.955C50.2804 50.1992 50.3618 50.2907 50.6059 50.2704C50.7382 50.2602 50.8806 50.2704 51.0129 50.2704C51.43 50.2602 51.7454 50.4433 51.8777 50.8401C52.01 51.2471 51.9082 51.6032 51.542 51.8677C51.4911 51.9084 51.4504 51.9593 51.3995 52C34.5206 52 17.6316 52 0.752716 52C0.406796 51.8677 0.172791 51.6235 0.0405273 51.2878C0.0405273 47.4928 0.0405273 43.7081 0.0405273 39.9131C0.203313 39.791 0.193139 39.5876 0.24401 39.4146C0.427144 38.8448 0.701846 38.326 1.09864 37.8783C2.06518 36.81 3.26573 36.3217 4.71045 36.4234C4.87324 36.4336 5.08689 36.576 5.20898 36.342C5.43282 35.9045 5.14794 35.3449 4.66975 35.2229C3.02155 34.7955 1.77013 33.8595 0.88498 32.4046C0.457666 31.7026 0.315229 30.909 0.0405273 30.1663C0.0405273 29.6576 0.0405273 29.1489 0.0405273 28.6402C0.24401 27.9891 0.345751 27.2972 0.671323 26.6868C1.37334 25.3336 2.40093 24.3264 3.83548 23.7668C4.15088 23.6447 4.20175 23.5531 3.96774 23.2683C1.72943 20.4704 1.2309 17.3673 2.3704 13.9895C2.57389 13.379 2.98085 13.1348 3.45903 13.2874C3.98809 13.4604 4.21192 13.9386 3.99826 14.5592C3.2352 16.828 3.37764 19.0053 4.54767 21.1113C4.98515 21.9049 5.57525 22.5662 6.25692 23.1665C6.40953 23.2988 6.57232 23.3497 6.75545 23.3802C7.12172 23.431 7.48799 23.5124 7.84408 23.5735C8.64784 23.8482 9.39055 24.2348 10.0417 24.7944C10.1536 24.8859 10.3774 25.008 10.3774 24.774C10.3876 24.2755 10.5707 23.7566 10.0926 23.309C9.26846 22.5561 8.5054 21.7421 7.72199 20.9486C7.52868 20.7552 7.3252 20.5721 7.17259 20.3585C6.88771 19.9718 6.94876 19.5242 7.28451 19.219C7.5999 18.9341 8.02722 18.9137 8.39349 19.1986C8.56645 19.3309 8.71906 19.4937 8.87167 19.6564C9.33968 20.155 9.79751 20.6637 10.2655 21.1622C10.3164 21.1215 10.3673 21.091 10.4181 21.0503C10.4181 20.6535 10.3978 20.2465 10.4283 19.8497C10.4588 19.4631 10.3266 19.1884 10.0519 18.9137C9.19724 18.0896 8.37314 17.2452 7.52868 16.4109C6.92841 15.8106 6.83684 15.2917 7.26416 14.8848C7.6813 14.488 8.14931 14.5796 8.74958 15.19C9.25829 15.7191 9.75682 16.2685 10.3367 16.8993C10.469 16.2278 10.3266 15.7292 10.4894 15.2612C10.6114 14.8848 10.876 14.6609 11.2728 14.6508C11.6899 14.6406 11.9748 14.8543 12.107 15.251C12.1884 15.4952 12.1884 15.7496 12.1884 16.0039C12.1884 16.2379 12.1477 16.4923 12.2597 16.7975C12.8905 16.1565 13.4602 15.5563 14.0605 14.9763C14.5488 14.5083 15.1389 14.549 15.4543 15.0374C15.6985 15.4138 15.6375 15.8208 15.2508 16.2176C14.4064 17.0722 13.5518 17.9167 12.7073 18.7713C12.1783 19.3003 11.9951 20.2771 12.3309 21.0706C12.921 20.4704 13.4805 19.9006 14.0503 19.3207C14.3453 19.0155 14.6913 18.8832 15.1084 19.0562C15.6883 19.3105 15.7697 20.0227 15.2712 20.5314C14.4166 21.4064 13.5721 22.2814 12.687 23.1055C12.3105 23.4616 12.1477 23.8278 12.1884 24.3467C12.2291 24.9165 12.2495 24.9572 12.7989 24.8351C14.4878 24.4485 15.9529 23.665 17.1025 22.3526C18.7304 20.5009 19.3714 18.3338 18.9542 15.9225C18.4862 13.206 16.9296 11.2424 14.4166 10.1131C12.8294 9.4111 11.2117 9.19744 9.54316 9.6451ZM23.4512 32.0994C23.2986 32.659 23.2884 33.2186 23.4614 33.768C23.9701 33.768 24.4686 33.7781 24.9773 33.7781C25.1096 33.7883 25.2418 33.7985 25.3843 33.7985C33.2489 33.7883 41.1033 33.7883 48.9679 33.7781C50.2804 33.7781 50.2702 33.7781 50.2397 32.4758C50.2295 32.1503 50.1176 32.0791 49.8225 32.0892C48.9984 32.0994 48.1641 32.0689 47.34 32.0689C41.7748 32.0689 36.2197 32.0689 30.6545 32.0689C28.7926 32.0689 26.9409 32.0791 25.0791 32.0791C24.5297 32.0892 23.9904 32.0892 23.4512 32.0994ZM23.4512 42.4668C23.2884 43.0264 23.2986 43.586 23.4512 44.1456C23.9904 44.1456 24.5297 44.1557 25.0689 44.1557C25.2418 44.1557 25.4046 44.1659 25.5776 44.1659C33.371 44.1557 41.1643 44.1456 48.9577 44.1456C50.2702 44.1456 50.26 44.1456 50.2295 42.8433C50.2193 42.5177 50.1074 42.4465 49.8124 42.4567C49.1714 42.4668 48.5304 42.4465 47.8894 42.4465C40.4827 42.4465 33.0759 42.4465 25.6793 42.4465C25.4758 42.4465 25.2724 42.4567 25.0689 42.4668C24.5297 42.4668 23.9904 42.4668 23.4512 42.4668ZM5.15811 32.9947C5.16829 32.6997 5.29038 32.3843 5.0462 32.1299C4.61888 31.7026 4.1814 31.2956 3.74391 30.8785C3.47938 30.6038 3.21485 30.3291 2.95033 30.0442C2.38058 29.4338 2.54336 28.803 3.34712 28.4978C4.22209 28.4672 4.49679 29.3422 5.18864 29.7288C5.18864 29.2913 5.16829 28.9149 5.18864 28.5283C5.22933 27.9789 5.61595 27.5923 6.07378 27.6126C6.57232 27.633 6.88771 27.9992 6.90806 28.569C6.91824 28.9454 6.90806 29.3219 6.90806 29.6983C6.97928 29.739 7.04033 29.7797 7.11155 29.8102C7.41677 29.4541 7.70164 29.0777 8.02722 28.7419C8.28157 28.4876 8.61732 28.396 8.96324 28.5181C9.29898 28.63 9.46177 28.9149 9.51264 29.2506C9.56351 29.6067 9.36003 29.8611 9.1362 30.0951C8.48505 30.7361 7.83391 31.377 7.18276 32.018C6.92841 32.2622 6.79615 33.0252 6.92841 33.3406C6.98946 33.4933 7.11155 33.4831 7.22346 33.4526C7.4066 33.4119 7.57956 33.3508 7.75252 33.2796C10.3367 32.1401 11.1812 28.9251 9.44142 26.6969C8.44436 25.415 7.0912 24.8859 5.47351 25.0691C3.5099 25.2726 2.00413 26.8597 1.74978 28.9963C1.52595 30.8276 2.80789 32.7709 4.62906 33.4017C5.20898 33.6153 5.20898 33.6153 5.15811 32.9947ZM1.74978 50.1483C1.73961 50.2093 1.77013 50.2399 1.83117 50.2297C2.3704 50.2297 2.90963 50.2297 3.44886 50.2297C6.92841 50.2399 10.4181 50.25 13.8977 50.2399C14.7116 50.2399 15.4035 49.8838 15.8918 49.2021C16.5023 48.3577 16.604 47.4623 16.1665 46.5263C15.7697 45.692 15.0779 45.2138 14.152 45.0918C13.8163 45.0511 13.6332 45.1426 13.5314 45.4885C13.3279 46.1499 12.9006 46.6789 12.4021 47.1469C11.9951 47.5335 11.4355 47.4725 11.1202 47.0248C10.8149 46.5874 10.9472 46.1906 11.2728 45.8345C11.8934 45.163 12.1172 44.3694 12.0765 43.4537C11.9951 41.8259 10.2554 40.4625 8.65801 40.7779C7.73217 40.9611 7.01998 41.4392 6.48075 42.2125C6.12466 42.7212 5.6363 42.8229 5.21916 42.5279C4.80202 42.2227 4.74097 41.7445 5.06655 41.2256C5.40229 40.6965 5.78891 40.198 6.32814 39.8521C6.61301 39.6689 6.63336 39.4756 6.44005 39.2315C5.96187 38.621 5.3616 38.214 4.55784 38.1835C4.53749 38.1632 4.50697 38.153 4.47645 38.153C4.33401 38.0513 4.20175 38.0614 4.05931 38.153C2.89946 38.2547 1.98379 39.1094 1.81083 40.259C1.74978 40.3201 1.73961 40.4015 1.75995 40.4829C1.75995 43.7183 1.74978 46.9333 1.74978 50.1483ZM25.1706 37.2373C25.3741 37.2475 25.5776 37.2577 25.7811 37.2577C33.5032 37.2475 41.2356 37.2475 48.9577 37.2373C50.2702 37.2373 50.26 37.2373 50.2295 35.935C50.2193 35.6095 50.1176 35.5383 49.8124 35.5383C49.1714 35.5484 48.5304 35.5179 47.8894 35.5179C40.5132 35.5179 33.1471 35.5179 25.7709 35.5179C25.5674 35.5179 25.3639 35.5281 25.1604 35.5383C24.9875 35.5281 24.8247 35.5179 24.6517 35.5179C23.2375 35.5179 23.2477 35.5179 23.3495 36.9423C23.3698 37.1865 23.4512 37.2577 23.6852 37.2577C24.1939 37.2373 24.6823 37.2373 25.1706 37.2373ZM36.8505 45.9057C34.2663 45.9057 31.6719 45.9159 29.0877 45.8955C28.7214 45.8955 28.5891 45.9769 28.5993 46.3737C28.6298 47.5234 28.6197 48.673 28.5993 49.8227C28.5891 50.1585 28.6909 50.25 29.0266 50.25C34.2358 50.2399 39.4449 50.2399 44.6541 50.25C45.0102 50.25 45.0712 50.1076 45.061 49.8024C45.0509 48.673 45.0407 47.5335 45.061 46.4042C45.0712 46.0176 44.9695 45.8853 44.5625 45.8853C41.9885 45.9159 39.4144 45.9057 36.8505 45.9057ZM36.8505 40.7169C39.1804 40.7169 41.5103 40.7169 43.8503 40.7169C45.061 40.7169 45.0407 40.7169 45.061 39.5062C45.0712 39.0788 44.9491 38.9771 44.532 38.9771C39.6281 38.9873 34.7343 38.9873 29.8304 38.9873C28.5891 38.9873 28.6095 38.9873 28.5891 40.2183C28.579 40.6151 28.701 40.7271 29.0978 40.7271C31.6821 40.7067 34.2663 40.7169 36.8505 40.7169ZM10.3774 33.7578C10.1943 33.7069 10.1333 33.7985 10.062 33.8697C9.48212 34.4089 8.80045 34.7548 8.07809 35.0499C7.70164 35.2025 7.12172 35.0702 6.95893 35.4772C6.80632 35.8536 6.91824 36.342 6.91824 36.7795C6.91824 37.0338 6.89789 37.2679 7.14207 37.4612C7.5999 37.8274 7.94582 38.2751 8.19 38.8041C8.2714 38.9771 8.35279 39.0687 8.57662 39.0382C9.04463 38.9568 9.51264 38.9771 9.98065 39.089C10.296 39.1704 10.3876 39.0483 10.3876 38.7329C10.3774 37.5222 10.3774 36.3013 10.3774 35.0906C10.3774 34.6328 10.3774 34.1851 10.3774 33.7578ZM26.8697 48.0728C26.8697 47.7879 26.8697 47.4929 26.8697 47.208C26.8697 45.8853 26.8697 45.8955 25.5471 45.8955C25.1808 45.8955 25.0892 46.0176 25.0994 46.3635C25.1197 47.208 25.1096 48.0524 25.1096 48.8969C25.1096 50.3314 25.1096 50.3213 26.534 50.25C26.8087 50.2399 26.8799 50.1483 26.8799 49.8939C26.8595 49.2835 26.8697 48.6832 26.8697 48.0728ZM48.5101 48.0728C48.5101 47.7879 48.5101 47.4929 48.5101 47.208C48.5101 45.8345 48.5101 45.8446 47.1467 45.8955C46.8517 45.9057 46.7703 45.9972 46.7703 46.2821C46.7805 47.1774 46.7805 48.0728 46.7805 48.9681C46.7805 50.3213 46.7805 50.3111 48.1641 50.25C48.4287 50.2399 48.5202 50.1585 48.5101 49.8939C48.4999 49.2937 48.5101 48.6832 48.5101 48.0728Z" fill="#1EC996"/>
<path d="M0 51.2676C0.132264 51.6033 0.366268 51.8475 0.712189 51.9798C-1.94056e-07 51.9798 0 51.9798 0 51.2676Z" fill="#21D7A0" fill-opacity="0.2"/>
<path d="M49.5681 12.1174C51.8064 12.5447 52.4779 14.6508 51.5826 16.0752C50.9925 17.0112 50.0972 17.3368 49.0289 17.3368C41.4797 17.3368 33.9407 17.3368 26.3915 17.3368C25.8319 17.3368 25.2825 17.3774 24.7229 17.2757C23.4308 17.0519 22.5151 15.9938 22.5355 14.6915C22.5456 13.4095 23.502 12.3413 24.7941 12.1683C25.7403 12.0462 26.6865 12.1378 27.6327 12.1073C28.2228 12.0869 28.5687 11.7715 28.5585 11.2628C28.5484 10.8355 28.3449 10.5506 27.9277 10.459C27.7039 10.4082 27.4597 10.3878 27.2257 10.3878C25.3639 10.3776 23.502 10.3878 21.6401 10.3776C20.6227 10.3675 19.8597 9.90964 19.3815 9.01432C18.9135 8.13934 18.9643 7.24402 19.4832 6.40974C20.0428 5.52459 20.8873 5.18884 21.9047 5.18884C26.5542 5.18884 31.214 5.18884 35.8636 5.18884C36.5554 5.18884 37.2472 5.1685 37.9493 5.19902C38.2545 5.20919 38.3867 5.10745 38.4783 4.8124C39.4042 1.9026 42.0698 -0.0101337 45.1525 4.03907e-05C47.869 0.0102145 50.4126 1.73982 51.4503 4.28335C52.4983 6.84723 51.9183 9.82825 49.9954 11.7512C49.8937 11.8631 49.7614 11.9546 49.5681 12.1174ZM22.7389 8.6277C24.3566 8.63787 25.9743 8.6277 27.592 8.64805C29.1385 8.6684 30.2576 9.72651 30.3288 11.2018C30.3899 12.4837 29.3826 13.6028 27.9583 13.8369C27.3682 13.9386 26.7781 13.8369 26.188 13.8979C25.8319 13.8877 25.486 13.8674 25.1299 13.8877C24.6415 13.9081 24.3261 14.2031 24.2651 14.6406C24.2142 15.0577 24.4584 15.3833 24.9569 15.5359C25.14 15.6784 25.3435 15.6173 25.547 15.6173C33.3607 15.6173 41.1745 15.6072 48.9882 15.6072C49.1917 15.6072 49.3952 15.6072 49.5885 15.5461C49.9954 15.4138 50.2091 15.1391 50.2193 14.722C50.2294 14.3049 49.9853 14.0302 49.5885 13.9081C49.3239 13.8267 49.0594 13.8369 48.7847 13.8369C45.2034 13.8369 41.6119 13.847 38.0307 13.8165C36.6877 13.8063 35.6092 12.7584 35.5278 11.4968C35.4464 10.0724 36.3316 8.95327 37.7051 8.70909C38.4274 8.57683 39.16 8.65822 39.8823 8.64805C41.0117 8.6277 42.1512 8.63787 43.2805 8.63787C43.7485 8.63787 44.0537 8.39369 44.1453 7.93586C44.2267 7.51872 44.0334 7.2135 43.6569 7.03036C43.4433 6.92862 43.1991 6.91845 42.9651 6.91845C35.9755 6.91845 28.996 6.90827 22.0064 6.90827C21.8029 6.90827 21.5994 6.8574 21.4163 6.99984C20.9381 7.15245 20.7448 7.49837 20.8262 7.95621C20.9178 8.43439 21.2535 8.64805 21.7317 8.63787C22.0675 8.64805 22.4032 8.63787 22.7389 8.6277ZM41.2152 10.3776C42.5988 12.0666 45.2645 12.616 47.167 11.6596C49.5274 10.4794 50.6771 8.11899 50.0768 5.70773C49.4969 3.3982 47.3502 1.69912 45.061 1.72964C42.843 1.76016 40.6149 3.34733 40.2486 5.14815C40.2791 5.15832 40.3097 5.17867 40.3402 5.17867C41.2559 5.17867 42.1614 5.18884 43.077 5.18884C43.5043 5.18884 43.9215 5.23972 44.3183 5.41268C45.4578 5.90103 46.0987 7.12193 45.8546 8.3123C45.6206 9.48233 44.593 10.337 43.3619 10.3675C42.6802 10.3878 41.9884 10.3776 41.2152 10.3776ZM40.4216 12.1479C40.1062 11.6799 39.7196 11.3951 39.4652 10.9983C39.0379 10.3268 38.8039 10.2556 38.0001 10.4285C37.5321 10.5201 37.2778 10.805 37.2676 11.2628C37.2574 11.7206 37.5219 12.036 37.99 12.0971C38.7632 12.209 39.5568 12.1174 40.4216 12.1479Z" fill="#1EC996"/>
<path d="M9.54316 9.64511C11.2117 9.19745 12.8294 9.41111 14.3759 10.1131C16.899 11.2526 18.4455 13.2061 18.9135 15.9226C19.3307 18.3338 18.6897 20.5009 17.0618 22.3526C15.9122 23.6752 14.4471 24.4485 12.7582 24.8351C12.2088 24.9572 12.1884 24.9165 12.1477 24.3467C12.107 23.8278 12.2698 23.4616 12.6463 23.1055C13.5314 22.2712 14.386 21.3962 15.2305 20.5314C15.729 20.0227 15.6375 19.3105 15.0677 19.0562C14.6607 18.873 14.3148 19.0155 14.0096 19.3207C13.4398 19.9006 12.8701 20.4704 12.2902 21.0707C11.9646 20.2771 12.1376 19.3004 12.6666 18.7713C13.5111 17.9269 14.3657 17.0722 15.2101 16.2176C15.6069 15.8208 15.668 15.4138 15.4136 15.0374C15.0982 14.549 14.5081 14.5083 14.0198 14.9764C13.4195 15.5461 12.8497 16.1464 12.219 16.7975C12.107 16.4923 12.1477 16.2379 12.1477 16.0039C12.1477 15.7496 12.1477 15.4952 12.0663 15.2511C11.9341 14.8543 11.6492 14.6304 11.2321 14.6508C10.8353 14.661 10.5707 14.8848 10.4487 15.2612C10.296 15.7292 10.4283 16.2278 10.296 16.8993C9.70594 16.2685 9.21758 15.7191 8.70888 15.19C8.1086 14.5694 7.64059 14.488 7.22345 14.8848C6.79614 15.2918 6.87753 15.8005 7.48798 16.4109C8.32226 17.2452 9.15654 18.0998 10.0112 18.9137C10.296 19.1884 10.4181 19.4631 10.3876 19.8498C10.3571 20.2466 10.3774 20.6535 10.3774 21.0503C10.3266 21.091 10.2757 21.1215 10.2248 21.1622C9.75681 20.6535 9.29898 20.155 8.83097 19.6565C8.67835 19.4937 8.52574 19.3309 8.35278 19.1986C7.98651 18.9137 7.5592 18.9341 7.2438 19.219C6.90806 19.5242 6.84701 19.9719 7.13189 20.3585C7.2845 20.5721 7.49816 20.7553 7.68129 20.9486C8.4647 21.7422 9.23793 22.5561 10.0519 23.309C10.5402 23.7566 10.3469 24.2755 10.3367 24.774C10.3367 25.008 10.1129 24.886 10.001 24.7944C9.34985 24.2348 8.61731 23.838 7.80338 23.5735C7.75251 23.2072 7.42694 23.0139 7.21328 22.7697C5.91099 21.264 5.24967 19.4835 5.1988 17.5504C5.13776 15.424 5.77873 13.4502 7.15224 11.7512C7.85425 10.8965 8.74957 10.337 9.54316 9.64511Z" fill="#21D7A0" fill-opacity="0.2"/>
<path d="M5.89081 11.2119C5.88064 11.6799 5.5042 12.0462 5.04636 12.036C4.57835 12.0258 4.17139 11.6392 4.17139 11.2119C4.17139 10.7541 4.6394 10.2962 5.09723 10.3166C5.53472 10.3369 5.90099 10.7337 5.89081 11.2119Z" fill="#1EC996"/>
<path d="M4.5582 38.1936C5.36195 38.2241 5.96223 38.6311 6.44041 39.2415C6.63372 39.4857 6.61337 39.679 6.3285 39.8622C5.78927 40.2081 5.40265 40.6964 5.06691 41.2357C4.74133 41.7545 4.80238 42.2327 5.21952 42.538C5.63666 42.833 6.12501 42.7313 6.48111 42.2226C7.02034 41.4392 7.73253 40.9711 8.65837 40.788C10.2557 40.4726 11.9955 41.8461 12.0769 43.4638C12.1277 44.3693 11.8937 45.1629 11.2731 45.8445C10.9475 46.2006 10.8153 46.6076 11.1205 47.0349C11.4257 47.4826 11.9853 47.5436 12.4025 47.157C12.901 46.689 13.3283 46.1599 13.5318 45.4986C13.6437 45.1527 13.8167 45.051 14.1524 45.1018C15.0782 45.2239 15.7701 45.6919 16.1669 46.5364C16.6145 47.4724 16.5026 48.3779 15.8922 49.2122C15.4038 49.8939 14.712 50.2398 13.898 50.2499C10.4185 50.2601 6.92877 50.2499 3.44922 50.2398C3.44922 47.2181 3.45939 44.1963 3.44922 41.1848C3.44922 40.0351 3.70357 39.0075 4.5582 38.1936Z" fill="#21D7A0" fill-opacity="0.2"/>
<path d="M25.069 32.079C26.9309 32.079 28.7826 32.0688 30.6444 32.0688C36.2097 32.0688 41.7648 32.0688 47.33 32.0688C48.1541 32.0688 48.9884 32.0994 49.8125 32.0892C50.1076 32.0892 50.2195 32.1502 50.2296 32.4758C50.25 33.7679 50.2703 33.7679 48.9579 33.7781C41.0933 33.7883 33.2389 33.7883 25.3743 33.7984C25.242 33.7984 25.1097 33.7883 24.9673 33.7781C25.1911 33.2287 25.0182 32.6488 25.069 32.079Z" fill="#21D7A0" fill-opacity="0.2"/>
<path d="M25.0688 42.4566C25.2723 42.4465 25.4758 42.4363 25.6793 42.4363C33.0861 42.4363 40.4928 42.4363 47.8894 42.4363C48.5304 42.4363 49.1714 42.4668 49.8123 42.4465C50.1074 42.4363 50.2193 42.5075 50.2295 42.8331C50.2498 44.1252 50.2702 44.1354 48.9577 44.1354C41.1643 44.1455 33.3709 44.1557 25.5776 44.1557C25.4046 44.1557 25.2418 44.1455 25.0688 44.1455C25.0688 43.5961 25.0688 43.0264 25.0688 42.4566Z" fill="#21D7A0" fill-opacity="0.2"/>
<path d="M25.1709 35.5484C25.3744 35.5383 25.5779 35.5281 25.7813 35.5281C33.1576 35.5281 40.5237 35.5281 47.8999 35.5281C48.5409 35.5281 49.1818 35.5586 49.8228 35.5484C50.1179 35.5383 50.2298 35.6196 50.24 35.9452C50.2603 37.2373 50.2705 37.2373 48.9682 37.2475C41.246 37.2577 33.5137 37.2577 25.7915 37.2679C25.588 37.2679 25.3846 37.2577 25.1811 37.2475C25.1709 36.6778 25.1709 36.108 25.1709 35.5484Z" fill="#21D7A0" fill-opacity="0.2"/>
<path d="M5.47356 25.0894C7.09125 24.9165 8.44441 25.4353 9.44147 26.7173C11.1711 28.9454 10.3368 32.1604 7.75257 33.2999C7.57961 33.3712 7.40664 33.4322 7.22351 33.4729C7.11159 33.5034 6.99968 33.5136 6.92846 33.361C6.80637 33.0558 6.93863 32.2927 7.18281 32.0384C7.83396 31.3974 8.4851 30.7564 9.13625 30.1154C9.37025 29.8814 9.56356 29.6271 9.51269 29.271C9.46182 28.9352 9.28886 28.6605 8.96329 28.5385C8.61737 28.4164 8.28162 28.4978 8.02727 28.7623C7.70169 29.098 7.41682 29.4745 7.11159 29.8306C7.04038 29.7899 6.97933 29.7492 6.90811 29.7186C6.90811 29.3422 6.91829 28.9658 6.90811 28.5893C6.89794 28.0196 6.57237 27.6533 6.07383 27.633C5.60582 27.6126 5.21921 27.9992 5.18868 28.5486C5.16834 28.9251 5.18868 29.3117 5.18868 29.7492C4.49684 29.3727 4.22214 28.4876 3.34717 28.5181C3.49978 28.4062 3.60152 28.2739 3.65239 28.0806C3.8864 27.1548 4.33406 26.3408 5.03607 25.6795C5.20903 25.4964 5.45321 25.3743 5.47356 25.0894Z" fill="#21D7A0" fill-opacity="0.2"/>
<path d="M4.55806 38.1938C3.70343 39.0077 3.44908 40.0353 3.44908 41.1748C3.44908 44.1965 3.44908 47.2182 3.44908 50.2298C2.90985 50.2298 2.37062 50.2298 1.83139 50.2298C1.80087 50.1992 1.78052 50.1789 1.75 50.1484C1.75 46.9333 1.76017 43.7183 1.76017 40.5033C1.83139 40.4423 1.83139 40.3609 1.81104 40.2795C1.98401 39.1298 2.89968 38.2752 4.05953 38.1734C4.20196 38.1734 4.33423 38.1734 4.47667 38.1734C4.50719 38.1633 4.53771 38.1734 4.55806 38.1938Z" fill="#FEFFFF"/>
<path d="M5.47346 25.0894C5.45311 25.3742 5.20893 25.5065 5.0258 25.6693C4.33396 26.3306 3.8863 27.1344 3.65229 28.0602C3.60142 28.2535 3.49968 28.3858 3.34707 28.4977C2.54331 28.7927 2.38053 29.4235 2.95028 30.0442C3.21481 30.329 3.47933 30.6037 3.74386 30.8784C3.99821 31.7331 4.32379 32.5266 5.15806 32.9947C5.20893 33.6153 5.20893 33.6153 4.63918 33.4118C2.80784 32.781 1.53607 30.8377 1.75991 29.0064C2.01426 26.8698 3.50986 25.2827 5.47346 25.0894Z" fill="#FEFFFF"/>
<path d="M25.1706 35.5483C25.1706 36.1079 25.1706 36.6675 25.1706 37.2373C24.6822 37.2474 24.1939 37.2474 23.7055 37.2576C23.4715 37.2678 23.3901 37.1966 23.3698 36.9422C23.268 35.5178 23.2578 35.5178 24.672 35.5178C24.8348 35.528 24.9976 35.5382 25.1706 35.5483Z" fill="#FEFFFF"/>
<path d="M25.0689 42.4565C25.0689 43.0263 25.0689 43.5859 25.0689 44.1556C24.5296 44.1556 23.9904 44.1454 23.4512 44.1454C23.4512 43.5859 23.4512 43.0263 23.4512 42.4667C23.9904 42.4667 24.5296 42.4667 25.0689 42.4565Z" fill="#FEFFFF"/>
<path d="M25.0693 32.0791C25.0184 32.6489 25.1914 33.2186 24.9675 33.7782C24.4588 33.7782 23.9603 33.768 23.4516 33.768C23.4516 33.2084 23.4516 32.659 23.4414 32.0995C23.9908 32.0893 24.53 32.0893 25.0693 32.0791Z" fill="#FEFFFF"/>
<path d="M5.15834 32.9946C4.33424 32.5266 3.99849 31.733 3.74414 30.8784C4.18163 31.2956 4.61912 31.7127 5.04643 32.1298C5.29061 32.3842 5.16852 32.7098 5.15834 32.9946Z" fill="#21D7A0" fill-opacity="0.2"/>
<path d="M23.4514 42.4668C23.4514 43.0264 23.4514 43.586 23.4514 44.1455C23.2988 43.586 23.2988 43.0264 23.4514 42.4668Z" fill="#21D7A0" fill-opacity="0.2"/>
<path d="M23.4515 32.0994C23.4515 32.6589 23.4515 33.2083 23.4616 33.7679C23.2887 33.2083 23.2989 32.6589 23.4515 32.0994Z" fill="#21D7A0" fill-opacity="0.2"/>
<path d="M4.47671 38.1632C4.33427 38.1632 4.20201 38.1632 4.05957 38.1632C4.19183 38.0716 4.33427 38.0716 4.47671 38.1632Z" fill="#21D7A0" fill-opacity="0.2"/>
<path d="M1.81099 40.2793C1.83134 40.3607 1.83134 40.4421 1.76012 40.5031C1.72959 40.4217 1.74994 40.3403 1.81099 40.2793Z" fill="#21D7A0" fill-opacity="0.2"/>
<path d="M1.75002 50.1482C1.78054 50.1787 1.80089 50.1991 1.83141 50.2296C1.76019 50.2398 1.73984 50.2194 1.75002 50.1482Z" fill="#21D7A0" fill-opacity="0.2"/>
<path d="M26.1882 13.898C26.7783 13.8369 27.3684 13.9386 27.9585 13.8369C29.3828 13.5927 30.3901 12.4837 30.329 11.2018C30.2578 9.72656 29.1387 8.66845 27.5922 8.6481C25.9745 8.62775 24.3568 8.63793 22.7391 8.62775C22.5458 8.22079 22.4543 7.81382 22.5967 7.37633C22.6781 7.11181 22.5865 6.99989 22.3118 7.01007C22.0168 7.02024 21.7116 7.01007 21.4165 7.01007C21.5996 6.86763 21.8031 6.9185 22.0066 6.9185C28.9962 6.9185 35.9757 6.92867 42.9653 6.92867C43.2095 6.92867 43.4435 6.93885 43.6571 7.04059C44.0336 7.22372 44.2269 7.52895 44.1455 7.94609C44.0539 8.40392 43.7589 8.6481 43.2807 8.6481C42.1514 8.65827 41.0119 8.6481 39.8825 8.65828C39.1602 8.66845 38.4276 8.59723 37.7053 8.71932C36.3318 8.9635 35.4365 10.0928 35.528 11.507C35.6094 12.7686 36.6879 13.8166 38.0309 13.8267C41.6121 13.8573 45.2036 13.8369 48.7849 13.8471C49.0596 13.8471 49.3241 13.8369 49.5887 13.9183C49.9855 14.0404 50.2296 14.3151 50.2195 14.7322C50.2093 15.1494 49.9956 15.4241 49.5887 15.5563C49.3852 15.6174 49.1919 15.6174 48.9884 15.6174C41.1747 15.6174 33.3609 15.6276 25.5472 15.6276C25.3539 15.6276 25.1402 15.6886 24.9571 15.5462C25.3335 15.5462 25.7202 15.5462 26.1678 15.5462C25.9236 14.9459 25.9135 14.4168 26.1882 13.898Z" fill="#21D7A0" fill-opacity="0.2"/>
<path d="M41.2156 10.3777C41.9888 10.3777 42.6806 10.3981 43.3623 10.3777C44.6035 10.3472 45.621 9.49259 45.855 8.32257C46.0991 7.13219 45.4582 5.9113 44.3187 5.42294C43.9219 5.24998 43.5047 5.19911 43.0774 5.19911C42.1618 5.19911 41.2563 5.19911 40.3406 5.18894C40.3101 5.18894 40.2795 5.16859 40.249 5.15841C40.6153 3.35759 42.8536 1.77043 45.0614 1.73991C47.3506 1.70938 49.4973 3.40846 50.0772 5.71799C50.6775 8.12926 49.5278 10.4897 47.1674 11.6699C45.2649 12.6059 42.5992 12.0666 41.2156 10.3777Z" fill="#21D7A0" fill-opacity="0.2"/>
<path d="M21.4165 6.99985C21.7115 6.99985 22.0167 7.01003 22.3118 6.99985C22.5865 6.98968 22.678 7.11177 22.5967 7.36612C22.4542 7.80361 22.5458 8.22075 22.7391 8.61754C22.4033 8.62771 22.0676 8.62772 21.742 8.63789C21.2638 8.63789 20.9179 8.43441 20.8365 7.95622C20.745 7.49839 20.9383 7.15247 21.4165 6.99985Z" fill="#FEFFFF"/>
<path d="M26.1882 13.8978C25.9135 14.4167 25.9237 14.9457 26.1577 15.5358C25.71 15.5358 25.3336 15.5358 24.947 15.5358C24.4484 15.3832 24.2043 15.0576 24.2551 14.6405C24.3162 14.203 24.6316 13.908 25.1199 13.8876C25.4862 13.8774 25.8423 13.8978 26.1882 13.8978Z" fill="#FEFFFF"/>
</svg>
