<svg width="13" height="11" viewBox="0 0 13 11" xmlns="http://www.w3.org/2000/svg">
<path d="M11.8009 0.639648C11.7604 0.639648 11.7142 0.645591 11.6737 0.66342L0.499838 5.03145C0.181905 5.15625 0.193466 5.61385 0.511399 5.72676L3.10111 6.62414L4.66187 9.83924L4.66765 9.84519C4.69655 9.90462 4.75436 9.94027 4.81794 9.94027C4.85263 9.94027 4.89309 9.92839 4.92777 9.89867L6.39027 8.62095L4.75436 7.34917L4.88153 9.02507L3.70807 6.52311L9.95111 2.66617L4.75436 7.34323L8.80077 10.4989C8.93373 10.6059 9.0898 10.6534 9.24588 10.6534C9.56381 10.6534 9.87597 10.4395 9.96268 10.077L12.1477 1.08537C12.2055 0.859535 12.0206 0.639648 11.8009 0.639648Z"/>
</svg>
