<svg width="13" height="13" viewBox="0 0 13 13" xmlns="http://www.w3.org/2000/svg">
<path fill-rule="evenodd" clip-rule="evenodd" d="M9 2H3C1.89543 2 1 2.89543 1 4V10C1 11.1046 1.89543 12 3 12H9C10.1046 12 11 11.1046 11 10V4C11 2.89543 10.1046 2 9 2ZM3 1C1.34315 1 0 2.34315 0 4V10C0 11.6569 1.34315 13 3 13H9C10.6569 13 12 11.6569 12 10V4C12 2.34315 10.6569 1 9 1H3Z"/>
<path d="M9.75 7C9.75 9.07107 8.07107 10.75 6 10.75C3.92893 10.75 2.25 9.07107 2.25 7C2.25 4.92893 3.92893 3.25 6 3.25C8.07107 3.25 9.75 4.92893 9.75 7Z"/>
<path fill-rule="evenodd" clip-rule="evenodd" d="M6 9.75C7.51878 9.75 8.75 8.51878 8.75 7C8.75 5.48122 7.51878 4.25 6 4.25C4.48122 4.25 3.25 5.48122 3.25 7C3.25 8.51878 4.48122 9.75 6 9.75ZM6 10.75C8.07107 10.75 9.75 9.07107 9.75 7C9.75 4.92893 8.07107 3.25 6 3.25C3.92893 3.25 2.25 4.92893 2.25 7C2.25 9.07107 3.92893 10.75 6 10.75Z"/>
<path d="M13 2C13 3.10457 12.1046 4 11 4C9.89543 4 9 3.10457 9 2C9 0.895431 9.89543 0 11 0C12.1046 0 13 0.895431 13 2Z"/>
<path fill-rule="evenodd" clip-rule="evenodd" d="M11 3C11.5523 3 12 2.55228 12 2C12 1.44772 11.5523 1 11 1C10.4477 1 10 1.44772 10 2C10 2.55228 10.4477 3 11 3ZM11 4C12.1046 4 13 3.10457 13 2C13 0.895431 12.1046 0 11 0C9.89543 0 9 0.895431 9 2C9 3.10457 9.89543 4 11 4Z"/>
</svg>
