<svg width="12" height="9" viewBox="0 0 12 9" xmlns="http://www.w3.org/2000/svg">
<path d="M8.86041 4.56701C9.0726 4.67258 9.27806 4.79464 9.47533 4.93086C9.83134 5.17688 10.154 5.46106 10.4463 5.77994C10.8359 6.20509 11.1556 6.67797 11.4069 7.19729C11.5658 7.52566 11.6916 7.86647 11.7912 8.21729C11.7989 8.24422 11.7963 8.25441 11.7641 8.25441C11.0917 8.25355 10.4192 8.25346 9.74675 8.25467C9.71106 8.25476 9.70485 8.23611 9.6964 8.21013C9.54896 7.75779 9.33764 7.33826 9.04846 6.9599C8.60951 6.38567 8.05692 5.96899 7.36293 5.75042C7.16833 5.68913 6.96908 5.6502 6.76689 5.62516C6.74292 5.62223 6.73568 5.62974 6.73775 5.65218C6.73878 5.66358 6.73792 5.67514 6.73792 5.68671C6.73792 6.52397 6.73792 7.3613 6.73792 8.19856C6.73792 8.25372 6.73792 8.25355 6.68205 8.25372C6.41339 8.25493 6.14481 8.25035 5.87693 8.22903C4.86099 8.14797 3.90291 7.87968 3.03079 7.33826C2.62004 7.08326 2.24998 6.77784 1.91993 6.424C1.2788 5.73687 0.836571 4.93311 0.532213 4.04898C0.368136 3.5723 0.249756 3.08405 0.167674 2.58665C0.112062 2.24921 0.0723141 1.91022 0.0468791 1.56924C0.0313594 1.36129 0.0244618 1.15299 0.0142016 0.944777C0.0122185 0.904723 0.0197197 0.891516 0.0636058 0.891602C0.704482 0.893242 1.34536 0.892983 1.98615 0.892034C2.0196 0.891947 2.03193 0.896868 2.03262 0.935195C2.03797 1.23422 2.05754 1.53238 2.09047 1.82977C2.14979 2.36584 2.25507 2.89181 2.42734 3.40345C2.57719 3.84853 2.77455 4.27057 3.04045 4.65877C3.34998 5.11067 3.72866 5.48946 4.21106 5.75672C4.38445 5.8528 4.56646 5.92859 4.75813 5.98082C4.79615 5.99118 4.80452 5.98392 4.80434 5.94594C4.80322 5.63664 4.80374 5.32735 4.80374 5.01805C4.80374 3.66285 4.80374 2.30766 4.80383 0.95246C4.80383 0.881934 4.79702 0.893069 4.86306 0.892983C5.47091 0.892638 6.07868 0.893242 6.68653 0.891861C6.72732 0.891775 6.73887 0.90058 6.73878 0.943137C6.7374 1.87966 6.73775 2.81628 6.73775 3.7528C6.73775 3.80727 6.73758 3.80572 6.79276 3.79734C7.20636 3.73407 7.56331 3.54571 7.88939 3.29339C8.39059 2.90562 8.77083 2.41668 9.06949 1.86119C9.23012 1.56242 9.35764 1.2501 9.4486 0.92311C9.4549 0.900493 9.4643 0.89212 9.48939 0.892206C10.1029 0.893069 10.7165 0.892897 11.3301 0.892983C11.3385 0.892983 11.3469 0.894537 11.3653 0.89635C11.0439 2.47392 10.178 3.67217 8.86041 4.56701Z"/>
</svg>
